<?xml version="1.0" encoding="UTF-8" standalone="no"?>
<svg id="svg5393" xmlns:rdf="http://www.w3.org/1999/02/22-rdf-syntax-ns#" xmlns="http://www.w3.org/2000/svg" height="332.46mm" width="206.01mm" version="1.1" xmlns:cc="http://creativecommons.org/ns#" xmlns:dc="http://purl.org/dc/elements/1.1/" viewBox="0 0 729.97258 1177.9999">
<g id="layer1" transform="translate(4466.9 5121.5)">
<g id="g4310" transform="matrix(8.0942 0 0 8.0942 31689 27976)" clip-rule="evenodd" fill="#ffdd02">
<g fill-rule="evenodd">
<polygon id="polygon488" style="image-rendering:optimizeQuality;shape-rendering:geometricPrecision" transform="matrix(3.5433 0 0 3.5433 -5320 -4392.2)" points="245.75 115.98 246.76 115.23 246.66 116.44 247.52 117.42 246.52 117.56 246.07 118.97 245.39 117.87 244.19 117.87 244.88 116.92 244.67 115.58" class="fil3"/>
<polygon id="polygon490" style="image-rendering:optimizeQuality;shape-rendering:geometricPrecision" transform="matrix(3.5433 0 0 3.5433 -5320 -4392.2)" points="255.63 115.45 256.67 115.48 256.03 116.33 256.41 117.26 255.52 116.96 254.78 117.64 254.88 116.68 253.92 116.06 254.78 115.72 255.15 114.81" class="fil3"/>
<polygon id="polygon492" style="image-rendering:optimizeQuality;shape-rendering:geometricPrecision" transform="matrix(3.5433 0 0 3.5433 -5320 -4392.2)" points="257.05 123.93 257.93 123.15 257.91 124.3 258.69 125.01 257.59 125.37 257.35 126.61 256.65 125.45 255.73 125.55 256.33 124.64 256.11 123.42" class="fil3"/>
<polygon id="polygon494" style="image-rendering:optimizeQuality;shape-rendering:geometricPrecision" transform="matrix(3.5433 0 0 3.5433 -5320 -4392.2)" points="242.16 98.186 243.28 97.435 243.2 98.762 244.19 99.561 243.14 99.833 242.61 101.24 242.02 100.14 240.77 100.17 241.43 99.146 241.19 97.771" class="fil3"/>
<polygon id="polygon496" style="image-rendering:optimizeQuality;shape-rendering:geometricPrecision" transform="matrix(3.5433 0 0 3.5433 -5320 -4392.2)" points="250.45 103.57 251.38 102.85 251.34 104.06 252.38 104.96 251.15 105.2 250.85 106.4 250.22 105.37 248.99 105.44 249.62 104.42 249.43 103.21" class="fil3"/>
<polygon id="polygon498" style="image-rendering:optimizeQuality;shape-rendering:geometricPrecision" transform="matrix(3.5433 0 0 3.5433 -5320 -4392.2)" points="257.11 105.52 258.12 104.88 258.02 106.1 259 106.75 257.89 107.06 257.45 108.33 257.1 107.28 255.74 107.34 256.57 106.37 256.21 105.08" class="fil3"/>
<polygon id="polygon500" style="image-rendering:optimizeQuality;shape-rendering:geometricPrecision" transform="matrix(3.5433 0 0 3.5433 -5320 -4392.2)" points="261.19 100.15 262.01 100.18 261.46 100.86 261.78 101.86 261.05 101.46 260.34 102.02 260.37 101.23 259.48 100.61 260.39 100.32 260.63 99.417" class="fil3"/>
<polygon id="polygon502" style="image-rendering:optimizeQuality;shape-rendering:geometricPrecision" transform="matrix(3.5433 0 0 3.5433 -5320 -4392.2)" points="261.3 86.323 262.3 86.283 261.8 87.154 261.89 88.138 261.14 87.634 260.56 88.346 260.55 87.378 259.75 86.683 260.5 86.435 260.83 85.54" class="fil3"/>
<polygon id="polygon504" style="image-rendering:optimizeQuality;shape-rendering:geometricPrecision" transform="matrix(3.5433 0 0 3.5433 -5320 -4392.2)" points="264.27 91.767 265.35 91.008 265.33 92.191 266.23 92.982 265.08 93.358 264.73 94.605 264.14 93.75 262.86 93.574 263.54 92.734 263.45 91.327" class="fil3"/>
</g>
<path id="path506" style="image-rendering:optimizeQuality;shape-rendering:geometricPrecision" d="m-4393.6-4082.2c-0.2849-0.4982-1.0506-0.061-0.7647 0.4393l0.4419 0.7675c0.2848 0.4986 1.0506 0.061 0.7646-0.4393l-0.4418-0.7675zm-20.038 103.41c-0.1074-0.5726-0.9776-0.4103-0.872 0.1523l0.1555 0.872c0.1074 0.5723 0.9776 0.4107 0.872-0.1523l-0.1555-0.872zm0.467 2.6163c-0.107-0.5726-0.9772-0.4103-0.872 0.1524l0.1559 0.872c0.107 0.5723 0.9772 0.4103 0.872-0.1523l-0.1559-0.8721zm0.4674 2.6161c-0.1074-0.5723-0.9776-0.4103-0.872 0.1523l0.1555 0.872c0.1074 0.5723 0.9776 0.4107 0.872-0.1523l-0.1555-0.872zm0.467 2.6163c-0.107-0.5725-0.9773-0.4103-0.872 0.1524l0.1559 0.872c0.107 0.5723 0.9772 0.4103 0.872-0.1523l-0.1559-0.8721zm0.4673 2.6161c-0.1073-0.5726-0.9776-0.4103-0.872 0.1523l0.1556 0.872c0.1073 0.5723 0.9776 0.4104 0.872-0.1523l-0.1556-0.872zm0.467 2.616c-0.107-0.5726-0.9772-0.4103-0.872 0.1524l0.1559 0.872c0.107 0.5722 0.9773 0.4103 0.872-0.1524l-0.1559-0.872zm0.4671 2.616c-0.1071-0.5726-0.9773-0.4103-0.8721 0.1524l0.1556 0.872c0.1074 0.5722 0.9776 0.4103 0.872-0.1524l-0.1555-0.872zm0.467 2.616c-0.1074-0.5722-0.9776-0.4106-0.872 0.1524l0.1555 0.872c0.107 0.5719 0.9772 0.4107 0.872-0.1523l-0.1555-0.8721zm0.4666 2.6161c-0.107-0.5719-0.9776-0.4111-0.872 0.1523l0.1556 0.872c0.1073 0.5719 0.9776 0.4107 0.872-0.1523l-0.1556-0.872zm0.467 2.616c-0.107-0.5715-0.9776-0.4114-0.872 0.1524l0.1556 0.872c0.107 0.5715 0.9776 0.411 0.872-0.1524l-0.1556-0.872zm0.4667 2.616c-0.107-0.5715-0.9776-0.4114-0.872 0.1524l0.1555 0.872c0.1074 0.5715 0.9776 0.411 0.872-0.1524l-0.1555-0.872zm-8.0674-26.539c0.5839-0.037 0.5339-0.9177-0.032-0.8822l-0.641 0.025c-0.5839 0.036-0.5343 0.9173 0.032 0.8822l0.641-0.025zm-2.4116 0.087c0.5839-0.037 0.534-0.9173-0.032-0.8822l-0.8855 0.032c-0.5835 0.037-0.5343 0.9177 0.032 0.8822l0.8855-0.032zm-2.6561 0.096c0.584-0.036 0.5344-0.9177-0.032-0.8822l-0.8851 0.032c-0.5839 0.036-0.5343 0.9173 0.032 0.8822l0.8851-0.032zm-2.6557 0.096c0.584-0.037 0.534-0.9173-0.032-0.8822l-0.8854 0.032c-0.5836 0.037-0.5344 0.9177 0.032 0.8822l0.8854-0.032zm-2.656 0.096c0.5839-0.037 0.5343-0.9173-0.032-0.8822l-0.8851 0.032c-0.584 0.037-0.5344 0.9177 0.032 0.8822l0.8852-0.032zm-2.6557 0.096c0.5839-0.037 0.5339-0.9173-0.032-0.8822l-0.8855 0.032c-0.5836 0.037-0.5343 0.9177 0.032 0.8822l0.8855-0.032zm-2.6561 0.096c0.5839-0.037 0.5343-0.9173-0.032-0.8822l-0.8851 0.032c-0.584 0.037-0.5343 0.9177 0.032 0.8822l0.8851-0.032zm-2.6557 0.096c0.5839-0.037 0.534-0.9173-0.032-0.8822l-0.8851 0.032c-0.584 0.037-0.5344 0.9177 0.032 0.8822l0.8851-0.032zm-2.6557 0.096c0.5839-0.036 0.5343-0.9173-0.032-0.8822l-0.8851 0.032c-0.5836 0.036-0.5344 0.9177 0.032 0.8822l0.8851-0.032zm-2.6554 0.096c0.584-0.037 0.534-0.9173-0.032-0.8822l-0.8851 0.032c-0.5839 0.036-0.5343 0.9177 0.032 0.8822l0.8851-0.032zm-2.6557 0.096c0.5839-0.037 0.5343-0.9173-0.032-0.8822l-0.8851 0.032c-0.5836 0.037-0.5343 0.9177 0.032 0.8822l0.8851-0.032zm-2.6553 0.096c0.5839-0.037 0.5339-0.9173-0.032-0.8822l-0.8852 0.032c-0.5839 0.037-0.5343 0.9177 0.032 0.8822l0.8852-0.032zm37.532-33.227c0.1067-0.5694-0.7628-0.7345-0.8684-0.1697l-0.1698 0.8695c-0.107 0.5698 0.7626 0.7349 0.8685 0.1697l0.1697-0.8695zm-0.5091 2.6086c0.1066-0.5694-0.7629-0.7345-0.8685-0.1697l-0.1697 0.8695c-0.107 0.5698 0.7625 0.7349 0.8684 0.1697l0.1698-0.8695zm-0.5092 2.6086c0.1066-0.5694-0.7629-0.7346-0.8685-0.1698l-0.1697 0.8696c-0.107 0.5697 0.7625 0.7345 0.8685 0.1697l0.1697-0.8695zm-0.5092 2.6082c0.1067-0.5701-0.7629-0.7338-0.8684-0.1697l-0.1698 0.8695c-0.107 0.5698 0.7625 0.7342 0.8685 0.1697l0.1697-0.8695zm-0.5092 2.6082c0.1067-0.5704-0.7628-0.7334-0.8684-0.1697l-0.1697 0.8695c-0.1071 0.5705 0.7625 0.7339 0.8684 0.1698l0.1697-0.8696zm-0.5091 2.6083c0.1066-0.5705-0.7629-0.7335-0.8685-0.1698l-0.1697 0.8696c-0.107 0.5704 0.7625 0.7338 0.8684 0.1697l0.1698-0.8695zm-0.5092 2.6082c0.1067-0.5705-0.7629-0.7335-0.8685-0.1697l-0.1697 0.8695c-0.107 0.5705 0.7625 0.7338 0.8685 0.1697l0.1697-0.8695zm-0.5092 2.6082c0.1067-0.5705-0.7629-0.7335-0.8684-0.1697l-0.1698 0.8695c-0.107 0.5705 0.7626 0.7338 0.8685 0.1697l0.1697-0.8695zm-0.5091 2.6082c0.1066-0.5704-0.7629-0.7334-0.8685-0.1697l-0.1697 0.8695c-0.107 0.5705 0.7625 0.7339 0.8684 0.1698l0.1698-0.8696zm-0.5092 2.6083c0.1066-0.5709-0.7629-0.7335-0.8685-0.1698l-0.1697 0.8692c-0.107 0.5705 0.7625 0.7338 0.8685 0.1697l0.1697-0.8691zm-0.5092 2.6078c0.1067-0.5704-0.7629-0.7334-0.8685-0.1697l-0.1697 0.8695c-0.1066 0.5705 0.7629 0.7339 0.8685 0.1698l0.1697-0.8696zm-0.5088 2.6083c0.1066-0.5709-0.7629-0.7335-0.8685-0.1698l-0.1697 0.8692c-0.1067 0.5705 0.7629 0.7338 0.8685 0.1697l0.1697-0.8691zm3.6117-32.71c0.5676 0.1417 0.7841-0.7168 0.2317-0.8547l-0.855-0.2324c-0.5669-0.1417-0.7852 0.7164-0.2317 0.8546l0.855 0.2325zm-2.5647-0.697c0.5673 0.1417 0.7856-0.7161 0.2318-0.8546l-0.8547-0.2321c-0.5669-0.1418-0.7855 0.7161-0.2317 0.8546l0.8546 0.2321zm-2.5643-0.6966c0.567 0.1417 0.7852-0.7165 0.2318-0.8546l-0.855-0.2325c-0.567-0.1417-0.7852 0.7165-0.2318 0.8547l0.855 0.2324zm-2.5646-0.697c0.5673 0.1418 0.7855-0.7161 0.2317-0.8546l-0.8546-0.2321c-0.5669-0.1417-0.7856 0.7161-0.2317 0.8546l0.8546 0.2321zm-2.5643-0.6966c0.5669 0.1417 0.7852-0.7164 0.2317-0.8546l-0.855-0.2325c-0.5669-0.1417-0.7852 0.7165-0.2317 0.8547l0.855 0.2324zm-2.5646-0.697c0.5672 0.1418 0.7855-0.7161 0.2317-0.8546l-0.8547-0.2321c-0.5669-0.1417-0.7855 0.7161-0.2317 0.8547l0.8547 0.232zm-2.5643-0.6966c0.5669 0.1418 0.7852-0.7164 0.2317-0.855l-0.855-0.2321c-0.5669-0.1417-0.7852 0.7165-0.2317 0.8547l0.855 0.2324zm-2.5647-0.6969c0.5673 0.1417 0.7856-0.7165 0.2318-0.8547l-0.8547-0.2324c-0.5669-0.1418-0.7855 0.7164-0.2317 0.8546l0.8546 0.2325zm-5.895-2.1005c0.483 0.3104 0.9595-0.4319 0.4741-0.7441l-0.7455-0.4759c-0.4826-0.31-0.9595 0.4323-0.4741 0.7441l0.7455 0.4759zm-2.239-1.429c0.4826 0.3104 0.9595-0.432 0.4741-0.7441l-0.7469-0.4766c-0.4826-0.31-0.9596 0.4323-0.4741 0.7441l0.7469 0.4766zm-2.2404-1.4298c0.4829 0.3104 0.9595-0.4319 0.4741-0.744l-0.7466-0.4766c-0.4826-0.3101-0.9595 0.4323-0.4741 0.7441l0.7466 0.4765zm-2.2401-1.4297c0.4826 0.3104 0.9595-0.4319 0.4741-0.7441l-0.7469-0.4765c-0.4826-0.3101-0.9596 0.4322-0.4741 0.7441l0.7469 0.4765zm-2.2404-1.4297c0.4829 0.3104 0.9595-0.4319 0.4741-0.7441l-0.7466-0.4766c-0.4826-0.31-0.9595 0.4323-0.4741 0.7441l0.7466 0.4766zm-2.2401-1.4297c0.4826 0.3104 0.9595-0.432 0.4741-0.7441l-0.747-0.4766c-0.4826-0.31-0.9595 0.4323-0.474 0.7441l0.7469 0.4766zm-2.2405-1.4297c0.483 0.3103 0.9596-0.432 0.4741-0.7441l-0.7465-0.4766c-0.4826-0.3101-0.9596 0.4323-0.4741 0.7441l0.7465 0.4766zm-2.24-1.4298c0.4826 0.3104 0.9595-0.4319 0.4741-0.7441l-0.747-0.4765c-0.4826-0.3101-0.9595 0.4322-0.4741 0.7441l0.747 0.4765zm-2.2405-1.4297c0.483 0.3104 0.9596-0.4319 0.4741-0.7441l-0.7465-0.4766c-0.4826-0.31-0.9596 0.4323-0.4741 0.7441l0.7465 0.4766zm-2.2397-1.4297c0.4826 0.3104 0.9595-0.432 0.4741-0.7441l-0.7466-0.4762c-0.4826-0.3104-0.9595 0.4319-0.4741 0.7441l0.7466 0.4762zm-2.2401-1.4294c0.483 0.3104 0.9596-0.4319 0.4741-0.7441l-0.7465-0.4762c-0.4826-0.3104-0.9596 0.4319-0.4741 0.7441l0.7465 0.4762zm-2.2397-1.4294c0.4826 0.3104 0.9595-0.4319 0.4741-0.7441l-0.7466-0.4762c-0.4826-0.3104-0.9595 0.432-0.4741 0.7441l0.7466 0.4762zm61.894 6.0116c0.3097-0.4819-0.41-0.9585-0.7406-0.4808l-0.4826 0.7427c-0.31 0.4819 0.41 0.9584 0.7406 0.4808l0.4826-0.7427zm-1.4478 2.2288c0.3097-0.4819-0.41-0.9585-0.7405-0.4809l-0.4826 0.7427c-0.3097 0.4819 0.4099 0.9585 0.7405 0.4808l0.4826-0.7426zm-1.4474 2.2287c0.3096-0.4819-0.41-0.9585-0.7406-0.4808l-0.4826 0.7426c-0.3097 0.4819 0.41 0.9585 0.7406 0.4809l0.4826-0.7427zm-1.4475 2.2284c0.3097-0.4816-0.4099-0.9585-0.7405-0.4808l-0.4826 0.743c-0.3097 0.4819 0.4099 0.9584 0.7405 0.4808l0.4826-0.743zm-1.4474 2.2287c0.3097-0.4819-0.41-0.9584-0.7406-0.4808l-0.4826 0.7427c-0.3097 0.4819 0.41 0.9584 0.7406 0.4808l0.4826-0.7427zm-1.4475 2.2284c0.3097-0.4815-0.4099-0.9585-0.7405-0.4808l-0.4826 0.743c-0.3097 0.4819 0.4099 0.9585 0.7405 0.4808l0.4826-0.743zm-1.4474 2.2287c0.3097-0.4815-0.41-0.9584-0.7406-0.4808l-0.4822 0.7431c-0.31 0.4818 0.41 0.9584 0.7406 0.4808l0.4822-0.7431zm10.109-17.353c-0.2409 0.5163 0.5598 0.8876 0.8061 0.36l0.3593-0.7994c0.2409-0.5159-0.5598-0.8876-0.8061-0.36l-0.3593 0.7994zm1.0857-2.4155c-0.2406 0.5163 0.5602 0.8876 0.8061 0.36l0.3632-0.8082c0.2409-0.5159-0.5599-0.8876-0.8061-0.36l-0.3632 0.8082zm1.0895-2.4243c-0.2405 0.5163 0.5602 0.8876 0.8061 0.36l0.3632-0.8079c0.2406-0.5159-0.5602-0.8876-0.8061-0.36l-0.3632 0.8079zm1.0893-2.424c-0.2406 0.5163 0.5602 0.8876 0.8061 0.36l0.3631-0.8082c0.2406-0.5159-0.5602-0.8876-0.8061-0.36l-0.3631 0.8082zm1.0892-2.4243c-0.2406 0.5163 0.5602 0.8876 0.8061 0.36l0.3632-0.8079c0.2405-0.5159-0.5602-0.8876-0.8061-0.36l-0.3632 0.8079zm1.0892-2.424c-0.2406 0.5163 0.5602 0.8876 0.8061 0.36l0.3632-0.8082c0.2406-0.5159-0.5602-0.8876-0.8061-0.36l-0.3632 0.8082zm1.0892-2.424c-0.2406 0.5163 0.5602 0.8876 0.8061 0.36l0.3632-0.8078c0.2406-0.5159-0.5602-0.8876-0.8061-0.36l-0.3632 0.8078zm1.0892-2.4239c-0.2406 0.5162 0.5602 0.8876 0.8061 0.36l0.3632-0.8079c0.2406-0.5159-0.5602-0.8876-0.8061-0.36l-0.3632 0.8079zm1.0892-2.4237c-0.2406 0.5163 0.5602 0.8876 0.8061 0.36l0.3632-0.8078c0.2406-0.5159-0.5602-0.8876-0.8061-0.36l-0.3632 0.8078zm1.0892-2.4239c-0.2409 0.5162 0.5599 0.8876 0.8061 0.36l0.3629-0.8079c0.2409-0.5159-0.5599-0.8876-0.8061-0.36l-0.3629 0.8079zm1.0889-2.4237c-0.2406 0.5163 0.5602 0.8876 0.8061 0.36l0.3632-0.8078c0.2406-0.5159-0.5602-0.8876-0.8061-0.36l-0.3632 0.8078zm-1.2242-6.8977c0.2849 0.4985 1.0502 0.061 0.7646-0.4394l-0.4422-0.7675c-0.2849-0.4981-1.0506-0.061-0.7646 0.4394l0.4422 0.7675zm-1.3266-2.3028c0.2848 0.4985 1.0502 0.061 0.7646-0.4394l-0.4422-0.7678c-0.2845-0.4982-1.0506-0.061-0.7646 0.4394l0.4422 0.7678zm-1.3263-2.3032c0.2849 0.4986 1.0502 0.061 0.7646-0.4393l-0.4422-0.7675c-0.2845-0.4982-1.0505-0.061-0.7646 0.4394l0.4422 0.7674zm-1.3263-2.3027c0.2849 0.4985 1.0503 0.06 0.7647-0.4394l-0.4422-0.7679c-0.2845-0.4981-1.0506-0.061-0.7647 0.4394l0.4422 0.7679zm-1.3262-2.3028c0.2849 0.4985 1.0502 0.061 0.7646-0.4394l-0.4422-0.7675c-0.2845-0.4982-1.0506-0.061-0.7646 0.4394l0.4422 0.7675zm-1.3263-2.3028c0.2849 0.4985 1.0503 0.061 0.7647-0.4394l-0.4422-0.7675c-0.2846-0.4982-1.0506-0.061-0.7647 0.4394l0.4422 0.7675z" class="fil2"/>
</g>
</g>
</svg>
