<?xml version="1.0" encoding="UTF-8" standalone="no"?>
<svg id="svg5393" xmlns:rdf="http://www.w3.org/1999/02/22-rdf-syntax-ns#" xmlns="http://www.w3.org/2000/svg" height="332.46mm" width="177.08mm" version="1.1" xmlns:cc="http://creativecommons.org/ns#" xmlns:dc="http://purl.org/dc/elements/1.1/" viewBox="0 0 627.4345 1177.9999">
<g id="layer1" transform="translate(2198.6 1475.2)">
<g id="g4175" transform="matrix(7.3634 0 0 7.3634 13991 1891)" clip-rule="evenodd" fill="#ffdd02">
<g fill-rule="evenodd">
<polygon id="polygon386" style="image-rendering:optimizeQuality;shape-rendering:geometricPrecision" transform="matrix(3.5433 0 0 3.5433 -3054.3 -494.15)" points="253.56 10.954 254.53 11.146 255.34 10.443 255.41 11.418 256.28 12.089 255.31 12.505 255.2 13.496 254.58 12.745 253.49 12.921 253.92 11.994" class="fil3"/>
<polygon id="polygon388" style="image-rendering:optimizeQuality;shape-rendering:geometricPrecision" transform="matrix(3.5433 0 0 3.5433 -3054.3 -494.15)" points="263.69 14.28 264.52 13.384 264.52 14.472 265.52 15.111 264.57 15.639 264.36 16.822 263.59 15.895 262.48 16.118 263.13 15.079 262.65 13.976" class="fil3"/>
<polygon id="polygon390" style="image-rendering:optimizeQuality;shape-rendering:geometricPrecision" transform="matrix(3.5433 0 0 3.5433 -3054.3 -494.15)" points="256.93 24.256 257.83 24.464 258.58 23.728 258.58 24.8 259.47 25.183 258.65 25.743 258.58 26.654 257.99 25.911 256.91 26.031 257.39 25.287" class="fil3"/>
<polygon id="polygon392" style="image-rendering:optimizeQuality;shape-rendering:geometricPrecision" transform="matrix(3.5433 0 0 3.5433 -3054.3 -494.15)" points="248.78 27.462 249.61 27.494 250.23 26.95 250.39 27.901 251.19 28.237 250.43 28.709 250.25 29.788 249.66 29.092 248.69 29.148 249.25 28.389" class="fil3"/>
<polygon id="polygon394" style="image-rendering:optimizeQuality;shape-rendering:geometricPrecision" transform="matrix(3.5433 0 0 3.5433 -3054.3 -494.15)" points="253.53 28.789 253.9 29.284 254.42 29.172 254.19 29.724 254.49 30.284 253.9 30.18 253.64 30.595 253.43 30.068 252.87 29.62 253.44 29.5" class="fil3"/>
<polygon id="polygon396" style="image-rendering:optimizeQuality;shape-rendering:geometricPrecision" transform="matrix(3.5433 0 0 3.5433 -3054.3 -494.15)" points="251.3 29.532 251.77 30.028 252.3 29.828 252.1 30.467 252.35 30.995 251.76 30.907 251.32 31.347 251.32 30.715 250.78 30.459 251.23 30.148" class="fil3"/>
<polygon id="polygon398" style="image-rendering:optimizeQuality;shape-rendering:geometricPrecision" transform="matrix(3.5433 0 0 3.5433 -3054.3 -494.15)" points="242.46 52.771 243.12 53.482 243.99 53.322 243.56 54.058 244.07 55.089 243.12 54.745 242.41 55.592 242.29 54.569 241.48 54.09 242.19 53.682" class="fil3"/>
<polygon id="polygon400" style="image-rendering:optimizeQuality;shape-rendering:geometricPrecision" transform="matrix(3.5433 0 0 3.5433 -3054.3 -494.15)" points="244 51.604 244.8 52.131 244.83 53.026 245.44 52.371 246.4 52.547 245.97 51.684 246.27 50.796 245.56 51.18 244.88 50.404 244.72 51.196" class="fil3"/>
<polygon id="polygon402" style="image-rendering:optimizeQuality;shape-rendering:geometricPrecision" transform="matrix(3.5433 0 0 3.5433 -3054.3 -494.15)" points="246.08 39.429 246.97 39.493 247.74 39.005 247.93 39.86 248.74 40.42 247.9 40.948 247.7 41.923 247.08 41.259 245.95 41.339 246.4 40.516" class="fil3"/>
<polygon id="polygon404" style="image-rendering:optimizeQuality;shape-rendering:geometricPrecision" transform="matrix(3.5433 0 0 3.5433 -3054.3 -494.15)" points="251.84 32.738 252.26 32.418 252.35 31.882 252.81 32.25 253.31 32.114 253.12 32.61 253.35 33.273 252.81 33.169 252.43 33.633 252.34 33.057" class="fil3"/>
<polygon id="polygon406" style="image-rendering:optimizeQuality;shape-rendering:geometricPrecision" transform="matrix(3.5433 0 0 3.5433 -3054.3 -494.15)" points="249.24 32.93 249.79 33.561 250.57 33.369 250.33 34.089 250.68 35.056 249.89 34.776 249.29 35.56 249.17 34.752 248.19 34.288 249.15 33.817" class="fil3"/>
<polygon id="polygon408" style="image-rendering:optimizeQuality;shape-rendering:geometricPrecision" transform="matrix(3.5433 0 0 3.5433 -3054.3 -494.15)" points="248.87 30.475 249.28 30.931 249.93 30.715 249.64 31.315 250.04 31.786 249.46 31.634 248.9 32.074 248.97 31.475 248.41 31.307 248.86 31.011" class="fil3"/>
</g>
<path id="path410" style="image-rendering:optimizeQuality;shape-rendering:geometricPrecision" d="m-2119.7-438.11c0.2888-0.50527-0.4776-0.94641-0.7611-0.45l-0.45 0.76252c-0.2887 0.50528 0.4773 0.94642 0.7611 0.45l0.45-0.76252zm-66.51 130.13c0.4245-0.38906-0.1733-1.0403-0.5985-0.65055l-0.6516 0.60059c-0.4241 0.3887 0.1729 1.0407 0.5985 0.65055l0.6516-0.60059zm-1.9545 1.8011c0.4245-0.38905-0.1733-1.0403-0.5985-0.65055l-0.6512 0.60024c-0.4245 0.38905 0.1729 1.0407 0.5984 0.65055l0.6513-0.60024zm-1.9541 1.8007c0.4245-0.38906-0.1733-1.0403-0.5985-0.65055l-0.6513 0.60023c-0.4241 0.38906 0.173 1.0407 0.5985 0.65056l0.6513-0.60024zm12.405-45.224c0.1056-0.56339-0.765-0.72355-0.872-0.15236l-0.1417 0.80433c-0.1056 0.56338 0.765 0.72389 0.872 0.15236l0.1417-0.80433zm-0.4489 2.5494c0.1056-0.56374-0.765-0.7239-0.872-0.15236l-0.1534 0.87236c-0.1056 0.56338 0.7646 0.72389 0.872 0.15236l0.1534-0.87236zm-0.4606 2.6174c0.1056-0.56339-0.765-0.72355-0.872-0.15236l-0.1535 0.87271c-0.1056 0.56339 0.7647 0.7239 0.872 0.15236l0.1535-0.87271zm-0.4607 2.6174c0.1056-0.56339-0.765-0.72354-0.872-0.15236l-0.1534 0.87236c-0.1056 0.56339 0.765 0.7239 0.872 0.15236l0.1534-0.87236zm-0.4602 2.6174c0.1056-0.56374-0.765-0.7239-0.872-0.15236l-0.1535 0.87236c-0.1056 0.56339 0.7647 0.7239 0.872 0.15236l0.1535-0.87236zm-0.4607 2.6171c0.1056-0.56339-0.765-0.72355-0.872-0.15237l-0.1534 0.87237c-0.1056 0.56338 0.765 0.72389 0.872 0.15236l0.1534-0.87236zm-0.4602 2.6174c0.1056-0.56374-0.765-0.7239-0.872-0.15236l-0.1535 0.87236c-0.1056 0.56338 0.7647 0.7239 0.872 0.15236l0.1535-0.87236zm-0.4607 2.6171c0.1056-0.56338-0.765-0.72354-0.872-0.15236l-0.1534 0.87236c-0.1056 0.56339 0.765 0.7239 0.872 0.15237l0.1534-0.87237zm-0.4602 2.6174c0.1055-0.56374-0.765-0.7239-0.8721-0.15237l-0.1534 0.87237c-0.1056 0.56338 0.765 0.72389 0.872 0.15236l0.1535-0.87236zm-0.4603 2.6171c0.1056-0.56338-0.765-0.72354-0.872-0.15236l-0.1535 0.87236c-0.1055 0.56339 0.765 0.7239 0.8721 0.15236l0.1534-0.87236zm-0.4603 2.6174c0.1056-0.56374-0.765-0.72389-0.872-0.15236l-0.1534 0.87236c-0.1056 0.56339 0.765 0.7239 0.872 0.15237l0.1534-0.87237zm-0.4603 2.6171c0.1056-0.56339-0.765-0.72354-0.872-0.15236l-0.1534 0.87236c-0.1056 0.56339 0.765 0.7239 0.872 0.15236l0.1534-0.87236zm-0.4602 2.6171c0.1055-0.56339-0.765-0.72355-0.8721-0.15237l-0.1534 0.87237c-0.1056 0.56338 0.765 0.72389 0.872 0.15236l0.1535-0.87236zm-0.4603 2.6171c0.1056-0.56338-0.765-0.72354-0.872-0.15236l-0.1535 0.87236c-0.1055 0.56339 0.765 0.7239 0.8721 0.15236l0.1534-0.87236zm-0.4603 2.6171c0.1056-0.56339-0.765-0.72354-0.872-0.15236l-0.1534 0.87236c-0.1056 0.56339 0.765 0.7239 0.872 0.15236l0.1534-0.87236zm13.958-56.961c0.2143-0.53575-0.6063-0.8628-0.82-0.32882l-0.332 0.82134c-0.214 0.53574 0.6063 0.86315 0.8199 0.32881l0.3321-0.82133zm-0.9961 2.464c0.2144-0.53575-0.6062-0.86279-0.8199-0.32882l-0.332 0.82134c-0.214 0.53575 0.6063 0.86315 0.8199 0.32882l0.332-0.82134zm-0.996 2.464c0.2144-0.53575-0.6063-0.8628-0.8199-0.32882l-0.3317 0.82134c-0.2143 0.53575 0.6063 0.86315 0.82 0.32882l0.3316-0.82134zm-0.9957 2.464c0.2144-0.53574-0.6062-0.86279-0.8199-0.32882l-0.3316 0.82134c-0.2144 0.53575 0.6062 0.86315 0.8199 0.32882l0.3316-0.82134zm-0.9956 2.464c0.2143-0.53575-0.6063-0.8628-0.82-0.32882l-0.3316 0.82098c-0.2144 0.53575 0.6063 0.86315 0.8199 0.32882l0.3317-0.82098zm-0.9957 2.4637c0.2144-0.53575-0.6063-0.86279-0.8199-0.32882l-0.3317 0.82099c-0.2143 0.53575 0.6063 0.86315 0.8199 0.32882l0.3317-0.82099zm-0.9957 2.4637c0.2144-0.53574-0.6062-0.86279-0.8199-0.32882l-0.3316 0.82099c-0.2144 0.53575 0.6062 0.86315 0.8199 0.32882l0.3316-0.82099zm16.801-21.982c0.5343-0.21366 0.2069-1.0339-0.3288-0.81992l-0.8217 0.33059c-0.534 0.21366-0.207 1.0343 0.3288 0.81992l0.8217-0.33059zm-2.4655 0.99177c0.5344-0.21366 0.2066-1.0343-0.3288-0.81992l-0.822 0.33023c-0.534 0.21367-0.207 1.0343 0.3288 0.81993l0.822-0.33024zm-2.4657 0.99142c0.5343-0.21366 0.2069-1.0343-0.3289-0.81992l-0.8217 0.33023c-0.5339 0.21366-0.2069 1.0343 0.3289 0.81992l0.8217-0.33023zm-2.4655 0.99141c0.5343-0.21366 0.2066-1.0343-0.3288-0.81992l-0.8217 0.33024c-0.534 0.21366-0.2069 1.0343 0.3288 0.81992l0.8217-0.33024zm-3.263-0.2948c0.072 0.57402 0.9145 0.49536 0.8787-0.0797l-0.025-0.24803c-0.072-0.57402-0.9145-0.495-0.8787 0.0797l0.025 0.24803zm-0.1882-2.0122c0.072 0.57401 0.9146 0.49535 0.8788-0.0797l-0.082-0.88193c-0.072-0.57402-0.9145-0.495-0.8788 0.0797l0.082 0.88193zm-0.2466-2.6458c0.072 0.57401 0.9146 0.49535 0.8788-0.0797l-0.082-0.88193c-0.072-0.57402-0.9146-0.495-0.8788 0.0797l0.082 0.88193zm-0.2466-2.6458c0.072 0.57402 0.9145 0.49536 0.8788-0.0797l-0.082-0.88193c-0.072-0.57401-0.9145-0.495-0.8787 0.0797l0.082 0.88193zm10.853 2.5692c0.1804 0.54107 1.0191 0.25725 0.8341-0.29763l-0.2463-0.68882c-0.1803-0.54107-1.019-0.25725-0.8341 0.29763l0.2463 0.68882zm-0.8429-2.357c0.1803 0.54106 1.019 0.25724 0.834-0.29764l-0.2979-0.8341c-0.1804-0.54106-1.0191-0.25724-0.8341 0.29764l0.298 0.8341zm-0.8944-2.5023c0.1804 0.54107 1.0191 0.25725 0.8341-0.29764l-0.2983-0.83409c-0.1804-0.54106-1.0191-0.25724-0.8341 0.29764l0.2983 0.83409zm5.687-3.9632c0.5457-0.18177 0.2668-1.0198-0.2802-0.83728l-0.8111 0.27071c-0.5453 0.18177-0.2668 1.0198 0.2803 0.83728l0.811-0.27071zm-2.4913 0.83197c0.5457-0.18177 0.2668-1.0194-0.2802-0.83728l-0.8402 0.28063c-0.5453 0.18177-0.2671 1.0198 0.2803 0.83728l0.8401-0.28063zm-2.5207 0.84189c0.5457-0.18177 0.2668-1.0194-0.2803-0.83728l-0.8401 0.28063c-0.5453 0.18177-0.2668 1.0194 0.2803 0.83728l0.8401-0.28063zm-10.292 2.615c-0.1056 0.56481 0.7622 0.72603 0.8684 0.1591l0.037-0.20233c0.106-0.56515-0.7625-0.72567-0.8684-0.15909l-0.037 0.20232zm0.3557-1.9453c-0.1059 0.56515 0.7622 0.72637 0.8685 0.15909l0.1591-0.8713c0.1059-0.56516-0.7622-0.72567-0.8685-0.15909l-0.1591 0.8713zm0.4777-2.6139c-0.1056 0.5648 0.7621 0.72602 0.8684 0.15909l0.1591-0.8713c0.106-0.56515-0.7621-0.72602-0.8684-0.15909l-0.1591 0.8713zm0.4776-2.6142c-0.1059 0.56515 0.7622 0.72638 0.8685 0.15909l0.1591-0.8713c0.1059-0.56516-0.7626-0.72567-0.8685-0.15909l-0.1591 0.8713zm28.939-12.535c0.3855-0.42059-0.2658-1.0155-0.6573-0.58819l-0.077 0.0861c-0.3858 0.42095 0.2658 1.0155 0.6573 0.58819l0.077-0.0861zm-1.26 1.4053c0.3862-0.4213-0.2658-1.0152-0.6573-0.58819l-0.5914 0.65941c-0.3855 0.42094 0.2657 1.0155 0.6573 0.58819l0.5914-0.65941zm-1.7742 1.9786c0.3859-0.42094-0.2657-1.0152-0.6573-0.58819l-0.5913 0.65977c-0.3856 0.42059 0.2657 1.0155 0.6572 0.58819l0.5914-0.65977zm-1.7741 1.9789c0.3859-0.42095-0.2658-1.0152-0.6573-0.58819l-0.5914 0.65941c-0.3855 0.42094 0.2658 1.0155 0.6573 0.58819l0.5914-0.65941zm-1.7741 1.9786c0.3858-0.42094-0.2658-1.0152-0.6573-0.58819l-0.5914 0.65941c-0.3855 0.42059 0.2657 1.0155 0.6573 0.58819l0.5914-0.65941zm-1.7742 1.9782c0.3859-0.42094-0.2657-1.0152-0.6573-0.58819l-0.5913 0.65941c-0.3856 0.42095 0.2657 1.0155 0.6572 0.58819l0.5914-0.65941zm-1.7741 1.9786c0.3858-0.42094-0.2658-1.0152-0.6573-0.58819l-0.5914 0.65941c-0.3855 0.42059 0.2658 1.0155 0.6573 0.58819l0.5914-0.65941zm-1.7742 1.9782c0.3859-0.42094-0.2657-1.0152-0.6572-0.58819l-0.5911 0.65941c-0.3858 0.42095 0.2654 1.0155 0.6573 0.58819l0.591-0.65941zm-16.144-6.0824c-0.1811 0.54283 0.6601 0.81957 0.8444 0.26646l0.042-0.13146c0.1807-0.54283-0.6602-0.81921-0.8444-0.26646l-0.042 0.13146zm0.5779-1.8202c-0.1811 0.54248 0.6601 0.81922 0.8444 0.26646l0.2678-0.84437c0.1811-0.54283-0.6601-0.81921-0.8443-0.26646l-0.2679 0.84437zm0.804-2.5331c-0.1807 0.54248 0.6601 0.81922 0.8443 0.26646l0.2683-0.84437c0.1807-0.54283-0.6601-0.81921-0.8444-0.26646l-0.2682 0.84437zm0.8043-2.5331c-0.1811 0.54248 0.6601 0.81922 0.8444 0.26646l0.2679-0.84437c0.181-0.54284-0.6602-0.81921-0.8444-0.26646l-0.2679 0.84437zm0.804-2.5331c-0.1807 0.54248 0.6601 0.81922 0.8444 0.26646l0.2682-0.84437c0.1807-0.54284-0.6601-0.81921-0.8444-0.26646l-0.2682 0.84437zm0.8043-2.5331c-0.181 0.54248 0.6601 0.81922 0.8444 0.26646l0.2679-0.84437c0.181-0.54284-0.6602-0.81921-0.8444-0.26646l-0.2679 0.84437zm0.804-2.5331c-0.1807 0.54248 0.6601 0.81921 0.8444 0.26646l0.2682-0.84437c0.1807-0.54284-0.6601-0.81921-0.8444-0.26646l-0.2682 0.84437zm0.8043-2.5331c-0.181 0.54248 0.6601 0.81921 0.8444 0.26646l0.2679-0.84437c0.181-0.54284-0.6602-0.81921-0.8444-0.26646l-0.2679 0.84437zm0.804-2.5331c-0.1807 0.54248 0.6601 0.81921 0.8444 0.26646l0.2682-0.84437c0.1807-0.54284-0.6601-0.81921-0.8444-0.26646l-0.2682 0.84437zm0.8043-2.5331c-0.181 0.54248 0.6601 0.81921 0.8444 0.26646l0.2679-0.84437c0.181-0.54284-0.6601-0.81921-0.8444-0.26646l-0.2679 0.84437zm0.804-2.5331c-0.1807 0.54248 0.6601 0.81921 0.8444 0.26646l0.2682-0.84437c0.1807-0.54284-0.6601-0.81921-0.8444-0.26646l-0.2682 0.84437zm0.8043-2.5331c-0.181 0.54284 0.6602 0.81957 0.8444 0.26646l0.2679-0.84402c0.181-0.54283-0.6601-0.81921-0.8444-0.26645l-0.2679 0.84401zm0.804-2.5328c-0.1807 0.54283 0.6601 0.81956 0.8444 0.26645l0.2682-0.84401c0.1807-0.54284-0.6601-0.81922-0.8444-0.26646l-0.2682 0.84402zm0.8043-2.5328c-0.181 0.54283 0.6602 0.81957 0.8444 0.26646l0.2679-0.84402c0.1811-0.54283-0.6601-0.81921-0.8444-0.26646l-0.2679 0.84402zm0.804-2.5328c-0.1807 0.54284 0.6601 0.81957 0.8444 0.26646l0.2679-0.84402c0.181-0.54283-0.6602-0.81921-0.8444-0.26645l-0.2679 0.84401zm0.804-2.5328c-0.1811 0.54283 0.6601 0.81956 0.8444 0.26645l0.2678-0.84401c0.1807-0.54284-0.6601-0.81921-0.8443-0.26646l-0.2679 0.84402zm0.8036-2.5328c-0.1807 0.54284 0.6601 0.81957 0.8444 0.26646l0.2679-0.84402c0.181-0.54283-0.6602-0.81921-0.8444-0.26645l-0.2679 0.84401zm0.804-2.5328c-0.1811 0.54283 0.6601 0.81956 0.8444 0.26645l0.2678-0.84401c0.1807-0.54284-0.6601-0.81922-0.8443-0.26646l-0.2679 0.84402zm0.8036-2.5328c-0.1807 0.54283 0.6601 0.81957 0.8444 0.26646l0.2679-0.84402c0.181-0.54283-0.6602-0.81921-0.8444-0.26646l-0.2679 0.84402zm0.804-2.5328c-0.1811 0.54284 0.6601 0.81957 0.8444 0.26646l0.2678-0.84402c0.1807-0.54283-0.6601-0.81921-0.8443-0.26645l-0.2679 0.84401zm0.8036-2.5328c-0.1807 0.54283 0.6601 0.81956 0.8444 0.26645l0.2679-0.84401c0.181-0.54284-0.6602-0.81921-0.8444-0.26646l-0.2679 0.84402zm0.804-2.5328c-0.1811 0.54284 0.6601 0.81957 0.8444 0.26646l0.2678-0.84402c0.1807-0.54283-0.6601-0.81921-0.8443-0.26645l-0.2679 0.84401zm13.871 40.722c-0.2888 0.50528 0.4773 0.94642 0.7611 0.45l0.4503-0.76287c0.2885-0.50492-0.4776-0.94606-0.7611-0.45l-0.4503 0.76287zm1.351-2.2886c-0.2887 0.50528 0.4773 0.94642 0.7611 0.45l0.4504-0.76287c0.2884-0.50492-0.4776-0.94607-0.7611-0.45l-0.4504 0.76287zm1.3511-2.2886c-0.2888 0.50527 0.4773 0.94642 0.7611 0.45l0.4504-0.76288c0.2884-0.50492-0.4777-0.94606-0.7611-0.45l-0.4504 0.76288zm1.3511-2.2886c-0.2888 0.50527 0.4772 0.94641 0.7611 0.45l0.4503-0.76288c0.2884-0.50492-0.4776-0.94606-0.7611-0.45l-0.4503 0.76288zm1.351-2.2886c-0.2888 0.50528 0.4773 0.94642 0.7611 0.45l0.4504-0.76287c0.2884-0.50492-0.4777-0.94606-0.7611-0.45l-0.4504 0.76287zm1.3511-2.2886c-0.2888 0.50528 0.4773 0.94642 0.7611 0.45l0.4503-0.76287c0.2885-0.50492-0.4776-0.94606-0.7611-0.45l-0.4503 0.76287zm1.3511-2.2886c-0.2888 0.50528 0.4772 0.94642 0.7611 0.45l0.4503-0.76287c0.2884-0.50492-0.4776-0.94607-0.7611-0.45l-0.4503 0.76287zm1.351-2.2886c-0.2888 0.50527 0.4773 0.94642 0.7611 0.45l0.4504-0.76252c0.2884-0.50528-0.4777-0.94642-0.7611-0.45l-0.4504 0.76252zm1.3511-2.2883c-0.2888 0.50528 0.4773 0.94642 0.7611 0.45l0.4503-0.76252c0.2885-0.50527-0.4776-0.94642-0.7611-0.45l-0.4503 0.76252zm1.351-2.2883c-0.2887 0.50528 0.4773 0.94642 0.7611 0.45l0.4504-0.76252c0.2884-0.50527-0.4776-0.94641-0.7611-0.45l-0.4504 0.76252zm1.3511-2.2883c-0.2888 0.50527 0.4773 0.94641 0.7611 0.45l0.45-0.76252c0.2888-0.50528-0.4776-0.94642-0.7611-0.45l-0.45 0.76252zm1.3507-2.2883c-0.2888 0.50527 0.4773 0.94642 0.7611 0.45l0.45-0.76252c0.2888-0.50528-0.4776-0.94642-0.7611-0.45l-0.45 0.76252zm1.3507-2.2883c-0.2888 0.50528 0.4773 0.94642 0.7611 0.45l0.45-0.76252c0.2888-0.50528-0.4776-0.94642-0.7611-0.45l-0.45 0.76252z" class="fil2"/>
</g>
</g>
</svg>
