<?xml version="1.0" encoding="UTF-8" standalone="no"?>
<!-- Created with Inkscape (http://www.inkscape.org/) -->
<svg xmlns:inkscape="http://www.inkscape.org/namespaces/inkscape" xmlns:rdf="http://www.w3.org/1999/02/22-rdf-syntax-ns#" xmlns="http://www.w3.org/2000/svg" xmlns:xlink="http://www.w3.org/1999/xlink" xmlns:ns1="http://sozi.baierouge.fr" xmlns:cc="http://creativecommons.org/ns#" xmlns:sodipodi="http://sodipodi.sourceforge.net/DTD/sodipodi-0.dtd" xmlns:dc="http://purl.org/dc/elements/1.1/" id="svg2" xml:space="preserve" viewBox="0 0 71.201 17.718" version="1.1" inkscape:version="0.91 r13725">
  <g id="g10" transform="matrix(1.25 0 0 -1.25 0 17.718)">
    <g id="g12">
      <path id="path14" style="fill-rule:evenodd;fill:#585d3b" d="m22.559 6.811c0.64-0.238 1.109-0.32 1.402-0.238 0.211 0.051 0.414 0.25 0.598 0.598 0.136 0.32 0.32 0.496 0.562 0.519 0.078 0.27 0.024 0.52-0.16 0.762-0.215 0.238-0.387 0.441-0.52 0.597 0.051 0.055 0.161 0.11 0.321 0.161 0.133 0.054 0.226 0.121 0.277 0.203l0.039 0.16 0.16-0.043c0.055-0.133 0.094-0.277 0.121-0.438 0.082-0.105 0.2-0.199 0.36-0.281 0.136-0.051 0.453-0.094 0.961-0.121-0.641-0.371-0.985-0.613-1.039-0.719-0.106-0.293 0.039-0.453 0.437-0.48 0.188-0.027 0.453-0.027 0.801 0v0.199c0.027 1.066 0.066 1.734 0.121 2 0.16-0.371 0.238-0.891 0.238-1.559 0-0.347-0.011-0.867-0.039-1.558 0-0.375-0.011-0.668-0.039-0.883 0.188 0.082 0.414 0.203 0.68 0.359-0.051-0.371-0.067-0.64-0.039-0.8 0.32-0.051 0.597-0.012 0.84 0.121 0.238 0.16 0.359 0.402 0.359 0.722 0.16-0.617 0.492-0.91 1-0.882 0.398 0.082 0.559 0.265 0.48 0.558 0.161-0.398 0.454-0.691 0.879-0.879 0.403-0.187 0.829-0.226 1.282-0.121l0.121 0.563c0.293-0.535 0.465-0.84 0.519-0.922 0.211-0.238 0.52-0.332 0.918-0.278 0.293 0.051 0.453 0.184 0.481 0.399v0.801c0.132-0.907 0.613-1.309 1.441-1.2 0.293 0.024 0.481 0.133 0.559 0.317 0.054 0.133 0.066 0.359 0.043 0.683 0.05-0.296 0.222-0.55 0.515-0.761 0.297-0.215 0.563-0.254 0.801-0.121 0.32 0.187 0.402 0.707 0.242 1.562 0.559-0.453 1.281-0.601 2.16-0.441 0.051 0.105 0.067 0.265 0.039 0.48 0 0.215 0.012 0.375 0.04 0.481 0.269-0.028 0.652-0.106 1.16-0.239 0.027 0.664-0.133 1.278-0.481 1.84 0.055 0 0.574-0.066 1.563-0.203 0.664-0.078 1.183-0.039 1.558 0.121 0.133 0.426-0.054 0.895-0.558 1.399l-0.043-0.039c-0.16-0.051-0.293-0.051-0.399 0-0.132 0.082-0.172 0.203-0.121 0.363 0.215 0 0.403-0.109 0.563-0.32 0.265 0.238-0.242 0.984-1.524 2.238h0.961c0.055-0.051 0.149-0.145 0.281-0.281 0.055-0.024 0.094-0.051 0.122-0.079l0.117-0.121c0.133-0.132 0.308-0.293 0.519-0.48l0.121-0.117c-0.027 0.027-0.027 0.054 0 0.078-0.027 0.586-0.082 1.066-0.16 1.441-0.105 0.641-0.265 1.051-0.48 1.239-0.399 0.402-0.801 0.628-1.199 0.679 0.851-0.023 1.292-0.039 1.32-0.039 0.637-0.133 1-0.465 1.078-1l0.121-2.879v-0.039c0.055-0.027 0.109-0.054 0.16-0.082 0.028 0.055 0.16 0.199 0.403 0.442v-0.161c0.023-0.16 0.066-0.32 0.117-0.48h-0.039c-0.106 0-0.172-0.094-0.2-0.281-0.027-0.133-0.039-0.293-0.039-0.481 0.024 0.082 0.067 0.149 0.118 0.199 0.054 0.11 0.132 0.215 0.242 0.321 0.078 0.136 0.172 0.269 0.277 0.402 0.082 0.106 0.215 0.387 0.402 0.84 0.133 0.348 0.293 0.598 0.481 0.758 0.453 0.32 1 0.297 1.641-0.078 0.371-0.188 0.906-0.493 1.597-0.922-0.371 0.082-0.812 0.109-1.32 0.082-0.293-0.028-0.531-0.082-0.719-0.16-0.027 0.027-0.051 0.027-0.082 0h-0.117c-0.293 0-0.547-0.149-0.762-0.442l-0.679-0.277c-0.211-0.055-0.442-0.297-0.68-0.723-0.215-0.426-0.281-0.746-0.199-0.957 0.105-0.269 0.265-0.32 0.48-0.16 0.188 0.133 0.32 0.305 0.399 0.52 0.292 0.796 0.468 1.238 0.519 1.32 0.16 0.051 0.348 0.051 0.563 0 0.05-0.027 0.105-0.082 0.16-0.16v-0.043c-0.055-0.184-0.387-0.614-1-1.278-0.453-0.535-0.629-1.027-0.524-1.48 0.137-0.055 0.297-0.066 0.485-0.039 0.238 0.023 0.398 0.039 0.476 0.039l0.481-0.16c0.293-0.106 0.48-0.133 0.562-0.082 0.051 0.027 0.145 0.16 0.281 0.402 0.77-0.266 1.305-0.176 1.598 0.277l0.441 0.883c0.184 0.371 0.415 0.625 0.68 0.758l0.199 0.043v-0.043c0.024-0.023 0.039-0.078 0.039-0.16 0-0.106-0.015-0.227-0.039-0.359 0.133 0 0.305-0.012 0.52-0.04 0.051 0.079 0.117 0.172 0.199 0.282 0.238 0.347 0.52 0.574 0.84 0.679 0.215 0.079 0.535 0.067 0.961-0.043 0.426-0.105 0.652-0.25 0.68-0.437-0.133-0.106-0.387-0.16-0.762-0.16-0.211 0-0.387-0.016-0.52-0.039l0.641 0.238c-0.211-0.055-0.531-0.094-0.961-0.121-0.398-0.051-0.664-0.211-0.797-0.481l-0.203-0.039c-0.293-0.105-0.519-0.359-0.68-0.757-0.082-0.215-0.121-0.43-0.121-0.641-0.05 0.051-0.105 0.094-0.16 0.121 0.055-0.082 0.11-0.148 0.16-0.203-0.023-0.106-0.023-0.211 0-0.32 0.055 0 0.121-0.012 0.203-0.039 0.133-0.266 0.211-0.493 0.239-0.68l-0.121 0.121v-0.719c-0.133-0.109-0.332-0.121-0.598-0.043-0.27 0.11-0.426 0.227-0.481 0.36 0.051-0.211 0.012-0.387-0.121-0.52l-0.32 0.203 0.16-0.363c-0.238-0.16-0.531-0.199-0.879-0.117-0.265 0.078-0.425 0.199-0.48 0.359 0.027-0.348-0.254-0.492-0.84-0.441-0.668 0.082-0.973 0.332-0.922 0.761-0.133-0.269-0.371-0.468-0.719-0.601-0.32-0.133-0.625-0.16-0.918-0.082-0.132 0.347-0.066 0.59 0.2 0.722-0.293-0.132-0.575-0.148-0.84-0.039-0.266 0.106-0.387 0.372-0.36 0.797l0.039 0.403 0.122 0.039c0.16 0.133 0.238 0.508 0.238 1.121l0.441 0.797c-0.027 0.082-0.027 0.16 0 0.242h-0.043c-0.023-0.055-0.066-0.094-0.117-0.121-0.109-0.078-0.199-0.094-0.281-0.039 0.105 1.121 0.015 2.574-0.281 4.359v-0.961c0-0.398-0.012-1-0.039-1.797 0-0.722 0.027-1.32 0.082-1.801 0.05-0.054 0.117-0.054 0.199 0 0.027-0.187 0.039-0.414 0.039-0.679-0.16-0.348-0.281-0.735-0.36-1.16-0.187-0.133-0.468-0.176-0.839-0.121-0.321 0.054-0.547 0.148-0.68 0.281 0.184-0.215 0.348-0.492 0.48-0.84 0.211-0.481 0.184-0.789-0.082-0.922-0.214-0.133-0.371-0.078-0.48 0.16 0.055-0.508 0-0.972-0.16-1.398-0.266 0.051-0.453 0.16-0.559 0.32-0.16-0.269-0.265-0.453-0.32-0.562-0.133-0.211-0.293-0.36-0.481-0.438l-0.078 0.199c-0.215 0-0.426-0.05-0.64-0.16-0.188 0.055-0.321 0.055-0.403 0-0.078-0.051-0.172-0.148-0.277-0.281l-0.84-0.399h-0.121l-0.32-0.121c-0.985-0.238-1.957-0.238-2.918 0 0 0.243-0.028 0.426-0.082 0.563-0.532-0.375-0.985-0.547-1.36-0.524-0.187 0.082-0.347 0.11-0.48 0.082l-0.039 0.68c-0.133-0.023-0.293-0.16-0.481-0.398-0.187-0.266-0.359-0.426-0.519-0.481-0.535-0.215-0.906-0.039-1.121 0.52-0.106-0.133-0.16-0.36-0.16-0.68-0.532-0.082-1.122 0.121-1.758 0.598-0.403 0.269-0.617 0.64-0.641 1.121l0.039 0.758c-0.16 0.215-0.32 0.254-0.48 0.121-0.133-0.133-0.227-0.348-0.282-0.641 0-0.078 0.016-0.238 0.043-0.48 0.051-0.184 0.051-0.317 0-0.399l-0.121 0.281c-0.027-0.375-0.187-0.625-0.48-0.761-0.293-0.16-0.625-0.16-1 0-0.32 0.136-0.442 0.402-0.36 0.801-0.48-0.184-1-0.2-1.558-0.04-0.137 0.239-0.067 0.481 0.199 0.719 0.133 0.133 0.332 0.309 0.598 0.52-0.746 0.242-1.293 0.652-1.641 1.242 0-0.133 0.016-0.453 0.043-0.961 0-0.348-0.043-0.602-0.121-0.758-0.027 0.024-0.039 0.051-0.039 0.078-0.133 0.266-0.227 0.453-0.281 0.559-0.375 0.695-0.785 1.309-1.239 1.84 0.079 0.082 0.118 0.226 0.118 0.441zm24.519 2.84c0.027 0.082 0.07 0.148 0.121 0.199l0.082 0.043c-0.082-0.082-0.148-0.16-0.203-0.242zm-24.558-2.641c-0.106 0.43-0.254 0.75-0.442 0.961 0.375-0.078 0.734-0.121 1.082-0.121 0.215-0.398 0.266-0.652 0.16-0.758-0.082-0.105-0.347-0.132-0.8-0.082zm30.16 0.961c0.054-0.32 0.054-0.668 0-1.039l-0.039-0.48c-0.028 0.082-0.067 0.16-0.121 0.242-0.184 0.184-0.293 0.305-0.321 0.359-0.078 0.239-0.09 0.52-0.039 0.84 0.028 0.051 0.055 0.106 0.082 0.16l0.399 0.118c-0.079-0.024-0.149-0.079-0.2-0.161 0.079 0 0.161-0.011 0.239-0.039zm-48.641-6.48-0.039 0.121-0.398-0.121c-0.243 0.055-0.387 0.105-0.442 0.16 0.188 0.215 0.52 0.508 1 0.879h-0.039c-0.348-0.184-0.641-0.238-0.883-0.16-0.211 0.082-0.277 0.226-0.199 0.441v0.039c0.188 0.028 0.348 0.028 0.481 0-0.239 0.188-0.454 0.309-0.641 0.36-0.531 0.082-0.906 0.203-1.117 0.363 0.504 0.051 1.011 0.051 1.519 0 0.321-0.055 0.574-0.121 0.758-0.203 0.027 0.027 0.066 0.054 0.121 0.082 0.238 0.16 0.535 0.215 0.879 0.16-0.293 0.426-0.238 0.801 0.16 1.121 0.055 0.051 0.121 0.078 0.199 0.078h0.161c0.242-0.027 0.453-0.078 0.64-0.16h-0.039c-0.398-0.348-0.558-0.625-0.48-0.84 0.082-0.265 0.32-0.359 0.718-0.281 0.348 0.109 0.614 0.269 0.801 0.48-0.187-0.531-0.277-0.839-0.277-0.918 0.398-0.082 0.84-0.054 1.316 0.079h0.082c0.293-0.051 0.758-0.079 1.399-0.079l-0.84 0.36c-0.211 0.105-0.504 0.347-0.879 0.719-0.375 0.347-0.695 0.585-0.961 0.722-0.426 0.211-0.934 0.332-1.519 0.356-0.665-0.024-1.188-0.024-1.559 0 0.16-0.106 0.426-0.2 0.801-0.278-0.321 0.028-0.617 0.039-0.883 0.039-0.801 0.028-1.414 0.039-1.84 0.039-0.586 0-1.066-0.066-1.437-0.199l1.476 0.602c0.723 0.265 1.336 0.398 1.844 0.398 0.719 0 1.398-0.078 2.039-0.238 0.293-0.082 0.586-0.176 0.879-0.281v0.082l0.441 0.039-0.043-0.082c-0.078-0.024-0.144-0.067-0.199-0.117 0.055 0 0.106-0.016 0.16-0.043 0.293-0.133 0.586-0.278 0.879-0.438 0.188-0.109 0.375-0.226 0.563-0.359 0.027-0.028 0.238-0.203 0.64-0.52 0.16-0.133 0.305-0.242 0.438-0.32 0.347 0.187 0.629 0.492 0.84 0.918h0.16l0.359-0.117c0.402-0.082 0.949 0.304 1.641 1.16l0.121 0.039c0.055-0.055 0.066-0.215 0.039-0.481-0.024-0.187 0.055-0.308 0.242-0.359 0.156-0.027 0.317 0.039 0.481 0.199-0.192-0.195-0.418-0.554-0.68-1.082-0.242-0.531-0.574-0.851-1-0.957-0.16-0.082-0.336-0.109-0.524-0.082-0.21 0.028-0.332 0.133-0.359 0.32 0.027-0.214-0.027-0.386-0.16-0.519-0.133-0.106-0.305-0.148-0.52-0.121-0.078-0.399-0.304-0.613-0.679-0.641-0.215 0-0.559 0.094-1.039 0.281 0.027-0.238-0.094-0.359-0.36-0.359-0.215 0-0.414 0.067-0.601 0.199-0.133-0.265-0.426-0.425-0.879-0.48-0.375-0.027-0.735 0.027-1.082 0.16 0.027 0.055 0.043 0.16 0.043 0.32-0.375-0.32-0.95-0.48-1.723-0.48zm3.039 5.082c0.11 0.105 0.27 0.211 0.481 0.32l0.441-0.082c-0.508-0.16-0.828-0.265-0.961-0.32h-0.039c0.027 0.027 0.055 0.055 0.078 0.082zm11.723-1.723 0.277 0.043 0.203-0.082c0.641-0.105 1.024-0.117 1.16-0.039 0.079 0.027 0.161 0.121 0.239 0.277 0.082 0.161 0.175 0.27 0.281 0.321l0.238-0.477c0.266-0.668 0.586-1.137 0.961-1.402v-0.281c-0.508 0.082-0.906 0.269-1.199 0.562-0.027-0.48-0.199-0.75-0.52-0.801-0.32-0.054-0.562 0.16-0.722 0.641-0.266-0.293-0.492-0.52-0.68-0.68-0.371-0.297-0.68-0.363-0.918-0.203-0.187 0.188-0.187 0.481 0 0.883-0.133-0.188-0.348-0.336-0.641-0.441-0.347-0.079-0.613-0.067-0.8 0.039-0.16 0.109-0.227 0.226-0.2 0.359 0 0.055 0.04 0.227 0.122 0.523-0.321-0.269-0.922-0.402-1.801-0.402l-0.039 0.082-0.043-0.082c-0.614 0-1 0.121-1.16 0.359-0.028 0.055-0.039 0.122-0.039 0.2l0.039 0.281 0.043 0.16c0.023 0.082 0.05 0.176 0.078 0.281l0.32 0.321c-0.027-0.133-0.094-0.348-0.199-0.641-0.055-0.242 0.027-0.402 0.238-0.48 0.402-0.161 0.773 0.027 1.121 0.558 0.078-0.238 0.172-0.398 0.281-0.48 0.106-0.051 0.278-0.078 0.52-0.078 0.344-0.028 0.586 0.027 0.719 0.16 0.082 0.105 0.132 0.332 0.16 0.679 0.105 0.028 0.172 0 0.199-0.082 0.027-0.105 0.082-0.172 0.16-0.199 0.535-0.265 0.961-0.332 1.281-0.199l0.282 0.238 0.039 0.082zm4.961 5.641-0.043-0.16 0.16-0.52-0.277-0.039c0 0.16 0.039 0.344 0.117 0.559l-0.239 0.402c-0.214 0.344-0.402 0.559-0.558 0.637l0.519-0.039c-0.027-0.266 0.106-0.453 0.399-0.559l-0.36-0.039 0.282-0.242zm0.16-2.281c-0.027 0.214-0.16 0.468-0.402 0.761 0.242-0.078 0.386 0 0.441 0.239 0.078-0.161 0.117-0.36 0.117-0.598-0.023-0.215-0.078-0.348-0.156-0.402z" inkscape:connector-curvature="0"/>
      <path id="path16" style="fill-rule:evenodd;fill:#6d7247" d="m51.441 8.733-0.203-0.043c-0.265-0.133-0.492-0.387-0.679-0.758l-0.438-0.883c-0.293-0.453-0.828-0.543-1.601-0.277-0.133-0.242-0.227-0.375-0.282-0.402-0.078-0.051-0.265-0.024-0.558 0.082l-0.481 0.16c-0.078 0-0.238-0.016-0.48-0.039-0.184-0.027-0.348-0.016-0.481 0.039-0.105 0.453 0.067 0.945 0.52 1.48 0.613 0.664 0.949 1.094 1 1.278 0.027-0.024 0.043-0.051 0.043-0.078 0.051-0.133 0.133-0.215 0.238-0.243 0.16-0.023 0.348 0.043 0.559 0.204 0.242 0.183 0.402 0.277 0.48 0.277 0.613 0.082 1.16 0.027 1.641-0.16 0.375-0.16 0.613-0.371 0.722-0.637zm3.438-2.043c-0.188 0.188-0.52 0.281-1 0.281-0.024 0.028-0.238 0.028-0.641 0 0.16 0.028 0.336 0.039 0.524 0.039 0.558 0 0.929-0.105 1.117-0.32zm1.68-1.641c-0.051 0.028-0.118 0.082-0.2 0.161 0.106-0.079 0.215-0.145 0.321-0.2l-0.121 0.039zm-16.52-4.398c0.055 0.027 0.121 0.055 0.199 0.082 0.696 0.211 1.227 0.52 1.602 0.918 0.055 0 0.281 0.082 0.68 0.242-0.184-0.109-0.332-0.176-0.442-0.199-0.051-0.027-0.117-0.043-0.199-0.043-0.317-0.348-0.801-0.641-1.438-0.879-0.132-0.055-0.269-0.094-0.402-0.121zm-25 0.762c0.106 0.023 0.215 0.039 0.32 0.039 0.348 0.027 0.68 0.039 1 0.039-0.425-0.027-0.867-0.055-1.32-0.078zm-3.238-0.321c0.051 0.051 0.117 0.079 0.199 0.079-0.059-0.004-0.109-0.028-0.16-0.079h-0.039zm-9.68 0.801-0.84-0.363c-0.242-0.078-0.441-0.199-0.601-0.359 0.242 0.265 0.718 0.507 1.441 0.722zm5.16 3.559-0.441-0.039c0.105 0.211 0.148 0.492 0.121 0.84 0 0.078 0.027 0.16 0.078 0.238 0.133 0.055 0.453 0.16 0.961 0.32l-0.441 0.082c-0.211-0.109-0.371-0.215-0.481-0.32 0.11 0.133 0.281 0.25 0.524 0.359 0.293 0.106 0.89 0.051 1.796-0.16 0.055 0.481 0.094 0.852 0.122 1.121 0.082 0.426 0.292 0.719 0.64 0.879 0.266 0.133 0.625 0.133 1.078 0 0.188-0.082 0.375-0.176 0.563-0.281-0.266 0.082-0.563 0.105-0.879 0.082-0.348 0-0.563-0.043-0.641-0.121-0.187-0.215-0.187-0.414 0-0.602 0.16-0.183 0.371-0.293 0.641-0.32-0.27-0.024-0.524-0.094-0.762-0.199-0.265-0.16-0.387-0.332-0.359-0.52 0.027-0.265 0.32-0.375 0.879-0.32 0.453 0.027 0.867 0.133 1.242 0.32-0.242-0.187-0.402-0.398-0.481-0.64-0.109-0.266-0.066-0.493 0.118-0.68 0.136-0.133 0.519-0.121 1.16 0.039-0.692-0.852-1.239-1.238-1.641-1.16l-0.359 0.121c0.082 0.027 0.148 0.094 0.203 0.199l0.117 0.32-0.48 0.121c-0.106-0.214-0.145-0.414-0.118-0.601l0.118-0.039c-0.211-0.426-0.493-0.735-0.84-0.922-0.133 0.082-0.278 0.187-0.438 0.32-0.402 0.321-0.613 0.492-0.64 0.52-0.188 0.133-0.375 0.254-0.563 0.359 0.027 0.028 0.043 0.055 0.043 0.082 0.106 0.215 0.238 0.508 0.399 0.879l0.121 0.121c-0.586 0.055-1-0.023-1.243-0.238l-0.117-0.16zm4.84 3.281 0.039-0.043h-0.039v0.043zm11.039-0.883c-0.348 0-0.707 0.043-1.082 0.121 0.188-0.215 0.336-0.535 0.442-0.961h-0.481l0.52-0.199c0-0.215-0.039-0.359-0.118-0.441-0.214 0.269-0.441 0.508-0.679 0.722-0.375 0.321-0.84 0.504-1.403 0.559 0.055 0.082 0.082 0.16 0.082 0.242 0.106 0.531-0.027 0.813-0.402 0.84 0.293 0.023 0.52 0.184 0.68 0.477 0.109 0.269 0.136 0.574 0.082 0.921v0.36c-0.028 0.105-0.133 0.148-0.321 0.121l-0.281-0.281c0.215 0.32 0.254 0.668 0.121 1.039-0.105 0.375-0.359 0.601-0.761 0.679l-0.161 0.043c0.11 0.161 0.243 0.266 0.403 0.321 0.16 0.051 0.48-0.016 0.961-0.203 0.078 1.363 0.41 2.015 1 1.961 0.316-0.028 0.652-0.387 1-1.079 0.183-0.402 0.398-0.906 0.636-1.519 0.321 0.531 0.801 0.598 1.442 0.199 0.398-0.266 0.652-0.562 0.762-0.879 0.105 0.293 0.425 0.41 0.957 0.36 0.773-0.055 1.336-0.282 1.679-0.68-0.133 0.824 0.336 1.305 1.403 1.437 0.933 0.106 1.707-0.039 2.32-0.437-0.481 0.293-1.082 0.437-1.801 0.437l0.039-0.078c-0.32-0.054-0.547-0.133-0.679-0.242 0.027-0.078 0.027-0.144 0-0.199-0.293-0.078-0.508-0.145-0.641-0.199-0.266-0.106-0.399-0.254-0.399-0.442 0.747-0.265 1.786-0.371 3.118-0.32-0.879-0.106-1.453-0.332-1.719-0.68-0.238-0.32-0.094-0.453 0.441-0.398-0.242-0.055-0.453-0.149-0.64-0.281-0.371-0.184-0.532-0.387-0.481-0.598 0.028-0.27 0.508-0.348 1.442-0.242-0.106-0.188-0.121-0.332-0.039-0.438 0.078-0.137 0.265-0.187 0.558-0.16 0.293 0.023 0.465 0.106 0.52 0.238-0.028-0.425 0.027-0.718 0.16-0.879 0.133-0.16 0.426-0.253 0.879-0.281 0.64-0.051 1.015 0.121 1.121 0.52 0.051-0.614 0.359-0.946 0.918-1 0.402-0.051 0.652 0.039 0.762 0.281 0.078 0.133 0.117 0.426 0.117 0.879 0.297-0.348 0.855-0.504 1.683-0.481 0.825 0 1.012 0.282 0.559 0.84 1.496-0.344 2.199-0.066 2.121 0.84-0.238 0.109-0.613 0.16-1.121 0.16 1.254 0.055 1.707 0.414 1.359 1.082-0.105 0.16-0.343 0.293-0.718 0.399-0.372 0.105-0.708 0.133-1 0.082 0.109 0.265 0.082 0.48-0.079 0.636-0.132 0.161-0.429 0.254-0.882 0.282-0.426 0.027-0.774-0.028-1.039-0.16l-0.04-0.321c-0.105 0.774 0.399 1.188 1.52 1.242 1.012 0.051 1.559-0.214 1.641-0.8-0.055 0.695 0.011 1.148 0.199 1.359 1.094-0.187 1.734-0.492 1.922-0.918v0.039c0.426 0.188 0.89 0.094 1.398-0.281h-0.922c1.282-1.254 1.789-2 1.524-2.238-0.16 0.211-0.348 0.32-0.563 0.32-0.051-0.16-0.011-0.281 0.121-0.363 0.106-0.051 0.239-0.051 0.399 0l0.043 0.043c0.504-0.508 0.691-0.977 0.558-1.403-0.375-0.16-0.894-0.199-1.558-0.117-0.989 0.133-1.508 0.199-1.563 0.199 0.348-0.562 0.508-1.176 0.481-1.84-0.508 0.133-0.891 0.211-1.16 0.239-0.028-0.106-0.04-0.266-0.04-0.481 0.028-0.211 0.012-0.371-0.039-0.48-0.882-0.16-1.601-0.012-2.16 0.441 0.16-0.851 0.078-1.375-0.242-1.558-0.238-0.133-0.504-0.094-0.801 0.117-0.293 0.215-0.465 0.469-0.515 0.761 0.023-0.32 0.011-0.546-0.043-0.679-0.078-0.188-0.266-0.293-0.559-0.321-0.828-0.105-1.309 0.293-1.441 1.2v-0.801c-0.028-0.211-0.188-0.348-0.481-0.399-0.398-0.054-0.707 0.04-0.918 0.282-0.054 0.078-0.226 0.386-0.519 0.918l-0.121-0.559c-0.453-0.109-0.879-0.066-1.282 0.121-0.425 0.184-0.718 0.477-0.879 0.879 0.082-0.293-0.082-0.48-0.48-0.562-0.508-0.024-0.84 0.269-1 0.882 0-0.32-0.121-0.558-0.359-0.718-0.243-0.137-0.52-0.176-0.84-0.121-0.028 0.16-0.016 0.425 0.039 0.8-0.266-0.16-0.492-0.281-0.68-0.359 0.028 0.211 0.039 0.504 0.039 0.879 0.028 0.691 0.039 1.211 0.039 1.558 0 0.668-0.078 1.188-0.238 1.559-0.055-0.266-0.094-0.934-0.121-2v-0.199c-0.348-0.027-0.613-0.027-0.801 0-0.398 0.027-0.547 0.187-0.437 0.48 0.054 0.106 0.398 0.348 1.039 0.719-0.508 0.027-0.825 0.066-0.961 0.121-0.16 0.082-0.278 0.176-0.36 0.281-0.027 0.161-0.066 0.305-0.121 0.438l-0.16 0.043c0.055 0.426 0 0.785-0.156 1.078-0.055 0.105-0.336 0.453-0.844 1.039l-0.238 0.281c-0.133-0.054-0.238-0.132-0.32-0.238 0.242-0.375 0.375-0.695 0.402-0.961h-0.082c-0.293 0.106-0.426 0.293-0.399 0.559l-0.519 0.039c0.156-0.078 0.344-0.293 0.558-0.637l0.239-0.402c-0.078-0.215-0.117-0.399-0.117-0.559-0.243 0-0.403-0.027-0.481-0.082l0.481-0.078 0.039-0.039c0.132-0.055 0.238-0.176 0.32-0.363-0.055-0.239-0.199-0.317-0.441-0.239 0.242-0.293 0.375-0.547 0.402-0.761-0.082-0.133-0.363-0.2-0.844-0.2l0.082-0.16zm10.039 4.602-0.32-0.36-0.438 0.118c-0.132-0.106-0.242-0.211-0.32-0.317 0.211 0.344 0.57 0.531 1.078 0.559zm3.16-1.442-0.121-0.078v0.239c0.028-0.055 0.071-0.106 0.121-0.161zm8-0.519c-0.023-0.024-0.023-0.051 0-0.078l-0.121 0.117c-0.211 0.187-0.383 0.348-0.515 0.48 0.238-0.183 0.449-0.359 0.636-0.519zm0.84-0.68c-0.051 0.028-0.105 0.055-0.16 0.082v0.039c0.082-0.054 0.133-0.093 0.16-0.121zm3.723-0.84h-0.883c-0.426-0.054-0.691-0.215-0.801-0.48-0.133-0.426 0.133-0.641 0.801-0.641 0.375 0.028 0.625 0.137 0.762 0.321 0.105 0.16 0.144 0.425 0.121 0.8zm-15.563-3.359c0.774-0.133 1.254-0.016 1.442 0.359l-0.961 0.239c-0.16 0.027-0.293-0.024-0.399-0.161-0.109-0.128-0.132-0.277-0.082-0.437zm5.039 0.84-0.359 0.359c-0.027-0.105-0.012-0.265 0.039-0.48 0.137-0.051 0.242-0.012 0.32 0.121zm-1.437-0.481-0.481 0.121-0.121-0.601c0.188-0.055 0.348-0.027 0.481 0.082 0.133 0.105 0.172 0.238 0.121 0.398zm-13.199 4.52c0.183-0.078 0.293-0.188 0.316-0.32 0.055-0.184-0.012-0.305-0.199-0.36l-0.16 0.52 0.043 0.16zm-4.961-5.641-0.039-0.078-0.282-0.242c-0.32-0.133-0.746-0.066-1.281 0.203-0.078 0.023-0.133 0.09-0.16 0.199-0.027 0.078-0.094 0.106-0.199 0.078-0.028-0.347-0.078-0.574-0.16-0.679-0.133-0.133-0.375-0.188-0.719-0.16-0.242 0-0.414 0.027-0.52 0.082-0.109 0.078-0.203 0.238-0.281 0.48-0.348-0.535-0.719-0.723-1.121-0.562-0.211 0.082-0.293 0.242-0.238 0.48 0.105 0.293 0.172 0.508 0.199 0.641-0.133-0.133-0.238-0.243-0.32-0.321-0.028-0.105-0.055-0.199-0.078-0.277 0.023 0.105 0.05 0.211 0.078 0.316-0.028-0.023-0.055-0.05-0.078-0.078-0.164-0.16-0.325-0.226-0.481-0.199-0.187 0.051-0.266 0.172-0.242 0.359 0.027 0.266 0.016 0.426-0.039 0.481l0.359 0.16c0.453 0.316 0.696 0.691 0.723 1.117 0.023-0.398 0.305-0.625 0.84-0.679 0.504-0.055 0.824 0.054 0.957 0.32 0-0.188 0.109-0.332 0.32-0.442 0.16-0.105 0.348-0.144 0.563-0.117 0.265 0.051 0.425 0.16 0.476 0.317v0.402c0.055-0.133 0.227-0.227 0.524-0.281 0.343-0.055 0.636-0.028 0.878 0.078 0.215 0.082 0.348 0.203 0.399 0.363h0.043c0.558-0.027 1-0.203 1.316-0.519 0.27-0.27 0.508-0.575 0.723-0.922-0.106-0.051-0.199-0.16-0.281-0.321-0.078-0.156-0.16-0.25-0.239-0.277-0.136-0.082-0.519-0.066-1.16 0.039l-0.203 0.082c0.188 0.133 0.281 0.492 0.281 1.078l-0.839-0.48c-0.051-0.375 0.027-0.586 0.242-0.641h0.039zm9.238 5.199c-0.398 0.055-0.559-0.062-0.48-0.359 0.347-0.051 0.546-0.012 0.601 0.121l-0.121 0.238zm-0.359-3.039c0.242-0.105 0.535-0.144 0.879-0.117 0.429 0 0.613 0.133 0.562 0.399l-0.723 0.48c-0.183 0.027-0.359-0.039-0.519-0.199-0.133-0.16-0.199-0.348-0.199-0.563zm2.242-0.918c0.078-0.214 0.355-0.281 0.84-0.199 0.426 0.106 0.691 0.25 0.797 0.438l-1.118 0.121c-0.109 0.027-0.226 0.012-0.363-0.043-0.133-0.078-0.183-0.184-0.156-0.317zm-6.844 6.2-0.277 0.679l-0.801 0.559 0.602-0.598-0.204-0.039c0.27-0.187 0.497-0.387 0.68-0.601zm-0.84-3.2v0.598c-0.343-0.238-0.492-0.48-0.437-0.719 0.187-0.054 0.332-0.011 0.437 0.121zm-13.359-4.32c0.695-0.109 0.976 0.094 0.84 0.598l-0.117 0.242c-0.563-0.242-0.801-0.52-0.723-0.84zm7.043-0.082c0.371-0.211 0.637-0.066 0.797 0.441l-0.598 0.118c-0.535-0.106-0.601-0.289-0.199-0.559zm-9.723-0.039c0.375-0.078 0.656-0.199 0.84-0.359 0.106-0.082 0.254-0.243 0.441-0.481 0.133-0.242 0.266-0.402 0.399-0.48 0.082-0.055 0.226-0.106 0.441-0.16h-0.082c-0.476-0.133-0.918-0.161-1.316-0.079 0 0.079 0.09 0.383 0.277 0.918-0.187-0.214-0.453-0.375-0.801-0.48-0.398-0.082-0.636 0.012-0.718 0.281-0.078 0.215 0.082 0.492 0.48 0.84h0.039zm1.039 0.719c-0.023-0.051-0.039-0.106-0.039-0.16-0.054 0.027-0.105 0.043-0.16 0.043 0.055 0.05 0.121 0.093 0.199 0.117z" inkscape:connector-curvature="0"/>
      <path id="path18" style="fill-rule:evenodd;fill:#414428" d="m47.281 9.893-0.082-0.043c-0.051-0.051-0.094-0.117-0.121-0.199-0.023 0-0.039-0.012-0.039-0.039v-0.039c-0.051-0.082-0.227-0.524-0.519-1.32-0.079-0.215-0.211-0.387-0.399-0.52-0.215-0.16-0.375-0.109-0.48 0.16-0.082 0.211-0.016 0.531 0.199 0.957 0.238 0.426 0.469 0.668 0.68 0.723l0.679 0.277c0.215 0.293 0.469 0.442 0.762 0.442h0.117c0.027 0.027 0.055 0.027 0.082 0h0.039l-0.918-0.399zm5.36-3.441c0.027-0.082 0.027-0.16 0-0.242-0.426-0.051-0.829-0.067-1.2-0.039-0.082 0.027-0.148 0.039-0.203 0.039-0.023 0.109-0.023 0.214 0 0.32v0.082c0 0.215 0.043 0.426 0.121 0.641 0.161 0.398 0.387 0.652 0.68 0.757l0.199 0.039c0.137 0.27 0.403 0.43 0.801 0.481 0.426 0.027 0.75 0.066 0.961 0.121l-0.641-0.238-0.718-0.242-0.403-0.122c-0.023-0.05-0.05-0.105-0.078-0.156-0.055-0.32-0.039-0.601 0.039-0.844 0.028-0.05 0.133-0.171 0.321-0.359 0.054-0.078 0.093-0.16 0.121-0.238zm-2.282-1.762c0.719-0.293 1.133-0.305 1.243-0.039l-0.043 0.281v0.68l0.121-0.121c0.508-0.399 0.922-0.668 1.242-0.801 0.453-0.184 0.973-0.238 1.558-0.16v0.801c0.614-0.371 1.309-0.465 2.082-0.282l0.118-0.039c0.109-0.027 0.199-0.039 0.281-0.039-0.082-0.613-0.906-0.949-2.481-1-1.679 0.051-2.652 0.078-2.918 0.078 0.532-0.05 0.985-0.144 1.36-0.277 0.586-0.242 0.664-0.535 0.238-0.883-0.027-0.027-0.598-0.117-1.719-0.281-0.668-0.133-1.402-0.172-2.199-0.117-1.387 0.078-2.121 0.117-2.203 0.117-1.652 0-2.84-0.078-3.559-0.238-0.214-0.055-0.386-0.133-0.519-0.239-0.16-0.109-0.305-0.187-0.438-0.242-0.402-0.16-0.628-0.242-0.683-0.242-0.371-0.398-0.906-0.703-1.598-0.918-0.082-0.027-0.148-0.051-0.203-0.082-0.051-0.023-0.105-0.039-0.16-0.039-0.188-0.051-0.359-0.09-0.52-0.117l-0.918-0.039c-0.375 0-0.949 0.027-1.718 0.078-0.801 0.082-1.348 0.121-1.645 0.121-0.289 0-0.758-0.066-1.398-0.199-0.614-0.16-1.106-0.227-1.481-0.203-1.277 0.027-2.679 0.347-4.199 0.961-0.215-0.371-0.668-0.575-1.359-0.598-0.293-0.027-0.84 0-1.641 0.078-0.641 0.188-1.078 0.281-1.32 0.281-0.293-0.187-0.52-0.281-0.68-0.281-0.266 0-0.602 0.055-1 0.16-0.453 0.16-0.785 0.266-1 0.321-0.828 0.105-1.441 0.187-1.84 0.238h-0.16l-2.641 0.082c-0.32 0-0.652-0.012-1-0.039-0.105 0-0.214-0.016-0.32-0.043-1.387-0.133-2.453-0.238-3.199-0.317 0.051 0.051 0.101 0.075 0.16 0.079l0.039 0.039 0.039 0.082v0.039l0.203 0.402c0 0.051 0.012 0.078 0.039 0.078v0.16c0.481-0.293 0.774-0.132 0.879 0.481v1.441c0.106-0.265 0.36-0.426 0.762-0.48 0.398-0.082 0.652 0.011 0.758 0.281l0.043 0.078 0.039-0.078c0.105-0.16 0.398-0.242 0.879-0.242-0.133-0.16-0.227-0.266-0.282-0.321-0.105-0.132-0.16-0.265-0.16-0.398 0.563-0.105 1.242-0.082 2.043 0.078 0.133-0.238 0.344-0.398 0.641-0.476 0.293-0.082 0.531 0 0.719 0.238-0.133-0.453 0.171-0.668 0.918-0.641 0.746 0 1.136 0.227 1.16 0.68 0.136-0.371 0.402-0.586 0.801-0.641 0.375-0.023 0.625 0.149 0.761 0.524-0.054 0.156-0.093 0.398-0.121 0.719v0.281c-0.027 0.105-0.039 0.211-0.039 0.316-0.027 0.75-0.121 1.293-0.281 1.641-0.188 0.402-0.508 0.679-0.961 0.84h0.199c0.348-0.028 0.574-0.067 0.684-0.118 0.476-0.136 0.933-0.507 1.359-1.121 0.32-0.425 0.586-0.945 0.801-1.558 0.105-0.293 0.183-0.574 0.238-0.84l0.039 0.039v-0.801h0.922c0.078-0.558 0.277-0.785 0.598-0.679 0.187 0.082 0.508 0.292 0.961 0.64 0.398-0.402 0.652-0.613 0.761-0.64 0.184-0.055 0.387 0.121 0.598 0.519 0.348-0.293 0.828-0.414 1.441-0.359 0.508 0.027 0.985 0.16 1.442 0.398 0.133-0.348 0.437-0.453 0.918-0.32 0.265 0.054 0.64 0.16 1.121 0.32 0.293-0.531 0.746-0.812 1.359-0.84 0.559-0.051 1.094 0.028 1.602 0.242l0.918 0.559c0.16 0.027 0.332 0 0.519-0.082h0.481c0.133 0 0.414 0.121 0.84 0.359l0.32 0.121h0.52c0.187 0.055 0.332 0.188 0.441 0.403 0.105 0.133 0.199 0.226 0.277 0.277 0.082 0.055 0.215 0.055 0.403 0 0.265-0.078 0.425-0.105 0.48-0.078l0.238 0.039c0.188 0.082 0.348 0.227 0.481 0.442 0.055 0.105 0.16 0.292 0.32 0.558 0.106-0.16 0.293-0.266 0.559-0.32 0.402-0.028 0.773 0.066 1.121 0.281-0.055-0.105-0.055-0.199 0-0.281 0.187-0.106 0.426-0.16 0.719-0.16 0.347 0 0.546 0.109 0.601 0.32 0.051-0.348 0.547-0.613 1.481-0.801 0.957-0.16 1.453-0.051 1.48 0.32 0.293-0.238 0.664-0.386 1.117-0.437 0.535-0.082 0.867 0.051 1 0.398 0.11 0.293-0.027 0.52-0.398 0.68-0.481 0.133-0.801 0.238-0.961 0.32 0.055 0 0.254-0.054 0.601-0.16 0.293-0.054 0.493-0.054 0.598 0 0.188 0.133 0.227 0.332 0.121 0.602l-0.16 0.359 0.32-0.203zm-49.679-3.519c0.16 0.16 0.359 0.281 0.601 0.359l0.039-0.117c0.375-0.348 1.133-0.321 2.282 0.078l0.398 0.121 0.039-0.121c0.133-0.348 0.547-0.465 1.242-0.36 0.399 0.055 0.891 0.133 1.481 0.243 0.238 0 0.664-0.11 1.277-0.321 0.535-0.109 0.906 0 1.121 0.321 0.16-0.215 0.508-0.348 1.039-0.403h0.199l-0.796-0.039h-0.602l0.48-0.238c-0.558-0.137-1.839-0.297-3.839-0.484-3.121-0.344-5-0.266-5.641 0.242 0.133 0.265 0.52 0.426 1.16 0.48l-0.48 0.239zm4.082 3.8c-0.375 0.078-0.641 0.172-0.801 0.282 0.371-0.028 0.894-0.028 1.559 0 0.585-0.028 1.093-0.149 1.519-0.36 0.266-0.133 0.586-0.375 0.961-0.722 0.375-0.372 0.668-0.614 0.879-0.719l0.84-0.36c-0.641 0-1.106 0.028-1.399 0.082-0.215 0.051-0.359 0.106-0.441 0.161-0.133 0.078-0.266 0.238-0.399 0.476-0.187 0.242-0.335 0.403-0.441 0.485-0.184 0.156-0.465 0.277-0.84 0.355-0.187 0.082-0.398 0.133-0.64 0.16h-0.161c-0.238 0.055-0.453 0.11-0.636 0.16zm40.078 3.36c-0.028-0.078-0.039-0.145-0.039-0.2-0.082-0.054-0.149-0.054-0.199 0-0.055 0.481-0.082 1.079-0.082 1.801 0.027 0.801 0.039 1.399 0.039 1.801v0.957c0.293-1.785 0.386-3.238 0.281-4.359z" inkscape:connector-curvature="0"/>
      <path id="path20" style="fill-rule:evenodd;fill:#848958" d="m12.121 8.69h0.039l-0.039 0.043c0 0.051 0.012 0.106 0.039 0.16l0.039 0.317 0.242 0.363v0.039c0.239 0.293 0.614 0.492 1.118 0.598 0.187 0.027 0.375 0.043 0.562 0.043 0.453 0.023 0.84-0.122 1.16-0.442 0.078-0.105 0.16-0.226 0.239-0.359-0.215 0.906 0.199 1.265 1.242 1.078 0.851-0.133 1.57-0.438 2.16-0.918-0.027 0.16-0.027 0.332 0 0.519 0 0.801 0.144 1.442 0.437 1.918 0.028 0 0.039 0.016 0.039 0.043l0.161-0.043c0.402-0.078 0.652-0.304 0.761-0.679 0.133-0.371 0.094-0.719-0.121-1.039l0.281 0.281c0.188 0.027 0.293-0.016 0.321-0.121v-0.36c0.054-0.347 0.027-0.652-0.082-0.921-0.16-0.293-0.387-0.45-0.68-0.477 0.375-0.027 0.508-0.309 0.402-0.84 0-0.082-0.027-0.16-0.082-0.242-0.238 0.027-0.504 0.027-0.8 0-0.797-0.078-1.504-0.359-2.118-0.84 0.348-0.051 0.825-0.051 1.438 0-0.051-0.16-0.184-0.281-0.399-0.359-0.242-0.106-0.535-0.133-0.878-0.082-0.297 0.054-0.469 0.148-0.524 0.281v-0.398c-0.051-0.161-0.211-0.266-0.476-0.321-0.215-0.027-0.403 0.012-0.563 0.117-0.211 0.11-0.32 0.254-0.32 0.442-0.133-0.266-0.453-0.371-0.957-0.32-0.535 0.054-0.817 0.281-0.84 0.683-0.027-0.43-0.27-0.801-0.723-1.121l-0.359-0.16-0.121-0.043c-0.641-0.16-1.024-0.172-1.16-0.039-0.184 0.187-0.227 0.414-0.118 0.68 0.079 0.242 0.239 0.453 0.481 0.64-0.375-0.187-0.789-0.293-1.242-0.32-0.559-0.051-0.852 0.055-0.879 0.32-0.028 0.188 0.094 0.36 0.359 0.52 0.238 0.105 0.492 0.172 0.762 0.199-0.27 0.027-0.481 0.137-0.641 0.32-0.187 0.188-0.187 0.387 0 0.602 0.078 0.078 0.293 0.121 0.641 0.121 0.316 0.023 0.613 0 0.879-0.082 0.133-0.078 0.254-0.172 0.359-0.281l-0.039 0.48zm24.117 2.481v-0.239l0.121 0.078v0.039l0.121-0.199 0.04 0.321c0.269 0.132 0.613 0.187 1.042 0.16 0.45-0.028 0.747-0.121 0.879-0.282 0.161-0.156 0.188-0.371 0.082-0.636 0.289 0.051 0.625 0.027 1-0.082 0.372-0.106 0.614-0.239 0.719-0.399 0.348-0.668-0.109-1.027-1.363-1.082 0.508 0 0.883-0.051 1.121-0.16 0.082-0.906-0.625-1.184-2.121-0.84 0.457-0.558 0.269-0.84-0.559-0.84-0.824-0.023-1.386 0.133-1.679 0.481 0-0.453-0.039-0.746-0.118-0.879-0.109-0.242-0.363-0.332-0.761-0.281-0.559 0.054-0.867 0.386-0.922 1-0.106-0.399-0.477-0.575-1.117-0.52-0.453 0.028-0.746 0.121-0.883 0.281-0.133 0.161-0.184 0.454-0.16 0.879-0.051-0.132-0.223-0.215-0.516-0.238-0.297-0.027-0.484 0.023-0.562 0.16-0.079 0.106-0.067 0.25 0.039 0.438-0.93-0.106-1.411-0.028-1.438 0.242-0.055 0.211 0.106 0.414 0.481 0.598 0.183 0.132 0.398 0.226 0.64 0.281-0.535-0.055-0.683 0.078-0.441 0.398 0.265 0.348 0.84 0.574 1.719 0.68-1.332-0.051-2.372 0.055-3.122 0.32 0 0.188 0.137 0.336 0.403 0.442 0.133 0.054 0.347 0.121 0.64 0.199 0.028 0.055 0.028 0.121 0 0.199 0.133 0.109 0.36 0.188 0.68 0.242l-0.043 0.078c0.719 0 1.32-0.144 1.801-0.437 0.051 0.105 0.105 0.211 0.16 0.32 0.078 0.106 0.184 0.211 0.317 0.317l0.441-0.118 0.32 0.36h0.121c0.481 0 0.985-0.106 1.52-0.321 0.027 0 0.051-0.015 0.082-0.039 0.531-0.214 0.973-0.519 1.316-0.921zm12.684-2.2c0.023-0.375-0.016-0.64-0.121-0.8-0.133-0.184-0.387-0.293-0.762-0.321-0.664 0-0.934 0.215-0.801 0.641 0.11 0.265 0.375 0.426 0.801 0.48h0.883zm-15.082 0.84-0.078-0.398c0.105-0.082 0.293-0.137 0.558-0.16 0.293 0 0.453 0.066 0.481 0.199l-0.961 0.359zm-0.961 1.082-0.359 0.36c-0.266 0.023-0.493-0.028-0.68-0.161 0.027-0.425 0.375-0.496 1.039-0.199zm0.16-1.242c0.109 0 0.254 0.016 0.441 0.039l-0.359 0.84c-0.293-0.293-0.469-0.547-0.519-0.758 0.105-0.082 0.25-0.121 0.437-0.121zm-0.519-1.641c0.48-0.16 0.679 0.039 0.601 0.602l-0.242 0.48c-0.32-0.265-0.438-0.628-0.359-1.082zm3.718 0.961c0.028-0.027 0.071-0.172 0.121-0.441 0.055-0.16 0.176-0.227 0.36-0.199 0.215 0.054 0.293 0.308 0.242 0.761l-0.723-0.121zm-1.437-0.718v0.597l-0.723-0.117c-0.133-0.457 0.11-0.617 0.723-0.48zm-2.879 1.558c-0.242 0-0.508-0.094-0.801-0.281-0.293-0.211-0.402-0.438-0.32-0.68 0.051-0.133 0.211-0.183 0.48-0.16 0.239 0 0.414 0.055 0.52 0.16l0.121 0.961zm-19.203-2.281c-0.211-0.106-0.321-0.266-0.321-0.481 0.161-0.156 0.442-0.226 0.84-0.199 0.43 0.028 0.707 0.137 0.84 0.321 0.11 0.16 0.137 0.468 0.082 0.921-0.215 0.051-0.375 0.067-0.48 0.039l-0.36-0.48c-0.215 0.027-0.414-0.012-0.601-0.121z" inkscape:connector-curvature="0"/>
      <path id="path22" style="fill-rule:evenodd;fill:#4e512f" d="m51.238 6.53c-0.05 0.055-0.105 0.121-0.16 0.203 0.055-0.027 0.11-0.07 0.16-0.121v-0.082zm0.321-1.598 0.043-0.281c-0.11-0.266-0.524-0.254-1.243 0.043 0.133 0.133 0.176 0.305 0.121 0.516 0.051-0.133 0.211-0.25 0.481-0.36 0.266-0.078 0.465-0.066 0.598 0.043v0.039zm-0.118 1.239c0.371-0.028 0.774-0.012 1.2 0.039 0.027 0.082 0.027 0.16 0 0.242l0.039 0.48c0.054 0.371 0.054 0.719 0 1.039 0.586-0.16 0.84-0.343 0.761-0.558-0.027-0.188-0.16-0.321-0.402-0.403l-0.039-0.039c-0.055 0-0.105-0.011-0.16-0.039 0.16 0.028 0.293 0.039 0.398 0.039 0.403 0.028 0.617 0.028 0.641 0 0.48 0 0.816-0.093 1-0.281l-0.199-0.277c0.453 0.133 0.828-0.016 1.121-0.442 0.027-0.027 0.051-0.066 0.078-0.121 0.16-0.265 0.32-0.48 0.48-0.64 0.082-0.079 0.149-0.133 0.203-0.161-0.773-0.183-1.468-0.089-2.082 0.282v-0.797c-0.585-0.082-1.105-0.028-1.558 0.16-0.32 0.133-0.734 0.398-1.242 0.797-0.028 0.187-0.106 0.414-0.239 0.68zm-39.441-5c-0.082 0-0.148-0.028-0.199-0.079h-0.121l-0.719-0.082c-0.215-0.027-0.402-0.039-0.563-0.039h-0.199c-0.531 0.051-0.879 0.188-1.039 0.399-0.215-0.321-0.586-0.426-1.121-0.321-0.613 0.215-1.039 0.321-1.277 0.321-0.59-0.106-1.082-0.188-1.481-0.239-0.695-0.109-1.109 0.012-1.242 0.36 0.773 0 1.348 0.16 1.723 0.48 0-0.16-0.016-0.265-0.043-0.32 0.347-0.133 0.707-0.187 1.082-0.16 0.453 0.055 0.746 0.215 0.879 0.48 0.187-0.132 0.386-0.199 0.601-0.199 0.266 0 0.387 0.121 0.36 0.359 0.48-0.187 0.828-0.281 1.039-0.281 0.375 0.028 0.601 0.242 0.679 0.641 0.215-0.027 0.387 0.015 0.52 0.121 0.133 0.133 0.187 0.305 0.16 0.519 0.027-0.187 0.149-0.292 0.359-0.32 0.188-0.027 0.364 0 0.524 0.082 0.426 0.106 0.758 0.426 1 0.957 0.262 0.528 0.488 0.887 0.68 1.082 0.023 0.028 0.05 0.051 0.078 0.078-0.028-0.105-0.055-0.211-0.078-0.316l-0.043-0.16-0.039-0.281c0-0.082 0.015-0.149 0.039-0.204 0.16-0.238 0.546-0.355 1.16-0.355-0.106-0.27-0.36-0.363-0.758-0.281-0.402 0.051-0.656 0.211-0.762 0.48v-1.441c-0.105-0.613-0.398-0.774-0.879-0.481v-0.16c-0.027 0-0.039-0.027-0.039-0.082l-0.203-0.398v-0.039l-0.039-0.082-0.039-0.039zm-10.719 0.359 0.84 0.363-0.16 0.477c0.211 0.16 0.437 0.281 0.68 0.363 0.132 0.051 0.265 0.09 0.398 0.117v-0.039c-0.078-0.215-0.012-0.359 0.199-0.441 0.242-0.078 0.535-0.028 0.883 0.16h0.039c-0.48-0.371-0.812-0.668-1-0.879 0.051-0.055 0.199-0.109 0.442-0.16-1.149-0.399-1.907-0.426-2.282-0.082l-0.039 0.121zm44.52 7.84c-0.11-0.106-0.188-0.211-0.242-0.321-0.051-0.05-0.094-0.117-0.118-0.199 0 0.188 0.012 0.348 0.039 0.481 0.028 0.187 0.094 0.281 0.2 0.281h0.043c-0.004-0.082 0.023-0.16 0.078-0.242zm-1-1.239c0 0.051 0.011 0.122 0.039 0.2 0.082-0.055 0.172-0.039 0.281 0.039 0.051 0.027 0.094 0.066 0.117 0.121h0.043c-0.027-0.078-0.027-0.16 0-0.238l-0.441-0.801c0-0.613-0.078-0.988-0.238-1.121l-0.122-0.039-0.039-0.399c-0.027-0.429 0.094-0.695 0.36-0.801 0.265-0.109 0.547-0.093 0.84 0.039-0.266-0.132-0.332-0.375-0.2-0.718 0.293-0.082 0.598-0.055 0.918 0.078 0.348 0.133 0.586 0.336 0.719 0.601-0.051-0.429 0.254-0.679 0.922-0.761 0.586-0.051 0.867 0.093 0.84 0.441 0.055-0.16 0.215-0.281 0.48-0.359 0.348-0.082 0.641-0.043 0.879 0.117 0.11-0.266 0.067-0.465-0.117-0.598-0.109-0.054-0.309-0.054-0.602 0-0.347 0.106-0.546 0.16-0.601 0.16 0.16-0.082 0.484-0.187 0.961-0.32 0.375-0.16 0.508-0.387 0.402-0.68-0.133-0.347-0.469-0.48-1-0.402-0.453 0.055-0.828 0.203-1.121 0.441-0.027-0.375-0.519-0.48-1.48-0.32-0.934 0.188-1.426 0.453-1.481 0.801-0.051-0.215-0.254-0.32-0.598-0.32-0.296 0-0.535 0.054-0.722 0.16-0.051 0.082-0.051 0.172 0 0.281-0.348-0.215-0.719-0.309-1.121-0.281 0.16 0.426 0.215 0.894 0.16 1.398 0.109-0.238 0.266-0.293 0.48-0.156 0.266 0.133 0.293 0.437 0.082 0.918-0.132 0.348-0.293 0.625-0.48 0.84 0.133-0.133 0.359-0.227 0.68-0.281 0.371-0.051 0.652-0.012 0.839 0.121 0.082 0.425 0.2 0.812 0.36 1.16 0 0.265-0.012 0.492-0.039 0.679zm-4.16-5.32c0.214 0.11 0.425 0.16 0.64 0.16l0.078-0.199-0.238-0.039c-0.055-0.027-0.215 0-0.48 0.078zm-1.52-0.68 0.84 0.399c-0.109-0.211-0.254-0.348-0.441-0.399h-0.399zm-16.961 1.36c-0.375 0.265-0.695 0.734-0.961 1.402l-0.238 0.477c-0.215 0.347-0.453 0.656-0.723 0.922-0.316 0.32-0.758 0.492-1.316 0.519h-0.043c-0.613-0.051-1.094-0.051-1.438 0 0.614 0.481 1.321 0.762 2.118 0.84 0.296 0.027 0.562 0.027 0.8 0 0.563-0.055 1.028-0.238 1.403-0.559 0.238-0.214 0.465-0.453 0.679-0.722 0.454-0.531 0.864-1.145 1.239-1.84 0.054-0.106 0.148-0.293 0.281-0.559 0-0.027 0.012-0.05 0.039-0.078 0.078 0.156 0.121 0.41 0.121 0.758-0.027 0.508-0.043 0.828-0.043 0.961 0.348-0.586 0.895-1 1.641-1.242-0.266-0.211-0.465-0.387-0.598-0.52-0.266-0.238-0.336-0.48-0.199-0.719 0.558-0.16 1.078-0.148 1.558 0.04-0.082-0.399 0.04-0.665 0.36-0.801 0.375-0.16 0.707-0.16 1 0 0.293 0.136 0.453 0.386 0.48 0.761l0.121-0.281c0.051 0.082 0.051 0.215 0 0.399-0.027 0.242-0.043 0.402-0.043 0.484 0.055 0.293 0.149 0.504 0.282 0.637 0.16 0.136 0.32 0.094 0.48-0.117l-0.039-0.762c0.024-0.481 0.238-0.852 0.641-1.121 0.636-0.477 1.226-0.68 1.758-0.598 0 0.32 0.054 0.547 0.16 0.68 0.215-0.559 0.586-0.735 1.121-0.52 0.16 0.055 0.332 0.215 0.519 0.481 0.184 0.238 0.344 0.375 0.481 0.398l0.039-0.68c0.133 0.028 0.293 0 0.48-0.082 0.371-0.023 0.825 0.149 1.36 0.524 0.054-0.137 0.082-0.32 0.082-0.563 0.957-0.238 1.929-0.238 2.918 0-0.426-0.238-0.707-0.359-0.84-0.359h-0.481c-0.187 0.082-0.359 0.109-0.519 0.082l-0.918-0.562c-0.508-0.211-1.043-0.293-1.602-0.239-0.613 0.028-1.066 0.305-1.359 0.84-0.481-0.16-0.856-0.266-1.121-0.32-0.481-0.133-0.785-0.028-0.918 0.32-0.453-0.238-0.934-0.375-1.442-0.398-0.613-0.055-1.093 0.066-1.441 0.359-0.211-0.402-0.414-0.574-0.598-0.519-0.109 0.023-0.363 0.238-0.761 0.64-0.453-0.348-0.774-0.562-0.961-0.64-0.321-0.11-0.52 0.117-0.598 0.679h-0.922v0.801l-0.039-0.043c-0.055 0.27-0.133 0.547-0.238 0.84-0.215 0.613-0.481 1.133-0.801 1.558-0.426 0.618-0.883 0.989-1.359 1.122-0.11 0.054-0.336 0.093-0.684 0.121h-0.199c0.453-0.161 0.773-0.442 0.961-0.84 0.16-0.348 0.254-0.895 0.281-1.641 0-0.105 0.012-0.215 0.039-0.32zm-7.359 0.199c0.879 0 1.48 0.133 1.801 0.402-0.082-0.293-0.122-0.468-0.122-0.519-0.027-0.137 0.04-0.254 0.2-0.363 0.187-0.106 0.453-0.118 0.8-0.039 0.293 0.109 0.508 0.253 0.641 0.441-0.187-0.402-0.187-0.691 0-0.879 0.238-0.16 0.547-0.094 0.918 0.199 0.188 0.16 0.414 0.387 0.68 0.68 0.16-0.481 0.402-0.691 0.722-0.641 0.321 0.055 0.493 0.321 0.52 0.801 0.293-0.293 0.691-0.48 1.199-0.562 0.028-0.317 0.067-0.559 0.121-0.719-0.136-0.371-0.386-0.547-0.761-0.52-0.399 0.055-0.665 0.266-0.801 0.641-0.024-0.453-0.414-0.68-1.16-0.68-0.747-0.027-1.051 0.188-0.918 0.641-0.188-0.242-0.426-0.32-0.719-0.242-0.297 0.082-0.508 0.242-0.641 0.48-0.801-0.16-1.48-0.183-2.043-0.078 0 0.133 0.055 0.266 0.16 0.398 0.055 0.055 0.149 0.161 0.282 0.321-0.481 0-0.774 0.078-0.879 0.238zm7.758 3.121-0.52 0.199h0.481c0.453-0.05 0.718-0.023 0.8 0.082 0.106 0.106 0.055 0.36-0.16 0.758l-0.082 0.16c0.481 0 0.762 0.067 0.844 0.2 0.078 0.054 0.133 0.187 0.156 0.402 0 0.238-0.039 0.437-0.117 0.598-0.082 0.187-0.188 0.308-0.32 0.363l-0.039 0.039-0.481 0.078c0.078 0.055 0.238 0.082 0.481 0.082l0.277 0.039c0.187 0.055 0.254 0.176 0.199 0.36-0.023 0.132-0.133 0.242-0.316 0.32l-0.282 0.242 0.36 0.039h0.082c-0.027 0.266-0.16 0.586-0.402 0.961 0.082 0.106 0.187 0.184 0.32 0.238l0.238-0.281c0.508-0.586 0.789-0.934 0.844-1.039 0.156-0.293 0.211-0.652 0.156-1.078l-0.039-0.16c-0.051-0.082-0.144-0.149-0.277-0.203-0.16-0.051-0.27-0.106-0.321-0.161 0.133-0.156 0.305-0.359 0.52-0.597 0.184-0.242 0.238-0.492 0.16-0.762-0.242-0.023-0.426-0.199-0.562-0.519-0.184-0.348-0.387-0.547-0.598-0.598-0.293-0.082-0.762 0-1.402 0.238zm0.519 5.481c-0.183 0.214-0.41 0.414-0.68 0.601l0.204 0.039-0.602 0.598 0.801-0.559 0.277-0.679z" inkscape:connector-curvature="0"/>
      <path id="path24" style="fill-rule:evenodd;fill:#939865" d="m33.039 9.651c-0.184 0-0.332 0.039-0.437 0.121 0.05 0.215 0.226 0.465 0.519 0.758l0.359-0.84c-0.187-0.023-0.332-0.039-0.441-0.039zm-0.16 1.242c-0.664-0.297-1.012-0.226-1.039 0.199 0.187 0.133 0.414 0.184 0.68 0.161l0.359-0.36zm0.961-1.082 0.961-0.359c-0.028-0.133-0.188-0.199-0.481-0.199-0.265 0.023-0.453 0.078-0.558 0.16l0.078 0.398zm0.961-1.558c-0.613-0.137-0.856 0.023-0.723 0.48l0.723 0.117v-0.597zm1.437 0.718 0.723 0.121c0.051-0.453-0.027-0.707-0.242-0.761-0.184-0.028-0.305 0.039-0.36 0.199-0.05 0.269-0.093 0.414-0.121 0.441zm-3.718-0.961c-0.079 0.454 0.039 0.817 0.359 1.082l0.242-0.48c0.078-0.563-0.121-0.762-0.601-0.602zm4.441-2.039c0.051-0.16 0.012-0.293-0.121-0.398-0.133-0.109-0.293-0.137-0.481-0.082l0.121 0.601 0.481-0.121zm1.437 0.481c-0.078-0.133-0.183-0.172-0.32-0.121-0.051 0.215-0.066 0.375-0.039 0.48l0.359-0.359zm-5.039-0.84c-0.05 0.16-0.027 0.309 0.082 0.437 0.106 0.137 0.239 0.188 0.399 0.161l0.961-0.239c-0.188-0.375-0.668-0.492-1.442-0.359zm-1.437 4.199-0.121-0.961c-0.11-0.105-0.281-0.16-0.52-0.16-0.269-0.023-0.426 0.027-0.48 0.16-0.082 0.242 0.027 0.469 0.32 0.68 0.293 0.187 0.559 0.281 0.801 0.281zm-2-3.719c-0.027 0.133 0.023 0.239 0.156 0.321 0.137 0.051 0.254 0.066 0.363 0.039l1.118-0.121c-0.106-0.184-0.371-0.332-0.797-0.438-0.481-0.082-0.762-0.015-0.84 0.199zm-2.242 0.918c0 0.215 0.066 0.403 0.199 0.563 0.16 0.16 0.336 0.226 0.519 0.199l0.723-0.48c0.051-0.266-0.133-0.399-0.562-0.399-0.344-0.027-0.637 0.012-0.879 0.117zm0.359 3.039 0.121-0.238c-0.055-0.133-0.254-0.172-0.601-0.121-0.079 0.297 0.082 0.414 0.48 0.359zm-8.961-5.156-0.277-0.043h-0.039c-0.215 0.055-0.297 0.27-0.242 0.641l0.839 0.48c0-0.586-0.093-0.945-0.281-1.078zm3.16 4.199c-0.105-0.132-0.25-0.175-0.437-0.121-0.055 0.239 0.094 0.481 0.437 0.719v-0.598zm-13.359-4.32c-0.078 0.32 0.16 0.598 0.723 0.84l0.117-0.242c0.136-0.504-0.145-0.707-0.84-0.598zm-1.68 0.438c0 0.054 0.016 0.109 0.039 0.16l0.043 0.082 0.117 0.16c0.243 0.215 0.657 0.293 1.243 0.238l-0.121-0.117c-0.161-0.375-0.293-0.668-0.399-0.883 0-0.023-0.016-0.051-0.043-0.078-0.293 0.16-0.586 0.305-0.879 0.438zm3.52-0.719h-0.16l-0.118 0.039c-0.027 0.187 0.012 0.387 0.118 0.601l0.48-0.121-0.117-0.316c-0.055-0.109-0.121-0.176-0.203-0.203zm2 3.039c0.187 0.109 0.386 0.148 0.601 0.121l0.36 0.48c0.105 0.028 0.265 0.012 0.48-0.039 0.051-0.453 0.028-0.761-0.082-0.921-0.133-0.184-0.41-0.293-0.84-0.321-0.398-0.027-0.679 0.043-0.84 0.199 0 0.215 0.11 0.375 0.321 0.481zm3.203-2.84c-0.402 0.27-0.336 0.453 0.199 0.559l0.598-0.118c-0.16-0.507-0.426-0.652-0.797-0.441z" inkscape:connector-curvature="0"/>
    </g>
  </g>
<metadata><rdf:RDF><cc:Work><dc:format>image/svg+xml</dc:format><dc:type rdf:resource="http://purl.org/dc/dcmitype/StillImage"/><cc:license rdf:resource="http://creativecommons.org/licenses/publicdomain/"/><dc:publisher><cc:Agent rdf:about="http://openclipart.org/"><dc:title>Openclipart</dc:title></cc:Agent></dc:publisher></cc:Work><cc:License rdf:about="http://creativecommons.org/licenses/publicdomain/"><cc:permits rdf:resource="http://creativecommons.org/ns#Reproduction"/><cc:permits rdf:resource="http://creativecommons.org/ns#Distribution"/><cc:permits rdf:resource="http://creativecommons.org/ns#DerivativeWorks"/></cc:License></rdf:RDF></metadata></svg>
