<svg
  class="Boy-Frisbee"
  xmlns="http://www.w3.org/2000/svg"
  version="1.0"
  aria-label="A silhouette of a boy throwing a frisbee"
>
  <g id="layer1" transform="translate(-38.842 -157.25)">
    <path
      id="path2243"
      d="m286.85 489.06c1.52-4.11 3.06-5 23.49-13.56 5.9-2.48 10.73-6.52 10.73-8.99s2.57-5.78 5.71-7.35c3.82-1.92 7.45-14.95 11.01-39.57 5.24-36.24 11.02-52.46 18.7-52.46 2.16 0 8.68-3.99 14.49-8.86 5.8-4.88 14.13-9.69 18.5-10.7 30.53-7.04-8.81-67.65-49.88-76.84-5.9-1.32-10.73-3.48-10.73-4.8s-10.97-4.37-24.38-6.77-34.03-7-45.83-10.2c-11.8-3.21-28.48-6.16-37.06-6.55-27.34-1.26-51.62-6.41-43.64-9.26 3.89-1.39 5.9-4.24 4.46-6.33-1.82-2.65 3.12-3.07 16.33-1.4 17.9 2.27 18.52 2.09 11.15-3.28-7.53-5.48-7.39-5.6 3.9-3.41 6.43 1.25 14.47 4.43 17.86 7.06 3.73 2.9 15.39 4.78 29.58 4.78 12.88 0 24.58 1.04 25.99 2.31 3.04 2.72 72.41 2.75 75.45 0.03 4.07-3.66-3.19-9.34-11.93-9.34-11.45 0-19.02-19.53-13.85-35.71 2.78-8.7 2.12-11.87-3.25-15.62-6.33-4.42-6.28-5.01 0.84-9.95 9.76-6.77 17.79-6.71 17.79 0.12 0 4.23 1.61 4.61 7.54 1.75 20.43-9.81 41.88 15.71 34.67 41.23-2.57 9.09-5.79 13.75-8.54 12.38-2.43-1.2-1.57 0.53 1.92 3.86 4.85 4.64 8.04 5.2 13.65 2.41 20.9-10.38 38.09-15.65 39.42-12.07 0.89 2.38 8.97 0.54 21.56-4.92 23.46-10.16 43.43-9.44 59.86 2.16 10.96 7.74 24.95 9.41 35.95 4.3 12.25-5.69 48.15-7.09 43.15-1.68-3.26 3.52-3.2 4.73 0.23 4.73 2.53 0 3.42 1.73 1.97 3.84-1.45 2.1-6.92 3.09-12.16 2.19-6.93-1.19-8.96-0.32-7.47 3.17 1.13 2.65 0.36 4.81-1.72 4.81s-3.78-1.58-3.78-3.5c0-5.19-10.06-4.24-15.31 1.44-3.13 3.38-3.28 5.66-0.48 7.21 2.25 1.25 4.09 3.7 4.09 5.45 0 4.13-10.91 0.42-24.02-8.16-7.48-4.89-14.55-6.33-25.36-5.15-8.24 0.89-18.83 0.08-23.53-1.8-7.2-2.89-10.6-1.51-21.46 8.68-7.1 6.66-15.98 13.12-19.73 14.36-8.77 2.9-8.77 15.98 0 27.03 16.92 21.33 20 42.31 21.04 48.77 1.49 9.34 3 6.52 9.63 14.22 1.8 2.08 16.98 10.24 31.2 22.76 14.23 12.52 26.57 22.76 27.43 22.76 8.72 0 35.65 22.46 45.26 37.75 6.54 10.4 15.95 20.22 21.04 21.96 5.07 1.73 9.21 5.17 9.21 7.65s4.7 7.64 10.43 11.47c21.66 14.44 25.87 20.28 18.24 25.28-9.02 5.93-18.83 5.61-24.77-0.81-2.67-2.89-7.27-5.26-10.23-5.26-2.95 0-5.37-2.77-5.37-6.16s-3.38-8.05-7.51-10.37c-4.13-2.31-8.08-7.81-8.78-12.22-0.8-5.04-6.32-10.27-14.92-14.12-7.51-3.36-19.8-11.59-27.31-18.3s-16.39-14.41-19.74-17.12c-6.87-5.55-39.67-21.09-42.67-20.22-1.07 0.31-8.69-3.39-16.93-8.24-19.78-11.62-26.41-11.15-53.43 3.82-12.53 6.94-25.08 11.88-27.9 10.98-9.94-3.19-18.07 4.37-20.72 19.25-1.47 8.21-7 23.31-12.3 33.56-6.38 12.32-8.39 20.03-5.95 22.76 17.41 19.43 10.03 26.89-26.62 26.89-25.71 0-35.32-1.16-34.21-4.13zm-230.06-278.56c-37.878-3.06-10.683-14.95 34.203-14.95 48.652 0 68.462 11.34 26.662 15.26-23.924 2.25-29.575 2.22-60.865-0.31z"
    />
  </g>
</svg>
