<svg
  class="Header-Cloud-2"
  xmlns="http://www.w3.org/2000/svg"
  version="1.1"
  width="886"
  height="677"
  fill="#d3d3d3"
  aria-label="A light gray cloud"
>
  <g>
    <path
      fill="#d3d3d3"
      d="m 165.5,675.83455 c -20.45306,-2.31082 -42.36559,-8.77757 -62.36929,-18.4062 C 56.02257,634.75318 21.267117,596.90677 7.1978219,552.96372 1.9484874,536.56831 0.57325453,527.33783 0.57325453,508.5 c 0,-25.40919 4.14891767,-43.05246 15.52028447,-66 8.217328,-16.58266 17.145426,-28.74357 32.394499,-44.12435 13.908576,-14.02871 24.289612,-22.23671 39.286917,-31.06309 6.387651,-3.75933 9.191868,-5.95664 8.824312,-6.91447 -0.296322,-0.7722 -1.246695,-5.48421 -2.11194,-10.47113 -11.215653,-64.64246 10.362053,-134.71744 54.646683,-177.46863 18.68058,-18.03372 35.678,-27.94378 57.56653,-33.56317 6.95131,-1.7846 11.52985,-2.25592 21.79946,-2.24409 14.65726,0.0169 25.18026,2.07643 38.10877,7.45859 4.12214,1.71605 7.61266,2.9559 7.7567,2.75522 0.14405,-0.20069 2.23505,-5.76053 4.64668,-12.35521 C 284.74381,118.83623 297.02063,94.298644 306.03464,80.5 333.13486,39.014996 367.1545,11.947106 403.72348,2.773416 415.63843,-0.21556795 441.44468,-0.43645397 453.5,2.3473588 500.74241,13.256568 545.25356,55.615312 572.26017,115.36468 c 2.76823,6.12443 5.16891,11.29958 5.33484,11.50034 0.16594,0.20076 6.06244,-1.24997 13.10334,-3.22386 14.69972,-4.12099 25.45687,-6.16116 40.1576,-7.61617 53.08022,-5.25364 111.64782,11.41088 152.60494,43.42142 10.45631,8.17226 26.63336,25.07064 33.35397,34.84122 27.57174,40.08444 27.85995,88.466 0.76277,128.04548 -2.51769,3.67748 -4.55814,7.01945 -4.53431,7.42661 0.0238,0.40715 3.21572,2.97886 7.09308,5.71489 15.55186,10.97406 31.49642,28.20075 42.59986,46.02539 37.97457,60.96159 28.4161,134.6856 -24.24494,187 -21.74681,21.60367 -47.04202,35.50874 -75.80291,41.66974 -14.28648,3.06037 -36.91029,3.04688 -51.42208,-0.0307 -17.42558,-3.69548 -33.9853,-10.53583 -48.54726,-20.05347 -4.27951,-2.79708 -8.10451,-5.06238 -8.5,-5.03401 -0.39549,0.0284 -3.41907,3.93151 -6.71907,8.67364 -6.96459,10.00818 -22.80714,26.94724 -32.95119,35.23183 -22.13056,18.07392 -49.18604,31.22711 -76.39068,37.13781 -15.17158,3.29629 -42.85991,3.76926 -59.06147,1.00888 -47.53154,-8.09832 -90.83592,-36.72314 -119.24389,-78.82193 l -5.02863,-7.45211 -5.72584,8.83515 c -38.64167,59.6254 -112.34987,94.21948 -183.5983,86.1697 z"
    />
  </g>
</svg>
