<svg
  class="Lightning"
  xmlns="http://www.w3.org/2000/svg"
  x="0px"
  y="0px"
  width="503"
  height="399"
  viewBox="0 0 503.0000000000011 398.9999999999984"
  enable-background="new 0 0 578 462"
  aria-label="A yellow cartoon lightning bolt"
>
  <path
    style="fill: #fec80d"
    d="m 27.73367700302969,364.1270874849367 -11.76632299697031,5.9046936740208 5.44743132655551,-10.7658905794787 5.44743132655551,-10.7658905794788 41.66469932841486,-50.5 41.66469932841484,-50.5 -18.04309137440711,-0.5 -18.04309137440711,-0.5 11.19728371640704,-14.766664369806 11.19728371640709,-14.766664369806 47.5,-39.6081328665137 47.7791915939985,-40.3209104121895 0.2791915939985,-0.7127775456758 -6.2791915939985,-2.665851313022 -6.2791915939985,-2.6658513130219 -25.392602147244,-5.472509385562 -25.722502803072,-5.8024100413864 43.2222588798451,-52.77406451942062 44.2836463453744,-53.20530740590407 0.7314868097014,-0.76114354230788 121.3662391785523,4.52185959648233 121.6775938529672,4.83321427092443 -8.4982159616809,7.52963787028261 -8.8095706360958,7.21828319584052 -64.9291667591739,38.55555238222326 -76.9291667591738,45.64633908375564 -12,7.0907867015323 20.811757186176,5.2083975113085 21.2481157713723,5.6447560964859 -64.1633369014183,49.5973144826785 -64.5996954866146,49.1609558975012 1.3515797152423,0.4668813090238 10.6960769962322,2.6130977168088 9.34449728099,2.146216407785 -0.84449728099,0.7677420776347 -27.7731921720521,19.0475478450749 -26.9286948910622,18.2798057674404 -64.0713051089378,38.4581463413745 -64.07130510893784,38.4581463413747 z"
  />
</svg>
