<svg
  class="Moon"
  xmlns="http://www.w3.org/2000/svg"
  aria-label="A cartoon full moon"
>
  <defs id="defs3">
    <linearGradient id="linearGradient1818">
      <stop id="stop1819" style="stop-color: #ffffff" offset="0" />
      <stop
        id="stop1820"
        style="stop-color: #ffffff; stop-opacity: 0"
        offset="1"
      />
    </linearGradient>
    <linearGradient id="linearGradient1779">
      <stop id="stop1780" style="stop-color: #a3a3a3" offset="0" />
      <stop id="stop1781" style="stop-color: #696969" offset="1" />
    </linearGradient>
    <radialGradient
      id="radialGradient1777"
      gradientUnits="userSpaceOnUse"
      cy="268.41"
      cx="51.249"
      r="731.79"
    >
      <stop id="stop1775" style="stop-color: #dddddd" offset="0" />
      <stop id="stop1776" style="stop-color: #7e7e7e" offset="1" />
    </radialGradient>
    <radialGradient
      id="radialGradient1783"
      gradientUnits="userSpaceOnUse"
      cy="429.83"
      cx="273.41"
      gradientTransform="scale(1.1678 .85630)"
      r="309.13"
    />
    <radialGradient
      id="radialGradient1821"
      gradientUnits="userSpaceOnUse"
      cy="120.82"
      cx="124.4"
      gradientTransform="scale(2.0419 .48973)"
      r="102.27"
    />
    <radialGradient
      id="radialGradient1823"
      gradientUnits="userSpaceOnUse"
      cy="120.82"
      cx="124.4"
      gradientTransform="matrix(2.0178 .41721 -.075080 .64498 56.379 -73.488)"
      r="102.27"
    />
  </defs>
  <path
    style="fill: url(#radialGradient1777)"
    transform="matrix(.87529 0 0 .87529 281.58 288.51)"
    d="m350.53 36.821a308.79 308.79 0 1 1 -617.57 0 308.79 308.79 0 1 1 617.57 0z"
  />
  <path
    style="opacity: 0.47826; fill: #ffffff"
    d="m404.97 347.41l-86.96 144.07 154.01-45.39-154.47 53.78 107.14 45.2-111.77-16.31 40.5 52.44-55.07-44.27 0.48 41.37-14.12-41.08-13.82 40.34 6.86-45.98-42.17 32.43 33.7-53.46-82.18 27.87 76.88-38.46-120.51-3.44 126.22-5.62-109.29-127.63 132.37 115.94 8.83-166.61 4.34 168.68 99.03-133.87z"
  />
  <path
    style="opacity: 0.45894; fill-rule: evenodd; fill: url(#radialGradient1783)"
    d="m189.16 98.781c-1.44-0.012-4.86 1.329-8.6 2.559-9.62 3.19-17.66 14.89-27.18 17.25-1.95 0.49-3.43 0.94-4.76 1.38 1.32-1.09 2.7-2.43 4-4.38 6.16-9.16 19.02-16.823 13.6-15.746-2.29 0.456-5.04 1.626-7.91 3.036-0.03 0.02-0.09 0.03-0.12 0.06-48.01 35.32-83.891 86.12-100.35 145.03 0.041 1.72-0.007 3.4-0.371 4.84-0.936 3.72-0.657 7.15-1.5 10.5-0.86 3.42-0.752 6.78-2.25 9.75-1.912 3.8-1.824 7.86-0.781 12 1.073 4.27-0.001 7.71 0 12 0 4.32-0.007 7.43 1.531 11.25 2.481 6.16 4.375 12.93 6.031 19.5 0.252 1 0.498 2 0.75 3 1.129 4.49-1.242 12.55 0.75 16.5 1.313 2.61 3.741 12 8.312 12 4.99 0 7.457 1.32 9.813 6 2.602 5.17 3.055 11.36 4.531 17.22 1.108 4.4 3.024 11.23 6.063 14.25 2.024 2.01 9.811 9.11 9.811 3 0-3.66 0.1-9.91 3.75-9 2.6 0.65 2.92 7.19 5.31 6 1.01-0.5 1.91-1.23 3-1.5 4.78-1.19 7.67-0.81 11.35-3 3.89-2.32 8.64-10.5 14.34-10.5 4.25 0 13.6-1.43 13.6 4.5 0 2.86 1.85 10.95 4.34 13.53-2.19 2.7-2.51 4.9-0.75 8.41 1.72 3.45 2.87 3.52 2.87 8.66 0 1.98-8.31 2.52-10.06 2.87-4.43 0.89-4.72 0.91-5.75 5.03-0.97 3.88 2.14 7.88 2.88 10.81 0.89 3.58 3.41 5.76 4.31 9.35 0.97 3.88 1.93 2.34 0.72 7.18-0.78 3.11 8.71 4.55 10.78 5.07 3.95 0.98 5.36 2.05 8.66 2.87 3.23 0.81 9.49-6.57 12.21-7.94 6.21-3.1 5.64 4.44 7.22-5.03 0.01-0.07-0.39-1.34-0.59-1.97 14.33 3.46 37.27 4.14 41.16 6.88 4.88-4.65 14.33-7.05 19.87-11.38 2.98-2.32 12.58-2.32 16.56-4.31 3.11-1.55 4.59-4.83 5.78-7.22 2.39-4.76 0.83-5.77 6.47-7.18 3.24-0.81-2.67-6.27-5.03-8.63-3.09-3.09-3.4-4.68-4.34-9.37-0.69-3.42 1.83-8.64 2.9-10.79 2.29-4.56 6.99-8.87 10.07-12.96 4.34-5.79-1.31-12.12-5.04-15.85-1.61-1.61-7.84 1.78-9.37 2.16-3.21 0.8-5.03-10.35-5.03-12.22 0-6.94-9.79-13.41-12.97-18.72-2.13-3.55-9.67-4.68-11.5-4.31-4.3 0.86 2.82 17.17 3.59 18.72 2.32 4.63 2.88 10.34 2.88 15.81 0 4.39-1.21 7.03-2.16 10.81-1.01 4.07-2.49 5.92-6.47 7.91-4.22 2.11-7.28 2.15-12.25 2.15-2.15 0-5.78-3.46-7.18-4.31-0.64-2.56-18 15.61-18 27.35 0 10.15 1.11 11.69-5.75 15.12-2.08 1.04-3.35 1.9-4.97 2.84-1.61-0.59-3.09-1.1-5.13-2.12-3.5-1.75-5.13-4.93-7.9-8.62-2.61-3.48-4.8-6.27-7.19-8.66-3.07-3.07-6.66 0.08-7.94-5.03-0.17-0.7-0.54-1.32-0.84-1.97 5.18 2.05 8.16 3.03 14.06 1.56 3.51-0.87 13.3-3.13 15.12-6.75 2.2-4.36 1.08-6.18-1.53-10.5-2.68-4.44-8.51-8.32-9.81-13.47-0.9-3.59-4.53-8-4.53-12.75 0-5.27 10.79-7.91 9.81-12.75-1.05-5.22-3.44-10.56-2.25-16.5 1.47-7.29 7.54-10.88 12.07-16.5 4.58-5.69 4.84-11.19 0.78-17.25-5.41-8.06-4.75-1.64-10.6-6-2.64-1.97-5.42-4.94-9.06-6.75-2.81-1.39-7.47-3.38-8.31-6.75-0.84-3.32-0.56-7.14-2.25-10.5-1.72-3.4-3.47-7.18-2.25-12 1.23-4.9 2.05-6.65 6.78-9 3.47-1.72 6.11-2.29 10.56-4.5 4.35-2.16 6.38-3 11.35-3h12.06c6.5 0 12.52-3 18.87-3h15.88c4.18 0 6.91-0.78 9.81-1.5 3.31-0.82 5.49-1.62 8.31-3.72 2.68-1.99 5.21-5.22 8.28-6.75 4.38-2.17 7.94-3.76 9.07-8.25 0.61-2.44 1.82-6.72 2.28-9 0.18-0.89 2.31-9.69 0.75-11.25-3.45-3.42-7.46-3.7-12.1-6-4.3-2.13-2.25-3.74-2.25-8.25 0-4.08 0.77-10.5 3.78-13.5 3.29-3.26 5.34-9.2 10.57-10.5 5.46-1.35 9.62-3.05 15.87-1.5 3.76 0.94 10.63 1.85 14.35 0 3.14-1.56 9.06-4.4 9.06-9.75 0-3.88-0.42-7.8-3.03-9.75-1.39-1.03-9.18-4.99-9.82-7.5-1.22-4.86-5.02-8.98-11.34-12.75-4.14-2.47-7.28-4.06-12.06-5.25-4.6-1.14-10.42-6.75-15.13-6.75-3.82 0-9.09-0.92-12.81 0-3.79 0.94-5.45 2.25-9.81 2.25-4.31 0-7.03-1.5-10.59-1.5-3.91 0-7.24 0.97-9.82 2.25-2.9 1.44-5.86 2.17-9.06 3.75-2.5 1.25-3.78 3.76-6.03 6-2.28 2.27-3.64 6.08-8.31 3.75-2.17-1.07-6.76-4.14-10.57-2.25-2.55 1.27-7.56 4.53-9.81 6.75-3.68 3.66-5.42 6.25-7.56 10.5-1.82 3.62-5.01 7.93-6.03 12-1.12 4.44-2.75 7.89-5.28 11.25-2.6 3.44-4.14 6.93-8.32 9-2.69 1.34-5.29 4.13-9.81 3-2.53-0.62-6.81-3.82-6.81-6.75 0-4.46 1.28-8.01 2.28-12 0.67-2.66 4.87-17.65 6.78-15.75 3.99 0 8.07-3.3 11.35-5.25 3.83-2.28 7.33-5.43 12.06-8.25 7.1-4.23 15.81-11.19 21.9-17.25 4.22-4.18 4.76-5.546 3.32-5.559zm40.72 353.22c-0.96 0.91-1.75 1.89-2.29 3 2.63-1.22 3.39-2.22 2.29-3zm-2.29 3c-2.52 1.17-6.69 2.56-13.81 4.34-5.06 1.27-11.04 1.97-5.03 6.47 4.72 3.54 9.24 3.6 15.09 3.6 3.07 0 2.88-8.81 2.88-10.79 0-1.34 0.35-2.53 0.87-3.62zm104.63-318.44c-1.9 0.1-3.81 0.32-5.44 0.32-2.65 0-7.52 7.86-8.62 10.06-2.36 4.71-2.91 9.86-2.91 15.12 0 5.27 1.02 8.28 2.19 12.97 1.27 5.1 2.71 9.73 5.03 14.38 3.19 6.39 9.1 12.16 12.94 17.28 3.1 4.14 4.3 6.09 9.37 8.62 4.43 2.22 7.76 2.91 14.41 2.91 7.58 0 19.55-3.41 25.9-7.22 3.8-2.28 8.07-3.68 12.22-5.75 4.09-2.04 5.49-8.06 7.22-11.53 1.96-3.91 0.02-9.39 2.16-13.66 2.39-4.79 0.37-8.87-2.16-12.25-2.96-3.95-9.62-7.79-12.97-8.62-2.82-0.71-5.86-5.84-8.62-7.91-4.13-3.09-7.31-5.12-10.82-7.22-3.04-1.82-4.91-1.32-7.18-3.59-2.1-2.1-1.22-2.64-5.03-3.59-1.84 1.21-6.84 2.15-11.53 2.15-3.74 0-7.27-1.28-10.79-2.15-1.57-0.4-3.47-0.42-5.37-0.32zm167.28 38.25c-2.1 0.21-6.58 5.1-7.16 7.41-0.83 3.34-1.43 5.94-1.43 9.34 0 3.07-0.66 6.76 0 9.38 1.16 4.64 3.26 4.64 0 7.9-2.66 2.66-0.17 3.25 4.31 5.04 3.26 1.3 6.03 1.75 7.9 3.62 2.54 2.54 1.94 4.56 5.76 6.47 2.87 1.44 5.1 5.79 6.5 7.19 2.45 2.45 9.09-2.76 10.78-3.6 3.21-1.6 4.79-4.04 7.22-6.47 2.83-2.83 2.12-6.61 1.43-9.37-0.92-3.7-4.63-5.91 1.44-2.88 6.28 3.14 4.18-2.42 2.87-5.03-1.87-3.75-4.45-7.85-7.21-11.53-2.62-3.49-3.93-5.46-7.19-7.9-1.88-1.41-8.1-1.85-9.34-2.16-2.69-0.67-3.77-3.73-5.79-5.75-2.09-2.1-5.92-1.44-9.34-1.44-0.18-0.18-0.45-0.25-0.75-0.22zm-54.19 11.66c-2.35-0.12-4.52 0.49-6.25 2.22-3.67 3.67-4.64 7.1-8.62 10.09-2.89 2.17-6.87 2.97-9.38 3.6-4.19 1.04-8.61 1.61-12.22 0.71-4.53-1.13-6.9 1.02-9.37 2.88-3.47 2.6-3.27 4.77-7.19 5.75-3.97 0.99-0.55 4.2-7.19 2.87-0.83-0.83-7.69 7.7-8.65 8.66-2.75 2.74-5.3 4.58-8.63 7.91-3.35 3.35-4.31 7.21-0.72 10.81 2.69 2.68 5.68 7.62 6.47 10.78 1.91 7.64 5.97 13.35 9.38 20.16 3.23 6.46 6.47 5.43 6.47 12.97 0 4.84 1.83 6.26 6.47 7.18 4.33 0.87 8.99 0.72 13.68 0.72 4.54 0 5.03 1.16 5.03 5.75 0 1.93-4.86 6.34-5.75 7.22-2.46 2.46-2.87 3.5-2.87 7.91 0 3.34 8.17 4.8 11.5 6.46 4.08 2.04 9-1.05 11.53-3.59 2.8-2.79 3.02-8.14 5.03-11.5 2.26-3.76 0.93-9.79 2.88-13.69 2.13-4.27 3.9-8.47 5.03-12.96 0.76-3.05 2.57-4.95 5.78-5.76 4.49-1.12 5.62-0.09 8.62 2.16 2.73 2.05 6.76 1.44 10.78 1.44 4.61 0 7.79-1.36 10.82-2.88 3.15-1.57 2.6 9.02 2.15 10.82-1.05 4.2 2.18 7.23 3.6 10.78 1.7 4.26 4.31 3.92 4.31 10.09 0 3.91-5.75 0.37-5.75 5.75 0 2.46 4.27 4.13 5.03 7.19 0.88 3.53-5.53 3.13-0.72 7.94 3.48 3.47 7.26 2.87 12.25 2.87 6.79 0 3.03-1.23 7.19 4.31 2.25 3 1.83 3.6 7.22 3.6 5.77 0 5.68-1.02 7.19 5.03 1.25 5-1.09 6.14-3.6 8.66-2.47 2.47-6.6 2.26-8.65 4.31-2.93 2.92 5.52 8.32 7.22 9.34 5.99 3.6 10.68 0.81 15.09-3.59 4.5-4.51 7.56-4.26 9.37-11.5 1.28-5.12-3.25-14.07-6.46-17.28-2.61-2.61 2.48-9.96 2.87-11.54 1.03-4.13 1.44-7.79 1.44-12.21 0-4.13 4.74-6.43 7.9-7.22 5.04-1.26 5.75-0.66 5.75-6.47 0-5.63-1.44-6.23-4.31-10.06-2.82-3.76-10.85-4.63-14.41-9.38-1.75-2.34 5.09-6.12 5.79-6.47 4.19-2.1-6.74-6.95-7.22-7.19-3.49-1.74-6.17 0.87-9.35-0.71-3.74-1.88-8.34-9.07-10.81-11.53-2.57-2.57-5.2-3.68-7.91-5.04-3.62-1.81-6.56-2.13-9.34-1.43-3.01 0.75-1.14 9.4-0.72 11.5 0.82 4.09-4.57 7.42-5.78 12.25-0.92 3.68-4.14 4.98-7.19 5.75-3.31 0.83-4.31-9.99-4.31-12.22 0-3.62 4.43-6.01 5.75-8.66 1.48-2.97-0.62-8.43-1.44-10.06-0.85-1.71-9.95 1.44-11.5 1.44-4.16 0 2.99-10.21 3.6-10.82 3.78-3.78 5.18-3.72 4.31-7.18-0.25-0.99-13.53-5.68-15.12-6.47-4.9-2.45-5.76-5.32-5.76-10.1 0-3.3 0.72-7.2 0.72-10.78 0-5.3 0.99-7.08-3.59-9.37-2.52-1.26-5.08-2.11-7.44-2.22zm-127.03 9.65c-2.84-0.35-5.74 1.6-6.62 3.38-2.11 4.21 0.54 6.47 2.15 8.62 2.34 3.12 1.86 4.65-1.43 7.94-3.3 0-11.21 9.35-18.72 9.35-4.74 0-10.27 1.54-12.94 2.87-3.61 1.8-4.31 4.07-4.31 7.91 0 1.47 4.32 4.38 5.03 7.22 0.9 3.6-8.69 2.5-10.1 2.15-3.56-0.89-4.17-1.94-7.9-2.87-3.61-0.9-5.03 7.53-5.03 10.06 0 4.34 3.59 5.14 3.59 10.09 0 1.36-8.64 4.68-9.34 5.04-4.38 2.18-7.98 5.11-10.1 9.34-2.13 4.26 2.5 7.75 4.32 8.66 5.39 2.69 7.15 0.65 11.53 5.03 5.04 5.04 6.02 10.59 12.21 13.68 4.59 2.29 8.41 2.16 13.69 2.16 6.78 0 10.15-6.09 13.69-10.81 3.96-5.28 0.33-9.88-4.34-12.22-7.12-3.56-18.93-6.66-25.91-12.25-3.51-2.81-6.25-4.53-2.16-8.63 4.71-4.7 6.12-7.02 10.82-9.37 3.22-1.61 6.3-2.16 10.78-2.16 6.71 0 8.19-2.61 13.69 2.88 3.9 3.9 5.1 4.38 10.78 7.22 5.66 2.83 6.7-0.51 10.81 3.59 3.05 3.05 6.92 4.02 11.5 2.88 4.98-1.25 8.28-9.6 10.81-12.97 3.13-4.18 4.81-8.81 3.6-13.66-1.19-4.74-4.32-3.55-4.32-9.37 0-5.61 1.75-5.76-7.22-5.76-6.71 0-8.62-2.17-8.62-7.9 0-2.86 2.16-6.6 2.16-10.81-0.01-4.26-6.49-7.69-9.35-10.07-0.86-0.72-1.8-1.1-2.75-1.22zm232.41 38.6c-1.32-0.14-2.48 1.3-3.66 2.19-4.42 1.1 0.99 13.96 3.59 16.56 7.42 7.41 1.87-1.1 0-5.75-1.68-4.22 4.5-4.03 6.5-5.03 2.43-1.22-4.21-6.37-5.06-7.22-0.48-0.48-0.93-0.7-1.37-0.75zm-349.57 68.9c-1.38-0.18-2.51 1.15-3.18 3.85-0.95 3.8 2.15 7.51 2.15 11.5 0 3.98-4.13 7.96-5.03 11.53-1.19 4.78-0.9 4.5-3.59 7.19-0.85 0.85-2.4 0-3.59 0-3.15 1.89-1.27 7.25-2.16 10.81-0.91 3.64-2.19 4.61-2.19 8.62 0 2.98-1.44 5.81-1.44 9.35 0 4.7-0.17 5.44 1.44 8.65 1.79 3.58 3.55 4.26 6.5 6.47 3.02 2.27 7.81 1.85 11.5 0 4.15-2.07 5.55-2.87 9.38-5.75 3.05-2.28 6.28-3.54 9.34-4.31 2.74-0.68 7.11-1.59 9.37-2.15 2.33-0.59-1.69 5.49 0 7.18 2.95 2.94 7.42-3.1 7.91-3.59 1.64-1.64-5.22-9.03-5.75-10.09-1.39-2.79-7.19-3.58-10.09-5.04-4.88-2.44-6.21-4.05-10.07-7.9-5.35-5.36-2.3-5.63-5.78-6.5-3.98-1-3.1 1.71-5.03-7.91-1.24-6.2 3-9.13 4.31-14.41 1.22-4.86 3.14-7.37 0.72-12.21-1.69-3.38-3.33-5.1-4.72-5.29zm243.69 23.29c-2.14 0.53 0.13 4.9-1.43 6.47-1.2 1.19-2.4 2.39-3.6 3.59-7.85 7.85-5.48 10.63-1.44 18.72 1.85 3.7 3.32 8.23 4.32 12.22 1.24 4.95 7.04 5.06 11.53 5.06 5.95 0 5.98 2.49 11.5 3.59 6.39 1.28 7.22-7.6 7.22-12.25 0-5.52-0.16-9.75 2.15-14.37 4.22-8.44-0.55-14.25-5.75-19.44-3.74-3.74-9.43-0.17-12.97 0.72-5.72 1.43-7.52 0.7-11.53-4.31zm-379.31 36.68c-1.505-0.75-1.438 9.48-1.438 12.25 0 3.62 0.649 6.19 1.438 9.35 1.195 4.78 2.385 4.8 5.031 2.15 1.076-1.07 0-9.07 0-10.78 0-4.37-1.737-7.1-2.875-9.37-0.625-1.25-1.436-2.4-2.156-3.6z"
  />
  <path
    style="opacity: 0.47826; fill: #ffffff"
    d="m498.93 346.49l-172.03 122.9 203.87 19.46-208.44-10.19 104.92 100.32-124.28-69.8 22.67 77.9-43.82-75.36-19.31 46.99 3.05-52.93-35.72 39.25 30.2-48.82-65.43 17.28 65.52-44.94-110.53-6.27 109.37-8.14-140.81-59.27 151.91 51.66-67.85-194.49 100.75 191.87 90.5-184.27-75.93 192.66 181.39-105.81z"
  />
  <path
    style="opacity: 0.47826; fill: url(#radialGradient1783); fill-rule: evenodd"
    d="m187.88 92.906c-5.21 0.58-10.39 3.212-14.57 5.532-0.66-1.898-1.79-3.091-3.15-3.813-70 45.925-117.47 123.42-121.97 212.22 0.001 0.02-0.006 0.05-0.002 0.07 0.855 4.79 2.171 9.5 4.187 14 4.864 11.61 0.325 25.23 7.437 36.06 3.03 4.17-3.208 8.63-1.874 13.81 0.901 8.28-0.451 19.99 8.312 24.41 9.235 0.8 12.406-10.65 10.344-17.94-1.406-7.79-0.473-5.68 1.031 0.81 2.203 12.12 7.009 27.59 21.031 29.88 5.684 1.86 6.004-6.55 9.504-5.97 5.43 1.76 9.73-1.81 14.84-2.88 7.96-2.63 12.53-13.37 21.75-11.15 3.59 2.69 2.42 8.69 4.19 12.75-1.95 4.39 0.8 8.45 2.22 12.47-7.81-0.07-16.92 6.28-14.35 14.96 1 9.24 8.48 16.75 8.13 26.19 4.14 9.15 15.7 7.62 23.31 11.63 8.44 1.7 12.77-9.3 21.06-7.88 4.17-3.85 6.22-7.71 12.81-4.68 7.63 0.64 6.69 1.1 0.47 4.34-5.11 2.58-0.76 10.4 2.75 13.06 6.61 3.69 15.99 7.05 23 2.78 6.45-5.27 1.54-16.34 10.22-19.87 8.63-5.26 17.92-9.6 27.97-11.22 9.12-1.52 9.26-13.19 16.72-16.63 5.4-6.83-2.48-13.38-6.44-18.34-4.92-10.09 6.47-17.6 10.97-25.38 5.57-9.88-3.91-25.63-15.34-23.59-5.4 2.23-2.44-6.59-5.19-9.65-4.18-8.67-11.22-16.25-19.13-21.57-5.9-4.21-18-2.07-16.9 6.85 0.21 9.33 6.48 18.73 7.16 27.15-6.51-8.26-18.68-8.66-24.13-18-2.49-4.26-10.01-5.56-6.94-11.69 4.59-9.52 8.72-22.5 0.28-31.24-1.95-4.14-9.11 0.31-8.65-5.13-2.61-6.35-9.28-8.75-14.91-11.22-5.23-4.66-14.39-6.68-14.5-14.97-2.19-5.87-6.76-14.77 1-18.53 14.07-9.13 31.29-5.46 46.85-9.15 15.02-1.17 32.31 1.22 44.21-10.22 7.66-5.22 16.38-11.23 17.13-21.47 1.87-7.28 4.41-17.29-3.63-21.94-2.89-3.42-11.53-2.31-9.31-8.75 0.86-10.87 10.72-21.13 22.1-18.56 7.26 1.29 15.28 1.89 21.96-1.78-0.87 10.85 2.64 22.15 6.63 31.59-9.61 0.32-15.56 13.18-8.22 20.09-5.38 5.93-13.9 9.41-22.09 10.16-8.89 0.59-18.57 9.02-14.97 18.44-5.62-2.88-14.46-3.15-16.47 4.28-2.69 5.2-2.72 11.82 0.03 17-8.76 4.11-20.12 10.86-18.19 22.19 2.53 11.13 18.12 8.42 21.72 18.5 9.11 14.94 34.79 16.57 43.28 0.25 6.32-6.88 4.29-18.95-4.78-22.35-8.28-4.74-18.42-6.3-25.62-12.87 6.74-9.05 22.08-12.97 30.31-3.75 6.36 6.31 16.25 5.66 23.22 11.12 10.6 4.26 20.55-4.75 24.5-13.97 5.3-7.34 8.13-18.67 1.37-26.03 0.28-3.34-1.62-9.09-2.18-10.4 6.27 1.66 12.89 1.33 19.21 0.28-6.53 4.83-11.81 14.56-5.56 21.75 7.4 9.7 9.34 22.14 16.63 31.97 5.34 6.24 3.4 17.26 12.12 20.59 4.96 2.97 11.04 1.81 16.53 2.28-6.59 4.83-10.82 16.08-3.25 21.94 8.49 5.71 22.34 9.2 29.32-0.66 8.86-11.52 7.06-27.42 14.71-39.65 2.87-5.13 8.39 3.21 13 1.81 3.93 2.27 13.66-4.45 12.97 1.5 0.29 6.7 2.8 13.37 7.22 18.28-5.23 3.34-6.78 10.69-1.9 15.12 1.65 3.44-2.31 8.35 1.56 11.72 4.63 5.93 12.59 5.24 19.03 6.6 3.39 4.01 7.24 8.17 13.09 7.25 3.38 3.36-6.06 4.94-8.4 7.43-7.43 6.17 1.01 16.06 7.62 18.91 7.82 4.5 17.66 1.8 23.28-4.91 8.6-5.77 13.73-17.59 8-27.12-1.96-4.17-6.12-8.37-2.56-12.91 2.4-5.15 1.36-12.18 4.34-16.5 5.82-1.92 13.47-5.43 11.94-12.93 1.21-10.01-8.88-17.21-15.5-21.25 5.09-3.7 3.99-11.17-1.56-13.79-5.48-6.25-15.85-2.26-20.31-9.68-6.89-7.31-16.66-16.54-27.5-13.06-3.73 0.46-5.59 8.52-7.22 1.5-1.35-4.06-10.95-2.64-4.78-6.54 5.24-5.51 0.89-14.23-6.16-15.28-5.02-2.34-13.76-3-12.53-10.68 0.92-8.31 2.28-19.68-6.84-24.07-8.81-4.76-20.73-1.44-24.94 7.85-4.69 6.05-13.12 6.78-20.19 6.43 2.02-7.32 2.57-15.05 3.75-22.53-0.74-11.44-11.93-16.96-20.47-22.22-7.07-5.94-14.27-11.95-22.78-15.87-4.45-4.63-10.89-6.65-16.91-3.97-10.68 1.44-23.1-6.11-32.53 1.34-3.5 6.13-5.13-4.72-9.75-5.4-6.95-3.84-8.31-12.54-15.34-16.47-9.65-6.14-20.56-10.17-31.03-14.626-11.36-2.785-22.79 2.806-34.16 0.625-12.39-0.181-24.89 5.481-32.59 15.251-3.24-2.16-14.05-1.01-7.66-5.19 3.72-3.31 8.99-10.299 2.94-13.874-1.5-1.267-3.5-1.257-5.34-1.25zm-23.63 35.654c-0.56 0.9-1.13 1.79-1.69 2.69-6.61 10.32-8.49 24.59-19.5 31.41-5.83 3.19-5.67-4.7-4.22-8.22 2.79-5.82 1.97-14.61 9.85-16.25 6.05-1.68 10.31-6.46 15.56-9.63zm340 40.41c-2.21-0.1-4.43 0.07-6.5 0.25-12.89 5.01-14.12 21.3-12.34 33.03 1.46 4.6-4.4 10.36 1.21 13.75 5.26 4.03 13.33 4.65 16.29 11.22 5.96 3.32 9.9 13.68 18.25 9.56 9.36-3.94 19.67-10.78 20.31-21.87 4.52-1.98 7.12-7.18 3.53-11.29-4.15-10.18-10.68-20.99-20.91-25.65-6-0.27-9.24-4.62-13.5-7.66-1.96-0.87-4.13-1.24-6.34-1.34zm-168.87 46.53c0.37 0.03 0.8 0.47 1.24 1.59 5.39 2.96 5.19 4.26-1.34 2.6-1.55-0.6-1.02-4.28 0.1-4.19zm215.87 13.44c-0.94-0.11-1.92-0.04-2.94 0.25-10.39 2.89-10.5 16.42-4.97 23.78 2.56 5.2 9.86 13.37 15.25 7.28 3.08-3.21 0.71-8.14-0.43-11.37 6.62-2.83 6.69-12.38 0.37-15.6-2.02-2.11-4.46-4.01-7.28-4.34zm-64.66 25.78c0.15-0.14 0.19-0.07 0.1 0.4-1.38 5.95-7.52 11.21-2.31 2.72 0.56-0.21 1.79-2.69 2.21-3.12zm-40 65.25c-0.21-0.07-0.46-0.03-0.78 0.15-8.42 0.29-6.37 11.65-12.47 15.04-7.16 6.78-4.01 17.76 0.47 25.09 2.21 7.92 5.75 18.5 15.72 18.44 7.97-0.46 16.13 7.63 23.38 1.59 9.39-7.26 3.65-20.24 8.34-29.69 4.49-11.37-3.88-25.1-15.41-27.62-6.04-0.79-13.72 6.27-17.75-1.41-0.57-0.35-0.86-1.4-1.5-1.59zm-253.81 1.59c-2.05 2.79-4.08 12.01-6.62 9.69 0.48-3.87 4.44-7.87 6.62-9.69zm28.56 55.72c0.34-0.18 1.15-0.08 2.69 0.63l0.38 0.93 0.21 0.5c-0.99 1.75-4.28-1.51-3.28-2.06zm-20.5 10.88c1.43-0.09 1.54 0.49-1.62 3.56l-0.1 0.12c-4.56 7.7-7.04 16.54-6.74 25.5-3.07 6.02-9.76 1.77-11.85-2.68-4.79-4.67-5.73-7.43 1.44-8.28 7.75-1.8 15.32-9.27 12.56-17.72 2.13 0.35 4.89-0.41 6.31-0.5z"
  />
  <path
    style="opacity: 0.20773; fill: url(#radialGradient1783); fill-rule: evenodd"
    d="m189.69 82.906c-84.44 45.734-141.85 135.13-141.85 237.84 0.004 28.66 4.508 56.26 12.785 82.19 4.799 2.39 10.694 2.7 15.344-0.03 6.59 11.79 23.422 19.82 35.151 10.31 8.58-3.24 18.28-4.23 25.13-11 4.54-4.37 2.29 7.31-2.34 7.28-9.96 8.77-8.41 23.91-2.25 34.38 3.48 8.54 3.94 19.55 13.25 24.18 8.26 4.61 18.01 7.14 27.34 7.69 7.25-0.7 12.42-7.14 19.56-8.06 4.11 13.15 20.14 18.55 32.75 17.31 9.47-0.84 15.96-9.03 17.41-17.97 3.23-10.15 15.69-10.52 24.09-14.09 8.77-2.11 15.61-8.19 20.16-15.75 5.35-5.82 11.26-13.32 7.87-21.69-1.32-6.28-11.49-11.88-5.06-18.41 7.85-8.6 13.75-21.29 7.81-32.56-3.42-7.83-10.62-14.55-19.37-15.47-5.25-15.92-18.78-30.13-35.35-33.75-11.4-1.18-22.96 10.14-20.65 21.66-6.21-4.01-0.36-9.97-0.09-15.31 2.9-12.5-1.48-27.05-13.5-33.07-6.51-5.26-12.29-11.64-20.47-14.4-5.45-2.89-11.39-9.57-9.97-15.85 17.39-6.48 36.57-5.54 54.84-7.68 3.85 1.26 12.44-4.38 10.84 2.72-0.8 4.11-6.95 4.95-9.03 8.9-9 9.04-10.47 26.01 0.72 33.97 7.01 4.85 15.4 8.2 19.97 15.78 16.29 17.15 50.54 11.9 58.31-11.37 3.53-7.39 1.88-16.48-2.84-22.94 10.49 5.05 24.17 9.92 34.37 1.53 6.83-4.1 11.73-10.84 14.91-18.03 7.25 13.32 12.18 27.92 20.63 40.53 2.11 4.32 10.31 4.47 10.15 8.31-1.83 13.46 10.34 24.86 23.16 26 5.09 1.04 8.98-0.19 6.25 6.22-1.11 12.53 5.59 24.15 10.44 35.28 7.86 11 22.63 12.57 34.93 14.35 13.72 2.08 23.08-11.97 23.69-24.22 0.47-7.37 2.09-14.8 3.16-21.94 5.85-1.45 0.71 4.94 0.53 8.53-1.8 19.21 21.27 33.01 38.15 25.66 16.22-5.91 29.49-24.53 23.6-42.03-2.24-5.13-4.59-10.2-2.28-15.82 0.94-8.98 12.93-10.14 14.28-19.18 3.96-11.35-2.08-23.48-10.66-30.97 9.15-0.54 16.31-10.53 13.91-19.38 7.81-10.73 1.32-26.59-10.44-31.25-3.2-1.93-10.28-0.36-4.81-5.37 4.18-7.22 1.2-15.15-2.56-21.72-5.93-12.93-16.95-23.23-30.16-28.38-12.01-10.35-33.62-8.84-41.16 6.19-6.99 10.37-4.45 24.2-5.9 35.31-5.2-3.4-0.35-10.51-2.66-15.56-2.3-14.58-18.14-24.58-32.28-20.16-6.61 1.88-12.21 6.24-17 11 3.62-13.65-4.97-27.4-16.78-33.87-14.18-9.76-27.46-22.03-44.28-26.94-9.61 0.67-19.16 0.2-28.66-0.87-4.47-0.96-9.41 1.46-13.16 1.37-9.66-8.44-16.88-20.31-29.62-24.654-13.74-7.276-29.14-13.127-44.94-10.218-13.41 1.305-27.88-0.141-39.81 7.343-1.93-6.749-8.62-11.436-15.53-11.875-0.01 0.005-0.02-0.004-0.03 0zm95.06 87.504c1.2-0.19 2.42-0.14 3.63 0.18 3.83 1.06 10.02-0.41 12.56 1.5-0.72 4.6 5.1 10.76 1.62 13.97-5.7 5.11-8.78 13.4-6.81 20.91-6.96 4.78-6.9 1.71-5.41-4.63 1.1-10.28-4.21-21.36-13.87-25.43 1.4-3.35 4.69-5.96 8.28-6.5zm244.47 72.59c0.34-0.11 0.65 0.31 0.75 1.78-3.11 3.69-1.78-1.46-0.75-1.78zm-74.56 49.19l0.96 0.28 0.54 0.15c3.62 2.06 9.57-1.87 10.22 3.82 3.82 5.14-0.16 10.42 0.43 15.97-2.29 1.78-8.58 1.75-12.25 1.34-4.47-2.46-7.13-3.36-3.87-9.19 1.27-4.09 1.52-8.75 3.97-12.37z"
  />
  <path
    style="opacity: 0.65217; fill-rule: evenodd; fill: url(#radialGradient1821)"
    d="m318.12 50.469c-67.48 0-129.15 24.807-176.53 65.751 10.09-3.99 56-24.157 59.94-26.126 35.24-17.622 95.14-24.091 133.88-14.406 3.84 0.959 7.69 1.915 11.53 2.874 18.57 4.643 39.58 2.876 59.03 2.876 11.84 0 11.29-6.88 6.84-13.876-29.47-11.037-61.37-17.093-94.69-17.093z"
  />
  <path
    style="opacity: 0.24155; fill-rule: evenodd; fill: url(#radialGradient1823)"
    d="m363.01 57.98c-66.69-13.789-131.43 6.282-184.53 50.52 10.58-3.19 59.04-20.368 63.24-22.157 37.52-16.006 97.7-12.289 134.5 8.381 3.64 2.048 7.3 4.094 10.95 6.146 17.64 9.91 38.67 11.87 57.89 15.84 11.71 2.42 12.22-6.75 8.89-16.871-27.43-20.558-58.03-35.053-90.94-41.859z"
  />
  <path
    style="opacity: 0.45894; fill: #ffffff"
    transform="matrix(.69030 .21987 -.30349 .95284 122.63 -19.128)"
    d="m151.86 259.18l-11.05-13.27 0.68 18.45-2.81-18.97-9.35 16.8 8.14-18.05-16.32 9.16 15.79-9.6-18.02-0.85 17.72-0.64-14.42-10.71 15.04 8.96-6.02-16.16 7.04 16.7 4.09-18.32-0.85 18.43 12.62-13.31-13.08 13.05 18.5-2.43-18.12 4.39 17.31 6.33-17.67-4.41 10.78 14.45z"
  />
  <path
    style="opacity: 0.45894; fill: #ffffff"
    transform="matrix(-.71988 -.081475 .11246 -.99366 599.25 553.77)"
    d="m151.86 259.18l-11.05-13.27 0.68 18.45-2.81-18.97-9.35 16.8 8.14-18.05-16.32 9.16 15.79-9.6-18.02-0.85 17.72-0.64-14.42-10.71 15.04 8.96-6.02-16.16 7.04 16.7 4.09-18.32-0.85 18.43 12.62-13.31-13.08 13.05 18.5-2.43-18.12 4.39 17.31 6.33-17.67-4.41 10.78 14.45z"
  />
  <path
    style="opacity: 0.45894; fill: #ffffff"
    transform="matrix(-.88316 -.51296 .72140 -1.1591 442.52 768.26)"
    d="m151.86 259.18l-11.05-13.27 0.68 18.45-2.81-18.97-9.35 16.8 8.14-18.05-16.32 9.16 15.79-9.6-18.02-0.85 17.72-0.64-14.42-10.71 15.04 8.96-6.02-16.16 7.04 16.7 4.09-18.32-0.85 18.43 12.62-13.31-13.08 13.05 18.5-2.43-18.12 4.39 17.31 6.33-17.67-4.41 10.78 14.45z"
  />
  <path
    style="opacity: 0.45894; fill: #ffffff"
    transform="matrix(.32836 .36763 -.53307 .81324 260.05 -94.271)"
    d="m151.86 259.18l-11.05-13.27 0.68 18.45-2.81-18.97-9.35 16.8 8.14-18.05-16.32 9.16 15.79-9.6-18.02-0.85 17.72-0.64-14.42-10.71 15.04 8.96-6.02-16.16 7.04 16.7 4.09-18.32-0.85 18.43 12.62-13.31-13.08 13.05 18.5-2.43-18.12 4.39 17.31 6.33-17.67-4.41 10.78 14.45z"
  />
  <path
    style="opacity: 0.16425; fill: #000000"
    transform="matrix(.14498 .27452 -.56806 .30001 243.8 13.125)"
    d="m266.32 180.95l-31.25-35.99-5.59 45.6 4.22-45.57-38.95 30.21 31.99-33.58-43.21-1.54 45.64-6.54-37.73-28.78 39.42 27.11-7.84-46.641 14.8 44.351 20.57-39.742-18.73 42.892 45.62-19.12-41.68 23.18 43.26 16.53-44.98-9.4 24.44 37.03z"
  />
  <path
    style="opacity: 0.16425; fill: #000000"
    transform="matrix(-.075915 .30103 -.62291 -.15709 509.59 58.544)"
    d="m266.32 180.95l-31.25-35.99-5.59 45.6 4.22-45.57-38.95 30.21 31.99-33.58-43.21-1.54 45.64-6.54-37.73-28.78 39.42 27.11-7.84-46.641 14.8 44.351 20.57-39.742-18.73 42.892 45.62-19.12-41.68 23.18 43.26 16.53-44.98-9.4 24.44 37.03z"
  />
  <path
    style="opacity: 0.16425; fill: #000000"
    transform="matrix(.46757 .14271 -.33665 .58155 263.74 169.48)"
    d="m266.32 180.95l-31.25-35.99-5.59 45.6 4.22-45.57-38.95 30.21 31.99-33.58-43.21-1.54 45.64-6.54-37.73-28.78 39.42 27.11-7.84-46.641 14.8 44.351 20.57-39.742-18.73 42.892 45.62-19.12-41.68 23.18 43.26 16.53-44.98-9.4 24.44 37.03z"
  />
  <path
    style="opacity: 0.16425; fill: #000000"
    transform="matrix(.16920 -.11385 .083824 .74294 67.266 327.4)"
    d="m266.32 180.95l-31.25-35.99-5.59 45.6 4.22-45.57-38.95 30.21 31.99-33.58-43.21-1.54 45.64-6.54-37.73-28.78 39.42 27.11-7.84-46.641 14.8 44.351 20.57-39.742-18.73 42.892 45.62-19.12-41.68 23.18 43.26 16.53-44.98-9.4 24.44 37.03z"
  />
  <path
    style="opacity: 0.16425; fill: #000000"
    transform="matrix(.92458 -.38098 .28574 .69344 -28.325 139.67)"
    d="m258.55 163.61a14.251 14.251 0 1 1 -28.5 0 14.251 14.251 0 1 1 28.5 0z"
  />
  <path
    style="opacity: 0.16425; fill: #000000"
    transform="matrix(.95023 .31155 -.31155 .95023 77.552 -27.94)"
    d="m134.37 228.76a8.1434 12.215 0 1 1 -16.29 0 8.1434 12.215 0 1 1 16.29 0z"
  />
  <path
    style="opacity: 0.16425; fill: #000000"
    transform="matrix(7.4308 4.1271 -.36415 .65566 -2627.2 -1668.1)"
    d="m423.46 224.69a1.0179 8.1434 0 1 1 -2.04 0 1.0179 8.1434 0 1 1 2.04 0z"
  />
  <path
    style="opacity: 0.16425; fill: #000000"
    transform="matrix(.76339 -.64594 .64594 .76339 -8.4439 377.46)"
    d="m515.07 200.26a4.0717 10.179 0 1 1 -8.14 0 4.0717 10.179 0 1 1 8.14 0z"
  />
  <path
    style="opacity: 0.16425; fill: #000000"
    d="m75.327 307.14a4.0717 5.0896 0 1 1 -8.144 0 4.0717 5.0896 0 1 1 8.144 0z"
  />
  <path
    style="opacity: 0.16425; fill: #000000"
    transform="translate(215.8 189.33)"
    d="m75.327 307.14a4.0717 5.0896 0 1 1 -8.144 0 4.0717 5.0896 0 1 1 8.144 0z"
  />
  <path
    style="opacity: 0.16425; fill: #000000"
    transform="matrix(3 0 0 3 73.291 -424.94)"
    d="m75.327 307.14a4.0717 5.0896 0 1 1 -8.144 0 4.0717 5.0896 0 1 1 8.144 0z"
  />
</svg>
