<svg class="Sad-Dog-Image" xmlns="http://www.w3.org/2000/svg">
  <g transform="translate(0 -350.36)">
    <g transform="matrix(3.0667 0 0 3.6632 -81.933 -2703.9)">
      <path
        d="m145.57 956.6c-3.0546-0.0396-4.7096 0.58629-8.3294 2.5174-2.9933 1.5969-5.4587 3.374-5.463 3.9374-0.004 0.56337 3.6642 2.5687 8.1608 4.4538 8.4083 3.5251 11.971 3.7268 18.075 1.065 2.0716-0.90335 7.0142-6.9166 7.0142-8.5526 0-0.67122-9.4164-2.5539-15.816-3.1629-1.45-0.138-2.6238-0.24501-3.642-0.25819zm5.2944 8.0685h0.0337c0.005 0-0.004 0.0312 0 0.0322h0.0337c0 0.004 0.0009 0.0269 0 0.0322l-0.0337-0.0322-0.0337-0.0322zm-0.0337 0.0322h0.0337c-0.008 0.003 0 0.0291 0 0.0322 0.002 0.0112-0.00075 0.0296 0 0.0322l0.0337-0.0322c-0.004 0.002 0.005 0.0322 0 0.0322 0.002 0.004-0.002 0.0276 0 0.0322-0.0282 0.004-0.0589-0.002-0.0674 0 0.009-0.003 0-0.0288 0-0.0322 0-0.0228-0.004-0.0508 0-0.0646z"
        style="stroke-width: 0; fill: #000000"
      />
      <path
        style="
          stroke-linejoin: round;
          stroke: #000000;
          stroke-width: 2.7;
          fill: none;
        "
        d="m59.377 940.14c-2.1429 9.2857 7.5761 25.296 7.5761 30.296s2.1428 5.6635 4.2857 10.664c2.1429 5-14.005 24.041-16.148 28.326-2.1428 4.2857-2.8571 0-5 1.4286-2.1428 1.4286-7.8571-8.5714-7.8571-11.429 0-2.8571-6.4286-12.857-7.8571-18.571-1.4286-5.7143-1.4286-11.429-1.4286-11.429l2.8571-12.143-0.71429-7.1429 3.5714-4.2857v-4.2857-9.2857l4.2857-13.571-3.5714 1.4286 5-7.1429-5.7143 2.1429 5.7143-9.2857-4.2857-2.1428 4.2857 2.1428"
      />
      <path
        style="
          stroke-linejoin: round;
          stroke: #000000;
          stroke-width: 2.7;
          fill: none;
        "
        d="m58.663 941.57 5 17.857s5.3856 21.201 11.464 24.336c11.451 5.9074 18.362 9.1632 21.934 13.449 3.5714 4.2857 15.173 7.9289 20.888 11.5 5.7143 3.5715 31.429 13.572 35 11.429 3.5714-2.1428 22.143-0.7143 27.143-3.5714 5-2.8572 14.286-7.1429 17.857-8.5714 3.5714-1.4286 15-7.1429 18.571-12.143 3.5714-5 5-17.857 6.4286-23.571 1.4286-5.7143 6.4286-12.143 7.1428-19.286 0.71429-7.1429 0-24.286 0-24.286l-5-12.143"
      />
      <path
        style="
          stroke-linejoin: round;
          stroke: #000000;
          stroke-width: 2.7;
          fill: none;
        "
        d="m225.81 1003.7-5.7143-17.143s5 17.143 8.5714 17.857c3.5714 0.7143 6.4286-1.4286 6.4286-1.4286s8.5714-7.8571 7.8572-11.429c-0.71429-3.5714 4.2857-12.143 5-15 0.71428-2.8571 3.5714-11.429 2.8571-15.714-0.71429-4.2857-0.71429 12.143 0.71428 14.286 1.4286 2.1429 5 2.8571 7.8572-2.1429 2.8571-5 3.5714-20 2.1428-27.143-1.4286-7.1428-6.4286-17.143-6.4286-17.143l5 0.71428-7.1428-10-2.8572-7.8571-2.8571-9.2857-5-6.4286 3.5714-8.5714-5.7143-4.2857 6.4286-6.4286-17.857-3.5714-1.4286-4.2857-7.1429-4.2857s-24.286-17.143-47.857-20.714c-23.571-3.5714-30.714-2.8572-30.714-2.8572s-36.429 6.4286-36.429 7.8572-26.429 13.571-26.429 16.429c0 2.8571-7.1429 5.7143-7.1429 5.7143l-11.429 3.5714 2.1429 2.8572-16.429 5.7143-6.4286 2.8571 6.4286 0.71429-4.2857 7.1429-0.71428 9.2857-0.63102 0.90564"
      />
      <path
        style="
          stroke-linejoin: round;
          stroke: #000000;
          stroke-width: 2.7;
          fill: none;
        "
        d="m58.61 943.05 3.0304-11.364 4.5457-9.849s1.7678-8.5863 3.283-9.849"
      />
      <path
        style="
          stroke-linejoin: round;
          stroke: #000000;
          stroke-width: 1.0344;
          fill: none;
        "
        d="m117.4 893.61c-4.2777-2.9668-8.3772-1.1484-8.3772-1.1484l-3.8321 3.0625-2.9409 2.9668-2.4062 3.1582h9.0901l3.03-0.47851 3.8321-2.2969 2.4062-3.4454z"
      />
      <path
        style="
          stroke-linejoin: round;
          stroke: #000000;
          stroke-width: 0.9507;
          fill: none;
        "
        d="m177.77 894.9s1.8698 3.0348 3.1805 3.367c1.3107 0.33223 1.2241 1.1899 3.5961 1.4943 2.372 0.30438 1.6644 0.32294 4.6127 0.24561 2.9482-0.0773 5.6516-0.3926 5.6516-0.3926l-0.11345 0.12516s0.34035-0.37552 0.20899-0.73867c-0.13139-0.36313-2.8378-3.3471-2.8378-3.3471s-5.377-4.9913-6.0846-4.9727c-0.70758 0.0185-6.1547-0.44958-6.4906 0.048-0.33584 0.49758-1.4669 2.2036-1.6422 2.6709-0.18519 0.49366-0.0812 1.5001-0.0812 1.5001z"
      />
      <path
        style="
          stroke-linejoin: round;
          stroke: #000000;
          stroke-width: 4.3434;
          fill: #000000;
        "
        d="m316.68 715.35c0 2.4408-1.9786 4.4194-4.4194 4.4194s-4.4194-1.9786-4.4194-4.4194 1.9786-4.4194 4.4194-4.4194 4.4194 1.9786 4.4194 4.4194z"
        transform="matrix(.62164 0 0 .62164 -81.861 451.62)"
      />
      <path
        style="
          stroke-linejoin: round;
          stroke: #000000;
          stroke-width: 2.4178;
          fill: none;
        "
        d="m152.43 941.96 12.664-5.8796 1.8091-4.9751s1.3568-9.0456-4.9751-12.664c-6.3319-3.6182-15.83-5.8796-20.805-3.166-4.9751 2.7137-10.402 4.5228-11.759 7.2365-1.3568 2.7137-3.166 2.2614-2.7137 5.8797 0.45228 3.6182-0.45228 8.141 4.9751 9.4979 5.4274 1.3568 5.4274 2.2614 10.855 3.6182 5.4274 1.3568 9.9502 0.45228 9.9502 0.45228z"
      />
      <path
        style="
          stroke-linejoin: round;
          stroke: #000000;
          stroke-width: 2.4178;
          fill: #000000;
        "
        d="m131.06 928.06s6.2188-5.6535 10.289-2.4876c4.0705 3.166 1.6961 5.5404 1.6961 5.5404s-2.8268 1.6961-3.7313 1.3568c-0.90456-0.33922-3.8444 0.67841-5.7666-0.22615-5.2377-2.4648-2.4875-4.1836-2.4875-4.1836z"
      />
      <path
        d="m149.26 928.06s6.2189-5.6535 10.289-2.4876c4.0705 3.166 1.6961 5.5404 1.6961 5.5404s-2.8268 1.6961-3.7313 1.3568c-0.90456-0.33922-3.8444 0.67841-5.7666-0.22615-5.2377-2.4648-2.4876-4.1836-2.4876-4.1836z"
        style="
          stroke-linejoin: round;
          stroke: #000000;
          stroke-width: 2.4178;
          fill: #000000;
        "
      />
      <path
        style="
          stroke-linejoin: round;
          stroke: #000000;
          stroke-width: 2.7;
          fill: none;
        "
        d="m100.53 963s10.102 16.162 14.142 19.193c4.0406 3.0305 10.102 16.162 14.647 18.688 4.5457 2.5254 13.637 9.5965 18.688 9.5965 5.0508 0 16.668-1.0102 21.213-3.5355 4.5457-2.5254 6.566-6.566 7.5761-9.0914 1.0102-2.5254 2.0203-6.566 3.5355-8.5863s9.0914-12.627 12.122-20.203c3.0305-7.5762 6.0609-16.668 5.0508-15.152-1.0102 1.5152-8.5863 11.112-11.617 11.112-3.0305 0-3.5355 3.5355-10.102-0.50508-6.566-4.0406-11.617-6.0609-18.688-7.5761-7.0711-1.5152-12.627-1.5152-14.142-1.0102-1.5152 0.50507-13.637 6.0609-17.173 10.102-3.5355 4.0406-8.0812 4.5457-12.627 2.0203-4.5457-2.5254-12.627-5.0508-12.627-5.0508z"
      />
      <path
        style="
          stroke-linejoin: round;
          stroke: #000000;
          stroke-width: 2.7;
          fill: none;
        "
        d="m122.25 968.56s0.50507 16.668 3.0304 20.708c2.5254 4.0406 16.668 16.162 20.203 14.647 3.5355-1.5152 15.405 0.1262 19.951-7.4499 4.5457-7.5761 6.566-11.617 6.0609-13.132-0.50508-1.5152 1.5152-4.5457 4.5457-8.0812s5.5558-5.0508 3.5355-8.5863"
      />
      <path
        style="
          stroke-linejoin: round;
          stroke: #000000;
          stroke-width: 2.7;
          fill: none;
        "
        d="m129.91 962.64s4.8214 3.9286 8.0357 4.8214c3.2143 0.89285 9.6428 5 13.036 4.1071 3.3929-0.89286 7.6786-1.6071 10-4.1071s4.6429-8.2143 4.6429-8.2143"
      />
      <path
        style="
          stroke-linejoin: round;
          stroke: #000000;
          stroke-width: 2.2;
          fill: none;
        "
        d="m149.29 971.57 0.48839 31.077"
      />
      <path
        style="
          stroke-linejoin: round;
          stroke: #000000;
          stroke-width: 4.3434;
          fill: #000000;
        "
        d="m316.68 715.35c0 2.4408-1.9786 4.4194-4.4194 4.4194s-4.4194-1.9786-4.4194-4.4194 1.9786-4.4194 4.4194-4.4194 4.4194 1.9786 4.4194 4.4194z"
        transform="matrix(.62164 0 0 .62164 -10.846 450.23)"
      />
      <path
        d="m176.27 893.38s2.2567 4.0664 3.8192 4.5315c1.5625 0.46515 1.4205 1.5505 4.2615 2.0157 2.841 0.46514 1.9887 0.46514 5.54 0.46514 3.5512 0 6.8184-0.31009 6.8184-0.31009l-0.14205 0.15504s0.42616-0.46514 0.2841-0.9303c-0.14205-0.46515-3.2672-4.3414-3.2672-4.3414s-6.2502-6.5121-7.1025-6.5121-7.3866-0.77526-7.8127-0.15505c-0.42615 0.6202-2.1308 2.7909-1.9887 3.4111-0.51419 0.33895-0.41003 1.6705-0.41003 1.6705z"
        style="
          stroke-linejoin: round;
          stroke: #000000;
          stroke-width: 2.462;
          fill: none;
        "
      />
      <path
        d="m117.61 891.53c-4.7985-3.7456-9.397-1.4499-9.397-1.4499l-4.2986 3.8664-3.299 3.7456-2.6992 3.9872h10.197l3.399-0.60412 4.2986-2.8998 2.6991-4.3497z"
        style="
          stroke-linejoin: round;
          stroke: #000000;
          stroke-width: 2.462;
          fill: none;
        "
      />
      <path
        style="stroke: #000000; stroke-width: 2; fill: none"
        d="m107.23 1004.1s-17.445-28.397-18.571-42.946c-1.0714-13.839 5.7143-21.696 8.5714-26.339 5.7143-9.2857 22.143-19.286 22.143-19.286"
      />
      <path
        style="stroke: #000000; stroke-width: 2; fill: none"
        d="m180.81 914.43s34.286 10.714 24.286 47.143-15 48.571-17.143 49.286"
      />
    </g>
  </g>
</svg>
