<svg class="Sunset-Cloud-2" xmlns="http://www.w3.org/2000/svg" id="svg3151">
  <g transform="translate(-285.55 -481.18)">
    <path
      fill="#959595"
      fill-opacity="0.6"
      d="m378.58 481.18c-16.36 0-30.266 7.3636-35.421 17.647h-0.35778c-17.784 0-32.201 12.642-32.201 28.236 0 0.31002 0.0111 0.61877 0.0222 0.9264-14.444 3.0521-25.068 13.33-25.068 25.545 0 14.62 15.218 26.471 33.99 26.471 8.1318 0 15.595-2.2246 21.445-5.934 7.4083 5.8582 17.507 9.4634 28.646 9.4634 6.5622 0 12.765-1.2586 18.27-3.4854 4.5117 2.1976 9.915 3.4854 15.72 3.4854 14.81 0 26.988-8.3248 28.467-18.993 2.1828-1.1875 4.2221-2.5782 6.0825-4.1252 0.9916 0.10783 1.9921 0.1765 3.0189 0.1765 12.844 0 23.256-8.6911 23.256-19.412 0-9.0587-7.4337-16.653-17.487-18.794-5.4535-11.056-17.4-18.967-31.53-19.92-3.418-12.139-18.62-21.287-36.853-21.287z"
    />
  </g>
</svg>
