<?xml version="1.0" standalone="no"?>
<!DOCTYPE svg PUBLIC "-//W3C//DTD SVG 20010904//EN"
 "http://www.w3.org/TR/2001/REC-SVG-20010904/DTD/svg10.dtd">
<svg version="1.0" xmlns="http://www.w3.org/2000/svg"
 width="2048.000000pt" height="2048.000000pt" viewBox="0 0 2048.000000 2048.000000"
 preserveAspectRatio="xMidYMid meet">
<metadata>
Created by potrace 1.14, written by Peter Selinger 2001-2017
</metadata>
<g transform="translate(0.000000,2048.000000) scale(0.100000,-0.100000)"
fill="#000000" stroke="none">
<path d="M8725 16043 c-204 -18 -743 -138 -1000 -222 -430 -140 -960 -352
-1417 -565 -123 -57 -275 -126 -338 -154 -63 -27 -200 -89 -305 -137 -417
-191 -841 -363 -1048 -424 -282 -83 -504 -113 -856 -115 -244 -2 -254 -2 -270
-23 -12 -14 -34 -23 -72 -28 -30 -3 -70 -10 -89 -15 -19 -4 -48 -11 -63 -14
-53 -12 -67 -54 -67 -203 0 -141 -123 -1351 -300 -2950 -175 -1579 -249 -2406
-310 -3453 -36 -624 -41 -788 -47 -1465 l-5 -670 21 -22 c28 -29 35 -29 49 1
18 40 21 78 37 421 37 797 95 1529 201 2530 85 803 148 1301 324 2540 66 462
147 1036 180 1275 88 626 175 1209 221 1480 22 129 43 281 46 338 5 80 9 102
19 98 8 -3 67 -13 131 -23 92 -14 178 -18 393 -17 312 0 410 12 705 86 171 43
636 200 905 305 91 36 262 102 380 148 118 46 312 123 430 173 487 203 1181
444 1530 532 410 103 682 135 954 111 308 -27 571 -107 972 -294 235 -110 556
-239 685 -275 57 -16 223 -57 369 -92 146 -34 266 -63 267 -64 1 -1 -6 -44
-17 -96 -11 -52 -35 -214 -55 -360 -20 -146 -56 -389 -80 -540 -81 -510 -98
-675 -150 -1495 -131 -2064 -157 -2385 -260 -3115 -30 -212 -70 -506 -90 -655
-61 -455 -113 -714 -205 -1029 -32 -112 -37 -155 -19 -189 16 -29 28 -37 63
-37 86 0 235 128 309 267 104 194 157 433 226 1023 12 96 39 326 61 510 50
420 75 689 95 995 35 560 68 1494 85 2395 11 617 22 866 51 1235 10 138 24
417 30 620 6 204 15 387 20 407 9 35 12 38 42 35 28 -2 32 1 35 24 2 14 -4 31
-12 39 -9 7 -16 18 -16 24 1 21 364 227 555 314 465 211 934 350 1333 393 174
18 457 7 601 -25 224 -50 375 -108 696 -269 398 -200 650 -298 1026 -395 406
-106 700 -146 1084 -145 360 0 670 33 1025 109 134 29 411 112 493 148 16 8
17 -12 17 -345 0 -441 19 -878 65 -1529 27 -384 35 -505 60 -970 79 -1483 87
-1885 74 -3705 -10 -1510 -1 -1901 51 -2275 5 -35 7 -66 5 -68 -7 -7 -464 68
-635 104 -511 108 -1066 298 -1515 519 -115 57 -340 178 -500 270 -490 281
-664 359 -974 434 -188 46 -271 54 -496 48 -422 -12 -940 -126 -1849 -408
-392 -122 -563 -156 -745 -146 -168 9 -255 46 -287 124 -11 26 -20 33 -42 33
-57 0 -68 -49 -28 -128 46 -92 138 -153 281 -188 53 -14 112 -18 240 -18 198
1 320 19 590 90 456 119 949 239 1149 279 639 128 895 125 1331 -19 190 -63
321 -126 610 -296 398 -234 451 -263 686 -380 398 -198 853 -366 1264 -469
318 -79 414 -95 585 -95 145 0 207 8 359 46 8 2 21 -29 36 -89 25 -96 40 -133
55 -133 10 0 15 23 30 135 18 139 19 141 44 153 32 14 50 66 30 87 -9 8 -22
15 -30 15 -10 0 -13 7 -9 23 6 30 32 273 40 372 3 44 10 226 15 405 5 179 19
606 30 950 26 820 43 2011 35 2425 -22 1178 -96 2040 -315 3690 -27 204 -63
496 -80 650 -17 154 -39 338 -50 408 -20 128 -20 128 0 167 11 22 20 46 20 55
0 9 7 27 16 40 21 32 32 179 15 199 -6 8 -23 17 -37 20 -14 4 -39 17 -55 28
-27 20 -33 21 -96 9 -131 -24 -199 -45 -333 -101 -182 -78 -296 -113 -480
-148 -237 -47 -401 -63 -687 -69 -352 -8 -628 20 -983 98 -415 91 -651 175
-1210 429 -278 127 -558 190 -840 190 -565 0 -1407 -276 -2013 -661 -141 -90
-243 -167 -299 -227 l-46 -49 -59 59 c-202 207 -520 411 -823 528 -74 29 -234
95 -355 146 -267 113 -351 144 -520 194 -154 45 -302 75 -437 90 -90 9 -371
11 -463 3z"/>
<path d="M9265 14243 c-33 -1 -163 -7 -290 -13 -392 -19 -811 -62 -1160 -121
-517 -87 -1402 -287 -2030 -459 -137 -37 -313 -85 -390 -105 -300 -79 -598
-166 -765 -225 -96 -34 -242 -84 -323 -110 -82 -27 -155 -54 -163 -61 -16 -13
-18 -37 -5 -58 15 -23 188 14 561 122 85 25 290 77 455 117 165 40 471 114
680 165 1190 291 1949 449 2390 499 383 44 516 51 955 51 544 0 582 -5 1045
-138 232 -67 448 -117 506 -117 57 0 119 31 180 91 48 47 99 138 99 178 0 32
-37 67 -112 106 -72 39 -74 39 -228 47 -606 32 -1147 44 -1405 31z"/>
<path d="M14430 14104 c-25 -2 -110 -8 -190 -14 -380 -27 -1020 -111 -1655
-216 -472 -78 -574 -105 -590 -154 -11 -34 37 -123 81 -151 l39 -24 465 0
c256 0 762 4 1125 9 1158 15 1616 -15 2455 -161 249 -44 276 -46 450 -47 202
-1 343 16 509 60 154 40 158 58 34 131 -112 65 -235 126 -390 192 -145 62
-627 220 -797 262 -132 32 -424 82 -581 100 -94 10 -857 21 -955 13z"/>
<path d="M9385 13309 c-277 -17 -1015 -101 -1230 -139 -280 -49 -737 -134
-1015 -189 -168 -34 -498 -99 -735 -146 -470 -92 -844 -182 -1375 -329 -441
-122 -796 -241 -855 -288 l-26 -20 22 -24 c12 -13 30 -24 40 -24 18 0 93 19
379 98 496 137 1222 286 1960 402 283 45 615 99 737 121 854 151 1283 199
1788 199 257 0 485 -25 915 -101 197 -35 246 -36 336 -8 134 41 366 175 372
215 7 47 -165 147 -358 209 l-85 27 -365 3 c-201 2 -428 -1 -505 -6z"/>
<path d="M14020 13000 c-549 -22 -1005 -50 -1240 -76 -301 -34 -716 -96 -762
-115 -36 -15 -36 -43 1 -80 29 -29 31 -29 140 -29 61 0 236 8 389 17 221 13
438 16 1072 16 800 -1 1000 -7 1515 -43 616 -44 871 -77 1515 -195 193 -35
388 -61 725 -95 110 -11 231 -24 268 -28 57 -7 70 -6 75 6 7 20 -16 36 -128
90 -235 111 -655 261 -905 322 -612 150 -1142 206 -2040 214 -225 3 -507 1
-625 -4z"/>
<path d="M9015 12209 c-320 -7 -650 -34 -1070 -89 -82 -10 -292 -35 -465 -55
-325 -37 -637 -80 -820 -114 -161 -30 -490 -89 -645 -117 -359 -64 -1047 -222
-1300 -299 -203 -61 -497 -166 -562 -200 -47 -24 -59 -35 -51 -43 22 -22 76
-12 369 72 408 117 1018 245 1734 366 165 27 363 61 440 75 239 43 533 83 995
134 605 68 699 75 970 75 263 0 363 -11 835 -88 644 -106 680 -111 748 -99 84
15 163 46 236 93 72 46 76 66 31 128 -41 57 -224 148 -325 162 -77 11 -622 10
-1120 -1z"/>
<path d="M14025 11803 c-895 -26 -1736 -102 -1867 -169 -34 -18 -35 -38 -5
-68 l23 -23 965 -6 c1414 -9 2046 -34 2974 -122 619 -58 619 -58 980 -51 187
4 408 12 490 19 139 11 150 13 153 33 2 17 -9 24 -75 47 -161 55 -495 144
-716 192 -251 54 -904 113 -1592 145 -191 9 -1069 11 -1330 3z"/>
<path d="M8275 11249 c-940 -36 -1582 -127 -3259 -465 -502 -101 -658 -139
-926 -226 -108 -35 -118 -41 -100 -63 18 -22 72 -19 222 15 245 54 468 91
1128 185 96 14 294 43 440 65 587 88 1190 159 1609 190 185 13 766 13 974 0
188 -13 296 -28 497 -70 202 -42 259 -55 390 -90 340 -91 426 -110 496 -110
117 0 348 47 434 88 104 50 -18 172 -298 297 -113 51 -163 62 -492 109 -471
68 -767 88 -1115 75z"/>
<path d="M14940 10793 c-858 -16 -1850 -77 -2439 -149 -324 -39 -421 -66 -421
-119 0 -13 4 -27 10 -30 5 -3 218 -6 472 -5 255 0 652 -4 883 -9 231 -6 733
-15 1115 -21 1046 -16 1267 -27 1890 -90 166 -17 254 -20 590 -18 389 3 395 3
398 23 2 18 -18 31 -125 82 -184 89 -256 117 -458 178 -165 50 -258 71 -421
94 -424 61 -810 78 -1494 64z"/>
<path d="M7350 10059 c-233 -11 -557 -36 -705 -55 -331 -42 -2616 -427 -2702
-455 -18 -6 -42 -23 -53 -39 l-20 -28 39 -4 c50 -4 271 8 481 27 825 74 1048
98 1780 185 685 81 788 88 1415 96 l460 6 550 -41 c303 -23 626 -50 718 -61
93 -11 203 -20 245 -20 145 0 518 42 536 60 27 27 -44 68 -239 136 -264 92
-371 109 -945 149 -201 14 -459 32 -575 40 -224 16 -686 18 -985 4z"/>
<path d="M13875 9794 c-618 -28 -871 -54 -1325 -134 -292 -51 -405 -79 -443
-111 -20 -16 -21 -19 -6 -34 14 -14 32 -15 165 -5 470 33 629 40 904 40 330 0
911 -21 1240 -45 113 -8 324 -22 470 -30 146 -9 310 -20 365 -26 55 -5 165
-16 245 -25 80 -8 278 -26 440 -39 162 -14 367 -32 455 -40 601 -59 677 -64
1045 -59 280 3 295 4 298 22 8 47 -250 179 -544 278 -195 66 -294 86 -586 118
-332 38 -408 44 -703 61 -148 9 -371 22 -494 30 -280 19 -1124 18 -1526 -1z"/>
<path d="M8165 9279 c-416 -21 -920 -76 -1650 -179 -269 -38 -564 -78 -655
-90 -468 -58 -812 -112 -1223 -191 -144 -27 -345 -63 -447 -80 -204 -33 -250
-44 -250 -64 0 -48 73 -42 835 65 350 49 559 73 1121 130 165 16 449 48 630
70 959 115 1422 152 1919 151 497 0 869 -27 1074 -76 134 -33 208 -63 339
-138 102 -59 110 -62 172 -61 138 2 224 90 176 182 -43 82 -133 129 -345 182
-210 51 -386 77 -606 89 -267 15 -896 21 -1090 10z"/>
<path d="M14040 8773 c-600 -21 -1262 -73 -1637 -129 -180 -26 -245 -56 -198
-90 15 -11 98 -14 419 -14 573 0 1383 -36 1721 -76 464 -55 1233 -215 1655
-344 330 -101 388 -115 593 -140 109 -13 569 -40 580 -33 4 2 7 13 7 23 0 67
-551 358 -936 495 -408 145 -763 216 -1414 280 -154 15 -584 36 -670 33 -25
-1 -79 -3 -120 -5z"/>
<path d="M8185 8190 c-947 -24 -1317 -51 -2150 -160 -826 -108 -940 -129
-1513 -271 -404 -100 -489 -119 -535 -120 -27 0 -29 -2 -12 -9 58 -25 276 -6
560 49 406 79 656 109 1445 171 696 54 759 58 1190 71 670 21 2121 -5 2370
-42 41 -6 131 -29 200 -50 136 -43 162 -44 234 -7 65 33 97 61 118 102 39 76
-2 149 -114 204 -103 50 -245 60 -898 66 -305 2 -708 0 -895 -4z"/>
<path d="M9065 7240 c-501 -29 -1008 -156 -1765 -442 -186 -70 -716 -293
-1000 -420 -285 -128 -764 -317 -940 -371 -457 -140 -1018 -270 -1305 -302
-195 -22 -600 -31 -759 -16 -150 14 -245 37 -360 86 -90 39 -126 40 -126 3 0
-31 57 -78 151 -125 148 -73 307 -109 594 -133 157 -13 529 -13 675 0 330 30
964 155 1327 261 206 60 586 199 903 329 683 281 838 343 1060 423 873 314
1185 378 1845 378 192 0 412 6 550 16 312 21 561 21 643 -1 91 -24 110 -3 46
53 -135 119 -525 232 -897 261 -147 11 -443 11 -642 0z"/>
<path d="M11116 5883 c-10 -3 -27 -12 -37 -22 -34 -31 -305 -181 -401 -221
-144 -60 -251 -83 -388 -84 -188 -1 -270 40 -381 189 -85 115 -101 129 -147
129 -87 -1 -1210 -173 -1782 -274 -151 -26 -471 -82 -710 -124 -539 -95 -769
-137 -1265 -231 -370 -70 -475 -88 -970 -170 -115 -19 -325 -55 -465 -80 -140
-24 -326 -56 -413 -70 -88 -14 -254 -46 -370 -71 -532 -113 -1080 -215 -1093
-201 -3 3 10 34 29 69 51 90 84 184 91 253 6 52 4 61 -14 75 -11 8 -51 89 -89
180 -55 133 -73 166 -90 168 -17 3 -21 -2 -21 -27 0 -17 11 -60 25 -96 13 -36
38 -114 55 -174 35 -121 36 -105 -18 -261 -17 -47 -36 -113 -42 -148 -7 -34
-17 -62 -21 -62 -5 0 -7 -11 -3 -23 4 -20 0 -26 -25 -37 -17 -7 -31 -20 -31
-29 0 -27 39 -81 66 -91 14 -6 127 -10 252 -11 l227 -1 -135 -24 c-74 -13
-211 -34 -304 -47 -93 -13 -171 -28 -173 -34 -2 -6 4 -19 14 -28 25 -25 151
-16 483 34 502 76 904 131 1840 251 1268 163 1512 197 2560 350 371 54 875
126 1120 160 475 65 604 87 883 148 l176 39 17 -56 c41 -145 137 -264 275
-343 113 -66 211 -111 253 -119 23 -3 86 -19 141 -33 186 -50 386 -31 520 49
30 19 65 37 78 41 47 14 147 77 176 110 17 19 52 77 77 129 25 52 51 95 58 95
6 0 178 -11 381 -25 373 -25 789 -48 1185 -65 438 -20 791 -41 990 -60 113
-11 322 -24 465 -30 143 -6 483 -26 755 -45 1818 -126 3633 -211 4017 -189
162 10 201 20 176 45 -6 6 -67 19 -135 28 l-123 16 23 45 c12 24 22 40 22 35
1 -23 30 31 30 55 0 33 -26 58 -68 66 -18 4 -32 7 -32 8 0 0 9 47 20 104 32
167 25 229 -35 299 l-35 42 27 3 c35 4 57 46 55 108 -1 51 -78 280 -94 280
-11 0 -10 -27 8 -217 l7 -71 -39 4 c-22 3 -50 -1 -64 -8 -50 -27 -34 -81 55
-183 29 -33 55 -74 59 -90 6 -28 -17 -241 -27 -251 -3 -3 -79 4 -168 15 -248
31 -393 45 -1284 121 -1082 92 -1714 144 -2135 175 -190 14 -561 41 -825 60
-1271 93 -2268 206 -2840 320 -219 44 -365 93 -365 122 0 13 -2 14 -34 6z"/>
</g>
</svg>
