<?xml version="1.0" encoding="UTF-8" standalone="no"?>
<svg
  xmlns:rdf="http://www.w3.org/1999/02/22-rdf-syntax-ns#"
  xmlns="http://www.w3.org/2000/svg"
  xmlns:cc="http://creativecommons.org/ns#"
  xmlns:dc="http://purl.org/dc/elements/1.1/"
  xmlns:svg="http://www.w3.org/2000/svg"
  xmlns:ns1="http://sozi.baierouge.fr"
  xmlns:xlink="http://www.w3.org/1999/xlink"
  id="svg3783"
  viewBox="0 0 775.62 498.19"
  version="1.0"
>
  <g id="layer1" transform="translate(673.61 94.735)">
    <g id="g2394" transform="matrix(.38697 0 0 .38697 -412.94 -58.075)">
      <path
        id="path3856"
        style="
          stroke: #000000;
          stroke-linecap: round;
          stroke-width: 2;
          fill: none;
        "
        d="m1178.8 62.265s-410.33 512.3-873.19 794.66c-462.87 282.38-978.22 334.78-978.22 334.78"
      />
      <g id="g3837" transform="translate(571.07 -223.18)">
        <path
          id="path3809"
          style="fill: #0000ff"
          d="m-53.031 831.29c3.355-18.06 12.116-34.22 21.658-49.69 30.042-45.09 74.664-68.56 121.02-94.05 46.753-20.02 97.723-24.04 147.88-27.18 43.94 0.07 83.34-13.8 121.42-34.33-35.17 22.8 20.76-19.11 30.04-27.11l36.95-15.05c-29.47 24.53-59.82 47.45-94.63 64.38-38.09 19.72-77.5 32.7-121.01 32.14-50.04 2.75-100.73 7.29-146.98 28.26 9.36-7.01-51.369 35.19-59.933 57.57-8.6544 14.26-16.854 29.14-18.927 45.96l-37.491 19.1z"
        />
        <path
          id="rect3795"
          style="fill: #0000ff"
          d="m705.39 128.44l-253.45 52.46-1.8-1.19-1.37 0.83-0.16 1.05-0.61 0.12 0.36 1.73-61.59 430.02 370.12-227.26 1.82-0.38-0.14-0.65 0.88-0.54 0.22-1.58-1.78-1.17-52.5-253.44z"
        />
        <path
          id="path3805"
          style="
            stroke: #222caf;
            stroke-linecap: round;
            stroke-width: 5;
            fill: none;
          "
          d="m700 135.22l-308.57 468.57"
        />
        <path
          id="path3807"
          style="
            stroke: #222caf;
            stroke-linecap: round;
            stroke-width: 5;
            fill: none;
          "
          d="m748.57 378.08l-297.14-188.57"
        />
        <g
          id="g3819"
          transform="matrix(.57863 .37694 -.37694 .57863 663.6 474.41)"
        >
          <path
            id="path3821"
            style="fill: #000080"
            transform="matrix(.27634 .46405 -.46405 .27634 -49.336 502.19)"
            d="m-240 360.93c9.75 5.92 6.89 69.82 6.63 81.22-0.25 11.41-0.2 75.36-10.21 80.85-10 5.48-63.9-28.95-73.65-34.87s-65.16-37.85-64.91-49.26 57.02-40.87 67.02-46.35c10-5.49 65.37-37.51 75.12-31.59z"
          />
          <path
            id="path3823"
            style="fill: #000080"
            d="m-240 360.93c9.75 5.92 6.89 69.82 6.63 81.22-0.25 11.41-0.2 75.36-10.21 80.85-10 5.48-63.9-28.95-73.65-34.87s-65.16-37.85-64.91-49.26 57.02-40.87 67.02-46.35c10-5.49 65.37-37.51 75.12-31.59z"
            transform="matrix(-.27634 .46405 .46405 .27634 -511.74 502.19)"
          />
        </g>
        <g
          id="g3825"
          transform="matrix(.46968 .50626 -.50626 .46968 584.97 584.07)"
        >
          <path
            id="path3827"
            style="fill: #000080"
            transform="matrix(.27634 .46405 -.46405 .27634 -49.336 502.19)"
            d="m-240 360.93c9.75 5.92 6.89 69.82 6.63 81.22-0.25 11.41-0.2 75.36-10.21 80.85-10 5.48-63.9-28.95-73.65-34.87s-65.16-37.85-64.91-49.26 57.02-40.87 67.02-46.35c10-5.49 65.37-37.51 75.12-31.59z"
          />
          <path
            id="path3829"
            style="fill: #000080"
            d="m-240 360.93c9.75 5.92 6.89 69.82 6.63 81.22-0.25 11.41-0.2 75.36-10.21 80.85-10 5.48-63.9-28.95-73.65-34.87s-65.16-37.85-64.91-49.26 57.02-40.87 67.02-46.35c10-5.49 65.37-37.51 75.12-31.59z"
            transform="matrix(-.27634 .46405 .46405 .27634 -511.74 502.19)"
          />
        </g>
        <g
          id="g3831"
          transform="matrix(.58929 .36005 -.36005 .58929 407.43 516.09)"
        >
          <path
            id="path3833"
            style="fill: #000080"
            d="m-240 360.93c9.75 5.92 6.89 69.82 6.63 81.22-0.25 11.41-0.2 75.36-10.21 80.85-10 5.48-63.9-28.95-73.65-34.87s-65.16-37.85-64.91-49.26 57.02-40.87 67.02-46.35c10-5.49 65.37-37.51 75.12-31.59z"
            transform="matrix(.27634 .46405 -.46405 .27634 -49.336 502.19)"
          />
          <path
            id="path3835"
            style="fill: #000080"
            transform="matrix(-.27634 .46405 .46405 .27634 -511.74 502.19)"
            d="m-240 360.93c9.75 5.92 6.89 69.82 6.63 81.22-0.25 11.41-0.2 75.36-10.21 80.85-10 5.48-63.9-28.95-73.65-34.87s-65.16-37.85-64.91-49.26 57.02-40.87 67.02-46.35c10-5.49 65.37-37.51 75.12-31.59z"
          />
        </g>
      </g>
    </g>
  </g>
</svg>
