<svg
  class="High-Dog"
  xmlns="http://www.w3.org/2000/svg"
  height="120pt"
  width="120pt"
>
  <g>
    <path
      style="fill: #000000"
      d="m83.012 17.316c-5.066 1.846-9.37 8.198-10.399 13.903-2.077 5.33-6.525 13-11.574 16.377 1.825 2.441 6.5-4.256 8.502-5.144-1.245 2.519-4.261 5.321-1.972 8.201 3.141 3.943 9.294 5.67 13.486 2.3 4.275-3.175 6.031-8.458 9.089-12.634 1.887-2.983 1.246-6.974-1.532-9.176-1.129-1.507-2.964-3.94-4.946-2.123-3.481 0.031-9.342 4.375-12.299 9.988 1.376-4.028 6.177-14.658 8.433-18.211 9.962-2.694 20.74 2.881 29.41 7.762 1.2-1.046 5.39 3.095 7.38 3.062 12.23 7.621 15.41 24.545 13.82 38.478 0.01 4.297-2.17 1.098-3.42-2.127-2.34-5.254-8.16-12.085-3.52-16.078-1.29-2.505-1.85-0.284-3.54 0.293-1.69 0.744-5.1 2.281-3.28 4.6 6.93 5.838 8.48 12.448 13.37 19.71 4.24 8.479 12.86 20.655 11.26 30.543-1.35 6.82-10.6 13.32-17.41 13.44-6.15 0.92-13.7 1.84-19.38-1.03-4.32-3.37-8.13-7.9-10.6-12.7-2.837-7.432-3.391-18.516-3.549-26.427 0.369-12.263 3.796-23.13 10.729-33.279-4.132 2.082-6.784 2.96-10.897 5.074 2.469 5.27-2.143 10.167-2.087 15.48-0.841 6.608 0.49 16.447 0.292 23.078-6.917 0.464-11.389 1.341-17.207 5.04-10.355 3.28-24.421 7.274-36.284 5.244-1.323-0.28-8.567-1.074-2.147-3.991 5.247-1.901 10.724-3.301 15.931-5.429 6.474-2.648 13.082-5.116 19.504-7.805 1.754-1.277 3.59-2.623 4.2-4.824-1.692 1.84-8.986 5.101-13.923 6.266-8.404 2.999-17.099 5.864-25.673 8.32-5.812 1.768-5.459 4.393-7.547 5.021-3.068-1.96-7.284-10.683-7.773-15.567-0.166-4.07 0.635-9.162 0.498-13.257 0.212-2.766 6.053-5.671 8.674-6.681 1.989-1.155 2.798-4.241 4.253-5.651 1.886-0.785 4.252-0.909 6.646-0.973 4.441-1.724 8.918-1.787 13.4-3.506 3.847-0.995 7.206-0.275 11.053-1.272-1.374-2.858-4.649-1.775-6.893-0.978-7.361 1.332-14.651 3.668-22.214 3.648 1.006-1.965 1.817-4.136 0.438-6.202-2.292-4.474-6.93-7.236-11.336-9.31-4.745-1.286-9.24 2.058-12.325 5.307-4.7566 5.908-6.2903 14.309-4.2545 21.569 1.7348 3.785 6.7715 2.931 10.09 2.354 0.341 6.188-2.464 12.639 0.461 18.568 1.787 5.747 3.602 13.184 10.097 15.183 15.889 4.5 33.155 1.44 47.712-5.878 4.317-1.756 9.258-3.596 13.882-2.49 1.385 1.924-0.044 4.593 0.717 6.838 0.803 8.52 6.502 15.68 13.543 20.15 3.66 2.56 7.9 5.07 12.54 4.15 9.01-0.71 18.25-3.79 24.98-9.96 5-4.68 7.06-12.43 4.03-18.749-2.31-6.5-7.94-11.363-10.18-17.787-1.11-10.396-0.33-21.001-2.26-31.284-2.03-8.023-8.33-14.491-15.93-17.527-1.25-1.316-3.58-1.384-4.61-2.069-3.18-2.869-7.55-4.26-11.386-6.166-5.005-2.348-10.496-4.05-16.072-3.662zm3.526 14.052c2.795 1.315 2.03 9.309-0.289 10.553 0.806-5.957-5.991-7.477-8.947-6.393 1.305-0.98 5.722-6.295 9.236-4.16zm-74.102 17.478c6.819 3.15 2.212 7.415-0.562 9.2-2.2402-0.011-2.9048-3.675-2.8061-5.302 0.3727-1.171 2.7521-2.874 3.3681-3.898z"
    />
  </g>
</svg>
