<svg
  xmlns="http://www.w3.org/2000/svg"
  id="svg548"
  viewBox="0 0 708.66 496.06"
  version="1.1"
  aria-label="The Flag of the state of Alaska"
>
  <rect
    id="rect552"
    style="fill-rule: evenodd; stroke-width: 1pt; fill: #000080"
    height="496.06"
    width="708.66"
    y="0"
    x="0"
  />
  <polygon
    id="polygon566"
    style="fill-rule: evenodd; stroke-width: 1pt; fill: #ffff00"
    transform="matrix(.44451 0 0 .44451 353.77 66.397)"
    d="m 615.41675,171.28557 -67.78712,-50.1568 -68.43459,49.26971 26.75458,-79.968681 -68.00573,-49.859991 84.32235,0.733433 26.40475,-80.084872 25.3595,80.421964 84.32475,0.364817 -68.64931,48.970075 z"
    points="615.42 171.29 547.63 121.13 479.2 170.4 505.95 90.43 437.94 40.57 522.27 41.303 548.67 -38.782 574.03 41.64 658.36 42.005 589.71 90.975"
  />
  <polygon
    id="polygon567"
    style="fill-rule: evenodd; stroke-width: 1pt; fill: #ffff00"
    transform="matrix(.18301 0 0 .18301 23.244 184.36)"
    d="m 615.41675,171.28557 -67.78712,-50.1568 -68.43459,49.26971 26.75458,-79.968681 -68.00573,-49.859991 84.32235,0.733433 26.40475,-80.084872 25.3595,80.421964 84.32475,0.364817 -68.64931,48.970075 z"
    points="615.42 171.29 547.63 121.13 479.2 170.4 505.95 90.43 437.94 40.57 522.27 41.303 548.67 -38.782 574.03 41.64 658.36 42.005 589.71 90.975"
  />
  <polygon
    id="polygon568"
    style="fill-rule: evenodd; stroke-width: 1pt; fill: #ffff00"
    transform="matrix(.18301 0 0 .18301 103.19 214.05)"
    d="m 615.41675,171.28557 -67.78712,-50.1568 -68.43459,49.26971 26.75458,-79.968681 -68.00573,-49.859991 84.32235,0.733433 26.40475,-80.084872 25.3595,80.421964 84.32475,0.364817 -68.64931,48.970075 z"
    points="615.42 171.29 547.63 121.13 479.2 170.4 505.95 90.43 437.94 40.57 522.27 41.303 548.67 -38.782 574.03 41.64 658.36 42.005 589.71 90.975"
  />
  <polygon
    id="polygon569"
    style="fill-rule: evenodd; stroke-width: 1pt; fill: #ffff00"
    transform="matrix(.18301 0 0 .18301 148.75 257.57)"
    d="m 615.41675,171.28557 -67.78712,-50.1568 -68.43459,49.26971 26.75458,-79.968681 -68.00573,-49.859991 84.32235,0.733433 26.40475,-80.084872 25.3595,80.421964 84.32475,0.364817 -68.64931,48.970075 z"
    points="615.42 171.29 547.63 121.13 479.2 170.4 505.95 90.43 437.94 40.57 522.27 41.303 548.67 -38.782 574.03 41.64 658.36 42.005 589.71 90.975"
  />
  <polygon
    id="polygon570"
    style="fill-rule: evenodd; stroke-width: 1pt; fill: #ffff00"
    transform="matrix(.18301 0 0 .18301 196.91 303.25)"
    d="m 615.41675,171.28557 -67.78712,-50.1568 -68.43459,49.26971 26.75458,-79.968681 -68.00573,-49.859991 84.32235,0.733433 26.40475,-80.084872 25.3595,80.421964 84.32475,0.364817 -68.64931,48.970075 z"
    points="615.42 171.29 547.63 121.13 479.2 170.4 505.95 90.43 437.94 40.57 522.27 41.303 548.67 -38.782 574.03 41.64 658.36 42.005 589.71 90.975"
  />
  <polygon
    id="polygon571"
    style="fill-rule: evenodd; stroke-width: 1pt; fill: #ffff00"
    transform="matrix(.18301 0 0 .18301 185.61 376.61)"
    d="m 615.41675,171.28557 -67.78712,-50.1568 -68.43459,49.26971 26.75458,-79.968681 -68.00573,-49.859991 84.32235,0.733433 26.40475,-80.084872 25.3595,80.421964 84.32475,0.364817 -68.64931,48.970075 z"
    points="615.42 171.29 547.63 121.13 479.2 170.4 505.95 90.43 437.94 40.57 522.27 41.303 548.67 -38.782 574.03 41.64 658.36 42.005 589.71 90.975"
  />
  <polygon
    id="polygon572"
    style="fill-rule: evenodd; stroke-width: 1pt; fill: #ffff00"
    transform="matrix(.18301 0 0 .18301 320.26 351.13)"
    d="m 615.41675,171.28557 -67.78712,-50.1568 -68.43459,49.26971 26.75458,-79.968681 -68.00573,-49.859991 84.32235,0.733433 26.40475,-80.084872 25.3595,80.421964 84.32475,0.364817 -68.64931,48.970075 z"
    points="615.42 171.29 547.63 121.13 479.2 170.4 505.95 90.43 437.94 40.57 522.27 41.303 548.67 -38.782 574.03 41.64 658.36 42.005 589.71 90.975"
  />
  <polygon
    id="polygon573"
    style="fill-rule: evenodd; stroke-width: 1pt; fill: #ffff00"
    transform="matrix(.18301 0 0 .18301 281.36 410.61)"
    d="m 615.41675,171.28557 -67.78712,-50.1568 -68.43459,49.26971 26.75458,-79.968681 -68.00573,-49.859991 84.32235,0.733433 26.40475,-80.084872 25.3595,80.421964 84.32475,0.364817 -68.64931,48.970075 z"
    points="615.42 171.29 547.63 121.13 479.2 170.4 505.95 90.43 437.94 40.57 522.27 41.303 548.67 -38.782 574.03 41.64 658.36 42.005 589.71 90.975"
  />
</svg>
