<svg
  xmlns="http://www.w3.org/2000/svg"
  enable-background="new 0 0 500 500"
  xml:space="preserve"
  version="1.1"
  y="0px"
  x="0px"
  viewBox="0 0 500 500"
  aria-label="A blue Umbrella"
>
  <g id="Umberella">
    <g id="Outline">
      <path
        d="m0 186.76s44.759-28.833 61.825-28.947c17.568-0.117 64.035 28.947 64.035 28.947s45.789-28.994 63.158-28.947c17.17 0.046 62.28 28.947 62.28 28.947s45.79-28.947 63.158-28.947 63.158 28.947 63.158 28.947 44.433-28.993 61.403-28.947c16.781 0.045 60.561 28.947 60.561 28.947s-41.02-148.25-251.56-148.25c-210.55 0-248.02 148.25-248.02 148.25z"
      />
    </g>
    <g id="Outline_copy_3">
      <path
        d="m6 181s38.759-26.288 55.825-26.392c17.568-0.11 64.035 26.39 64.035 26.39s45.789-26.434 63.158-26.392c17.17 0.042 62.28 26.392 62.28 26.392s45.79-26.392 63.158-26.392 63.15 26.39 63.15 26.39 44.433-26.433 61.403-26.392c16.79 0.04 55.57 26.39 55.57 26.39s-64.91-137.33-246.56-135.16c-179.69-1.507-242.02 135.16-242.02 135.16z"
        fill="#FFFFFF"
      />
    </g>
    <g id="Outline_copy_5">
      <path
        d="m189.5 154.5c16.25 1.25 61.428 27.024 61.428 27.024s46.322-26.024 59.673-26.208c0-22.983-21.268-112.65-61.722-114.28-37.21 2.637-59.38 91.15-59.38 113.47z"
        fill="#243F8F"
      />
    </g>
    <g id="Outline_copy_8">
      <path
        d="m6 181s38.5-26.5 58-26.5c14-55.5 49.67-108.17 187.88-112.46-195.59-0.004-245.88 138.96-245.88 138.96z"
        fill="#309445"
      />
    </g>
    <g id="Outline_copy_9">
      <path
        d="m439.02 154.61c17.48 0.39 55.73 27.14 55.73 27.14s-47.28-139.71-242.87-139.71c112.12 9.46 160.12 54.96 187.14 112.57z"
        fill="#ED1F24"
      />
    </g>
    <g id="Outline_copy_10">
      <linearGradient
        id="SVGID_1_"
        y2="45.818"
        gradientUnits="userSpaceOnUse"
        x2="250.29"
        y1="181"
        x1="250.29"
      >
        <stop style="stop-color: #000000; stop-opacity: 0.14" offset="0" />
        <stop style="stop-color: #000000" offset=".681" />
      </linearGradient>
      <path
        d="m6 181s38.759-26.288 55.825-26.392c17.568-0.11 64.035 26.39 64.035 26.39s45.789-26.434 63.158-26.392c17.17 0.042 62.28 26.392 62.28 26.392s45.79-26.392 63.158-26.392 63.15 26.39 63.15 26.39 44.433-26.433 61.403-26.392c16.79 0.04 55.57 26.39 55.57 26.39s-64.91-137.33-246.56-135.16c-179.69-1.507-242.02 135.16-242.02 135.16z"
        fill="url(#SVGID_1_)"
      />
    </g>
    <g id="post">
      <rect y="62.333" x="246" height="422" width="13.333" />
      <rect y="147" x="249.23" height="334.67" width="6.875" fill="#FFFFFF" />
    </g>
    <g id="Outline_copy_2">
      <path
        d="m3.5 183s45.167-50.681 75.408-50.681c16.321 0 59.488 6.206 59.488 6.206s42.538-20.241 58.673-20.208c15.951 0.032 57.858 20.208 57.858 20.208s42.538-20.208 58.673-20.208c16.136 0 58.674 20.208 58.674 20.208s41.277-6.206 57.043-6.206c31.64 0 64.69 48.68 64.69 48.68s-46.53-131.96-242.12-131.96c-195.59-0.004-248.38 133.96-248.38 133.96z"
      />
    </g>
    <g id="Outline_copy">
      <path
        d="m6.562 177.98s42.105-52.665 72.347-52.665c16.321 0 59.488 6.206 59.488 6.206s42.538-20.241 58.673-20.208c15.951 0.032 57.858 20.208 57.858 20.208s42.538-20.208 58.673-20.208c16.136 0 58.674 20.208 58.674 20.208s41.277-6.206 57.043-6.206c31.63 0 64.086 54.419 64.086 54.419s-45.93-137.7-241.52-137.7c-195.59-0.004-245.32 135.94-245.32 135.94z"
        fill="#FFFFFF"
      />
    </g>
    <g id="Outline_copy_7">
      <path
        d="m6.562 177.98s42.105-52.665 72.347-52.665c9.425-15.652 34.758-78.985 172.97-83.283-195.59-0.001-245.32 135.94-245.32 135.94z"
        fill="#309445"
      />
    </g>
    <g id="Outline_copy_6">
      <path
        d="m429.32 125.32c31.63 0 64.086 54.419 64.086 54.419s-45.94-137.7-241.53-137.7c112.12 9.46 143.62 40.46 177.44 83.28z"
        fill="#ED1F24"
      />
    </g>
    <g id="Outline_copy_4">
      <path
        d="m197.07 111.32c15.951 0.032 57.858 20.208 57.858 20.208s42.538-20.208 58.673-20.208c0-22.983-21.268-67.649-61.722-69.28-37.21 2.627-54.81 46.96-54.81 69.28z"
        fill="#243F8F"
      />
    </g>
  </g>
</svg>
