<svg class="Cow" xmlns="http://www.w3.org/2000/svg">
  <path
    style="fill: #0f070a"
    d="m94 126c-2.99 12.62-8.824 24.6-5.39 38 2.658 10.38 10.695 18.48 12.94 29 3.96 18.6 3.25 39.13 2.45 58h1c3.34-18 1.32-39.1-2-57h1c4.6 11.86 11.94 24.97 11.92 38-0.03 27.04-32.738 45.78-52.92 57.14-9.776 5.5-23.367 12.51-27 23.86l19-15.24 37-23.76c-4.83 17.02-12.592 30.57-24.13 44-7.032 8.18-20.358 18.44-22.87 29 7.055-1.44 9.921-7.88 14.3-13 10.924-12.77 19.148-27.92 30.7-40 2.084 15.46 8.924 15.4 21 20.82 7.41 3.32 11.64 10.54 20 12.36 21.91 4.77 34.91-14.58 55-16.18 0.29 14.17 5.65 28.06 10.99 41 2.08 5.05 3.34 11.23 9.01 13-4.96-17.46-18.24-34.11-18.09-52.83 0.04-5.41 4.76-9.41 6.85-14.17 2.96-6.75 2.73-12.82 2.15-20-0.54-6.73-5.09-10.92-7.23-17-2.63-7.5-1.68-16.2-1.68-24h-1l-1 21c-7.54-2.96-6.16-8.98-5.98-16 0.37-15.37 6.89-28.02 11.98-42h1l-5 36h1c1.17-14.8 4.42-32.2 9.93-46 2.66-6.65 7.5-12.26 9.98-19 2.76-7.53 1.89-18.52 6.6-24.96 10.98-15 29.76-24.38 42.4-38.04 20.81-22.494 17.83-51.174 7.09-77h-2c-1.93 6.477-1.77 13.478-3.77 20-4.83 15.736-15.97 30.944-28.23 41.714-6.84 6.007-14.28 14.036-24 11.286v-2l8-3-11-3c3.55-11.33-10.82-3.765-17-4l4-14-10 8h-1c-2.75-6.181-3.73-14.848-11-17l-1 16-11-11-1 10c-2.86-1.953-7.08-6.943-10.79-6.694-7.38 0.498-4.17 9.112-14.21 4.694-23.63 37.18-72.105-1.768-87.48-28-5.151-8.789-5.863-19.126-10.52-28-9.143 6.217-5.256 27.821-3.207 37 5.059 22.661 17.578 50.5 40.207 59.99 7.562 3.18 16.061 1.54 24 3.01z"
  />
  <path
    style="fill: #fefefc"
    d="m32 34c-6.236 26.192 9.819 68.22 33 82.53 8.547 5.28 19.142 6.44 29 6.47l4-23c-22.884-6.494-42.897-20.378-55.384-41-4.694-7.751-4.98-18.017-10.616-25z"
  />
  <path
    style="fill: #fefefc"
    d="m264 36.372c-0.17 20.692-15.07 42.692-29 56.624-4.28 4.28-17.1 10.604-18.68 16.214-1.61 5.73 2.73 22.9 10.68 20.88 6.69-1.71 12.6-10.19 18-14.09 14.78-10.7 37.24-36.766 19-79.628z"
  />
  <path
    style="fill: #7c390a"
    d="m170.44 72.047l-0.28 16.837-11.16-9.884h-1v10l-13.56-10c-5.48 8.205-7.99 6.889-13.32 5.71-4.27 6.751-9.67 12.648-16.12 15.014-3.79 1.396-11.08-0.397-13.75 1.886-2.69 5.42-3.096 16.44-4.529 24.16l12.649 5.74 7.63-8.51-1 2 10-10-1 5c3.15-2.21 6.77-6.95 10.7-7.56 6.99-1.08 3.74 8.69 2.3 11.56l13-9v7c8.06-4.59 11.09-8.09 14 3 10.45-3.76 16.09-17.27 21.88-0.72l-1.23 3.35c0.2-6.98 9.49-8.11 14.35-7.63l1-5c4.42 5.4 1.73 9.64 5.01 15 9.13 14.93-0.2 24.61 18.31 2.91-7.65-3.1-11.51-16.27-10.6-26.03-8.12 0.46-13.18-5.03-2.72-7.88l-0.28 0.116-11.09-1.395 2.37-4.721v-1l-17 2.326 3-12.326-8.21 7.326-6.23-14.21-3.12-3.069z"
  />
  <path
    style="fill: #0f070a"
    d="m124 120l2-5-8 7 5 1 15-8-4 13 14-8-1 6 13-7 2 10 21-12c0.66 4.52 1.28 10.34 6 12-0.48-2.34-1.02-4.67-1.58-7-3.69-15.38-14.94-1.04-22.42 3-2.19-11.27-6.26-9.36-14-3v-7l-13 9c2.25-3.41 4.81-13.56-3.02-11.76-4.16 0.96-7.57 5.37-10.98 7.76z"
  />
  <path
    style="fill: #eec375"
    d="m123 124l-1-3-12 13h-1l-12-6c-3.333 11.74-8.685 23.62-5.215 36 6.626 23.65 33.535 44.48 28.755 71-1.48 8.21-6.08 14.22-10.54 21 6.2-1.67 10.61-0.36 16 3h1c7.32-5.55 29.75-10 35 0l14-3c-8.35-35.08 20.69-57.42 30.64-87 2.18-6.48 4.43-14.97 3.1-21.83-1.76-9.04-6.74-15.62-6.74-25.17h-11l-6 8-4-12-19 11c1.91 29.68-4.68 63.51-8.58 93-0.74 5.62 0.89 30.96-10.19 26.38-6.55-2.7-2.72-21.52-3.45-27.34-3.81-30.38-1.78-63.37-1.78-94.04l-6 2 4-13-14 8z"
  />
  <path
    style="fill: #fefefc"
    d="m160.12 120l-14.12 8 1-7c-10.07 6.32-6.88 15.9-6.88 26.56 0 23.25-2.57 48.39 0.46 71.44 0.81 6.23-3.52 29.72 5.16 30.35 9.76 0.71 8.09-21.73 8.84-28.07 3.67-31.12 9.18-83.65 7.19-91.28l-1.65-10z"
  />
  <path
    style="fill: #0f070a"
    d="m123 140.79c-19.59 3.04-22.21 41.99 0 37.98 16-2.88 18.57-40.87 0-37.98z"
  />
  <path
    style="fill: #0f070a"
    d="m180 142.55c-20.03 4.25-21.83 43.95 2 38.75 18.32-4 19.51-43.32-2-38.75z"
  />
  <path
    style="fill: #fefefc"
    d="m123.44 143.55c-10.27 2.17-15.27 13.32-13.5 22.1 1.16 5.76 4.79 12.62 12.32 11.01 13.82-2.95 16.86-36.43 1.18-33.11z"
  />
  <path
    style="fill: #fefefc"
    d="m179.68 145.37c-17.47 5.22-18.04 39.34 3.55 33.47 14.74-4.01 15.33-39.11-3.55-33.47z"
  />
  <path
    style="fill: #0f070a"
    d="m118.23 156.05c-5.73 3.26 0.29 11.27 5.45 7.92 4.9-3.18-0.61-10.68-5.45-7.92z"
  />
  <path
    style="fill: #0f070a"
    d="m178.23 158.05c-5.28 3-0.98 11.71 4.54 8.73 5.64-3.05 1.02-11.89-4.54-8.73z"
  />
  <path
    style="fill: #efb04f"
    d="m102.49 191.67c3.33 15.84 4.91 44.75 1.67 62.21l1.56 3.91c9.27-12.45 15.72-20.53 12.73-37.37-0.74-4.18-10.49-25.31-15.96-28.75z"
  />
  <path
    style="fill: #efb04f"
    d="m193.35 199.98c0.79-6.49-15.19 26.22-16.96 39.23-0.8 5.86 0.13 21.95 11.68 21.7-1.58-9.49-1.87-15.61-0.51-24.13 1.09-3.45 3.83-20.64 5.79-36.8z"
  />
  <path
    style="fill: #fdd7ba"
    d="m127 261c-5.48-10.18-16.51-6.12-22.38 1-8.881 10.75-14.847 25.21-8.65 39 7.95 17.68 30.65 5.82 44.03 3.46 14.52-2.56 28.96 10.26 43 2.17 20.25-11.66 12.93-38.4-7-50.2-5.42-2.31-12.98 1.97-19 1.84-15.07-0.33-11.38-4.18-30 2.73m6-7l1 1-1-1z"
  />
  <path
    style="fill: #0f070a"
    d="m127 260c24.38-4.37 35-2 35-2-11.88-8.68-31.75-1.72-35 2z"
  />
  <path
    style="fill: #efb04f"
    d="m92.628 272.93l-47.861 31.51-8.19 7.86 2.869 19.7 5.391 13.51 22.372-25.67c11.553-16.4 6.53-5.73 15.946-23.84 2.889-5.56 11.966-16.67 9.473-23.07z"
  />
  <path
    style="fill: #0f070a"
    d="m115.23 276.76c-6.26 2.61-2.49 15.55 4.54 11.88 5.93-3.09 2.37-14.76-4.54-11.88z"
  />
  <path
    style="fill: #0f070a"
    d="m172.23 277.05c-6.29 3.52-1.03 15.15 5.34 10.92 5.16-3.43 0.97-14.46-5.34-10.92z"
  />
  <path
    style="fill: #efb04f"
    d="m89.953 292.09c-26.181 33.9-27.879 40.41-43.906 55.19 6.25 12.31 32.403 16.69 44.949 17.88 6.592 0.62 12.504 3.64 19.004 4.55 27.78 3.88 66.65 6.94 92.56-6.11-8.73-19.6-16.28-35-16.72-54.67-22.62 4.77-23.52 13.04-37.84 17.2-16.67 4.85-22.96-4.49-36.56-11.28-5.4-2.7-8.36-2.75-13.912-6.18-4.754-2.93-4.124-12.43-7.575-16.58z"
  />
  <path
    style="fill: #fdd7ba"
    d="m113.42 312.88c23.42 19.13 32.48 14.51 56.84-1.11-37.45-9.76-24.67-4.31-56.84 1.11z"
  />
</svg>
