<svg
  class="Sun"
  xmlns="http://www.w3.org/2000/svg"
  enable-background="new 0 0 500 500"
>
  <g id="Layer_1">
    <circle
      cx="245.33"
      cy="252.19"
      stroke="#FFF200"
      r="175.28"
      stroke-miterlimit="10"
      fill="#FFF200"
    />
  </g>
  <g id="Layer_2" stroke="#FFF200" stroke-miterlimit="10" fill="#FFF200">
    <polygon
      points="154.7 113.84 134.82 37.705 180.27 97.932 189.93 7.591 219.48 96.227 235.39 29.75 267.77 97.932"
    />
    <polygon
      points="268.85 81.246 308.63 13.347 298.18 88.075 368.89 31.024 327.11 114.59 385.36 78.834 360.06 149.95"
    />
    <polygon
      points="374.03 140.56 450.17 120.67 389.94 166.12 480.28 175.78 391.65 205.33 474.55 218.12 389.94 253.62"
    />
    <polygon
      points="412.27 261.61 487.15 285.82 411.92 291.72 482.87 348.48 392.26 325.68 439.73 374.86 364.84 365.47"
    />
    <polygon
      points="366.03 368.12 401.85 438.18 344.49 389.16 354.52 479.46 306.57 399.28 305.36 467.62 259.04 408.02"
    />
    <polygon
      points="258.36 421.72 234.15 496.59 228.24 421.36 171.49 492.31 194.28 401.7 145.1 449.18 154.5 374.28"
    />
    <polygon
      points="154.9 383.68 99.766 439.83 128.12 369.9 45.63 407.99 106.52 337.13 41.312 357.61 83.195 294.81"
    />
    <polygon
      points="97.073 294.44 18.384 295.17 87.878 265.77 2.619 234.37 95.782 227.33 31.636 187.71 109.21 180.91"
    />
    <polygon
      points="89.155 185.93 33.002 130.8 102.93 159.15 64.842 76.664 135.7 137.56 115.22 72.345 178.02 114.23"
    />
  </g>
</svg>
