<svg
  xmlns:rdf="http://www.w3.org/1999/02/22-rdf-syntax-ns#"
  xmlns="http://www.w3.org/2000/svg"
  xmlns:cc="http://creativecommons.org/ns#"
  xmlns:xlink="http://www.w3.org/1999/xlink"
  xmlns:dc="http://purl.org/dc/elements/1.1/"
  id="svg2"
  viewBox="0 0 121 199.5"
  version="1.1"
>
  <defs id="defs4">
    <radialGradient
      id="radialGradient3999"
      gradientUnits="userSpaceOnUse"
      cy="181.36"
      cx="310"
      gradientTransform="matrix(1 0 0 1.2645 0 -47.964)"
      r="60.5"
    >
      <stop id="stop3902" style="stop-color: #ffcc00" offset="0" />
      <stop id="stop3904" style="stop-color: #ffeeaa" offset="1" />
    </radialGradient>
    <linearGradient
      id="linearGradient4001"
      y2="277.82"
      gradientUnits="userSpaceOnUse"
      x2="339.54"
      y1="277.82"
      x1="280.46"
    >
      <stop id="stop3950" style="stop-color: #808080" offset="0" />
      <stop id="stop3952" style="stop-color: #333333" offset="1" />
    </linearGradient>
    <linearGradient
      id="linearGradient4003"
      y2="280.36"
      gradientUnits="userSpaceOnUse"
      x2="337"
      y1="284.36"
      x1="284"
    >
      <stop id="stop3959" style="stop-color: #999999" offset="0" />
      <stop id="stop3973" style="stop-color: #cccccc" offset=".41764" />
      <stop id="stop3961" style="stop-color: #999999" offset="1" />
    </linearGradient>
  </defs>
  <g id="layer1" transform="translate(-6.5 -10.862)">
    <g id="g3987" transform="translate(-243 -94)">
      <g id="g3980">
        <path
          id="path3014"
          style="
            stroke: #000000;
            stroke-width: 1px;
            fill: url(#radialGradient3999);
          "
          d="m370 162.36c0 21.667-8.157 29.487-20 50-4.9369 8.551-7.1989 20.472-9 30-1.5886 8.4038-3 15-3 15h-56s-1.4088-6.5676-3-15-2.3648-18.73-5-24c-10-20-24-34.333-24-56 0-40 32.414-57 60-57s60 17 60 57z"
        />
        <path
          id="path3031"
          style="
            opacity: 0.5;
            stroke: #666666;
            stroke-width: 1px;
            fill: #e1e1e1;
          "
          d="m312.12 191.25c-0.73724 0.0109-1.4878 0.10984-2.125 0.125-1.374 0.0327-3.4257-0.24863-4 1-0.31145 0.67717 0.82875 1.2746 1 2 1.1488 4.8662 2.1412 10.482 0 15-2.0288 4.2812-9.2592 4.5938-11 9-1.8535 4.6914 2.5693 9.988 2 15-0.0269 0.23654-0.10262 0.4573-0.15625 0.6875 1.4936 0.17568 3.0317 0.3125 4.1562 0.3125 3 0 6 5.2054 6 19 0 1.4216-0.0128 2.7401-0.0312 4h6.4688c-0.0206-1.2606-0.0312-2.5738-0.0312-4 0-13.795 3-19 6-19 0.7252 0 1.6138-0.0676 2.5625-0.15625-1.0982-5.1902 4.007-10.902 2.0312-15.844-1.7588-4.399-8.9712-4.7188-11-9-2.1412-4.5184-1.1488-10.134 0-15 0.17125-0.72542 1.3275-1.3304 1-2-0.46672-0.95427-1.6463-1.1432-2.875-1.125zm-1.12 42.13c1.3807 0 2.5 1.1193 2.5 2.5s-1.1193 2.5-2.5 2.5-2.5-1.1193-2.5-2.5 1.1193-2.5 2.5-2.5zm-12 3c-0.88132 0-1.5635 0.0968-2.125 0.21875-0.79072 1.5584-1.7156 3.0772-1.875 4.7812-0.48115 5.1422-1.7736 11.61-2 16h10v-5c0-13.795-1-16-4-16zm24.406 0c-3 0-4 2.2054-4 16v5h7.5938c0.45327-4.7656 0.0686-13.683-2-20-0.11408-0.3484-0.32499-0.67829-0.5625-0.96875-0.31445-0.0273-0.65625-0.0312-1.0312-0.0312z"
        />
        <path
          id="path3025"
          style="stroke: #000000; stroke-width: 0.5; fill: none"
          d="m317 164.36-4 27m-9-27 4 27"
        />
        <path
          id="path3027"
          style="stroke: #999999; stroke-width: 0.25; fill: none"
          d="m286.99 173.11s1.0172-0.52629 1.0228-0.99851c0.003-0.23611-0.26068-0.49809-0.49833-0.4982-0.23766-0.00012-0.50782 0.26112-0.51089 0.4968-0.006 0.47136 0.52598 1.0028 0.99755 1.0031 0.48203 0.00031 1.0167-0.55134 1.021-1.0241 0.002-0.23636-0.26167-0.49223-0.49932-0.48703-0.23765 0.005-0.50709 0.27327-0.51001 0.50938-0.006 0.47222 0.53306 0.98624 0.9998 0.98048 0.48729-0.006 1.0146-0.57621 1.0182-1.0491 0.002-0.23644-0.26255-0.48637-0.50003-0.4754-0.23747 0.011-0.50657 0.28532-0.50865 0.52168-0.004 0.47274 0.53994 0.96869 1.0015 0.9569 0.4922-0.0126 1.0124-0.60088 1.0145-1.0736 0.001-0.23636-0.26334-0.47982-0.50047-0.46329-0.23713 0.0165-0.50527 0.29727-0.50683 0.53371-0.003 0.4729 0.54663 0.95014 1.0027 0.93236 0.49676-0.0194 1.0089-0.62537 1.0098-1.0976 0.00044-0.23609-0.26403-0.47292-0.50063-0.45071-0.2366 0.0222-0.5035 0.30913-0.50453 0.54549-0.002 0.47272 0.55312 0.93062 1.0033 0.90688 0.50096-0.0264 1.0047-0.64969 1.0042-1.121-0.00026-0.23565-0.26463-0.46556-0.50053-0.43766s-0.50132 0.32091-0.50176 0.557c-0.00087 0.47219 0.55941 0.91011 1.0034 0.88046 0.5048-0.0337 0.99958-0.67382 0.99757-1.1439-0.001-0.23504-0.26514-0.45776-0.50016-0.42413-0.23502 0.0336-0.49877 0.33258-0.49851 0.56823 0.00052 0.47131 0.56549 0.88863 1.0029 0.85309 0.50826-0.0413 0.99376-0.69775 0.99003-1.1663-0.002-0.23425-0.26555-0.44961-0.49952-0.41014-0.23397 0.0395-0.49578 0.34417-0.49478 0.57921 0.002 0.47008 0.57134 0.86616 1.0019 0.82478 0.51135-0.0491 0.98707-0.72152 0.98155-1.1881-0.003-0.23329-0.26587-0.44097-0.49861-0.39567s-0.49251 0.35567-0.49058 0.58992c0.004 0.46851 0.57697 0.8427 1.0004 0.79552 0.51404-0.0573 0.97949-0.74509 0.97212-1.2094-0.004-0.23217-0.26609-0.43193-0.49743-0.38073-0.23133 0.0512-0.48845 0.36707-0.4859 0.60036 0.005 0.46658 0.58237 0.81827 0.99832 0.76533 0.51633-0.0657 0.97037-0.76848 0.96174-1.2302-0.004-0.23084-0.26622-0.42244-0.49597-0.36532-0.22976 0.0571-0.48427 0.37838-0.48076 0.61054 0.007 0.46431 0.58753 0.79285 0.9957 0.73418 0.51821-0.0745 0.96102-0.79168 0.95041-1.2504-0.005-0.22935-0.26625-0.41255-0.49425-0.34943-0.228 0.0631-0.47962 0.3896-0.47513 0.62045 0.009 0.46169 0.59243 0.76645 0.99254 0.70209 0.51966-0.0836 0.95146-0.81472 0.93813-1.2701-0.007-0.22771-0.26619-0.40226-0.49226-0.33307-0.22606 0.0692-0.47448 0.40073-0.46903 0.63009 0.0109 0.45873 0.59707 0.73907 0.98884 0.66906 0.52066-0.093 0.94033-0.83756 0.9249-1.2893-0.008-0.22589-0.26603-0.39152-0.48999-0.31624-0.22396 0.0753-0.46896 0.41176-0.46246 0.63946 0.013 0.45542 0.60144 0.71071 0.9846 0.63509 0.52121-0.10286 0.92833-0.86022 0.91072-1.308-0.009-0.22388-0.26578-0.38035-0.48746-0.29894-0.22167 0.0814-0.463 0.4227-0.45541 0.64858 0.0152 0.45175 0.60552 0.68135 0.97982 0.60016 0.52126-0.11307 0.91544-0.88268 0.89559-1.3261-0.01-0.22169-0.26543-0.36876-0.48465-0.28117-0.21922 0.0876-0.45659 0.43356-0.44789 0.65743 0.0174 0.44774 0.60929 0.65103 0.97449 0.5643 0.52082-0.12369 0.90174-0.90497 0.87951-1.3436-0.0111-0.21933-0.26498-0.35674-0.48157-0.26292-0.21658 0.0938-0.44979 0.44432-0.43989 0.66601 0.0198 0.44338 0.61274 0.61973 0.96863 0.52749 0.51983-0.13473 0.88727-0.92707 0.86248-1.3607-0.0124-0.21681-0.26444-0.34433-0.47822-0.24421-0.21377 0.10011-0.44253 0.45499-0.43143 0.67432 0.0222 0.43868 0.60965 0.56196 0.96223 0.48974 0.2015-0.0413 0.13409-0.26622 0.39559-0.47358 0.20004-0.15863 0.49454-0.24296 0.47966-0.47376-0.014-0.21748-0.28124-0.54041-0.50321-0.61883-0.0143-0.005-0.0303-0.0199-0.043-0.0124-0.20307 0.11982-0.39319 0.4559-0.38161 0.65873 0.0116 0.20353 0.25792 0.24828 0.44431 0.38206 0.3155 0.22645 0.30013 0.45849 0.54312 0.51313 0.15823 0.0356 0.23278-0.0423 0.46267-0.15057 0.22988-0.10825 0.45685-0.2827 0.44164-0.50315-0.0152-0.22044-0.28869-0.52855-0.51532-0.59043-0.22664-0.0619-0.46264 0.10399-0.44859 0.32147 0.0281 0.43496 0.51564 1.0792 1.0285 1.2042 0.16342 0.0399 0.23515-0.0621 0.46757-0.18977 0.23243-0.12769 0.46236-0.3212 0.44695-0.54401-0.0154-0.22281-0.29334-0.51661-0.52405-0.56289-0.23071-0.0463-0.4703 0.14095-0.45506 0.36139 0.0305 0.4409 0.52831 1.117 1.0445 1.1468 0.40886 0.0236 0.95557-0.35791 0.92635-0.80707-0.0146-0.22457-0.29523-0.50449-0.52941-0.53617-0.23418-0.0317-0.47774 0.17512-0.46234 0.39793 0.0308 0.44562 0.54833 1.0774 1.0538 1.091 0.42755 0.0115 0.96544-0.42209 0.93979-0.87358-0.0128-0.22574-0.29432-0.49222-0.53137-0.5103-0.23704-0.0181-0.48504 0.2065-0.47043 0.43107 0.0292 0.44916 0.56284 1.0364 1.0562 1.037 0.44507 0.00049 0.975-0.48069 0.95486-0.9333-0.0101-0.22631-0.29066-0.48005-0.52996-0.48527-0.23931-0.005-0.49218 0.23508-0.47934 0.46082 0.0257 0.45149 0.57178 0.99434 1.052 0.98459 0.46137-0.009 0.98393-0.5337 0.97153-0.98625-0.006-0.22626-0.28421-0.46717-0.52516-0.46108-0.24096 0.006-0.49909 0.26088-0.48904 0.48719 0.0201 0.45261 0.5751 0.9514 1.0409 0.93387 0.47642-0.0179 0.99323-0.58116 0.98983-1.0324-0.002-0.22563-0.27499-0.45452-0.51699-0.43772s-0.50586 0.2839-0.49956 0.51017c0.0126 0.45254 0.57283 0.90785 1.0231 0.88483 0.4902-0.0251 1.0015-0.62302 1.0097-1.0718 0.004-0.2244-0.263-0.44163-0.50544-0.41522-0.24244 0.0264-0.5124 0.30412-0.51088 0.52975 0.003 0.45127 0.56494 0.86392 0.99856 0.83749 0.50275-0.0306 1.0095-0.65932 1.0313-1.1044 0.0109-0.22256-0.24822-0.42857-0.49049-0.39355-0.24228 0.035-0.51896 0.32156-0.52302 0.54596-0.008 0.44879 0.5515 0.81973 0.96723 0.79181 0.51409-0.0345 1.0172-0.69004 1.0544-1.1303 0.0186-0.22012-0.23068-0.4154-0.47218-0.37272-0.2415 0.0427-0.52506 0.33621-0.53596 0.55877-0.0218 0.44511 0.53254 0.77546 0.92915 0.74782 0.52425-0.0365 1.0246-0.71518 1.0792-1.1493 0.0273-0.21707-0.21036-0.40204-0.45048-0.35273-0.24012 0.0493-0.5311 0.34807-0.54971 0.56819-0.0372 0.44023 0.50721 0.707 0.88429 0.70552 0.23157-0.00091 0.21963-0.2566 0.53964-0.43751 0.2115-0.11956 0.47794-0.14961 0.50686-0.3616 0.0289-0.21169-0.15192-0.57419-0.34802-0.69986-0.005-0.003-0.012 0.003-0.0183 0.004-0.23801 0.0555-0.53695 0.35715-0.56427 0.57422-0.028 0.22235 0.24584 0.33461 0.41994 0.50888 0.24827 0.24852 0.17292 0.47756 0.38498 0.53476 0.35421 0.0955 0.95617-0.006 1.005-0.44872 0.0244-0.22115-0.18027-0.58659-0.38493-0.69614s-0.46479 0.006-0.49438 0.22309c-0.0592 0.43452 0.26283 1.253 0.77579 1.4113 0.35797 0.11044 0.96338-0.0593 1.0022-0.50865 0.0194-0.22466-0.19594-0.58288-0.40526-0.68237-0.20932-0.0995-0.46898 0.0316-0.49338 0.25278-0.0488 0.44229 0.29925 1.2447 0.8164 1.3828 0.36971 0.0987 0.96949-0.11049 0.99866-0.56612 0.0146-0.22781-0.21075-0.57865-0.42437-0.66827-0.2136-0.0896-0.47266 0.0566-0.49205 0.28123-0.0388 0.44933 0.3344 1.2347 0.85458 1.3536 0.38102 0.0871 0.97451-0.15996 0.99448-0.62117 0.01-0.2306-0.22472-0.57384-0.44226-0.65384s-0.47582 0.0807-0.49038 0.30848c-0.0291 0.45563 0.36818 1.223 0.89032 1.3237 0.39185 0.0756 0.97818-0.20774 0.98962-0.67378 0.006-0.23303-0.23784-0.5685-0.45894-0.63909-0.22109-0.0706-0.4784 0.10391-0.48836 0.33451-0.0199 0.46121 0.40051 1.2098 0.92362 1.2932 0.40214 0.0641 0.98154-0.25379 0.98407-0.72396 0.001-0.23508-0.25011-0.56263-0.47439-0.624-0.22429-0.0614-0.48041 0.1263-0.486 0.35932-0.0112 0.46605 0.43131 1.1949 0.95447 1.262 0.41185 0.0528 0.98329-0.29814 0.97785-0.77169-0.003-0.23677-0.26151-0.55628-0.48862-0.6086-0.22711-0.0523-0.48184 0.14784-0.48331 0.38292-0.003 0.47017 0.46055 1.1786 0.98288 1.2302 0.42093 0.0416 0.98342-0.34077 0.97095-0.817-0.006-0.23809-0.27207-0.54933-0.50163-0.59285-0.22957-0.0435-0.4828 0.16853-0.48027 0.4053 0.005 0.47355 0.48816 1.1607 1.0088 1.1978 0.42935 0.0306 0.98325-0.38173 0.96336-0.85987-0.01-0.23907-0.28176-0.54186-0.51341-0.57678-0.23165-0.0349-0.48324 0.18835-0.47689 0.42645 0.0127 0.47622 0.51412 1.1414 1.0324 1.1646 0.43707 0.0196 0.98165-0.42097 0.95509-0.90031-0.0133-0.23966-0.29061-0.53385-0.52398-0.56038-0.23337-0.0265-0.48308 0.20733-0.47318 0.4464 0.0198 0.47814 0.5384 1.1206 1.0535 1.1308 0.44409 0.009 0.97898-0.45849 0.94615-0.9383-0.0164-0.2399-0.29861-0.52526-0.53333-0.54365-0.23472-0.0184-0.48238 0.22546-0.46912 0.46512 0.0265 0.47934 0.56097 1.0985 1.0721 1.0964 0.45036-0.002 0.97526-0.49431 0.93651-0.97386-0.0194-0.23977-0.30576-0.51618-0.54146-0.52659-0.2357-0.0104-0.48112 0.24272-0.46471 0.48262 0.0328 0.47981 0.5818 1.075 1.0883 1.0612 0.45589-0.0124 0.97039-0.52843 0.9262-1.007-0.0221-0.23928-0.31205-0.50637-0.54837-0.50921-0.23631-0.003-0.47932 0.25915-0.45997 0.49892 0.0387 0.47955 0.60089 1.0502 1.1021 1.0255 0.46065-0.0227 0.96444-0.56084 0.91521-1.0377-0.0246-0.23842-0.31749-0.49643-0.55405-0.49149-0.23656 0.005-0.47699 0.27471-0.45489 0.51399 0.0442 0.47856 0.61821 1.0241 1.1134 0.98905 0.46462-0.0329 0.95738-0.59155 0.90353-1.066-0.0269-0.2372-0.32207-0.48565-0.55851-0.47344-0.23644 0.0122-0.47408 0.28942-0.44947 0.52784 0.0492 0.47685 0.63377 0.99672 1.1223 0.95196 0.46781-0.0429 0.94931-0.62054 0.89118-1.0918-0.0291-0.23561-0.32581-0.47439-0.56176-0.45506-0.23595 0.0193-0.47065 0.30327-0.44371 0.54047 0.0539 0.4744 0.64755 0.96808 1.1287 0.91422 0.4702-0.0526 0.94007-0.64783 0.87814-1.1152-0.031-0.23365-0.32869-0.46264-0.56378-0.43636-0.23509 0.0263-0.46665 0.31628-0.4376 0.55189 0.0581 0.47123 1.1327 0.87582 1.1327 0.87582"
        />
        <path
          id="path3021"
          style="stroke: #000000; stroke-width: 1px; fill: none"
          d="m321.1 256.36v-20c0-1.7951 1.6797-5.2188 1.9023-7 1-8-1.6375-7.7009-1-12 2.3873-16.1 12.457-46.88 12.098-47m-34.098 86v-20c0-1.7951-1.7284-6.2256-2-8-0.6575-4.2961 1.6375-5.7009 1-10-2.3873-16.1-12.359-47.88-12-48"
        />
      </g>
      <g id="g3975">
        <path
          id="path3912"
          style="fill: #1b1b1b"
          d="m282 257.36s-0.87244-0.30796-1 0c-0.3608 0.87104 1.6392 1.129 2 2 0.63781 1.5398-0.44489 3.3938 0 5 0.51883 1.8731 3.1001 3.0589 3 5-0.0859 1.6644-3 2.3333-3 4s3 2.3333 3 4-3 2.3333-3 4 3 2.3333 3 4-3.1182 2.3375-3 4c0.16709 2.3511 3.1333 3.561 5 5 3.6676 2.8273 7.7526 5.1551 12 7 3.192 1.3864 6.5199 3 10 3s5 0 10-3c3.9709-2.3825 8.3324-4.1727 12-7 0.75524-0.58221 1.143-2.0192 2-3 1.2612-1.4435 2.9005-2.5644 3-3.9643 0.11815-1.6625-3-2.3333-3-4s3-2.3333 3-4-3-2.3333-3-4 3-2.3333 3-4-2.9141-2.3356-3-4c-0.10013-1.9411 2.4812-3.1269 3-5 0.44489-1.6062-0.63781-3.4602 0-5 0.3608-0.87104 2.3608-1.129 2-2-0.12756-0.30796-1 0-1 0"
        />
        <path
          id="path3945"
          style="fill: url(#linearGradient4001)"
          d="m338.44 255.28c-0.23406 0.0385-0.4375 0.125-0.4375 0.125l-56 1.9688s-0.87244-0.30796-1 0c-0.3608 0.87104 1.6392 1.129 2 2 0.63781 1.5398-0.44489 3.3938 0 5 0.51883 1.8731 3.1001 3.0589 3 5-0.0859 1.6644-3 2.3333-3 4s3 2.3333 3 4-3 2.3333-3 4 3 2.3333 3 4-3.1182 2.3375-3 4c0.16709 2.3511 3.1333 3.561 5 5 2.7022 2.0831 5.6341 3.8588 8.6875 5.4062 3.4582 0.27516 8.2926 0.59375 13.312 0.59375 3.3163 0 8.1225-0.28201 12.875-0.625 3.1247-1.6735 6.3266-3.2177 9.125-5.375 0.75524-0.58221 1.143-2.0192 2-3 1.2612-1.4435 2.9005-2.5689 3-3.9688 0.11815-1.6625-3-2.3333-3-4s3-2.3333 3-4-3-2.3333-3-4 3-2.3333 3-4-2.9141-2.3356-3-4c-0.10013-1.9411 2.4812-3.1269 3-5 0.44489-1.6062-0.63781-3.4602 0-5 0.3608-0.87104 2.3608-1.129 2-2-0.0638-0.15398-0.32844-0.1635-0.5625-0.125z"
        />
        <path
          id="path3925"
          style="
            text-indent: 0;
            color: #000000;
            text-transform: none;
            fill: url(#linearGradient4003);
          "
          d="m334.88 262.88-48 4a1.5002 1.5002 0 1 0 0.25 2.9688l48-4a1.5002 1.5002 0 1 0 -0.25 -2.9688zm0 7-49 4a1.5002 1.5002 0 1 0 0.25 2.9688l49-4a1.5002 1.5002 0 1 0 -0.25 -2.9688zm0.0312 9-49 3a1.5029 1.5029 0 1 0 0.1875 3l49-3a1.5029 1.5029 0 1 0 -0.1875 -3zm0 7-50 3a1.5029 1.5029 0 1 0 0.1875 3l50-3a1.5029 1.5029 0 1 0 -0.1875 -3z"
        />
      </g>
    </g>
  </g>
</svg>
