<svg
  xmlns:rdf="http://www.w3.org/1999/02/22-rdf-syntax-ns#"
  xmlns="http://www.w3.org/2000/svg"
  height="693pt"
  width="912pt"
  version="1.1"
  xmlns:cc="http://creativecommons.org/ns#"
  xmlns:dc="http://purl.org/dc/elements/1.1/"
  viewBox="0 0 912 693"
  aria-label="A red bed with orange pillows and a wooden headboard"
>
  <g>
    <path
      d="m362.44 0.99023c-3.8525-0.060422-8.1036-0.22207-10.977 2.8203-5.066 4.2671-5.7224 11.577-3.7586 17.47 2.367 9.4269 8.5774 17.338 13.948 25.063-5.6482 27.355 1.8953 54.934 4.5547 82.225 0.53559 3.4936 0.40225 7.9538 1.1211 10.859 3.0189-2.0354 2.241-7.6799 6.4141-8.5098 2.4328 0.20654 1.299 3.5255 1.3379 5.1367-0.12219 1.4056-0.39031 3.2824 0.43164 4.4082 1.4362-3.3592 1.8561-7.1708 2.7925-10.733 1.573-7.5178 2.9932-15.35 7.2466-21.903-1.3681 0.25616 0.46745-3.5404 0.60597-5.0055 4.3781-15.998 13.715-30.475 17.13-46.61-4.1144 0.62394-8.2345 2.6438-12.434 1.1797-3.8569-0.66735-7.63-1.7255-11.379-2.8359 2.505-6.0892 10.205-5.2941 14.73-8.8398 6.7429-7.5155 6.566-19.593 1.0274-27.752-1.33-7.197-5.54-14.485-12.83-16.972-6.65 0.0913-13.31-0.09279-19.96-0.00977zm280.67 3.084c-17.242 0.21472-34.376 5.0784-49.152 14.033-13.195 6.2871-27.89 9.0745-40.303 17.031-54.037 28.669-113.08 46.113-168.09 72.68 22.625-6.2157 44.207-15.639 66.202-23.652 1.817-0.62798 5.4345-0.20043 4.702 2.4277-3.2078 3.2867-7.8785 4.6048-11.689 7.0508-9.1512 4.8112-19.034 9.5757-26.73 16.201 24.315-7.6901 47.438-18.858 71.959-26.006-2.6308 12.976 0.67433 27.335 9.9883 36.963 10.349 4.8138 21.996 7.0278 33.355 5.9375-11.14-5.7038-22.875-13.53-26.811-26.084-2.2668-9.753 3.5952-19.023 8.5625-26.801 10.758-2.9205 20.812-10.022 32.357-9.0703 3.1056 1.4975 4.004 5.4064 5.1367 8.3848 2.8133 9.8414-0.26331 20.203-3.0176 29.531 3.2502 0.76099 5.9817-2.4045 8.0508-4.5273 3.5546-4.3613 3.0622-10.424 5.244-15.416 1.9267-6.3426 6.3281-13.36 3.1115-20.013-0.39353-1.5601-3.4618-2.4052-1.4727-3.8164 7.01-8.2241 18.752-8.1259 27.938-12.279 2.5092-1.0794 3.7676 1.7384 4.6296 3.4716 7.6148 11.644 15.224 23.93 27.193 31.589 1.601 1.4681 0.0532 4.0319-2.0449 3.25-5.3674-0.34602-10.684-1.5889-15.863-2.9238-1.3514-0.61694-3.7431-1.3898-1.0856 0.09023 25.411 16.718 59.635 19.79 87.185 6.5558 13.304-8.3508 21.126-22.59 27.828-36.289 3.7787-4.0644 9.6817-1.303 13.922 0.3603 10.98 4.2924 23.31 5.888 33.385 12.183 3.9024 11.731 2.894 24.742-1.2539 36.248-1.5582 3.0245-5.954 3.5609-8.1172 0.88477-1.8175-1.5044-3.2828-3.3784-5.0547-4.9316 1.0284 6.064-3.0918 12.667-9.3809 13.504-2.1332-0.0424 0.1983 1.6646 0.89258 2.3027 7.9098 5.5258 18.247 1.1271 26.89 4.4022 10.323 2.1026 19.978-5.9785 23.304-15.253 3.3159-7.7831 2.9306-16.754-0.32272-24.481-0.092-1.6261-2.3173-5.9747 0.7481-4.3475 17.419 4.8992 34.228 12.193 52.066 15.39-1.6923-5.0513-7.6579-6.304-11.413-9.4119-30.28-17.571-61.22-34.297-94.01-46.677-19.05-8.64-38.7-16.161-58.96-21.49-12.66-4.8415-26.29-7.2371-39.89-6.9988zm224.28 7.377c-4.8758-0.27674-9.2158 2.2506-13.672 3.4199-6.6089 0.16082-10.119 7.404-11.26 13.002-0.69569 3.7494-1.3763 8.0737 0.22657 11.58 5.2161 4.7579 13.499 5.858 16.996 12.588-3.8188-1.2614-8.4638 1.48-8.2891 5.7227-1.2822 4.9919-1.5197 10.128-0.42774 15.182 4.3075 32.052 12.87 63.356 21.979 94.367 4.1644 4.1429 8.168 8.949 13.807 11.033-3.3698-38.397-0.88103-77.335-7.998-115.33-1.8282-5.4904-7.3028-8.5067-10.109-13.396 7.8519-3.1563 16.705-8.4135 18.377-17.547 0.33038-4.8418-2.0063-9.636-4.1621-13.889-3.4629-4.8348-9.7233-6.8507-15.467-6.7305zm-217.42 20.61c15.171 0.07007 30.386 3.215 44.141 9.6738-1.6143 10.045-2.565 21.91-11.322 28.607-5.4663 3.5468-12.253 3.9578-18.521 4.9961-9.7487 1.0322-21.307-0.69292-27.441-9.1133-5.7434-7.8271-13.726-15.226-14.795-25.42-0.0903-3.6275 4.2822-4.6736 7.0137-5.6504 4.1483-0.89404 8.3165-1.8691 12.426-2.7773 2.8274-0.21905 5.6638-0.3162 8.5-0.31641zm-105.5 19.328c1.199-0.07156 2.4329 1.7111 0.68554 1.8633-1.078 0.47836-3.7394-0.55581-1.9199-1.5762 0.39034-0.11488 0.83477-0.3747 1.2344-0.28711zm240.75 18.592c5.2859-0.40011 9.2311 5.1451 8.2344 10.068-0.3923 5.4147-2.8928 10.602-6.8203 14.342-1.3125-8.1236-0.10579-16.457-2.0976-24.475l0.49779 0.04693 0.1858 0.01752zm96.682 77.801c1.1125-0.24351 2.9456 2.408 0.91797 2.2168-1.1381 0.0434-3.1031-1.8108-1.1816-2.1992 0.0898 0.0345 0.17535-0.0222 0.26367-0.0176zm-191.02 2.87c-7.6251 0.0201-16.719 1.4579-21.221 8.4453-5.5773-0.71692-9.2851 4.6911-10.137 9.4902-0.58673 3.4994 0.0757 7.4149-2.465 10.303-5.2242 11.015-9.4007 23.723-5.7342 35.867 2.2208 5.8996 8.2618 9.46 14.337 10.036 49.823 12.472 100.41 22.004 151.36 28.505 9.2659 0.84032 19.778-1.1283 25.924-8.7695 15.005-14.222 21.898-37.593 14.41-57.17-3.5191-8.5223-10.308-16.455-19.473-18.981-45.981-6.9042-92.123-12.893-138.4-17.456-2.8652-0.17325-5.7351-0.30372-8.6063-0.26961zm-256.84 2.832c-19.407 0.80566-37.782 7.9701-56.63 11.995-14.285 0.97339-29.195-4.1229-42.92 1.6754-4.4943 2.0164-9.1826 5.8677-8.6266 11.338-1.1129 15.606 3.3181 31.261 10.589 45.058 28.47 14.406 57.564 27.796 84.768 44.519 11.222 9.5386 26.695 9.4946 40.524 11.178 14.053 1.2155 28.229 0.87875 42.336 0.69904 12.776-0.51451 25.795-1.5382 37.995-5.5482 6.5496-4.1137 7.659-12.501 11.216-18.803 6.9899-15.475 16.065-31.495 31.655-39.664 9.7218-5.7882 21.476-5.4424 32.34-4.3496 2.2293-0.1362 5.9237 0.97811 7.2286-0.14321-2.2242-14.413-10.132-26.964-17.401-39.306 1.1929 0.12209 4.6044 0.0921 4.2246-1.709-1.7838-2.2911-4.9561-0.30445-7.0938-0.65235-8.0058-9.1375-21.146-10.895-32.51-9.2598-16.384 1.6596-31.708 9.1976-48.219 10.051-30.953 0.95068-58.672-17.51-89.477-17.078zm-1.5684 9.7383c20.669-0.0499 40.089 7.9295 59.938 12.576-16.959 8.5409-36.95 6.375-54.511 0.98716-9.4194-2.7634-18.59-6.2939-27.827-9.6044 7.1844-2.5501 14.771-3.9502 22.4-3.959zm459.03 62.754c-2.3566 15.89-2.8549 33.148-12.457 46.768-1.584 4.5134-0.71027 9.4562-1.4847 14.132-3.2421 52.51-2.2031 105.18-3.0981 157.75 1.4305 25.257-1.4605 51.073 5.1785 75.755 3.8929 8.8724 17.791 12.505 24.27 4.5508 3.2302-4.9066 1.5315-11.153 2.3892-16.641 0.59902-11.288 2.1034-22.559 4.7094-33.54-0.37393-18.638 1.0323-37.377-1.3175-55.922-2.8251-30.347-2.4185-60.887-4.6679-91.264-2.6473 9.5769 0.78527 20.682-4.6074 29.607-1.8432 0.68732-1.2755-2.4971-1.4576-3.5016-3.0234-42.698-4.5268-85.503-7.3744-128.21l-0.0794 0.49365-0.003 0.0161zm-267.73-0.45508c-7.4053 0.88742-13.169 6.6387-20.523 7.8379-3.8866 2.0018-3.7148 6.9775-4.9119 10.44-11.213 15-18.676 33.712-34.862 44.381-6.006 3.7618-13.09 5.2144-19.281 8.6256-25.062 11.223-54.514 13.916-80.544 4.3406-52.224-14.234-104.69-29.511-158.95-33.25-0.54294-3.1617 2.9452-4.343 5.4453-4.3965 2.7093-0.45799-1.069-0.41631-2.0527-0.16992-26.769-0.16435-54.645-1.9219-80.074 8.002-14.543 10.996-24.99 27.097-30.156 44.494-24.553 19.714-55.669 28.3-85.916 34.805-25.582 5.875-52.097 9.3085-76.206 20.217-10.87 5.2885-19.654 14.674-23.47 26.157-6.4964 17.22-6.349 36.06-11.27 53.68v72.17c4.7553 11.049 0.47218 24.292 7.1211 34.637 1.0248 1.0635 3.4128 4.0608 4.3521 2.1977 9.93-20.213 18.357-42.488 36.047-57.421 15.05-12.625 35.563-16.092 54.676-15.58 26.846 0.94722 52.575 9.6866 77.794 18.171 16.501 8.2544 33.239 16.165 50.832 21.72-3.0579-1.7799-6.101-3.6596-8.5391-6.2656 44.05 9.6252 87.169 25.755 132.65 26.72 25.865 0.0943 51.686 2.0239 77.373 4.9578 32.331 3.4765 64.604 8.1075 97.096 9.4927 14.973-1.8936 29.569 5.5232 39.869 15.969 13.153 12.525 22.661 28.434 36.609 40.157 29.168-16.959 49.977-44.347 72.586-68.724 8.0272-8.4026 15.989-16.991 25.012-24.33 7.9923-5.6318 19.009-8.8369 22.777-18.736 4.3167-15.13 7.1624-30.69 12.59-45.5 5.8014-16.429 14.417-32.506 27.866-43.902 3.3665-1.7013 7.32-0.1001 10.926-0.63867 11.403 0.0268 24.161-0.62146 33.014-8.7852 1.916-2.195 3.9135-4.4637 6.9636-4.9333 13.433-4.947 26.739-15.131 29.164-30.003 1.3735-7.0886-2.436-13.621-2.7829-20.603-2.2689-20.94 3.8618-41.587 3.8452-62.445 1.2472-2.5652 4.4081-3.5336 5.5861-6.2563 2.2114-3.1801 3.6126-6.9318 3.9784-10.791-2.999 2.3702-5.7413 5.0528-8.2617 7.9238-3.6928-3.2415-6.4381-8.9372-12.141-8.523-33.943-5.2391-67.802-11.078-101.61-17.056-12.493-2.9544-24.516-7.5505-36.872-10.949-23.075-5.9256-47.838-5.7925-69.682-16.2-1.8962-1.0168-3.8668-1.8733-6.0734-1.6315zm-392.48 57.207c-1.8091 10.721-11.32 17.556-19.203 23.944-4.728 3.5832-9.6628 6.8765-14.543 10.248 6.2701-15.746 20.441-26.175 33.971-35.387-0.0749 0.39844-0.14974 0.79688-0.22461 1.1953zm614.81 133.45c-4.8938 4.9397-8.5756 12.871-16.379 13.533-8.0634-0.59346-16.239-1.3685-24.172 0.78321-25.061 5.6823-46.483 28.023-48.686 54.059-0.66717 10.026 1.9656 20.217 0.002 30.129-12.399 12.445-25.895 24.772-32.926 41.253-9.2081 15.567-24.125 27.166-40.511 34.413-16.019 1.7236-28.461 13.19-39.496 23.909-6.5331 6.7295-13.844 12.621-21.155 18.447-12.104 11.632-17.918 29.187-16.615 45.78 1.8483 4.3862 7.5346 3.5864 11.368 2.7976 15.714-3.9717 29.994-12.655 42.512-22.78 7.1463-5.6856 12.757-13.021 16.705-21.232 4.8264-9.3925 10.421-19.249 20.153-24.308 12.812-7.5793 29.222-9.6149 38.97-21.718 5.5144-7.7565 5.8612-19.215 14.607-24.561 6.9511-3.6688 15.188-1.8257 22.603-3.4391 11.921-1.4537 24.688-5.7056 31.624-16.196 4.9282-5.8604 3.9525-13.764 4.5447-20.841 0.32348-5.241 2.7008-10.302 6.9631-13.462 10.987-11.052 25.604-17.151 39.129-24.387 7.4296-14.315 4.4261-30.962 1.7523-46.085-1.5966-8.1204-2.5169-16.773-6.7582-24.025-1.0223-1.2524-2.5692-2.206-4.2363-2.0703zm-744.71 94.049c-10.877 1.209-18.463 10.318-24.838 18.502-12.353 16.584-21.085 36.226-23.644 56.869-0.53057 5.6221-0.13816 13.019 5.3008 16.182 2.7069-1.0671 4.9932-3.1975 7.6383-4.5114 10.319-6.4928 21.373-13.486 33.901-14.055 11.101 0.23672 21.056 10.135 21.354 21.236-1.5594 0.71882-4.3778 0.65454-4.7852 2.7148 1.9623 1.3641 4.4732 0.58674 6.6211 0.2168 0.00012 8.9409 3.9535 19.722 13.428 22.436 3.3209 0.94065 6.8107-0.21592 10-0.70898 9.1962 5.8281 20.321 1.5607 29.621-2.0176 8.9504-3.4129 19.573-6.547 28.625-1.7031 0.88463 7.8338 3.8562 15.473 10.105 20.414 10.823 8.9546 26.769 9.4857 38.889 2.7284 10.96-4.806 24.333-7.7315 35.468-1.8514 5.6424 3.1021 8.8168 8.9673 11.512 14.529 5.4872 7.1742 15.412 7.3674 23.633 7.0307 2.8896-0.34499 6.4194-0.82625 8.3392 1.9405 7.0865 6.7597 10.77 16.794 19.6 21.726 3.5114-3.3428 7.3991-6.3587 12.083-7.869 9.8986-3.5468 20.575-3.7864 30.907-5.0738 44.52-2.4537 89.369-0.60606 133.39 6.6071 5.6243 1.0618 11.665 2.394 15.879 6.5116 2.3225 0.20648 1.2268-3.0892 1.4512-4.4726 2.6401-34.251-2.5021-68.479-7.4551-102.3-125.15-11.899-250.9-22.179-374.07-48.356-18.049-4.6875-37.688-8.1455-52.059-21.006-2.7613-3.1045-6.4778-6.0652-10.889-5.7207zm79.088 110.41c1.8626 0.66357-0.81272 2.5994-1.3965 3.4961-5.2094 5.1074-13.126 4.7742-19.736 6.291-1.7394-0.98227 0.12863-3.523 1.0234-4.5254 5.3974-5.1156 13.605-3.1104 20.109-5.2617zm100.27 11.137c21.171 1.7297 39.263 16.874 48.859 35.229-14.475 0.89113-27.656-7.7196-36.636-18.431-4.7823-5.373-9.0194-11.195-13.368-16.917 0.38151 0.0397 0.76302 0.0794 1.1445 0.11914z"
    />
    <path
      d="m0 0v0.77969l0.77969-0.77969h-0.77969zm656.7 5.6859c-3.1986-0.039687-6.4128 0.31688-9.6453 1.2844-39.84 12.24-79.14 26.279-118.15 40.909-32.93 17.41-70.609 25.8-102.41 44.53 4.5 0.81 13.061-5.4988 19.641-5.2688 1.79-0.46 3.5291-1.0909 5.1891-1.9109 29.36-12.84 61.451-20.3 91.291-32.72 9.56-1.26-7.6706 5.75-1.0406 8.75 16.24 4.85 15.49 28.751 7.25 39.831-2.26 4.65 4.9709 2.7994 6.5109 0.40938 6.14-12.49 13.58-27.59 9.6297-41.55-3.08-4.78-8.1897-7.3497-13.08-9.8797 24.61-10.14 50.46-16.99 76.08-24.07 26.71-9.74 54.86-1.2606 81.35 4.6094 4.62 17.27-6.4509 36.4-20.261 46.45-23.58 15.29-54.34 11.081-79.95 4.8109-2.27-0.45-6.5791-3.0503-7.7891-1.2703 25.59 18.81 61.849 22.76 90.759 9.5 13.75-8.14 22.2-22.94 28.92-37 3.09-5.34 6.1494-11 7.3594-16.75 16.37 2.53 32.13 9.9803 48.67 12.82-8.68-7.71-22.39-9.06-31.92-16.3-19.39-8.65-39.2-17.04-59.88-22-9.465-1.3875-18.929-5.0653-28.525-5.1844zm-276.62 7.8691c-2.3884-0.01671-4.5688 0.52813-6.2938 2.0156 15.98 3.33 14.029 21.43 21.389 30.7 6.63-8.35 6.8097-19.66 1.0297-28.5-4.6131-1.4231-10.871-4.1789-16.125-4.2156zm477.92 0.16563c-1.1062-0.04978-2.2038 0.0041-3.275 0.17031-1.14 0.03-2.269 0.05906-3.389 0.08906 3.42 2.61-12.45 7.3106-6.5 13.741 9.82-5.36 20.909-4.8506 31.359-0.94063-2.3013-7.2975-10.452-12.711-18.195-13.059zm5.4422 37.877c-0.61368-0.0018-1.239 0.04156-1.8766 0.13281-3.7 0.61-11.37 0.98031-7.6203 6.2203 20.37 21.75 24.189 52.96 28.009 81.15 0.66 1.12-1.619 13.941 1.911 8.6406 0.89-25.78-0.49-51.78-4.41-77.24-0.38-8.756-6.8-18.876-16-18.903zm-458.84 3.5234c-2.99 0.25-5.8991 0.80969-8.6891 1.8797-28.54 13.09-17.771 50.081-21.911 74.791 0.92 1.47-1.7394 11.699 2.3906 9.6594 3.51-10.79 3.8494-22.76 9.6094-32.72 0.07-0.59 0.22062-1.7803 0.29062-2.3703 4.03-17.73 14.749-33.409 18.309-51.239zm388.65 22.979c1.12 18.64-25.13 43.53-38.8 20.78-0.72 7.22-3.2203 12.83-11.77 11.7 6.23 6.96 16.511 3.5609 24.361 6.5109 20.62 7.94 35.01-16.281 30.3-34.031-1.27-1.741-2.64-3.39-4.09-4.96zm-357.54 74.372c-4.5713-0.0191-9.1984 0.37751-13.898 1.3188-14.76 2.39-29.01 7.0688-43.48 10.619-14.43 5.3-30.769 9.7703-40.189 22.87-6.28 9.24 4.43 22.731 14.05 22.091 16.84-18.24 36.429-35.51 60.969-42.13 25.87-8.37 51.241 2.6788 76.161 8.8188 39 10.76 80.969 9.1603 119.51-2.9797 7.56-0.7 2.2206-7.0791-3.8594-3.9891-25.01-0.14-50.02-0.12093-75.03-0.011-32.935 3.99-62.234-16.474-94.233-16.608zm264.01 5.3828c-10.208-0.0288-20.432 0.25875-30.564 0.225-8.53-0.35-11.53 9.6703-11.02 16.67 3.17 9.08 0.41 23.97 7.85 29.22 0.41-12.23 5.5903-26.601 18.22-30.791 24.12-7.55 49.921-3.3003 74.541-1.2203 1.19-4.92-5.2109-6.8294-8.6109-8.3594-16.431-4.7688-33.402-5.6973-50.416-5.7453zm13.098 23.377c-6.4976-0.0616-6.625 8.2953-11.612 10.948-7.56 3.42-1.7706 19.931 5.6094 17.541 0.46-5.71 0.0113-11.471 0.28124-17.191 6.35-4.63 20.34-0.83969 22.95-9.4797-5.1-1.58-10.571-1.6606-15.841-1.6906-0.49313-0.0831-0.95433-0.12402-1.3875-0.12813zm21.628 1.7484c0.14 6.32 16.529 9.1106 18.709 3.1906-5.72-2.77-12.519-2.7806-18.709-3.1906zm22.78 5.0703c10.54 11.82 30.52 16.19 44.85 24.85 2.41-2.31-1.3897-3.68-2.8797-5.1-12.75-8.66-26.21-18.17-41.97-19.75zm-318.49 1.4516c-12.065-0.16462-24.734 1.5325-36.052 0.86875-15.19 1.91-18.14 19.52-15.62 32.23-0.74 2.38 0.67 12.15 5.1 8.4203 4.3-9.62 3.37-21.161 6.9-30.911 20.5-8.06 45.871-1.1294 65.811-4.8594-7.735-4.3662-16.755-5.6204-26.139-5.7484zm181.78 39.166c-5.269 0.13899-10.147 3.1625-15.491 3.1625-5.38 0.55-6.8 6.5203-7.2 10.97-0.89 7.62-4.03 22.191 3.2 24.891-1.62-12.04 1.81-33.46 18.65-30.67 31.89 6.54 65.13 5.2397 96.6 13.98 11.23-1.33-3.6103-0.82969-5.1703-5.1797-3.44-1.47-7.0603-2.44-10.72-3.15-26.63-2.48-52.539-9.3306-78.809-13.991-0.355-0.0182-0.7081-0.0218-1.0594-0.0125zm117.57 25.03c-2.53 0.32-5.9006-0.77969-7.1406 1.9203 19.01 5.01 33.49 19.46 52.32 25.13 21.1 6.31 44.749 16.6 66.459 8.1297 6.07-4.19 9.8197-11.689 9.7797-19.039-3.43 2.55-6.5887 5.4094-9.4187 8.6094-10.63 7.96-26.031 3.6606-37.761 0.14062-25.24-5.95-49.299-15.57-73.409-24.67l-0.83-0.22zm-452.5 8.4141c-19.793 0.0153-39.699 1.0347-58.083 8.3359-14.43 10.97-25.46 27.121-30.28 44.591 0.93-0.33 1.87-0.69 2.8-1.05 6.27-13.23 18.371-22.101 30.041-30.241 24.05-9.14 50.08-14.04 75.68-16.78 0.15-3.95 9.0594-0.94 6.6094-4.75-8.7969 0.0875-17.77-0.11318-26.767-0.10625zm619.41 81.98c-7.18 53.33-6.5803 110.96-14.72 165.47 3.72 4.59 7.6706 12.661 14.491 12.361 3.2-18.19 0.46968-38.681 7.2297-55.791v-15.309c-5.84-34.5-3.35-73.17-7-106.73zm-776.34 26.681c-1.0863 0.0554-2.1484 0.29251-3.0109 0.77813-27.04 2.75-59.28 0.22-81.42 18.85-3.23 23.43-16.169 48.4-15.509 70.58 16.84-42.83 54.029-80.15 101.14-85.98 8.6694-1.2838 3.509-4.4681-1.1984-4.2281zm702.56 4.2078c-2.3 8.36-7.6703 15.27-11.02 23.05 8.73-2.1 18.42-16.97 11.02-23.05zm-50.2 25.95c-8.56 2.07-16.07 7.9903-21.9 14.37 0.07 4.59 6.63 0.94062 9.65 1.4906 16.04-0.21 35.8 1.8594 46.73-12.591 0.08-1.32 1.3097-4.0394-1.0703-2.7094-10.79 4.91-22.479 1.7891-33.409-0.56093zm-27.056 17.255c-0.32783 0.003-0.77719 0.11375-1.3734 0.35624-12.04 3.87-23.141 16.829-21.611 29.519 8.49-5.87 13.09-16.34 20.3-23.78 1.295-0.96251 4.9792-6.1205 2.6844-6.0953zm-596.05 0.95624c-8.5 16.59-6.3088 42.059-5.3188 62.119 1.88 14.09 17.189 17.191 27.059 24.041 18.46 9.27 37.53 18.259 57.43 23.909-3.1-3.01-7.2103-4.6097-10.57-7.2797-38.25-18.33-69.27-58.609-68.6-102.79zm-134.76 51.8c-8.56 19.16-12.76 39.979-18.17 60.219 1.18 3.07-3.0903 11.68 2.8297 10.97 4.45-21.48 10.011-42.809 16.711-63.739 0.07-2.29 0.97969-6.08-1.3703-7.45zm521.98 60.397c-0.57699-0.0162-1.1622 0.002-1.7578 0.0531-15.86 3.62-34.461 2.83-48.241 10.55 19.78 0.25 44.77-6.5006 62.08 7.8594 21.75 16.36 38.561 38.59 55.811 59.32 7.35 2.6 10.45-8.0609 16.72-10.361 8.64-10.29 24.109-27.739 14.009-40.519-8.64 9.11-8.08 35.299-25.95 34.119-19-13.53-33.669-32.569-51.459-47.689-5.9531-5.5125-12.558-13.091-21.212-13.333zm-412.45 69.292c-4.2303-0.006-8.6472 1.1975-12.641 3.0906-8.16 2.12-5.1309 6.4303 1.9391 4.8703 11.56 0.3 19.79 11.62 23.87 21.38 18.45 11.41 38.751-13.541 58.091-3.7906 1.4 23.22 26.78 33.781 46.93 24.741 14.92-7.55 37.72-11.96 46.62 6.55 5.01 13.46 20.379 12.09 32.119 11.48 5.43-0.41 1.4806-2.6706-1.7094-2.9406-21.69 0-34.37-17.559-46.12-33.119-21.6-6.62-36.9 18.379-58.43 11.989-9.18-6.35-14.45-16.89-21.82-24.9-6.84-0.58-15.739-2.5597-21.909 1.9203-3.69 6-13.541 6.0594-19.991 7.4594-5.85-2.54-4.8794-14.999-11.509-19.339-3.4734-6.7925-9.2564-9.3825-15.439-9.3906z"
    />
    <path
      fill="#440c00"
      d="m356.14 0c-20.98 8.37-5.4503 34.541 4.5297 46.141-6.47 29.12 4.0103 63.259 5.4703 94.459 4.52 1.02 3.6588-7.6494 7.8688-8.8094 4.14-24.71-6.6291-61.701 21.911-74.791-5.09-0.34-10.08-1.61-14.95-3.05 2.6-4.72 10.159-4.0197 14.209-7.6797-7.36-9.27-5.4091-27.37-21.389-30.7 5.52-4.76 15.709 0.13 22.419 2.2-1.44-7.659-5.73-14.649-13.12-17.769h-26.95zm288.07 3.0547c-15.878 0.10099-31.688 3.7806-45.724 11.436-11.61 7.15-25.341 9.4491-37.441 15.489-55.43 30.94-117.47 48.84-174.75 76.38-0.07 0.59-0.2206 1.7803-0.2906 2.3703 20.42-5.77 40.401-13.699 60.131-21.589-6.58-0.23-15.141 6.0788-19.641 5.2688 31.8-18.73 69.479-27.12 102.41-44.53 39.01-14.63 78.31-28.669 118.15-40.909 12.93-3.87 25.55 2.05 38.17 3.9-12.93-5.2035-27-7.9004-41.01-7.8113zm223.35 7.3984c-4.4935 0.04026-9.0653 1.2341-12.833 3.4375 8.57-1.33 18.84 4.5491 21.47 12.889-10.45-3.91-21.539-4.4194-31.359 0.94063-5.95-6.43 9.92-11.131 6.5-13.741-9.41 3.93-11.441 16.3-10.261 25.23 4.36 5.12 13.23 6.5306 16.63 11.691-8.74-0.13-6.8188 8.3006-8.7188 14.141 3.88 34.96 13.159 69.119 23.069 102.79 4.41 4.53 9.9003 10.6 15.82 11.9-3.53-37.88-0.9203-76.26-7.6703-113.83-0.09-7.27-6.6494-10.65-10.059-15.83 10.17-4.08 22.62-13.79 16.17-26.25-1.88-9.321-10.18-13.447-18.76-13.37zm-211.66 11.116c-9.4-0.112-18.75 1.083-27.93 4.431-25.62 7.08-51.47 13.93-76.08 24.07 4.89 2.53 9.9997 5.0997 13.08 9.8797 6.17-8.22 19.69-8.3797 28.9-12.78 8.19 11.67 15.429 25.66 27.959 33.88 8.39 6.14-9.8803 0.85031-12.72 0.82031 25.61 6.27 56.37 10.479 79.95-4.8109 13.81-10.05 24.881-29.18 20.261-46.45-17.38-3.852-35.48-8.827-53.42-9.04zm-90.93 38.381c3.95 13.96-3.4897 29.06-9.6297 41.55 7.19-4.13 5.9094-13.43 9.1094-20.08 2.27-6.31 6.75-16.03 0.52-21.47zm180.14-27.08c9.53 7.24 23.24 8.59 31.92 16.3-16.54-2.84-32.3-10.29-48.67-12.82-1.21 5.75-4.27 11.41-7.36 16.75 3.78-3.99 8.9694-0.52062 13.209 0.65938 10.68 4.2 22.52 5.8903 32.5 11.67 3.78 11 2.5312 23.351-0.7188 34.341-4.69 8.33-9.4303-2.5106-14.27-4.8906 2.08 9.17-2.38 14.36-10.6 15.22 3.95 8.69 17.91 6.5906 25.92 6.9906-7.85-2.95-18.131 0.44907-24.361-6.5109 8.55 1.13 11.05-4.48 11.77-11.7 13.67 22.751 39.92-2.139 38.8-20.779 1.45 1.57 2.8206 3.2194 4.0906 4.9594-0.97-2.92-2.03-5.8297-2.5-8.8797 17.94 5 35.269 12.64 53.719 15.7 0.03-5.73-7.1291-7.7003-10.739-10.72-29.92-17.25-60.271-34.199-92.711-46.289zm-95.138 0.19062c14.744 0.04386 29.851 3.1506 43.038 9.2687-1.62 10.2-2.83 23.22-13.05 28.62-13.83 4.44-34.64 7.391-43.76-7.159-5.41-7.38-13.07-14.531-13.19-24.341 4.41-4.42 11.361-3.5497 16.841-5.9297 3.3356-0.31688 6.7194-0.4695 10.122-0.45938zm213.48 18.536c9.2047 0.02761 15.619 10.147 16.003 18.903 3.92 25.46 5.3003 51.461 4.4203 77.241-3.53 5.3-1.2509-7.5206-1.9109-8.6406-3.82-28.19-7.6394-59.4-28.009-81.15-3.75-5.24 3.9203-5.6103 7.6203-6.2203 0.6375-0.09125 1.2629-0.13465 1.8766-0.13281zm-318.8 0.76719c-0.4671-0.01713-1.1272 0.02719-2.0235 0.14531-29.84 12.42-61.931 19.88-91.291 32.72 1.52 0.13 4.44-1.31 4.25 1.25-13.67 8.38-30.48 14.521-41.55 25.641 25.33-7.47 49.46-19.351 74.73-26.861-2.19 12.92 1.4206 26.96 10.641 36.37 11.06 5.48 26.76 7.7209 37.27 5.6609-10.66-5.18-24.01-12.94-28.78-25.49-3.27-9.85 3.1003-19.219 7.7703-27.209 10.67-2.67 20.99-9.9103 31.97-8.8703 7.97 9.36 5.0491 24.61 1.1891 35.37 8.24-11.08 8.99-34.981-7.25-39.831-6.0085-2.7188 7.579-8.7297 3.0641-8.8953zm241.15 18.677c10.49 0.78 6.8203 15.64 1.5703 21.08-0.89-6.91-0.03-14.14-1.5703-21.08zm106.24 146.57c-4.12 17.61-2.57 39.881-14.5 55.381-4.55 56.41-2.91 113.13-4.2 169.68 1.54 25.12-1.1403 50.619 4.5297 75.389 2.37 12.76 23.989 18.111 28.739 3.5812 0.79-15.25 1.2406-31.161 5.3906-45.761v-9.75c-6.76 17.11-4.0297 37.601-7.2297 55.791-6.82 0.3-10.771-7.7709-14.491-12.361 8.14-54.51 7.5403-112.14 14.72-165.47 3.65 33.56 1.16 72.23 7 106.73v-19.861c-4.47-35.47-3.36-71.759-6.3-107.47-4.87 5.98-0.9194 25.079-5.6094 32.239-3.26-45.09-4.8-92.27-8.05-138.12z"
    />
    <path
      fill="#ff7f00"
      d="m692.68 149.65c-9.1691-0.0898-18.595 1.2469-23.531 8.4312 27.02 0.09 54.69-2.1097 80.98 5.5203 3.4 1.53 9.8009 3.4394 8.6109 8.3594-24.62-2.08-50.421-6.3297-74.541 1.2203-12.63 4.19-17.81 18.561-18.22 30.791-7.44-5.25-4.68-20.14-7.85-29.22-8.58 14.48-18.119 47.13 6.3109 50.77 42.28 10.77 85.289 18.94 128.42 25.58 16.79 1.55 38.581 9.3397 50.991-6.2703 21.94-19.85 26.111-62.89-3.7094-77.12-44.97-6.94-90.291-12.449-135.56-17.469-3.6156-0.21562-7.7306-0.55136-11.898-0.59218zm-113.8 9.3703c-16.496 0.18535-35.009 7.5797-48.941 10.061 25.01-0.11 50.02-0.12907 75.03 0.0109-7.02-7.6988-16.191-10.183-26.089-10.072zm-229.07 4.3453c-9.7237 0.0288-18.766 1.9366-24.431 10.227-2.62 17.19 2.2297 35.589 10.33 50.709 28.22 14.14 56.911 27.75 84.091 43.87 12.55 11.35 30.01 10.16 45.57 12.58 24.95 0.36 50.419 1.8203 74.809-4.5297 6.61-1.64 8.9003-8.99 11.47-14.55 7.91-17.87 17.189-37.48 36.059-45.92 11.78-6.37 25.35-2.78 38.02-2.8-1.72-14.48-9.55-27.48-16.9-39.87-38.54 12.14-80.509 13.74-119.51 2.9797-25.16 11.03-53.521-0.67876-76.161-8.8188-24.54 6.62-44.129 23.89-60.969 42.13-9.62 0.64-20.33-12.851-14.05-22.091 9.42-13.1 25.759-17.57 40.189-22.87-8.39 0.775-18.795-1.0741-28.519-1.0453zm363 17.867c0.4332 0.004 0.8944 0.045 1.3875 0.12813 5.27 0.03 10.741 0.11062 15.841 1.6906-2.61 8.64-16.6 4.8497-22.95 9.4797-0.27 5.72 0.1788 11.481-0.2812 17.191-7.38 2.39-13.169-14.121-5.6094-17.541 4.9875-2.6531 5.1149-11.01 11.612-10.948zm21.628 1.7484c6.19 0.41 12.989 0.42062 18.709 3.1906-2.18 5.92-18.569 3.1294-18.709-3.1906zm22.78 5.0703c15.76 1.58 29.22 11.09 41.97 19.75 1.49 1.42 5.2897 2.79 2.8797 5.1-14.33-8.66-34.31-13.03-44.85-24.85zm-318.49 1.4516c9.3843 0.12804 18.404 1.3822 26.139 5.7484-19.94 3.73-45.311-3.2006-65.811 4.8594-3.53 9.75-2.6 21.291-6.9 30.911-4.43 3.73-5.84-6.0403-5.1-8.4203-2.52-12.71 0.4303-30.32 15.62-32.23 11.318 0.66375 23.986-1.0334 36.052-0.86875z"
    />
    <path
      fill="#881900"
      d="m624.29 224.5c-6.5628 0.0673-12.78 5.8922-19.272 7.3297 5.7 0 10.87-3.44 16.55-3.15 26.27 4.66 52.179 11.511 78.809 13.991-23.23-6.49-48.46-5.77-70.48-16.65-1.9053-1.1069-3.7702-1.5391-5.6078-1.5203zm-7.625 12.272c-14.247 0.0985-17.166 19.631-15.647 30.919-7.23-2.7-4.09-17.271-3.2-24.891-13.44 17.7-22.7 43.689-46.55 49.459-26.25 13.73-57.52 18.471-85.88 8.3312-52.46-14.28-105.15-29.75-159.64-33.62-25.6 2.74-51.63 7.6397-75.68 16.78-1.83 11.06-19.291 22.881-30.041 30.241-0.93 0.36-1.87 0.72-2.8 1.05-38.16 30.58-90.4 33.709-136.3 45.889-16.29 4.57-34.299 9.8206-44.159 24.841-12.36 19.19-10.57 43.42-16.76 64.27v73.01c5.37 11.39-0.8597 33.929 12.52 38.809 12.28-24.65 22.48-54.239 49.38-66.989 38.25-16.39 80.53-1.6603 117.75 10.43-9.87-6.85-25.179-9.9506-27.059-24.041-0.99-20.06-3.1812-45.529 5.3188-62.119-0.67 44.18 30.35 84.459 68.6 102.79 43.29 10.09 86.991 25.74 132.41 26.18 57.19 0.01 113.54 11.421 170.51 14.491 37.43-4.71 53.83 37.51 77.35 56.22 37.15-21.27 60.71-59.48 92.08-87.95 9.23-11.08 27.591-12.261 30.481-28.541 7.58-30.51 14.23-64.069 39.43-85.539-3.02-0.55-9.58 3.0994-9.65-1.4906 5.83-6.38 13.34-12.3 21.9-14.37 10.93 2.35 22.619 5.4709 33.409 0.56093 2.38-1.33 1.1503 1.3894 1.0703 2.7094 17.39-5.38 35.669-19.38 33.359-39.67-8.29-24.52 1.2603-50.46 0.8703-75.65-21.71 8.47-45.359-1.8197-66.459-8.1297-18.83-5.67-33.31-20.12-52.32-25.13 1.24-2.7 4.6106-1.6003 7.1406-1.9203-9.09-2.36-18.101-4.8397-26.991-7.8797 1.56 4.35 16.4 3.8497 5.1703 5.1797-31.47-8.74-64.71-7.4397-96.6-13.98-1.0525-0.17437-2.0533-0.255-3.0031-0.24844zm122.25 17.148c24.11 9.1 48.169 18.72 73.409 24.67 11.73 3.52 27.131 7.8194 37.761-0.14062-3.38-3.07-5.71-8.0297-10.95-7.9297-33.5-5-66.8-11.16-100.22-16.6zm-610.25 116.85c4.7075-0.23997 9.8679 2.9444 1.1985 4.2281-47.11 5.83-84.299 43.15-101.14 85.98-0.66-22.18 12.279-47.15 15.509-70.58 22.14-18.63 54.38-16.1 81.42-18.85 0.8625-0.48562 1.9246-0.72274 3.0109-0.77813zm702.56 4.2078c7.4 6.08-2.2903 20.95-11.02 23.05 3.35-7.78 8.7203-14.69 11.02-23.05zm-77.256 43.205c2.2948-0.0252-1.3894 5.1328-2.6844 6.0953-7.21 7.44-11.81 17.91-20.3 23.78-1.53-12.69 9.5709-25.649 21.611-29.519 0.5963-0.24249 1.0456-0.35265 1.3735-0.35624zm-730.81 52.76c2.35 1.37 1.4403 5.16 1.3703 7.45-6.7 20.93-12.261 42.259-16.711 63.739-5.92 0.71-1.6497-7.9003-2.8297-10.97 5.41-20.24 9.6103-41.059 18.17-60.219zm521.98 60.397c8.6547 0.24181 15.259 7.8203 21.212 13.333 17.79 15.12 32.459 34.159 51.459 47.689 17.87 1.18 17.31-25.009 25.95-34.119 10.1 12.78-5.3694 30.229-14.009 40.519-6.27 2.3-9.3703 12.961-16.72 10.361-17.25-20.73-34.061-42.96-55.811-59.32-17.31-14.36-42.3-7.6094-62.08-7.8594 13.78-7.72 32.381-6.93 48.241-10.55 0.5956-0.0519 1.1808-0.0692 1.7578-0.0531z"
    />
    <path
      fill="#a85400"
      d="m846.22 415.18c-0.2368 0.001-0.4802 0.0144-0.7312 0.0406-5.41 5.52-9.1103 14.679-18.62 13.439-30.26-4.67-61.4 16.681-69.18 46.031-4.34 12.7 0.2694 26.469-1.5406 39.289-12.14 12.35-25.63 24.261-32.57 40.591-8.9 15.68-24.02 27.459-40.28 34.789-23.32 2.63-37.43 23.71-54.57 37.37-16.24 10.48-24.28 30.66-23.8 49.4-0.48 8.72 10.25 6.96 15.52 5.6 17.92-5.89 34.511-16.099 47.791-29.509 10.22-11.36 13.249-28.701 26.969-37.011 11.72-7.91 26.931-9.66 37.591-19.4 11.26-8.24 7.7303-28.889 24.92-30.239 17.02-1.04 38.13-2.3903 48.15-18.67 8.1-9.5-0.5209-24.741 10.439-32.691 10.89-11.68 26.15-17.689 39.77-25.109 9.34-17.25 3.0706-38.961 0.1906-57.341-1.9956-4.8825-2.7055-16.615-10.048-16.58zm-744.71 94.067c-7.189 0.13566-14.417 5.9981-19.283 11.044-14.89 16.39-24.829 37.099-29.509 58.669-1.16 7.81-2.8409 19.421 5.4391 24.131 11.69-6.48 22.47-15.61 36.02-18.07 12.1-3.83 25.071 6.55 25.861 18.7 9.83-4.66 22.23-5.14 28.08 6.3 6.63 4.34 5.6594 16.799 11.509 19.339 1.52-7.32 14.051-5.7994 19.991-7.4594 6.17-4.48 15.069-2.5003 21.909-1.9203 7.37 8.01 12.64 18.55 21.82 24.9 21.53 6.39 36.83-18.609 58.43-11.989 19.6 1.85 37.01 16.369 46.12 33.119 3.19 0.27 7.1394 2.5306 1.7094 2.9406 8.76 6.76 12.241 18.66 22.441 24.05h0.8297c9.31-11.34 25.27-10.57 38.33-12.8 44.63-2.88 89.691-0.87 133.93 5.65 6.41 1.59 13.91 2.04 18.63 7.15h2.7703c3.37-36.17-1.9409-72.919-7.2609-108.61-124.66-11.79-249.98-22.19-372.76-47.9-19.78-5.28-42.15-8.6612-56.73-24.381-2.6578-2.0925-5.465-2.9156-8.2781-2.8625zm20.467 99.344c0.39 13.02 9.1903 26.78 23.87 21.38-4.08-9.76-12.31-21.08-23.87-21.38z"
    />
  </g>
</svg>
