<?xml version="1.0" encoding="UTF-8" standalone="no"?>
<svg
  xmlns="http://www.w3.org/2000/svg"
  id="svg2"
  viewBox="0 0 143.52 27.893"
  version="1.1"
  aria-label="Light blue flowers without stems"
>
  <g id="g10" transform="matrix(1.25 0 0 -1.25 0 27.893)">
    <g id="g12">
      <path
        id="path14"
        style="fill-rule: evenodd; fill: #158488"
        d="m70.605 1.662c0.055 0.321 0.293 0.563 0.723 0.723 0.399 0.156 0.852 0.184 1.36 0.078 0.503-0.105 0.917-0.305 1.238-0.598 0.32-0.32 0.441-0.64 0.359-0.961-0.051-0.347-0.293-0.601-0.719-0.761-0.398-0.16-0.851-0.184-1.359-0.078-0.535 0.132-0.949 0.347-1.242 0.64-0.317 0.293-0.438 0.614-0.36 0.957z"
      />
      <path
        id="path16"
        style="fill-rule: evenodd; fill: #158488"
        d="m86.445 16.186c-0.023 0.316 0.137 0.597 0.481 0.84 0.32 0.238 0.746 0.382 1.281 0.437 0.508 0.027 0.961-0.055 1.359-0.238 0.375-0.188 0.575-0.442 0.602-0.762s-0.133-0.598-0.48-0.84c-0.348-0.265-0.79-0.414-1.321-0.437-0.508-0.055-0.945 0.023-1.32 0.238-0.375 0.187-0.574 0.441-0.602 0.762z"
      />
      <path
        id="path18"
        style="fill-rule: evenodd; fill: #158488"
        d="m99.887 10.026c-0.028 0.293 0.133 0.57 0.48 0.839 0.348 0.239 0.774 0.387 1.281 0.438 0.532 0.027 0.985-0.051 1.36-0.238 0.375-0.188 0.574-0.442 0.597-0.762 0.028-0.32-0.132-0.613-0.476-0.879-0.375-0.266-0.817-0.414-1.32-0.441-0.508-0.051-0.95 0.027-1.321 0.242-0.375 0.211-0.574 0.48-0.601 0.801z"
      />
      <path
        id="path20"
        style="fill-rule: evenodd; fill: #158488"
        d="m61.246 8.904c-0.027 0.188 0.055 0.36 0.242 0.52 0.16 0.133 0.371 0.227 0.641 0.281 0.266 0.024 0.504 0 0.719-0.082 0.211-0.105 0.332-0.254 0.359-0.441 0.027-0.188-0.055-0.36-0.242-0.52-0.16-0.16-0.371-0.25-0.637-0.277-0.64-0.109-1 0.066-1.082 0.519z"
      />
      <path
        id="path22"
        style="fill-rule: evenodd; fill: #158488"
        d="m90.207 7.944c-0.055 0.375 0.148 0.585 0.598 0.64 0.453 0.055 0.711-0.094 0.761-0.441 0.028-0.133-0.027-0.266-0.16-0.399-0.105-0.105-0.254-0.175-0.441-0.199-0.449-0.082-0.707 0.051-0.758 0.399z"
      />
      <path
        id="path24"
        style="fill-rule: evenodd; fill: #158488"
        d="m80.488 9.662c-0.054 0.321 0.145 0.535 0.598 0.641 0.453 0.055 0.707-0.094 0.762-0.438 0.05-0.347-0.149-0.562-0.602-0.64-0.453-0.055-0.707 0.094-0.758 0.437z"
      />
      <path
        id="path26"
        style="fill-rule: evenodd; fill: #158488"
        d="m52.926 10.705c-0.051 0.321 0.16 0.531 0.64 0.637 0.454 0.055 0.707-0.09 0.762-0.438 0.051-0.32-0.148-0.535-0.601-0.64-0.426-0.055-0.696 0.094-0.801 0.441z"
      />
      <path
        id="path28"
        style="fill-rule: evenodd; fill: #158488"
        d="m45.445 7.385c-0.05 0.32 0.149 0.531 0.602 0.641 0.453 0.05 0.707-0.094 0.758-0.442 0.109-0.32-0.09-0.531-0.598-0.64-0.453-0.055-0.707 0.093-0.762 0.441z"
      />
      <path
        id="path30"
        style="fill-rule: evenodd; fill: #158488"
        d="m46.406 21.662c-0.054 0.348 0.149 0.563 0.602 0.641 0.453 0.055 0.707-0.094 0.758-0.438 0.054-0.347-0.145-0.562-0.598-0.64-0.453-0.055-0.707 0.094-0.762 0.437z"
      />
      <path
        id="path32"
        style="fill-rule: evenodd; fill: #158488"
        d="m26.285 14.502c-0.051 0.375 0.149 0.59 0.602 0.641 0.453 0.054 0.707-0.094 0.761-0.438 0.051-0.136 0.012-0.269-0.121-0.402-0.105-0.106-0.265-0.172-0.48-0.199-0.188-0.055-0.348-0.028-0.481 0.082-0.16 0.078-0.254 0.183-0.281 0.316z"
      />
      <path
        id="path34"
        style="fill-rule: evenodd; fill: #158488"
        d="m0.008 13.385c-0.028 0.133 0.023 0.266 0.16 0.398 0.105 0.106 0.25 0.176 0.437 0.2 0.454 0.082 0.707-0.051 0.762-0.399 0.051-0.133 0.012-0.265-0.121-0.398-0.133-0.137-0.293-0.215-0.48-0.242-0.454-0.055-0.707 0.093-0.758 0.441z"
      />
      <path
        id="path36"
        style="fill-rule: evenodd; fill: #158488"
        d="m77.488 21.186c-0.054 0.316 0.16 0.531 0.641 0.636 0.453 0.055 0.703-0.093 0.758-0.437 0.054-0.32-0.149-0.535-0.602-0.641-0.453-0.054-0.719 0.094-0.797 0.442z"
      />
      <path
        id="path38"
        style="fill-rule: evenodd; fill: #158488"
        d="m79.887 1.545c-0.028 0.184 0.039 0.359 0.199 0.52 0.16 0.16 0.375 0.265 0.641 0.32 0.265 0.023 0.507 0 0.718-0.082 0.215-0.106 0.336-0.254 0.36-0.442 0.054-0.48-0.239-0.757-0.879-0.839-0.266-0.051-0.492-0.028-0.68 0.082-0.215 0.105-0.332 0.254-0.359 0.441z"
      />
      <path
        id="path40"
        style="fill-rule: evenodd; fill: #158488"
        d="m82.848 16.342c-0.024 0.187 0.039 0.363 0.199 0.523 0.16 0.161 0.375 0.266 0.641 0.321 0.265 0.023 0.507 0 0.718-0.082 0.215-0.106 0.332-0.254 0.36-0.442 0.027-0.183-0.051-0.371-0.239-0.558-0.16-0.16-0.375-0.254-0.64-0.282-0.266-0.05-0.492-0.023-0.68 0.082-0.215 0.106-0.336 0.254-0.359 0.438z"
      />
      <path
        id="path42"
        style="fill-rule: evenodd; fill: #158488"
        d="m11.086 16.303c-0.027 0.187 0.039 0.359 0.199 0.519 0.188 0.137 0.414 0.227 0.68 0.282 0.269 0.027 0.508 0 0.723-0.078 0.183-0.11 0.292-0.254 0.32-0.442 0.051-0.187-0.016-0.359-0.203-0.519-0.157-0.188-0.371-0.293-0.637-0.321-0.297-0.054-0.535-0.027-0.723 0.078-0.211 0.137-0.332 0.297-0.359 0.481z"
      />
      <path
        id="path44"
        style="fill-rule: evenodd; fill: #158488"
        d="m112.89 14.865c-0.028 0.184 0.039 0.36 0.199 0.52 0.16 0.133 0.375 0.226 0.641 0.277 0.265 0.028 0.507 0 0.718-0.078 0.215-0.105 0.336-0.254 0.36-0.441 0.027-0.184-0.039-0.36-0.2-0.52-0.183-0.16-0.414-0.254-0.679-0.281-0.266-0.051-0.492-0.023-0.68 0.082-0.215 0.105-0.336 0.254-0.359 0.441z"
      />
      <path
        id="path46"
        style="fill-rule: evenodd; fill: #158488"
        d="m76.125 7.225c0.055 0.426 0.402 0.746 1.043 0.957 0.664 0.215 1.437 0.269 2.316 0.16 0.883-0.106 1.614-0.348 2.204-0.719 0.585-0.347 0.851-0.734 0.796-1.16-0.05-0.426-0.414-0.746-1.078-0.961-0.668-0.238-1.441-0.305-2.32-0.199-0.879 0.133-1.602 0.375-2.16 0.723-0.586 0.371-0.852 0.769-0.801 1.199z"
      />
      <path
        id="path48"
        style="fill-rule: evenodd; fill: #158488"
        d="m102.09 13.026c-0.106 0.398 0.109 0.824 0.641 1.277 0.535 0.453 1.214 0.801 2.039 1.039 0.882 0.242 1.656 0.309 2.32 0.203 0.695-0.109 1.094-0.375 1.199-0.801 0.137-0.402-0.066-0.828-0.597-1.281-0.536-0.453-1.227-0.801-2.083-1.039-0.851-0.238-1.625-0.305-2.32-0.199-0.691 0.105-1.094 0.371-1.199 0.801z"
      />
      <path
        id="path50"
        style="fill-rule: evenodd; fill: #158488"
        d="m71.648 13.463c0.051 0.266 0.239 0.481 0.559 0.641s0.691 0.226 1.121 0.199c0.426-0.051 0.77-0.199 1.039-0.438 0.293-0.242 0.426-0.507 0.399-0.8-0.028-0.293-0.211-0.508-0.559-0.641-0.32-0.16-0.691-0.215-1.121-0.16-0.426 0.027-0.785 0.16-1.078 0.398-0.27 0.242-0.387 0.508-0.36 0.801z"
      />
      <path
        id="path52"
        style="fill-rule: evenodd; fill: #158488"
        d="m58.926 16.186c0.054 0.343 0.293 0.613 0.719 0.797 0.402 0.187 0.867 0.242 1.402 0.16 0.531-0.106 0.945-0.321 1.238-0.641 0.32-0.316 0.453-0.652 0.403-1-0.055-0.371-0.293-0.652-0.723-0.84-0.426-0.183-0.891-0.226-1.399-0.117-0.507 0.078-0.918 0.277-1.238 0.598-0.32 0.32-0.457 0.668-0.402 1.043z"
      />
      <path
        id="path54"
        style="fill-rule: evenodd; fill: #158488"
        d="m47.805 11.463c0.054 0.266 0.254 0.469 0.601 0.602 0.348 0.132 0.735 0.171 1.16 0.121 0.426-0.082 0.774-0.254 1.039-0.524 0.266-0.265 0.375-0.531 0.321-0.797-0.028-0.269-0.211-0.468-0.559-0.601-0.347-0.133-0.734-0.172-1.16-0.121-0.426 0.082-0.773 0.254-1.039 0.519-0.27 0.242-0.387 0.508-0.363 0.801z"
      />
      <path
        id="path56"
        style="fill-rule: evenodd; fill: #158488"
        d="m8.965 13.545c-0.027 0.293 0.094 0.559 0.363 0.797 0.266 0.242 0.613 0.402 1.039 0.48 0.426 0.082 0.813 0.055 1.16-0.078 0.348-0.16 0.532-0.375 0.559-0.64 0.055-0.266-0.055-0.535-0.32-0.801-0.266-0.238-0.614-0.399-1.039-0.481-0.426-0.078-0.813-0.05-1.161 0.082-0.347 0.133-0.546 0.348-0.601 0.641z"
      />
      <path
        id="path58"
        style="fill-rule: evenodd; fill: #158488"
        d="m70.328 11.264c0.426-0.32 0.559-0.746 0.399-1.281 0.558 0.453 1.16 0.613 1.8 0.48 0.586-0.133 1.012-0.426 1.278-0.879 0.293-0.453 0.269-0.84-0.078-1.16-0.426-0.375-1.2-0.52-2.321-0.441 2-1.118 2.375-1.946 1.121-2.481-0.48-0.183-0.988-0.199-1.519-0.039-0.641 0.188-1.067 0.547-1.281 1.078 0.054-0.449-0.067-0.824-0.36-1.117-0.347-0.348-0.851-0.441-1.519-0.281s-1.11 0.441-1.321 0.84c-0.265 0.507 0.012 1.043 0.84 1.601-1.785 0.078-2.441 0.668-1.961 1.758 0.481 1.066 1.492 1.16 3.043 0.281-0.59 0.613-0.789 1.106-0.601 1.481 0.132 0.347 0.492 0.535 1.082 0.558 0.531 0.028 0.996-0.105 1.398-0.398zm-1.242-0.602c0-0.023 0.066-0.238 0.199-0.636 0.11-0.27 0.11-0.469 0-0.602-0.265-0.375-0.652-0.547-1.156-0.52h-1.402c0.16-0.054 0.425-0.109 0.8-0.16 0.321-0.054 0.575-0.133 0.758-0.242h-0.398c0.64-0.051 0.867-0.398 0.679-1.039-0.105-0.32-0.293-0.734-0.558-1.238 0.078 0.078 0.215 0.238 0.398 0.48 0.16 0.239 0.309 0.399 0.442 0.481 0.16 0.105 0.398 0.172 0.718 0.199 0.403 0.051 0.586-0.027 0.563-0.242l0.078 0.32c0.293-0.187 0.668-0.48 1.121-0.879-0.348 0.371-0.562 0.668-0.64 0.879-0.055 0.16-0.055 0.402 0 0.719 0.078 0.347 0.199 0.574 0.359 0.683 0.051 0.051 0.265 0.145 0.641 0.278 0.257 0.101 0.445 0.16 0.558 0.183-0.492-0.07-0.867-0.117-1.117-0.14-0.59-0.082-1.027 0.066-1.32 0.437-0.27 0.508-0.508 0.856-0.723 1.039z"
      />
      <path
        id="path60"
        style="fill-rule: evenodd; fill: #158488"
        d="m69.566 7.865c-0.398 0.051-0.574 0.227-0.519 0.52 0.051 0.316 0.265 0.453 0.641 0.398 0.398-0.054 0.574-0.226 0.519-0.519 0-0.32-0.215-0.453-0.641-0.399z"
      />
      <path
        id="path62"
        style="fill-rule: evenodd; fill: #158488"
        d="m41.008 13.584c1.172 0.508 1.918 0.188 2.238-0.961 0.32-1.094-0.398-1.332-2.16-0.719 1.254-1.253 1.359-1.96 0.32-2.121-1.144-0.16-1.773 0.309-1.879 1.403-0.082-0.348-0.254-0.602-0.519-0.762-0.348-0.215-0.746-0.188-1.203 0.078-0.453 0.242-0.719 0.551-0.797 0.922-0.11 0.453 0.211 0.801 0.957 1.039-1.332 0.453-1.692 1.039-1.078 1.762 0.586 0.719 1.375 0.574 2.359-0.442-0.641 1.254-0.387 1.746 0.762 1.481 1.199-0.266 1.531-0.828 1-1.68zm0-0.922c0.051 0.055 0.238 0.082 0.558 0.082 0.231 0.02 0.383 0.028 0.461 0.02-0.121 0.023-0.422 0.07-0.902 0.14-0.453 0.055-0.746 0.254-0.879 0.598-0.078 0.457-0.187 0.774-0.32 0.961 0.082-0.531 0.039-0.867-0.121-1-0.266-0.211-0.586-0.266-0.957-0.16-0.668 0.215-1.028 0.32-1.082 0.32 0.242-0.16 0.601-0.371 1.082-0.64l-0.282 0.082c0.454-0.188 0.547-0.496 0.282-0.922-0.403-0.481-0.629-0.774-0.68-0.879 0.078 0.027 0.211 0.133 0.398 0.32 0.161 0.133 0.305 0.215 0.442 0.238 0.105 0.055 0.304 0.067 0.597 0.043 0.293-0.054 0.415-0.16 0.36-0.32l0.121 0.238c0.187-0.214 0.402-0.519 0.641-0.918-0.188 0.371-0.282 0.637-0.282 0.797-0.023 0.137 0.028 0.321 0.16 0.563 0.133 0.265 0.266 0.414 0.403 0.437z"
      />
      <path
        id="path64"
        style="fill-rule: evenodd; fill: #158488"
        d="m39.688 12.225c-0.293 0.105-0.387 0.277-0.282 0.519 0.106 0.188 0.293 0.239 0.559 0.16 0.269-0.132 0.363-0.308 0.281-0.519-0.027-0.109-0.094-0.176-0.199-0.199-0.106-0.028-0.227-0.016-0.359 0.039z"
      />
      <path
        id="path66"
        style="fill-rule: evenodd; fill: #158488"
        d="m97.887 16.342c1.281-0.156 1.64-0.504 1.082-1.039-0.586-0.586-1.149-0.598-1.684-0.039 0.11-0.238 0.121-0.465 0.043-0.68-0.109-0.242-0.348-0.398-0.723-0.48-0.371-0.055-0.652 0-0.839 0.16-0.266 0.215-0.239 0.558 0.082 1.039-0.961-0.344-1.426-0.184-1.399 0.48 0 0.668 0.504 0.934 1.52 0.801-0.91 0.399-0.977 0.785-0.203 1.16 0.828 0.375 1.269 0.215 1.32-0.48 0.453 0.801 1.027 0.945 1.719 0.441 0.668-0.48 0.363-0.933-0.918-1.363zm-0.121 0.684c0.144 0.14 0.23 0.222 0.261 0.238-0.105-0.035-0.297-0.141-0.582-0.32-0.293-0.188-0.558-0.215-0.8-0.079-0.211 0.211-0.399 0.344-0.559 0.399l0.242-0.281c0.106-0.133 0.145-0.239 0.117-0.321-0.05-0.238-0.215-0.41-0.48-0.519-0.481-0.16-0.735-0.25-0.758-0.278 0.184 0 0.492 0.024 0.918 0.079l-0.199-0.079c0.347 0.106 0.531-0.015 0.558-0.363 0.028-0.211 0.028-0.476 0-0.797 0.055 0.321 0.121 0.547 0.2 0.68 0.054 0.078 0.175 0.172 0.363 0.277 0.183 0.11 0.293 0.11 0.316 0v0.16c0.188-0.023 0.442-0.105 0.762-0.238-0.266 0.133-0.441 0.254-0.52 0.36-0.054 0.054-0.109 0.175-0.16 0.359-0.027 0.187-0.015 0.336 0.039 0.441 0.024 0.055 0.121 0.145 0.282 0.282z"
      />
      <path
        id="path68"
        style="fill-rule: evenodd; fill: #158488"
        d="m96.926 15.904c-0.211-0.054-0.348 0-0.399 0.161-0.054 0.187 0.039 0.304 0.278 0.359 0.187 0.055 0.308 0 0.363-0.16 0.051-0.16-0.027-0.281-0.242-0.36z"
      />
      <path
        id="path70"
        style="fill-rule: evenodd; fill: #158488"
        d="m16.406 17.303c0.879 0 1.199-0.332 0.961-1 0.746 0.562 1.321 0.453 1.719-0.32 0.402-0.719-0.066-1-1.398-0.84 1.117-0.692 1.32-1.172 0.597-1.438-0.773-0.297-1.293-0.066-1.558 0.68 0-0.266-0.079-0.481-0.239-0.641-0.215-0.16-0.508-0.199-0.883-0.121-0.343 0.106-0.574 0.281-0.679 0.52-0.16 0.293 0 0.586 0.48 0.883-0.984 0.105-1.332 0.453-1.039 1.039 0.293 0.613 0.867 0.64 1.719 0.078-0.664 0.773-0.559 1.16 0.32 1.16zm1.16-1.481c-0.347-0.023-0.586 0.067-0.718 0.282-0.133 0.293-0.266 0.507-0.403 0.64 0.028-0.082 0.067-0.215 0.121-0.402 0.028-0.156 0.016-0.266-0.039-0.316-0.16-0.188-0.375-0.282-0.64-0.282-0.508 0.028-0.774 0.039-0.801 0.039 0.535-0.16 0.828-0.254 0.879-0.281l-0.137 0.043c0.293-0.09 0.379-0.289 0.258-0.601-0.055-0.188-0.172-0.426-0.359-0.719 0.132 0.105 0.304 0.277 0.519 0.519 0.082 0.055 0.215 0.094 0.402 0.121 0.211 0.024 0.317-0.027 0.317-0.16l0.043 0.16c0.16-0.082 0.359-0.254 0.597-0.523-0.183 0.242-0.293 0.414-0.32 0.523-0.023 0.106-0.012 0.25 0.043 0.438 0.051 0.187 0.117 0.308 0.199 0.359l0.719 0.242c-0.055 0-0.281-0.027-0.68-0.082z"
      />
      <path
        id="path72"
        style="fill-rule: evenodd; fill: #158488"
        d="m16.688 15.143c-0.215 0.054-0.321 0.148-0.321 0.281 0.051 0.16 0.188 0.238 0.399 0.238 0.187-0.051 0.281-0.16 0.281-0.32-0.055-0.184-0.176-0.25-0.359-0.199z"
      />
    </g>
  </g>
</svg>
