<svg
  id="svg5393"
  xmlns:rdf="http://www.w3.org/1999/02/22-rdf-syntax-ns#"
  xmlns="http://www.w3.org/2000/svg"
  height="332.46mm"
  width="213.9mm"
  version="1.1"
  xmlns:cc="http://creativecommons.org/ns#"
  xmlns:dc="http://purl.org/dc/elements/1.1/"
  viewBox="0 0 757.90699 1177.9999"
  aria-label="A constellation of several stars"
>
  <g id="layer1" transform="translate(2749.6 2394.6)">
    <g
      id="g4212"
      transform="matrix(9.035 0 0 9.035 22093 9775.5)"
      clip-rule="evenodd"
      fill="#ffdd02"
    >
      <g fill-rule="evenodd">
        <polygon
          id="polygon418"
          style="
            image-rendering: optimizeQuality;
            shape-rendering: geometricPrecision;
          "
          transform="matrix(3.5433 0 0 3.5433 -2861.8 -1646.1)"
          points="42.531 85.068 43.202 85.156 43.8 84.428 43.952 85.316 44.781 85.7 44.023 86.155 44.055 87.082 43.449 86.395 42.571 86.763 42.938 85.947"
          class="fil3"
        />
        <polygon
          id="polygon420"
          style="
            image-rendering: optimizeQuality;
            shape-rendering: geometricPrecision;
          "
          transform="matrix(3.5433 0 0 3.5433 -2861.8 -1646.1)"
          points="43.098 87.746 43.952 88.649 45.148 88.202 44.757 89.265 45.34 90.728 44.103 90.424 43.425 91.327 43.106 90.28 42.005 89.721 42.978 89.049"
          class="fil3"
        />
        <polygon
          id="polygon422"
          style="
            image-rendering: optimizeQuality;
            shape-rendering: geometricPrecision;
          "
          transform="matrix(3.5433 0 0 3.5433 -2861.8 -1646.1)"
          points="53.255 91.048 54.036 91.839 55.17 91.463 54.659 92.494 55.337 93.662 54.18 93.422 53.566 94.325 53.255 93.206 52.13 92.878 53.191 92.215"
          class="fil3"
        />
        <polygon
          id="polygon424"
          style="
            image-rendering: optimizeQuality;
            shape-rendering: geometricPrecision;
          "
          transform="matrix(3.5433 0 0 3.5433 -2861.8 -1646.1)"
          points="40.401 96.116 41.207 96.923 42.42 96.587 41.981 97.619 42.515 98.762 41.334 98.666 40.584 99.561 40.417 98.41 39.276 98.042 40.202 97.379"
          class="fil3"
        />
        <polygon
          id="polygon426"
          style="
            image-rendering: optimizeQuality;
            shape-rendering: geometricPrecision;
          "
          transform="matrix(3.5433 0 0 3.5433 -2861.8 -1646.1)"
          points="47.694 103.31 48.436 103.35 48.834 102.78 48.93 103.51 49.64 103.69 49.042 104.13 49.05 104.91 48.571 104.43 47.829 104.67 48.132 104.01"
          class="fil3"
        />
        <polygon
          id="polygon428"
          style="
            image-rendering: optimizeQuality;
            shape-rendering: geometricPrecision;
          "
          transform="matrix(3.5433 0 0 3.5433 -2861.8 -1646.1)"
          points="33.516 116.64 32.858 117.55 32.701 116.48 31.663 116.05 32.596 115.4 32.765 114.26 33.444 114.97 34.489 114.65 33.962 115.7 34.576 116.82"
          class="fil3"
        />
        <polygon
          id="polygon430"
          style="
            image-rendering: optimizeQuality;
            shape-rendering: geometricPrecision;
          "
          transform="matrix(3.5433 0 0 3.5433 -2861.8 -1646.1)"
          points="38.175 117.58 39.108 118.5 40.281 118.05 39.747 119.3 40.489 120.41 39.22 120.3 38.518 121.22 38.231 120.13 37.138 119.55 38.079 118.97"
          class="fil3"
        />
        <polygon
          id="polygon432"
          style="
            image-rendering: optimizeQuality;
            shape-rendering: geometricPrecision;
          "
          transform="matrix(3.5433 0 0 3.5433 -2861.8 -1646.1)"
          points="45.906 109.71 46.68 109.76 47.187 109.13 47.35 109.98 48.14 110.24 47.322 110.65 47.518 111.62 46.896 111 46.102 111.2 46.453 110.46"
          class="fil3"
        />
      </g>
      <path
        id="path434"
        style="
          image-rendering: optimizeQuality;
          shape-rendering: geometricPrecision;
        "
        d="m-2706.9-1340.2c-0.036-0.5773-0.918-0.522-0.8823 0.052l0.055 0.884c0.036 0.5769 0.9181 0.522 0.8823-0.052l-0.055-0.884zm-10.915 45.429c0.2179-0.5453-0.6003-0.8766-0.8097-0.3529l-0.3536 0.8125c-0.2183 0.5453 0.5999 0.877 0.8097 0.3529l0.3536-0.8125zm-1.0609 2.4371c0.2179-0.5456-0.6002-0.8769-0.8096-0.3529l-0.3537 0.8121c-0.2179 0.5454 0.6003 0.877 0.8097 0.353l0.3536-0.8122zm-1.0605 2.4368c0.2179-0.5453-0.6002-0.8766-0.8096-0.3529l-0.3537 0.8124c-0.2179 0.5453 0.6003 0.877 0.8097 0.3529l0.3536-0.8124zm-1.0605 2.4371c0.2179-0.5457-0.6003-0.877-0.8097-0.353l-0.3536 0.8122c-0.2179 0.5453 0.6003 0.8769 0.8097 0.3529l0.3536-0.8121zm-1.0605 2.4367c0.2179-0.5453-0.6003-0.8766-0.8097-0.3529l-0.3536 0.8125c-0.2179 0.5453 0.6002 0.8769 0.8097 0.3529l0.3536-0.8125zm-1.0605 2.4371c0.2179-0.5457-0.6003-0.877-0.8097-0.3529l-0.3536 0.8121c-0.2179 0.5453 0.6002 0.877 0.8096 0.3529l0.3537-0.8121zm-1.0606 2.4367c0.218-0.5453-0.6002-0.8766-0.8096-0.3529l-0.3536 0.8125c-0.2179 0.5453 0.6002 0.8769 0.8096 0.3529l0.3536-0.8125zm-1.0605 2.4371c0.2183-0.5457-0.6002-0.877-0.8096-0.3529l-0.3533 0.8121c-0.2182 0.5453 0.5999 0.877 0.8097 0.3529l0.3532-0.8121zm-1.0601 2.4367c0.2179-0.5453-0.6003-0.8766-0.8097-0.3529l-0.3536 0.8125c-0.2179 0.5453 0.6002 0.877 0.8097 0.3529l0.3536-0.8125zm-1.0605 2.4371c0.2182-0.5453-0.6003-0.8766-0.8097-0.3529l-0.3532 0.8125c-0.2183 0.5453 0.5998 0.8769 0.8096 0.3529l0.3533-0.8125zm-1.0602 2.4371c0.2179-0.5457-0.6002-0.877-0.8096-0.3529l-0.3537 0.8121c-0.2179 0.5453 0.6003 0.877 0.8097 0.3529l0.3536-0.8121zm-1.0605 2.4367c0.2183-0.5453-0.6002-0.8766-0.8096-0.3529l-0.3533 0.8125c-0.2183 0.5453 0.5999 0.877 0.8096 0.3529l0.3533-0.8125zm-1.0602 2.4371c0.218-0.5457-0.6002-0.877-0.8096-0.3529l-0.3536 0.8121c-0.2179 0.5453 0.6002 0.877 0.8096 0.3529l0.3536-0.8121zm-1.0605 2.4367c0.2183-0.5456-0.6002-0.8769-0.8096-0.3529l-0.3533 0.8122c-0.2183 0.5453 0.5999 0.8769 0.8097 0.3529l0.3532-0.8122zm-1.0601 2.4364c0.2179-0.5453-0.6003-0.8766-0.8097-0.3529l-0.3536 0.8121c-0.2179 0.5454 0.6002 0.877 0.8096 0.353l0.3537-0.8122zm-1.0605 2.4368c0.2182-0.5457-0.6003-0.877-0.8097-0.353l-0.3533 0.8122c-0.2182 0.5453 0.5999 0.8769 0.8097 0.3529l0.3533-0.8121zm-1.0602 2.4363c0.2179-0.5453-0.6002-0.8766-0.8096-0.3529l-0.3537 0.8121c-0.2179 0.5454 0.6003 0.877 0.8097 0.353l0.3536-0.8122zm-1.0605 2.4368c0.2183-0.5457-0.6002-0.877-0.8097-0.3529l-0.3532 0.8121c-0.2183 0.5453 0.5999 0.877 0.8096 0.3529l0.3533-0.8121zm-1.0602 2.4363c0.2179-0.5453-0.6002-0.8766-0.8096-0.3529l-0.3536 0.8122c-0.2179 0.5453 0.6002 0.8769 0.8096 0.3529l0.3536-0.8122zm-1.0605 2.4368c0.2183-0.5457-0.6002-0.877-0.8096-0.3529l-0.3533 0.8121c-0.2183 0.5453 0.5999 0.877 0.8097 0.3529l0.3532-0.8121zm-1.0601 2.4364c0.2179-0.5454-0.6003-0.8767-0.8097-0.353l-0.3536 0.8122c-0.2179 0.5453 0.6002 0.8769 0.8096 0.3529l0.3537-0.8121zm-1.0605 2.4367c0.2182-0.5457-0.6003-0.877-0.8097-0.3529l-0.3533 0.8121c-0.2182 0.5453 0.5999 0.877 0.8097 0.3529l0.3533-0.8121zm-1.0602 2.4364c0.2179-0.5454-0.6002-0.8766-0.8097-0.3529l-0.3536 0.8121c-0.2179 0.5453 0.6003 0.8769 0.8097 0.3529l0.3536-0.8121zm-1.0605 2.4367c0.2183-0.5457-0.6003-0.877-0.8097-0.3529l-0.3532 0.8121c-0.2183 0.5453 0.5999 0.877 0.8096 0.3529l0.3533-0.8121zm16.104 15.168c0.4837 0.3108 0.962-0.4099 0.4844-0.7405l-0.1839-0.1205c-0.4837-0.3107-0.9624 0.41-0.4844 0.7406l0.1839 0.1204zm-1.6664-1.0909c0.484 0.3111 0.9623-0.4097 0.4844-0.7406l-0.7409-0.4851c-0.4837-0.3111-0.9624 0.4096-0.4844 0.7406l0.7409 0.4851zm-2.2231-1.4556c0.4837 0.3107 0.962-0.41 0.4844-0.7406l-0.7413-0.4854c-0.4836-0.3108-0.962 0.4099-0.4843 0.7405l0.7412 0.4855zm-2.2234-1.456c0.484 0.3111 0.9624-0.4096 0.4844-0.7405l-0.7409-0.4851c-0.4837-0.3111-0.9624 0.4096-0.4844 0.7405l0.7409 0.4851zm-2.2231-1.4556c0.4837 0.3108 0.962-0.4099 0.4844-0.7405l-0.7413-0.4855c-0.4836-0.3107-0.962 0.41-0.4843 0.7406l0.7412 0.4854zm-2.2234-1.4559c0.484 0.3111 0.9624-0.4096 0.4844-0.7406l-0.7409-0.485c-0.4837-0.3111-0.9624 0.4096-0.4844 0.7405l0.7409 0.4851zm-2.2231-1.4556c0.4837 0.3107 0.962-0.41 0.4844-0.7406l-0.7413-0.4854c-0.4836-0.3107-0.962 0.41-0.4843 0.7406l0.7412 0.4854zm-2.2234-1.4556c0.484 0.3108 0.9624-0.41 0.4844-0.7405l-0.7409-0.4851c-0.4837-0.3111-0.9624 0.4096-0.4844 0.7405l0.7409 0.4851zm44.656-20.095c0.3887-0.4241-0.2636-1.0212-0.6541-0.5953l-0.5963 0.6555c-0.3887 0.4242 0.2636 1.0212 0.6541 0.5953l0.5963-0.6555zm-1.7887 1.9662c0.3891-0.4245-0.2636-1.0212-0.6541-0.5953l-0.596 0.6552c-0.3887 0.4241 0.2633 1.0215 0.6541 0.5952l0.596-0.6551zm-1.7883 1.9658c0.3887-0.4241-0.2636-1.0212-0.6541-0.5953l-0.5963 0.6555c-0.3887 0.4242 0.2636 1.0212 0.6541 0.5953l0.5963-0.6555zm-1.7886 1.9662c0.389-0.4245-0.2637-1.0212-0.6541-0.5953l-0.596 0.6552c-0.3887 0.4241 0.2632 1.0215 0.6541 0.5952l0.596-0.6551zm-1.7883 1.9658c0.3887-0.4241-0.2637-1.0212-0.6541-0.5953l-0.5964 0.6556c-0.3887 0.4241 0.2636 1.0211 0.6541 0.5952l0.5964-0.6555zm-1.7884 1.9662c0.3887-0.4245-0.2636-1.0212-0.654-0.5953l-0.596 0.6552c-0.3887 0.4241 0.2632 1.0215 0.6541 0.5953l0.5959-0.6552zm-1.7883 1.9658c0.3891-0.4241-0.2636-1.0212-0.6541-0.5953l-0.5959 0.6552c-0.3887 0.4241 0.2636 1.0215 0.6541 0.5953l0.5959-0.6552zm-1.7879 1.9659c0.3887-0.4245-0.2636-1.0212-0.6541-0.5953l-0.596 0.6551c-0.3887 0.4242 0.2633 1.0212 0.6541 0.5953l0.596-0.6551zm-1.7883 1.9654c0.389-0.4241-0.2636-1.0212-0.6541-0.5953l-0.596 0.6552c-0.3887 0.4241 0.2636 1.0215 0.6541 0.5953l0.596-0.6552zm-1.788 1.9659c0.3887-0.4245-0.2636-1.0212-0.6541-0.5953l-0.596 0.6551c-0.3887 0.4242 0.2633 1.0212 0.6541 0.5953l0.596-0.6551zm-1.7883 1.9654c0.3891-0.4241-0.2636-1.0212-0.6541-0.5953l-0.596 0.6552c-0.3887 0.4241 0.2637 1.0215 0.6541 0.5953l0.596-0.6552zm-1.7879 1.9658c0.3887-0.4244-0.2637-1.0211-0.6541-0.5952l-0.596 0.6551c-0.3887 0.4242 0.2633 1.0212 0.6541 0.5953l0.596-0.6552zm-1.7883 1.9655c0.389-0.4241-0.2637-1.0212-0.6541-0.5953l-0.596 0.6552c-0.3887 0.4241 0.2636 1.0215 0.6541 0.5953l0.596-0.6552zm-1.788 1.9658c0.3887-0.4244-0.2636-1.0211-0.6541-0.5952l-0.596 0.6551c-0.3887 0.4242 0.2633 1.0212 0.6541 0.5953l0.596-0.6552zm-1.7883 1.9655c0.3891-0.4241-0.2636-1.0212-0.6541-0.5953l-0.596 0.6552c-0.3887 0.4241 0.2636 1.0215 0.6541 0.5953l0.596-0.6552zm32.3-51.427c0.1396-0.5592-0.7182-0.7746-0.8582-0.2144l-0.085 0.3398c-0.14 0.5595 0.7182 0.7746 0.8581 0.2144l0.085-0.3398zm-0.5166 2.0583c0.1396-0.5592-0.7182-0.7746-0.8582-0.2144l-0.2158 0.8593c-0.1396 0.5598 0.7183 0.7749 0.8582 0.2143l0.2158-0.8592zm-0.647 2.5781c0.14-0.5595-0.7182-0.7746-0.8582-0.2144l-0.2154 0.8593c-0.14 0.5595 0.7182 0.7745 0.8582 0.2143l0.2154-0.8592zm-0.6466 2.5777c0.1396-0.5594-0.7183-0.7745-0.8582-0.2143l-0.2158 0.8592c-0.1396 0.5595 0.7182 0.7746 0.8582 0.2144l0.2158-0.8593zm-0.6471 2.5778c0.14-0.5595-0.7182-0.7746-0.8581-0.2144l-0.2155 0.8593c-0.1396 0.5595 0.7183 0.7746 0.8582 0.2144l0.2154-0.8593zm-0.6463 2.5774c0.1397-0.5591-0.7182-0.7746-0.8581-0.2144l-0.2155 0.8593c-0.1399 0.5595 0.7183 0.7746 0.8582 0.2144l0.2154-0.8593zm-0.6466 2.5774c0.14-0.5591-0.7182-0.7746-0.8582-0.2144l-0.2154 0.8593c-0.1396 0.5595 0.7182 0.7746 0.8582 0.2144l0.2154-0.8593zm-0.6463 2.5774c0.1396-0.5591-0.7182-0.7746-0.8582-0.2144l-0.2154 0.8593c-0.14 0.5595 0.7182 0.7746 0.8582 0.2144l0.2154-0.8593zm-0.6467 2.5774c0.14-0.5591-0.7182-0.7746-0.8581-0.2144l-0.2155 0.8593c-0.1396 0.5595 0.7182 0.7746 0.8582 0.2144l0.2154-0.8593zm22.515-58.067c0.242-0.5187-0.5581-0.8911-0.8029-0.3667l-0.1999 0.4344c-0.2423 0.5191 0.5581 0.8915 0.8029 0.3667l0.1999-0.4344zm-0.9401 2.0441c0.242-0.5187-0.558-0.8911-0.8029-0.3667l-0.3702 0.805c-0.2421 0.5188 0.558 0.8912 0.8029 0.3668l0.3702-0.8051zm-1.1104 2.4148c0.242-0.5187-0.5581-0.8915-0.8029-0.3667l-0.37 0.8047c-0.2423 0.519 0.5581 0.8914 0.8029 0.3667l0.37-0.8047zm-1.1102 2.4144c0.2421-0.5187-0.558-0.8911-0.8029-0.3667l-0.3702 0.805c-0.242 0.5188 0.558 0.8912 0.8029 0.3667l0.3702-0.805zm-1.1101 2.4148c0.242-0.5188-0.558-0.8915-0.8029-0.3668l-0.3699 0.8047c-0.2424 0.5191 0.5581 0.8915 0.8029 0.3668l0.3699-0.8047zm-1.1101 2.4144c0.242-0.5188-0.5581-0.8912-0.8029-0.3668l-0.3699 0.8051c-0.242 0.5187 0.558 0.8911 0.8029 0.3667l0.3699-0.805zm-1.1098 2.4147c0.2421-0.5187-0.558-0.8915-0.8029-0.3667l-0.3699 0.8047c-0.2423 0.5191 0.5581 0.8915 0.8029 0.3667l0.3699-0.8047zm-1.1101 2.4145c0.242-0.5188-0.558-0.8912-0.8029-0.3668l-0.3699 0.8051c-0.242 0.5187 0.5581 0.8911 0.8029 0.3667l0.3699-0.805zm-1.1097 2.4147c0.242-0.5187-0.5581-0.8915-0.8029-0.3667l-0.37 0.8047c-0.2423 0.5191 0.5581 0.8915 0.8029 0.3667l0.37-0.8047zm-1.1102 2.4144c0.2421-0.5187-0.558-0.8911-0.8029-0.3667l-0.3699 0.805c-0.242 0.5188 0.5581 0.8912 0.8029 0.3668l0.3699-0.8051zm-1.1097 2.4148c0.242-0.5187-0.5581-0.8915-0.8029-0.3667l-0.37 0.8046c-0.2423 0.5191 0.5581 0.8915 0.803 0.3668l0.3699-0.8047zm-1.1101 2.4144c0.242-0.5187-0.5581-0.8911-0.8029-0.3667l-0.37 0.805c-0.242 0.5187 0.5581 0.8912 0.8029 0.3667l0.37-0.805zm-1.1098 2.4148c0.242-0.5188-0.5581-0.8915-0.8029-0.3668l-0.3699 0.8047c-0.2424 0.5191 0.558 0.8915 0.8029 0.3668l0.3699-0.8047zm-1.1098 2.4144c0.242-0.5188-0.558-0.8912-0.8029-0.3668l-0.3699 0.8051c-0.2424 0.5187 0.5581 0.8911 0.8029 0.3667l0.3699-0.805zm-1.1097 2.4147c0.242-0.5187-0.5581-0.8915-0.8029-0.3667l-0.37 0.8047c-0.2423 0.5191 0.5581 0.8915 0.803 0.3667l0.3699-0.8047zm-1.1098 2.4144c0.242-0.5187-0.5581-0.8914-0.8029-0.3667l-0.3699 0.8047c-0.2424 0.5187 0.558 0.8911 0.8029 0.3667l0.3699-0.8047zm-19.701-43.475c0.1822-0.5474-0.6555-0.8255-0.8373-0.2802l-0.2834 0.839c-0.1825 0.5471 0.6555 0.826 0.8373 0.2803l0.2834-0.8391zm-0.8504 2.5179c0.1822-0.5474-0.6555-0.8256-0.8373-0.2803l-0.2834 0.8391c-0.1825 0.5471 0.6555 0.8259 0.8373 0.2803l0.2834-0.8391zm-0.8504 2.5179c0.1822-0.5475-0.6555-0.8256-0.8372-0.2803l-0.2835 0.8391c-0.1825 0.5471 0.6555 0.8259 0.8373 0.2802l0.2834-0.839zm-0.8504 2.5175c0.1822-0.5471-0.6555-0.8256-0.8372-0.2803l-0.2835 0.8394c-0.1825 0.5471 0.6555 0.826 0.8373 0.2803l0.2834-0.8394zm-0.8504 2.5179c0.1822-0.5475-0.6555-0.8256-0.8372-0.2803l-0.2835 0.8391c-0.1825 0.547 0.6555 0.8259 0.8373 0.2802l0.2834-0.839zm-0.8503 2.5175c0.1824-0.5471-0.6556-0.8256-0.8373-0.2803l-0.2831 0.8394c-0.1825 0.5471 0.6555 0.826 0.8372 0.2803l0.2832-0.8394zm-0.8501 2.5179c0.1825-0.5475-0.6555-0.8256-0.8373-0.2803l-0.2831 0.8391c-0.1825 0.547 0.6555 0.8259 0.8373 0.2802l0.2831-0.839zm-0.85 2.5175c0.1825-0.5471-0.6555-0.8256-0.8373-0.2803l-0.2831 0.8394c-0.1825 0.5471 0.6555 0.826 0.8373 0.2803l0.2831-0.8394zm-0.8501 2.5179c0.1825-0.5475-0.6555-0.8256-0.8372-0.2803l-0.2832 0.8391c-0.1824 0.547 0.6556 0.8259 0.8373 0.2802l0.2831-0.839zm7.4516-28.62c0.036 0.5772 0.9181 0.5223 0.8823-0.052l-0.046-0.7388c-0.036-0.5768-0.918-0.5219-0.8822 0.052l0.046 0.7388zm-0.1552-2.5069c0.036 0.5769 0.9181 0.522 0.8823-0.052l-0.055-0.8841c-0.036-0.5772-0.918-0.5219-0.8823 0.052l0.055 0.884zm-0.1637-2.6525c0.036 0.5772 0.9181 0.5223 0.8823-0.052l-0.055-0.8841c-0.036-0.5768-0.918-0.5219-0.8823 0.052l0.055 0.884z"
        class="fil2"
      />
    </g>
  </g>
</svg>
