<svg class="Frisbee" xmlns="http://www.w3.org/2000/svg">
  <path
    style="fill: #ffac52"
    d="M255.994,0.004C114.614,0.004,0,114.618,0,256.004c0,141.38,114.614,255.992,255.994,255.992 C397.38,511.996,512,397.382,512,256.004C512,114.618,397.38,0.004,255.994,0.004z"
  />
  <g>
    <path
      style="fill: #ffd5a1"
      d="M255.995,470.398C137.778,470.398,41.6,374.22,41.6,256.003c0-118.221,96.178-214.4,214.395-214.4 c36.281,0,72.139,9.234,103.698,26.702c6.185,3.424,8.424,11.213,5,17.398c-3.425,6.184-11.218,8.422-17.398,5 c-27.773-15.374-59.345-23.499-91.3-23.499c-104.103,0-188.796,84.695-188.796,188.801c0,104.103,84.693,188.796,188.796,188.796 c104.108,0,188.806-84.693,188.806-188.796c0-49.237-18.844-95.839-53.058-131.223c-4.915-5.082-4.778-13.185,0.303-18.099 c5.082-4.914,13.185-4.778,18.099,0.303c38.857,40.183,60.255,93.104,60.255,149.017C470.4,374.22,374.218,470.398,255.995,470.398 z"
    />
    <path
      style="fill: #ffd5a1"
      d="M255.996,417.275c-88.926,0-161.272-72.346-161.272-161.272c0-88.93,72.346-161.277,161.272-161.277 c77.977,0,144.704,55.595,158.662,132.192c1.267,6.955-3.342,13.62-10.298,14.888c-6.961,1.259-13.62-3.343-14.888-10.298 c-11.74-64.423-67.875-111.182-133.477-111.182c-74.81,0-135.672,60.865-135.672,135.677c0,74.81,60.862,135.672,135.672,135.672 c13.84,0,27.492-2.075,40.57-6.166c6.747-2.108,13.928,1.649,16.037,8.395c2.109,6.747-1.647,13.928-8.395,16.037 C288.654,414.807,272.432,417.275,255.996,417.275z"
    />
    <path
      style="fill: #ffd5a1"
      d="M347.92,385.413c-3.784,0-7.53-1.669-10.056-4.87c-4.38-5.55-3.432-13.599,2.117-17.977 c26.797-21.147,44.536-51.238,49.949-84.73c1.129-6.98,7.718-11.712,14.679-10.593c6.978,1.129,11.721,7.7,10.593,14.679 c-6.44,39.836-27.522,75.613-59.362,100.74C353.492,384.515,350.695,385.413,347.92,385.413z"
    />
  </g>
</svg>
