<svg
  xmlns:dc="http://purl.org/dc/elements/1.1/"
  xmlns:cc="http://creativecommons.org/ns#"
  xmlns:rdf="http://www.w3.org/1999/02/22-rdf-syntax-ns#"
  xmlns:svg="http://www.w3.org/2000/svg"
  xmlns="http://www.w3.org/2000/svg"
  width="800"
  height="561.75287"
  id="svg10408"
  version="1.1"
  aria-label="An drawing of Mount Everest on a blue background"
>
  <defs id="defs10410" />
  <g id="layer1" transform="translate(-537.42239,-165.57519)">
    <g
      transform="matrix(0.40201005,0,0,0.40201005,1647.5442,2852.2024)"
      id="g9181"
    >
      <path
        id="path9183"
        d="m -2761.428,-6682.9852 1990.00001,0 0,1397.3474 -1990.00001,0 z"
        style="fill: #317fc1; fill-opacity: 1; stroke: none"
      />
      <path
        style="fill: #6d86a4; fill-opacity: 1; stroke: none"
        d="m -2761.428,-5655.6378 94,-64 56,-24 30,-40 52,-22 18,-28 112,-64 64,-44 18,-4 20,-28 46,-12 16,-22 22,-6 6,-18 36,-8 14,8 24,-18 42,-8 44,-18 42,-12 24,-6 92,-56 10,-14 14,2 48,-16 12,-4 0,-16 64,-36 26,-22 14,-10 28,-36 34,-16 12,-22 46,-24 18,-16 c 0,0 58,20 66,24 8,4 62,20 62,20 l 6,14 38,6 14,18 30,-10 38,24 48,60 56,48 12,22 12,0 2,12 26,10 -4,8 18,22 28,32 40,26 0,16 76.00001,74 50,40 64,52 42,44 44,22 24,36 0,474 -1990.00001,0 z"
        id="path9185"
      />
      <path
        style="fill: #184f8c; fill-opacity: 1; stroke: none"
        d="m -1563.428,-6379.625 -18,16 -46,24 -12,22 -34,16 -28,36 -14,10 -26,22 -64,36 0,16 -12,4 -48,16 -14,-2 -10,14 -92,56 -24,6 -42,12 -44,18 -42,8 -24,18 -14,-8 -36,8 -6,18 -22,6 -16,22 -46,12 -20,28 -18,4 -64,44 -112,64 -18,28 -52,22 -30,40 -56,24 -94,64 0,64.25 c 19.663,1.1631 76,5.75 76,5.75 l 78,-24 119.8125,18 79.2188,-11.3125 154.125,-59.375 117.4062,-46.6875 57.9688,-16.9688 49.5,-33.9374 50.9062,-115.9688 26.875,-46.6562 72.125,-53.75 45.25,-35.3438 -12.7187,59.375 -7.0625,93.3438 91.9062,-124.4376 48.0938,-73.5312 28.2812,-38.1875 -41,5.6563 33.9375,-26.875 12.7188,-41.0313 -15.5625,-52.3125 35.375,-32.5312 28.2812,-33.9376 21.1875,-21.2187 31.125,-28.2813 0,-16.9687 12.7188,-18.375 6.1562,-17.7813 c -0.5519,-0.1907 -2.625,-0.9062 -2.625,-0.9062 z"
        id="path9187"
      />
      <path
        style="fill: #fffced; fill-opacity: 1; stroke: none"
        d="m -1560.1155,-6378.4688 -4,10.4376 -14.1562,15.5624 0,12.75 -9.875,8.4688 25.4375,-4.25 45.25,4.25 c 0,0 8.4834,-7.0625 16.9687,-7.0625 8.4853,0 43.8438,4.25 43.8438,4.25 l 24.0625,5.6563 0.1562,-0.2188 -3,-7 c 0,0 -54,-16 -62,-20 -7.2784,-3.6392 -53.9679,-19.8278 -62.6875,-22.8438 z"
        id="path9189"
      />
      <path
        style="fill: #ccd6d7; fill-opacity: 1; stroke: none"
        d="m -1653.2092,-6280.3438 c -7.0711,0 -35.375,7.0938 -35.375,7.0938 0,0 -3.7853,1.3045 -9.2188,2.9688 l -3.625,4.6562 -14,10 -26,22 -16.375,9.2188 11.25,7.7187 26.875,0 c 5.6569,0 22.625,-4.25 22.625,-4.25 l 21.2188,-28.2813 21.2187,-7.0624 24.0313,-19.8126 c 0,0 -15.554,-4.25 -22.625,-4.25 z"
        id="path9191"
      />
      <path
        style="fill: #ccd6d7; fill-opacity: 1; stroke: none"
        d="m -1709.7842,-6164.3696 -55.1543,11.3137 -45.2549,15.5563 c 0,0 -25.4558,-1.4142 -32.5269,0 -7.071,1.4142 -49.4974,12.7279 -49.4974,12.7279 l 55.1543,-9.8995 24.0416,7.0711 43.8406,-7.0711 -45.2548,14.1422 -26.8701,9.8995 57.9828,-7.0711 26.8701,-24.0416 33.9411,-2.8285 z"
        id="path9193"
      />
      <path
        style="fill: #ccd6d7; fill-opacity: 1; stroke: none"
        d="m -2286.7833,-5973.4508 c 5.6568,0 29.6985,-1.4142 38.1837,-4.2427 8.4853,-2.8284 25.4559,-14.1421 31.1127,-14.1421 5.6569,0 33.9412,1.4142 33.9412,1.4142 l 35.3553,-5.6568 53.7401,1.4142 -16.9706,18.3848 -5.6568,16.9705 -43.8406,25.4559 c 0,0 -35.3554,5.6568 -42.4264,11.3137 -7.0711,5.6568 -31.1127,14.1421 -31.1127,14.1421 0,0 5.6568,-19.799 11.3137,-22.6274 5.6568,-2.8284 46.669,-16.9706 50.9117,-22.6274 4.2426,-5.6569 22.6274,-22.6274 22.6274,-22.6274 l -53.7401,11.3137 c 0,0 -22.6274,21.2132 -28.2843,21.2132 -5.6569,0 -52.3259,0 -52.3259,0 l -22.6274,8.4853 39.598,-19.799 c 0,0 -39.598,2.8284 -32.527,0 7.0711,-2.8285 33.9412,-11.3137 33.9412,-11.3137 z"
        id="path9195"
      />
      <path
        style="fill: #ccd6d7; fill-opacity: 1; stroke: none"
        d="m -2503.158,-5803.7452 c 7.0711,-2.8284 25.4558,-9.8995 19.799,-14.1421 -5.6569,-4.2427 -28.2843,-2.8284 -12.7279,-8.4853 15.5563,-5.6569 49.4974,-22.6274 49.4974,-22.6274 l 8.4853,2.8284 c 0,0 5.6569,11.3137 31.1127,9.8995 25.4559,-1.4142 77.7818,-4.2426 77.7818,-4.2426 l -53.7402,16.9705 c 0,0 60.8112,-2.8284 45.2549,0 -15.5564,2.8285 -63.6396,5.6569 -63.6396,5.6569 l -50.9117,7.071 c 0,0 -56.5686,8.4853 -31.1127,9.8995 25.4558,1.4143 -11.3137,5.6569 -11.3137,5.6569 l -25.4559,-1.4142 z"
        id="path9197"
      />
      <path
        style="fill: #ccd6d7; fill-opacity: 1; stroke: none"
        d="m -2262.7417,-5878.6985 -48.0833,19.799 -14.1421,22.6274 72.1249,-5.6568 21.2132,-16.9706 41.0122,-21.2132 c 0,0 -46.6691,15.5563 -18.3848,-4.2427 28.2843,-19.7989 36.7696,-29.6984 36.7696,-29.6984 l -56.5686,16.9705 -2.8284,19.799 -28.2843,5.6569 z"
        id="path9199"
      />
      <path
        style="fill: #ccd6d7; fill-opacity: 1; stroke: none"
        d="m -2091.6219,-5912.6396 -35.3553,38.1837 c 0,0 -55.1543,7.0711 -48.0833,7.0711 7.0711,0 31.1127,2.8284 31.1127,2.8284 0,0 -56.5685,26.8701 -43.8406,26.8701 12.7279,0 60.8112,-5.6569 67.8823,-7.0711 7.071,-1.4142 41.0122,-4.2426 41.0122,-4.2426 l -56.5686,36.7695 -106.066,41.0122 43.8406,-45.2548 -42.4264,28.2843 c 0,0 -59.397,12.7279 -50.9117,11.3137 8.4853,-1.4142 48.0833,-33.9412 48.0833,-33.9412 l -45.2548,8.4853 -55.1544,22.6274 -63.6396,18.3848 -55.1543,21.2132 -106.066,19.799 -8.4853,-18.3848 -19.799,18.3848 c 0,0 -53.7401,32.5269 -39.598,32.5269 14.1422,0 43.8406,-1.4142 53.7401,-1.4142 9.8995,0 42.4264,0 42.4264,0 0,0 -41.0122,4.2427 -48.0832,4.2427 -7.0711,0 -74.9533,8.4852 -74.9533,8.4852 l -41.0122,46.6691 73.5391,-22.6274 c 0,0 4.2426,5.6568 29.6985,5.6568 25.4558,0 97.5807,-21.2132 106.066,-22.6274 8.4853,-1.4142 -35.3554,15.5564 -26.8701,15.5564 8.4853,0 53.7401,-11.3138 63.6396,-15.5564 9.8995,-4.2426 74.9533,-31.1127 74.9533,-31.1127 l 83.4386,-65.0538 -67.8822,65.0538 c 0,0 -29.6985,24.0416 -22.6274,24.0416 7.071,0 110.3086,-15.5563 110.3086,-15.5563 0,0 -72.1249,25.4558 -49.4974,22.6274 22.6274,-2.8284 53.7401,-16.9706 60.8111,-22.6274 7.0711,-5.6569 86.2671,-38.1838 86.2671,-38.1838 0,0 -73.5391,16.9706 -42.4264,4.2427 31.1127,-12.728 50.9117,-31.1127 56.5685,-35.3554 5.6569,-4.2426 67.8823,-50.9117 67.8823,-50.9117 0,0 -15.5564,25.4559 -8.4853,22.6275 7.071,-2.8285 36.7695,-36.7696 36.7695,-36.7696 l 35.3554,-38.1838 c 0,0 8.4852,1.4142 16.9705,-7.071 8.4853,-8.4853 52.3259,-52.3259 52.3259,-52.3259 l 15.5564,-24.0417 -57.9828,45.2549 -52.3259,42.4264 35.3554,-38.1838 -46.6691,14.1421 c 0,0 -50.9117,11.3138 -45.2548,7.0711 5.6568,-4.2426 26.87,-35.3553 26.87,-35.3553 z"
        id="path9201"
      />
      <path
        style="fill: #fffced; fill-opacity: 1; stroke: none"
        d="m -1877.428,-5803.625 15,27 37,54 24,61 -34,-29 -38,-44 49,58 -2,56 -21,26 26,84 -21,-35 -16,-46 -20,-28 -7,-49 5,-32 -10,-17 -6,15 -4,53 c 0,0 -19,-64 -23,-66 -4,-2 -12,40 -12,40 l -18,-52 -4,51 1,78 -31,-43 -22,-49 2,48 -20.5625,-31 35.375,125.8438 c 0,0 -21.2335,-24.0454 -29.7187,-38.1876 -8.4853,-14.1421 -18.3744,-49.4754 -24.0313,-59.375 -5.6569,-9.8995 -9.9062,59.375 -9.9062,59.375 0,0 -24.0227,-38.1715 -31.0938,-41 -7.0711,-2.8284 11.3125,65.0626 11.3125,65.0626 l -28.2812,-33.9376 c 0,0 8.4767,65.0307 7.0625,70.6876 -1.4143,5.6567 -32.5313,-35.3438 -32.5313,-35.3438 l 9.9063,50.9062 c 0,0 -5.679,-7.0613 -12.75,-18.375 -7.0711,-11.3137 -29.6943,-24.0386 -39.5938,-28.2812 -9.8995,-4.2426 -31.0931,-15.5545 -36.75,-16.9688 -5.6568,-1.4141 16.9688,-31.125 16.9688,-31.125 l -8.5,-29.6874 -32.5313,-35.375 24.0625,-8.4688 62.2188,-24.0312 63.625,-19.8126 39.5937,-24.0312 -15.5312,4.2188 -32.5313,-4.2188 -42.4375,38.1562 -24.0312,-5.6562 -28.2813,19.8125 -4.25,-4.25 -33.9375,16.9687 -21.2187,7.0938 c 0,0 -42.4369,24.0233 -48.0938,25.4375 -5.6568,1.4142 -57.9835,11.3198 -66.4687,15.5625 -8.4853,4.2426 -31.1085,12.7341 -39.5938,15.5625 -8.4853,2.8284 -26.8652,8.492 -45.25,9.9063 -18.3848,1.4142 -24.0312,-4.25 -24.0312,-4.25 l -28.2813,-8.5 -56.5937,-7.0626 -48.0625,-1.4062 -52.3438,22.625 -12.7187,18.375 -21.2188,-12.7188 -11.3125,4.25 -21.2187,-11.3124 -14.125,9.875 -4.25,-16.9688 c 0,0 -12.7436,-16.7515 -22.0938,-25.0938 l 0,37.625 0.875,0.2188 32.5313,26.8438 35.3437,80.625 7.0938,59.4062 22.625,31.0938 4.25,73.5624 51.4062,44.3438 11.7813,0 -19.3438,-38.6875 70.7188,38.6875 155.8437,0 c -0.062,-0.1 -0.3125,-0.5312 -0.3125,-0.5312 l -26.875,-22.625 -15.5312,-38.1876 -45.2813,-25.4374 -9.875,-29.6876 -43.8437,-17 -32.5313,-56.5624 c 0,0 -42.4363,-46.671 -53.75,-55.1563 -11.3137,-8.4852 31.125,0 31.125,0 l -14.1562,-42.4063 31.125,28.2813 41,5.6563 9.9062,-26.875 8.5,21.2187 11.3125,-11.3125 -2.8437,-22.625 21.2187,11.3125 c 0,0 33.9528,55.1397 36.7813,63.625 2.8284,8.4853 25.4375,32.5313 25.4375,32.5313 l 8.5,33.9374 c 0,0 41.0147,67.8978 49.5,74.9688 8.4852,7.0711 31.0937,45.25 31.0937,45.25 l 15.1875,31.625 145.8125,0 44.0625,-27.375 43.8438,-22.625 -18.375,1.4062 29.6875,-19.8124 33.9375,-33.9376 -14.125,-2.8124 14.125,-29.7188 50.9062,-22.625 c 0,0 18.3903,28.3039 21.2188,35.375 2.8284,7.0711 46.6875,28.2812 46.6875,28.2812 l 12.7187,59.375 c 0,0 22.8686,27.9535 30.0625,34.4688 l 212.0938,0 12.4062,-7.5938 -5.6562,-50.9062 24.0312,-4.25 18.375,-21.2188 26.875,-8.4687 24.0625,-8.5 28.2813,4.25 43.8437,-4.25 41.0259,-1.4671 -36.8555,-144.4482 -16.3432,68.7351 -30.5147,-153.8823 -33,-50 -11,28 -27,-18 -11,-21 -9,-4 c 0,0 -14,27 -17,35 -3,8 -13,12 -18,11 -5,-1 -9,29 -9,29 l -2,59 -30,-10 c 0,0 -23,-25 -28,-36 -5,-11 -31,-51 -31,-51 l -21,-43 14,-5 -38,-77 -5,-10 -2,25 6,33 -16,-5 -14,-17 c 0,0 -18,-33 -24,-38 -6,-5 -21,-21 -21,-21 z"
        id="path9203"
      />
      <path
        style="fill: #fffced; fill-opacity: 1; stroke: none"
        d="m -1469.3679,-6220.9382 c -14.1421,2.8284 -190.9188,48.0833 -181.0193,46.6691 9.8995,-1.4143 123.0366,-22.6275 111.7228,-19.799 -11.3137,2.8284 -83.4386,18.3847 -57.9827,18.3847 25.4558,0 79.1959,-9.8994 87.6812,-11.3137 8.4853,-1.4142 29.6985,-1.4142 29.6985,-1.4142 l -86.267,16.9706 c 0,0 -104.6518,35.3553 -94.7523,35.3553 9.8995,0 117.3797,-16.9705 117.3797,-16.9705 l 86.267,-25.4559 15.5564,5.6569 -90.5097,33.9411 -62.2254,12.7279 -8.4853,25.4559 22.6274,4.2426 25.4559,-16.9706 28.2843,5.6569 c 0,0 14.1421,-11.3137 25.4558,-12.7279 11.3137,-1.4142 39.598,-9.8995 52.3259,-9.8995 12.7279,0 42.4264,-5.6569 42.4264,-5.6569 l 42.4264,-18.3847 -14.1421,-19.799 -26.8701,1.4142 c 0,0 12.728,-25.4559 -2.8284,-24.0417 -15.5563,1.4143 -32.5269,9.8995 -32.5269,2.8285 0,-7.0711 12.7279,-24.0417 -1.4142,-22.6274 -14.1422,1.4142 -28.2843,-4.2427 -28.2843,-4.2427 z"
        id="path9205"
      />
      <path
        style="fill: #fffced; fill-opacity: 1; stroke: none"
        d="m -1228.9516,-6007.3919 c 0,0 -21.2132,15.5563 -24.0416,22.6274 -2.8284,7.071 -8.4853,25.4558 -8.4853,25.4558 l -50.9117,19.799 -1.4142,25.4559 -50.9117,21.2132 -19.799,15.5563 -45.2548,0 -52.3259,-35.3553 -24.0416,5.6568 63.6396,67.8823 57.9827,101.8234 21.2132,87.6812 -22.6274,16.9706 -18.3848,22.6274 -41.0122,11.3137 35.3554,25.4558 53.7401,74.9533 25.4558,-46.669 59.397,-28.2843 38.1838,-42.4264 -49.4975,-33.9411 -38.1838,-89.0955 41.0122,-32.5269 24.0417,-31.1127 -9.8995,-70.7106 36.7695,-35.3554 c 0,0 25.4559,-5.6568 39.598,-7.0711 14.1421,-1.4142 57.9827,9.8995 56.5685,4.2427 -1.4142,-5.6569 -5.6568,-24.0416 -26.87,-24.0416 -21.2132,0 -45.2549,8.4852 -46.6691,-1.4143 -1.4142,-9.8995 -1.4142,-21.2132 -1.4142,-21.2132 l 76.3675,-12.7279 c 0,0 1.4143,-16.9705 -19.7989,-16.9705 -21.2132,0 -48.0833,2.8284 -41.0122,-5.6569 7.071,-8.4853 43.8406,-39.598 43.8406,-39.598 z"
        id="path9207"
      />
    </g>
  </g>
</svg>
