<svg
  class="Paper-Airplane"
  xmlns="http://www.w3.org/2000/svg"
  viewBox="0 0 467.93 235.25"
  version="1.1"
  aria-label="A line drawing of a paper airplane"
>
  <g transform="translate(-69.23 -475.12)">
    <path
      d="m537.14 475.22c0.37512 0.50015-7.6392 7.2559-22.677 19.154-15.037 11.898-37.099 28.938-64.765 50.011s-60.938 46.178-98.338 74.211c-37.401 28.032-78.93 58.992-123.06 91.777-0.00001 0.00001-0.00002 0.00001-0.00003 0.00002-16.502-16.86-33.415-34.163-50.624-51.782-9.7535-9.9855-19.407-19.872-28.94-29.636 0.00002 0 0.00003-0.00001 0.00004-0.00001 54.152-22.166 105.46-43.106 151.97-61.942 46.506-18.836 88.208-35.568 123.16-49.395 34.951-13.826 63.152-24.748 82.671-32.042 19.52-7.2942 30.358-10.962 30.601-10.356 0.24262 0.60655-10.13 5.423-29.179 13.556s-46.773 19.582-81.247 33.526c-34.475 13.944-75.7 30.383-121.77 48.576-46.067 18.193-96.977 38.142-150.84 59.179-0.00001 0.00001-0.00002 0.00001-0.00003 0.00002 8.9661 8.7347 18.035 17.57 27.193 26.496 16.159 15.75 32.026 31.226 47.528 46.371 0.00001-0.00001 0.00002-0.00001 0.00003-0.00002 43.203-32.712 83.909-63.429 120.74-91.07s69.786-52.206 97.43-72.616 49.978-36.666 65.507-47.693 24.254-16.826 24.629-16.326z"
    />
    <path
      d="m535.71 475.22c0.16084 0.61674-10.972 4.1483-31.467 10.031-20.495 5.8829-50.351 14.117-87.593 24.153s-81.87 21.875-131.86 34.983c-49.989 13.108-105.34 27.486-163.98 42.617-0.00001 0.00001-0.00002 0.00001-0.00003 0.00001-12.44-16.83-25.122-34.01-37.98-51.44-4.558-6.18-9.092-12.32-13.6-18.43 128.05-12.18 243.51-23 327.46-30.55 83.948-7.5493 136.39-11.831 139.02-11.412 0.005 0.0508 0.005 0.0509 0.005 0.0509s0.00001 0.00009 0.005 0.0509c-2.5134 0.89431-54.727 6.2729-137.89 14.149-83.164 7.8764-197.28 18.25-324.2 29.608 4.3606 5.2553 8.7448 10.539 13.151 15.85 12.429 14.981 24.674 29.748 36.695 44.273 0.00002-0.00001 0.00003-0.00001 0.00004-0.00001 57.873-15.256 112.48-29.553 161.88-42.366 49.402-12.813 93.602-24.14 130.62-33.472 37.022-9.3315 66.865-16.667 87.504-21.512 20.639-4.8446 32.074-7.1986 32.235-6.5818z"
    />
    <path
      d="m124.29 580.93c0.66648 0.1786 0.59133 2.9759-0.21125 7.8272-0.80258 4.8512-2.3334 11.756-4.504 20.191-2.1705 8.4347-4.9808 18.399-8.2615 29.416-3.2807 11.016-7.031 23.085-11.007 35.768-1.6034 5.1144-3.1817 10.135-4.7166 15.034h0.000005c7.2936-8.7132 14.184-16.865 20.507-24.131 6.323-7.2659 12.079-13.645 17.035-18.852 4.9553-5.207 9.1094-9.2416 12.155-11.859 3.0453-2.6172 4.9812-3.8174 5.4333-3.3925 0.45212 0.42489-0.62749 2.4334-3.0925 5.6798s-6.3162 7.7302-11.341 13.143c-5.0244 5.4124-11.222 11.753-18.307 18.755-7.0851 7.0016-15.057 14.664-23.559 22.759-0.000002 0-0.000004 0.00001-0.000005 0.00001 1.1424-5.0927 2.3125-10.328 3.5107-15.668 2.9712-13.243 5.8412-25.879 8.5829-37.337s5.3561-21.736 7.7417-30.303c2.3856-8.5675 4.5424-15.424 6.2885-20.084 1.7461-4.6596 3.0806-7.1226 3.7471-6.944z"
    />
    <path
      d="m94.843 690.68c-0.59913-0.93389 17.858-9.5921 41.2-19.326 23.341-9.7342 42.771-16.877 43.37-15.943 0.59913 0.9339-17.858 9.5921-41.2 19.326-23.341 9.7342-42.771 16.877-43.37 15.943z"
    />
  </g>
</svg>
