<?xml version="1.0" encoding="UTF-8" standalone="no"?>
<svg
  xmlns="http://www.w3.org/2000/svg"
  id="svg1"
  viewBox="0 0 60 60"
  version="1.0"
  y="0"
  x="0"
>
  <path
    id="path1711"
    style="
      stroke-linejoin: round;
      color: #000000;
      stroke-linecap: round;
      stroke-width: 7.127;
      fill: none;
    "
    transform="matrix(-3.5598e-7 -1.14 1.14 -3.5598e-7 6.2813 21.218)"
    d="m14.5 20.805c0 12.256-9.9471 22.203-22.203 22.203s-22.203-9.947-22.203-22.203 9.947-22.202 22.203-22.202c12.256-0.0004 22.203 9.9465 22.203 22.202z"
  />
  <path
    id="path1710"
    style="
      stroke-linejoin: round;
      fill-rule: evenodd;
      color: #000000;
      stroke: #000000;
      stroke-linecap: round;
      stroke-width: 2.7412;
      fill: transparent;
    "
    transform="matrix(-3.5598e-7 -1.14 1.14 -3.5598e-7 6.2813 21.218)"
    d="m14.5 20.805c0 12.256-9.9471 22.203-22.203 22.203s-22.203-9.947-22.203-22.203 9.947-22.202 22.203-22.202c12.256-0.0004 22.203 9.9465 22.203 22.202z"
  />
  <path
    id="rect1091"
    style="
      stroke-linejoin: round;
      fill-rule: evenodd;
      color: #000000;
      stroke: #000000;
      stroke-linecap: round;
      stroke-width: 5;
      fill: #000000;
    "
    transform="matrix(1.0878e-16 -1 1 5.6683e-17 0 0)"
    d="m-43.631 34.599h27.228c1.115 0 2.013 0.567 2.013 1.27v5.983c0 0.704-0.898 1.271-2.013 1.271h-27.228c-1.116 0-2.014-0.567-2.014-1.271v-5.983c0-0.703 0.898-1.27 2.014-1.27z"
  />
  <path
    id="rect4296"
    style="
      stroke-linejoin: round;
      fill-rule: evenodd;
      color: #000000;
      stroke: #000000;
      stroke-linecap: round;
      stroke-width: 5;
      fill: #000000;
    "
    transform="matrix(1.0878e-16 -1 1 5.6683e-17 0 0)"
    d="m-43.631 16.877h27.228c1.115 0 2.013 0.567 2.013 1.271v5.983c0 0.704-0.898 1.27-2.013 1.27h-27.228c-1.116 0-2.014-0.566-2.014-1.27v-5.983c0-0.704 0.898-1.271 2.014-1.271z"
  />
</svg>
