<svg
  xmlns:rdf="http://www.w3.org/1999/02/22-rdf-syntax-ns#"
  xmlns="http://www.w3.org/2000/svg"
  xmlns:xlink="http://www.w3.org/1999/xlink"
  xmlns:ns1="http://sozi.baierouge.fr"
  xmlns:cc="http://creativecommons.org/ns#"
  xmlns:dc="http://purl.org/dc/elements/1.1/"
  id="svg2"
  xml:space="preserve"
  viewBox="0 0 64.201 29.692"
  version="1.1"
  aria-label="A small ground bush"
>
  <g id="g10" transform="matrix(1.25 0 0 -1.25 0 29.692)">
    <g id="g12">
      <path
        id="path14"
        style="fill-rule: evenodd; fill: #414428"
        d="m4.68 2.792 0.879-0.039c0.988 0 1.8 0.215 2.441 0.641 0.719 0.48 1.094 1.199 1.121 2.16 0.16-0.64 0.598-0.949 1.32-0.922 0.293 0 0.891 0.133 1.797 0.403l0.403 0.359c0.105 0.027 0.238-0.016 0.398-0.121 0.723 0.16 1.773 0.148 3.16-0.039-0.265-0.242-0.48-0.602-0.64-1.082-0.211-0.531-0.239-0.934-0.079-1.199 0.215-0.348 0.84-0.508 1.879-0.481s1.614 0.254 1.719 0.68c-0.051-0.559-0.051-0.934 0-1.117 0.777-0.11 1.363-0.055 1.762 0.16 0.105 0.078 0.32 0.281 0.64 0.597 0.215 0.082 0.747 0.122 1.598 0.122 0.723 0.05 1.055 0.347 1 0.878 0.188 0.055 0.469 0.133 0.844 0.243 0.293 0.105 0.476 0.293 0.558 0.558 1.84-0.426 3.161-0.293 3.961 0.399-0.132-0.957 0.52-1.411 1.957-1.36 1.442 0.055 2.137 0.469 2.082 1.242 0.133 0.051 0.532 0.067 1.2 0.04 0.695-0.028 1.199-0.012 1.519 0.039 0.668 0.136 0.949 0.453 0.84 0.961v0.039c0.27 0.16 0.684 0.203 1.242 0.121 0.664-0.106 1.094-0.133 1.281-0.082 0.477 0.109 0.774 0.386 0.879 0.839 0.051 0.243 0.051 0.711 0 1.403 0.426-2.106 1.133-2.852 2.121-2.242 0.079 0.054 0.145 0.16 0.2 0.32 0.05 0.16 0.144 0.269 0.277 0.32 0.375-0.027 0.629 0 0.762 0.082l0.078 0.84c0.242 0.027 0.629 0.051 1.16 0.078 0.484 0.055 0.856 0.176 1.121 0.36 0.215 0.136 0.375 0.32 0.481 0.562 0.082-0.215 0.148-0.336 0.199-0.359 0.109-0.133 0.281-0.215 0.519-0.242-0.05-0.266 0.028-0.747 0.243-1.438 1.519 0 2.32-0.668 2.398-2 0.32 0 0.773-0.16 1.359-0.484-0.398-0.426-1.023-0.559-1.879-0.399-1.226 0.215-1.906 0.321-2.039 0.321-0.293-0.055-1-0.321-2.121-0.801-0.828-0.371-1.574-0.465-2.242-0.278 0.055 0.184 0.043 0.438-0.039 0.758-0.105 0.453-0.16 0.692-0.16 0.719-0.078 0-0.746 0.254-2 0.762-0.746 0.316-1.211-0.039-1.399-1.082-0.082 0.054-0.281 0.148-0.601 0.281-0.293 0.105-0.504 0.227-0.641 0.359-0.238-0.132-0.398-0.332-0.476-0.597-0.59 0.371-1.336 0.183-2.242-0.563-0.879-0.746-1.668-0.851-2.36-0.32-0.215-0.692-1.082-1.027-2.601-1-1.118 0.027-2.172 0.187-3.161 0.48-0.21-0.507-0.558-0.84-1.039-1-0.48-0.183-0.945-0.117-1.398 0.203-0.563-0.589-1.613-1.082-3.16-1.484-1.469-0.371-2.641-0.476-3.52-0.316 0.024 0.156 0.012 0.398-0.043 0.718-0.05 0.348-0.066 0.586-0.039 0.719-0.48-0.398-1-0.64-1.558-0.719-0.614-0.105-1.161 0.012-1.641 0.36l0.078 0.32c0.027 0.16 0.094 0.305 0.203 0.442l0.039 0.078c0.106 0.132 0.239 0.265 0.399 0.398-0.266-0.023-0.504-0.023-0.719 0-0.105 0.027-0.215 0.055-0.32 0.082 0.054 0.266 0 0.492-0.16 0.68-1.122 0.215-2.442 0.109-3.961-0.321-1.68-0.585-2.946-0.957-3.797-1.117l-0.403-0.082-1.679 1.082v0.078z"
      />
      <path
        id="path16"
        style="fill-rule: evenodd; fill: #6d7247"
        d="m5.199 9.152c0.215-0.293 0.36-0.719 0.442-1.278 0-0.027 0.011-0.066 0.039-0.121h-0.039c-0.321 0.215-0.563 0.399-0.719 0.559l-0.16 0.242c-0.11 0.211-0.043 0.371 0.199 0.481v0.039c0.051 0.027 0.133 0.054 0.238 0.078zm31.84-3.238c0.109-0.508-0.172-0.829-0.84-0.961-1.547 0.027-2.586 0.773-3.121 2.242 0.027-0.27-0.039-0.535-0.199-0.801-0.184-0.293-0.414-0.441-0.68-0.441-0.531 0.027-0.707 0.574-0.519 1.64-0.719-0.719-1.586-0.961-2.602-0.719-0.051 0.133 0.043 0.504 0.281 1.118-0.214-0.239-0.507-0.278-0.879-0.118l-0.16 1.399c0 0.082 0.078 0.32 0.239 0.719 0.109 0.293 0.121 0.562 0.043 0.8l-0.321 0.039c0 0.801-0.093 1.415-0.281 1.84-0.375 0.696-0.613 1.254-0.719 1.68l-0.082-1.879c0-0.183-0.066-0.68-0.199-1.48-0.105-0.664-0.148-1.145-0.121-1.438 0.027-0.133 0.121-0.48 0.281-1.039 0.106-0.402 0.133-0.75 0.082-1.043-0.269-0.105-0.519-0.078-0.762 0.082-0.05-0.32-0.066-0.812-0.039-1.48-0.132-0.055-0.453-0.082-0.961-0.082-0.027-0.293-0.066-0.68-0.121-1.161-0.105-0.371-0.386-0.585-0.839-0.64-0.614-0.106-1.118 0.07-1.52 0.523-0.344 0.344-0.531 0.746-0.559 1.2-0.054-0.375-0.242-0.696-0.562-0.961-0.453-0.321-0.934-0.426-1.438-0.321 0.215 0.774 0.282 1.36 0.2 1.762-0.399-0.293-0.946-0.496-1.641-0.602-0.641-0.078-1.227-0.066-1.758 0.039 0.238 0.508 0.371 0.895 0.399 1.161-0.774-0.348-1.332-0.52-1.68-0.52-0.481 0.027-0.84 0.375-1.082 1.043-0.477-0.508-1.067-0.816-1.758-0.922-0.773-0.078-1.121 0.309-1.039 1.16-0.082-0.398-0.535-0.839-1.359-1.32-0.828-0.508-1.43-0.668-1.801-0.48-0.242 0.132-0.387 0.253-0.442 0.359-0.027 0.082-0.054 0.293-0.078 0.641-0.269-0.211-0.523-0.399-0.761-0.559-0.293 0.32-0.586 0.773-0.879 1.359l-0.121 0.282 0.16 0.359c-0.082-0.082-0.16-0.148-0.242-0.199l-1.079 2.238c-0.027 0.027-0.039 0.055-0.039 0.082-0.027 0.184-0.015 0.383 0.039 0.598 0.079 0 0.305 0.039 0.68 0.121 0.32 0.078 0.574 0.094 0.762 0.039 0 0.719 0.144 1.215 0.437 1.48l0.039-0.039c0.321-0.187 0.868-0.254 1.641-0.199 0.453 0.024 1.055 0.066 1.801 0.117 0-0.023-0.254-0.398-0.762-1.117-0.344-0.508-0.492-0.922-0.437-1.242 0.293-0.133 0.613-0.133 0.961 0 0.023-0.16 0.039-0.426 0.039-0.801 0.054-0.32 0.187-0.531 0.398-0.641 0.348-0.156 0.641-0.05 0.883 0.321 0.238 0.48 0.41 0.801 0.519 0.961 0.161-0.215 0.348-0.508 0.559-0.883 0.215-0.266 0.547-0.356 1-0.277 0.48 0.078 0.812 0.359 1 0.839 0.133 0.614 0.238 1.082 0.32 1.399 0.055-0.184 0.106-0.438 0.16-0.758 0.079-0.215 0.239-0.375 0.481-0.48 0.48-0.188 0.945 0.011 1.398 0.597 0.426 0.723 0.735 1.176 0.922 1.364 0.078-0.297 0.172-0.829 0.278-1.602 0.214-0.641 0.586-0.934 1.121-0.883 0.347 0.027 0.586 0.231 0.718 0.602 0.188 0.453 0.336 0.718 0.442 0.8 0.32 0.215 0.785 0.254 1.398 0.122 0.961-0.215 1.457-0.321 1.481-0.321 1.015-0.082 1.668 0.039 1.961 0.36 0.16 0.238 0.281 0.839 0.359 1.8 0.082 0.774 0.242 1.637 0.481 2.598l0.039 0.524 0.48 0.359c-0.027-0.133-0.027-0.281 0-0.442l-0.598-1c0.211 0.137 0.559 0.27 1.039 0.403 0.532 0.133 0.879 0.238 1.04 0.32 0.109 0.055 0.214 0.094 0.32 0.121-0.051-0.375-0.028-0.656 0.082-0.844 0.613 0.083 0.945-0.105 1-0.558 0.078-0.906 0.133-1.375 0.156-1.399 0.16-0.347 0.402-0.574 0.723-0.679 0.347-0.082 0.625 0.051 0.84 0.398 0.132-0.398 0.453-0.719 0.961-0.961 0.398-0.183 1.144-0.304 2.238-0.359 1.226-0.078 1.949 0.043 2.16 0.359 0.188 0.266 0.188 0.801 0 1.602-0.133 0.613-0.309 1.144-0.52 1.597 0.348 0 0.84-0.117 1.481-0.359l0.437-0.758c-0.343 0.028-0.597 0.067-0.757 0.117 0.082-0.503 0.332-1.039 0.757-1.597 0.43-0.559 0.911-1.016 1.442-1.36-1.012 0.454-1.828 0.559-2.442 0.317-0.05-0.344 0.067-0.813 0.364-1.399 0.316-0.586 0.465-1.027 0.437-1.32-0.16 0.215-0.293 0.387-0.398 0.52-0.16 0.187-0.321 0.32-0.481 0.402-0.187-0.43-0.215-1.215-0.082-2.363-0.265 0.027-0.504 0.187-0.718 0.484 0.242-0.453 0.414-0.988 0.519-1.601zm-10.48 10.398v0.519c0.027 0.883 0.109 1.508 0.242 1.883 0.105-0.402 0.211-0.855 0.32-1.359 0-0.109 0.012-0.227 0.039-0.363-0.16-0.184-0.359-0.411-0.601-0.68zm1.961 1.441c-0.641-0.32-1.079-0.668-1.321-1.039-0.027 0.106-0.039 0.2-0.039 0.278 0.133 0.136 0.238 0.254 0.32 0.363 0.239 0.266 0.454 0.543 0.641 0.84 0.078-0.11 0.211-0.254 0.399-0.442zm14.242-3.679c-0.43-0.106-0.895-0.188-1.403-0.243 0.055 0.348-0.187 0.547-0.718 0.602-0.508 0.055-0.696-0.133-0.563-0.559-0.266 0.426-0.625 0.879-1.078 1.36-0.691 0.691-1.148 0.894-1.359 0.597-0.133-0.21-0.082-0.558 0.16-1.039-0.16 0.188-0.586 0.614-1.281 1.282-0.586 0.558-0.985 1.011-1.2 1.359-0.054 0.188-0.109 0.293-0.16 0.32-0.105 0.321-0.16 0.547-0.16 0.68 0.027 0.242 0.188 0.574 0.48 1 0.348-0.238 0.481-0.691 0.399-1.359 1.199-0.055 1.961-0.149 2.281-0.282 0.563-0.238 0.906-0.812 1.039-1.718 0.137 0.027 0.375 0.011 0.723-0.039 0.316-0.055 0.547-0.082 0.68-0.082 0-0.079 0.011-0.239 0.039-0.481 0.023-0.199 0.011-0.363-0.039-0.5 0.218 0.52 0.554 0.754 1 0.703 0.398-0.054 0.734-0.32 1-0.801 0.105-0.187 0.16-0.453 0.16-0.8zm-36.641-8.082h-0.043c0 0.027-0.012 0.054-0.039 0.082 0.027-0.028 0.055-0.055 0.082-0.082z"
      />
      <path
        id="path18"
        style="fill-rule: evenodd; fill: #848958"
        d="m15.32 1.992c0.078 0.109 0.188 0.226 0.321 0.363-0.188-0.027-0.403-0.016-0.641 0.039 0.215-0.027 0.453-0.027 0.719 0-0.16-0.133-0.293-0.266-0.399-0.402zm-8.961-0.36 0.403 0.082c-0.801-0.215-1.43-0.199-1.883 0.039 0.375-0.187 0.867-0.226 1.48-0.121zm-1.679 1.16v-0.078l-0.121-0.722 0.121 0.839v-0.039zm-1.282 0.68c0.028 0.027 0.055 0.043 0.082 0.043l0.04-0.043c0.093-0.047 0.179-0.078 0.261-0.098-0.078 0.016-0.152 0.036-0.222 0.059-0.051 0.027-0.106 0.039-0.161 0.039zm23.161 12.84c-0.024-0.027-0.051-0.051-0.079-0.078-0.375-0.375-0.585-0.641-0.64-0.801l0.719 0.481-0.039-0.52c-0.243-0.961-0.399-1.828-0.481-2.602-0.082-0.961-0.199-1.558-0.359-1.8-0.293-0.317-0.95-0.438-1.961-0.36-0.028 0-0.52 0.11-1.481 0.321-0.613 0.132-1.078 0.093-1.398-0.122-0.11-0.078-0.254-0.343-0.442-0.796-0.132-0.375-0.375-0.575-0.718-0.602-0.535-0.051-0.907 0.242-1.121 0.883-0.106 0.773-0.2 1.305-0.282 1.598-0.183-0.188-0.492-0.641-0.918-1.36-0.453-0.586-0.921-0.785-1.402-0.601-0.238 0.109-0.398 0.269-0.48 0.48-0.051 0.32-0.106 0.574-0.157 0.762-0.082-0.321-0.187-0.785-0.32-1.403-0.188-0.476-0.523-0.757-1-0.839-0.457-0.079-0.789 0.015-1 0.281-0.215 0.375-0.402 0.668-0.562 0.883-0.106-0.161-0.278-0.485-0.52-0.961-0.238-0.375-0.531-0.481-0.879-0.321-0.215 0.106-0.348 0.321-0.402 0.641 0 0.371-0.012 0.641-0.039 0.801-0.344-0.133-0.664-0.133-0.961 0-0.051 0.316 0.093 0.73 0.441 1.238 0.508 0.719 0.762 1.094 0.762 1.121-0.746-0.055-1.348-0.094-1.801-0.121-0.773-0.055-1.32 0.016-1.641 0.199 0.266 0.27 0.668 0.215 1.2-0.16 0.082 1.067 0.308 1.762 0.679 2.082 0.426 0.348 1.133 0.281 2.121-0.199 0.055 0.293 0.067 0.691 0.04 1.199 0 0.559 0.015 0.961 0.039 1.199 0.296-0.054 0.574-0.132 0.843-0.238-0.082-0.215-0.109-0.414-0.082-0.601 0.907 0 1.586 0.027 2.039 0.082-0.531-0.137-1.117-0.442-1.757-0.922-0.723-0.535-1.067-1.028-1.043-1.481 0.136 0.028 0.386-0.011 0.761-0.121 0-0.105-0.05-0.387-0.16-0.84-0.078-0.32-0.078-0.597 0-0.84 0.375-0.105 0.762-0.132 1.16-0.078 0.481 0.055 0.828 0.215 1.039 0.481-0.05-0.133-0.05-0.281 0-0.442 0.696-0.16 1.161 0.094 1.403 0.762-0.082-0.773-0.043-1.226 0.117-1.363 0.137-0.106 0.414-0.133 0.84-0.078 0.402 0.054 0.656 0.148 0.761 0.281 0.106 0.133 0.133 0.398 0.079 0.797-0.079 0.402-0.09 0.668-0.039 0.801 0.027 0.132 0.121 0.281 0.281 0.441 0.187 0.188 0.304 0.332 0.359 0.441v-0.64l0.32-0.082c-0.078-0.746 0.2-1.067 0.84-0.961 0.614 0.137 1 0.508 1.16 1.121 0.055-0.293 0.133-0.492 0.239-0.598 0.48 0.078 0.761 0.52 0.84 1.321 0.054 0.425 0.043 1.089-0.039 2 0.082-0.215 0.347-0.297 0.8-0.243 0.321 0.055 0.574 0.243 0.762 0.559 0.16 0.402 0.293 0.668 0.398 0.801 0.055-0.211 0.067-0.547 0.04-1 0-0.426 0.015-0.746 0.039-0.961 1.386-0.024 2.175 1.16 2.363 3.562 0.023-0.187 0.094-0.425 0.199-0.718v-1.442l0.199-0.199c0.055 0.344 0.016 0.812-0.117 1.398-0.027 0.082-0.055 0.161-0.082 0.243v1.074c0.027 0.562 0 1.066-0.082 1.523 0.082-0.054 0.148-0.121 0.203-0.203 0.16-0.16 0.375-0.746 0.641-1.758-0.133-0.375-0.215-1-0.242-1.883v-0.519zm-12.239 2.121-0.679-0.039-0.403-0.961-0.16-0.121c0 0.48 0.016 0.84 0.043 1.082l1.199 0.039zm10.961 2.481c0.024-0.161 0.067-0.348 0.117-0.559-0.105 0.023-0.238 0.051-0.398 0.078-0.348 0.027-0.602 0.121-0.762 0.281l-0.078 0.078c-0.215-0.132-0.32-0.343-0.32-0.64-0.028 0.508 0.281 0.773 0.922 0.801 0.183 0 0.359-0.012 0.519-0.039zm3.559-5.239c0.48 0.293 0.972 0.692 1.48 1.199 0.055 0.051 0.121 0.106 0.2 0.161 0.082-0.028 0.175-0.043 0.281-0.043 0.426-0.024 0.773 0.121 1.039 0.441h1.801-1.801c0.133 0.133 0.238 0.309 0.32 0.52 0.32 0.64 0.293 1.199-0.082 1.679h-0.238l-2.402-0.199c-0.317-0.398-0.372-0.84-0.161-1.32l-0.558-0.239c-0.078-0.027-0.145-0.066-0.199-0.121-0.188 0.188-0.321 0.332-0.399 0.442 0.078 0.133 0.145 0.265 0.199 0.398 0.266 0.535 0.559 1.399 0.879 2.602 0.028 0.16 0.067 0.32 0.121 0.48 0.266 0.051 0.559 0.024 0.879-0.082-0.027-0.187 0-0.519 0.082-1 0.907 0.321 1.664 0.375 2.281 0.16 0.719-0.265 1.04-0.867 0.958-1.8 0.507 0.613 1.054 0.828 1.64 0.64 0.133-0.027 0.238-0.078 0.32-0.16-0.292-0.426-0.453-0.758-0.48-1 0-0.133 0.051-0.359 0.16-0.68l-0.121 0.078-0.598-0.597-0.121-0.602h-0.281l0.281-0.117-0.082-0.441c0.481-0.321 0.828-0.16 1.043 0.48l0.16 0.078h-0.16c0.078 0.266 0.094 0.535 0.039 0.801 0.215-0.348 0.614-0.801 1.2-1.359 0.695-0.668 1.121-1.094 1.281-1.282l0.597-1.078-0.437 0.758c-0.641 0.242-1.133 0.359-1.481 0.359 0.211-0.453 0.387-0.984 0.52-1.597 0.188-0.801 0.188-1.336 0-1.602-0.215-0.316-0.934-0.437-2.16-0.359-1.094 0.055-1.84 0.176-2.242 0.359-0.504 0.242-0.825 0.563-0.957 0.961-0.215-0.347-0.496-0.48-0.84-0.398-0.321 0.105-0.563 0.332-0.723 0.679-0.023 0.024-0.078 0.493-0.156 1.399-0.055 0.453-0.387 0.641-1 0.558-0.11 0.188-0.137 0.469-0.082 0.844zm13.762-3.562c0.105 1.281 0.16 1.933 0.16 1.961 0 0.347-0.055 0.613-0.16 0.8 0.16-0.265 0.21-0.722 0.16-1.359-0.028-0.348-0.082-0.816-0.16-1.402zm4.757-4.16c-0.238 0.027-0.414 0.109-0.519 0.242-0.055 0.023-0.121 0.144-0.199 0.359 0.027-0.055 0.05-0.109 0.082-0.16 0.105-0.242 0.316-0.387 0.636-0.441zm-13.839 7.722c-0.055 0.586-0.079 0.973-0.079 1.156l-2.402-0.597c-0.16-0.508 0.082-0.988 0.723-1.442 0.636-0.453 1.144-0.503 1.515-0.16 0.188 0.16 0.27 0.508 0.243 1.043zm0.921-0.844 0.52-1.078c0.773 0.161 1.133 0.653 1.078 1.481l-1.598-0.403z"
      />
      <path
        id="path20"
        style="fill-rule: evenodd; fill: #939865"
        d="m13.078 17.312 0.16 0.121 0.403 0.961 1.359 0.078c0.105 0.508 0.133 0.856 0.078 1.043 1.707-1.387 2.496-2.551 2.363-3.48l1.2 2c0.105 0.64 0.464 1.117 1.078 1.437 0.64 0.348 1.109 0.176 1.402-0.519 0.586 0.722 1.067 1.253 1.438 1.601 0.746 0.641 1.175 0.504 1.281-0.402 0 0.297 0.105 0.508 0.32 0.64l0.078-0.078c0.16-0.16 0.414-0.254 0.762-0.281 0.16-0.027 0.293-0.055 0.398-0.078 0.082-0.375 0.188-0.774 0.321-1.203 0.027-0.106 0.066-0.227 0.121-0.36-0.188-2.398-0.973-3.586-2.36-3.558-0.027 0.215-0.042 0.531-0.042 0.961 0.027 0.453 0.015 0.785-0.04 1-0.105-0.137-0.238-0.403-0.398-0.801-0.188-0.32-0.441-0.508-0.762-0.563-0.453-0.05-0.718 0.028-0.8 0.243 0.082-0.907 0.093-1.575 0.042-2-0.082-0.801-0.359-1.243-0.839-1.321-0.11 0.106-0.188 0.305-0.243 0.602-0.16-0.613-0.546-0.988-1.16-1.121-0.64-0.106-0.918 0.215-0.84 0.961l-0.32 0.078v0.641c-0.051-0.106-0.172-0.254-0.359-0.442-0.16-0.16-0.254-0.305-0.281-0.437-0.051-0.137-0.04-0.403 0.042-0.801 0.051-0.403 0.024-0.668-0.082-0.801-0.105-0.133-0.359-0.227-0.757-0.281-0.43-0.051-0.707-0.024-0.84 0.082-0.16 0.133-0.203 0.586-0.121 1.359-0.242-0.668-0.707-0.918-1.403-0.762-0.05 0.161-0.05 0.309 0 0.442-0.211-0.266-0.558-0.426-1.039-0.481-0.398-0.05-0.785-0.027-1.16 0.082-0.078 0.239-0.078 0.52 0 0.84 0.11 0.453 0.16 0.735 0.16 0.84-0.371 0.106-0.625 0.145-0.758 0.121-0.027 0.453 0.321 0.946 1.04 1.477 0.64 0.48 1.226 0.789 1.757 0.922-0.453-0.055-1.132-0.082-2.039-0.082-0.027 0.187 0 0.386 0.082 0.601 0.239-0.133 0.465-0.293 0.68-0.48 0.027 0.133 0.039 0.535 0.039 1.199h0.039zm22.082 0.441c0.051-0.027 0.106-0.132 0.16-0.32 0.051-0.266 0.039-0.535-0.043-0.801h0.161l-0.157-0.078c-0.215-0.64-0.558-0.801-1.043-0.48l0.082 0.441-0.281 0.117h0.281l0.118 0.602 0.601 0.597 0.121-0.078zm-0.719-2.922 1.598 0.403c0.055-0.828-0.305-1.32-1.078-1.481l-0.52 1.078zm-0.921 0.844c0.027-0.535-0.055-0.883-0.243-1.043-0.371-0.347-0.879-0.293-1.515 0.16-0.641 0.454-0.883 0.934-0.723 1.442l2.402 0.597c0-0.183 0.024-0.57 0.079-1.156zm-3 1.36c0.425 0.425 0.64 0.652 0.64 0.679 0.348 0.426 0.481 0.774 0.399 1.039-0.797-0.105-1.559-0.32-2.282-0.64-0.211 0.48-0.156 0.922 0.164 1.32l2.399 0.199h0.238c0.375-0.48 0.402-1.039 0.082-1.679-0.082-0.211-0.187-0.387-0.32-0.52-0.266-0.32-0.613-0.465-1.039-0.441-0.11 0-0.199 0.015-0.281 0.043z"
      />
      <path
        id="path22"
        style="fill-rule: evenodd; fill: #585d3b"
        d="m4.879 1.753-0.32 0.239 0.121 0.722 1.679-1.082c-0.613-0.105-1.105-0.066-1.48 0.121zm-0.199 1.078c-0.239 0.215-0.52 0.387-0.84 0.524h-0.039l-0.02 0.019c-0.082 0.02-0.168 0.051-0.261 0.098l-0.04 0.043c-0.027 0-0.054-0.016-0.082-0.043-0.664-0.105-1.183-0.133-1.558-0.078 0.082 0.773 0.695 1.238 1.84 1.398 0.16 0.028 0.375 0.039 0.64 0.039 0 0.028 0.012 0.043 0.039 0.043 0.321 0.106 0.719 0.239 1.2 0.399-0.079 0.055-0.145 0.094-0.2 0.121-0.746 0.371-1.254 0.586-1.519 0.637-1.094 0.16-2.078-0.157-2.961-0.957-0.078 0.371 0.148 0.757 0.68 1.16 0.429 0.347 0.839 0.547 1.242 0.597 0.586 0.083 1.172 0 1.758-0.238 0.109-0.051 0.242-0.105 0.402-0.16 0.027 0.027 0.066 0.055 0.117 0.082 0.188 0.133 0.414 0.227 0.684 0.277h0.078c-0.051 0.27-0.106 0.575-0.16 0.922l-0.039 0.039h0.039c-0.028 0.055-0.039 0.094-0.039 0.121-0.082 0.559-0.227 0.985-0.442 1.278-0.16 0.187-0.344 0.336-0.558 0.441-0.536 0.238-1.336 0.254-2.403 0.039-0.984-0.187-1.73-0.465-2.238-0.84 2.48 2.403 4.293 2.973 5.441 1.723 0-0.027 0.012-0.055 0.039-0.082l1.079-2.242c0.082 0.055 0.16 0.121 0.242 0.203l-0.16-0.363 0.121-0.278c0.293-0.586 0.586-1.039 0.879-1.359 0.238 0.16 0.492 0.348 0.757 0.559 0.028-0.348 0.055-0.559 0.082-0.641 0.051-0.106 0.2-0.227 0.442-0.359 0.371-0.188 0.973-0.028 1.797 0.48 0.828 0.481 1.281 0.922 1.359 1.32-0.078-0.851 0.27-1.238 1.043-1.16 0.691 0.106 1.277 0.414 1.758 0.922 0.242-0.668 0.601-1.016 1.082-1.043 0.344 0 0.906 0.176 1.68 0.52-0.028-0.266-0.161-0.653-0.403-1.161 0.535-0.105 1.121-0.117 1.762-0.039 0.695 0.106 1.238 0.309 1.641 0.602 0.078-0.402 0.011-0.988-0.2-1.762 0.504-0.105 0.985 0 1.438 0.321 0.32 0.265 0.508 0.586 0.562 0.961 0.028-0.454 0.211-0.856 0.559-1.2 0.398-0.453 0.906-0.629 1.52-0.523 0.453 0.055 0.734 0.269 0.839 0.64 0.055 0.481 0.094 0.868 0.121 1.161 0.508 0 0.829 0.027 0.961 0.082-0.027 0.668-0.015 1.16 0.039 1.48 0.243-0.16 0.493-0.187 0.758-0.082 0.055 0.293 0.028 0.641-0.078 1.043-0.16 0.559-0.254 0.906-0.281 1.039-0.027 0.293 0.016 0.774 0.121 1.438 0.133 0.8 0.199 1.297 0.199 1.48l0.078 1.883c0.11-0.43 0.348-0.988 0.723-1.68 0.188-0.429 0.277-1.043 0.277-1.844l0.321-0.039c0.082-0.238 0.066-0.503-0.039-0.8-0.161-0.399-0.239-0.637-0.239-0.719l0.157-1.399c0.375-0.16 0.668-0.121 0.882 0.118-0.238-0.614-0.332-0.985-0.281-1.118 1.016-0.242 1.883 0 2.602 0.719-0.188-1.066-0.016-1.613 0.519-1.64 0.266 0 0.492 0.148 0.68 0.441 0.16 0.266 0.226 0.531 0.199 0.801 0.535-1.469 1.574-2.215 3.121-2.242-0.32-0.051-0.828-0.067-1.519-0.039-0.668 0.027-1.067 0.011-1.203-0.04 0.054-0.773-0.637-1.187-2.079-1.242-1.441-0.051-2.093 0.399-1.96 1.36-0.801-0.692-2.118-0.825-3.961-0.399-0.079-0.265-0.266-0.453-0.559-0.562-0.375-0.106-0.652-0.184-0.84-0.239 0.055-0.531-0.281-0.828-1-0.878-0.851 0-1.387-0.04-1.601-0.122-0.317-0.32-0.532-0.519-0.637-0.601-0.402-0.211-0.988-0.266-1.762-0.16-0.055 0.187-0.055 0.562 0 1.121-0.105-0.426-0.68-0.653-1.719-0.68s-1.668 0.133-1.882 0.481c-0.157 0.265-0.133 0.668 0.082 1.199 0.16 0.48 0.371 0.84 0.64 1.082-1.387 0.183-2.441 0.199-3.16 0.039-0.16 0.105-0.293 0.148-0.402 0.121l-0.399-0.363c-0.906-0.266-1.508-0.399-1.8-0.399-0.719-0.027-1.161 0.282-1.321 0.922-0.023-0.961-0.398-1.68-1.117-2.16-0.641-0.43-1.457-0.641-2.441-0.641l-0.879 0.039v0.039zm20.718 17.524c-0.05 0.211-0.093 0.398-0.117 0.559-0.16 0.8-0.242 1.492-0.242 2.078 0.402-0.664 0.668-1.266 0.801-1.797 0.055-0.16 0.094-0.336 0.121-0.52 0.078-0.453 0.105-0.961 0.078-1.523v-1.078c0.027-0.082 0.055-0.16 0.082-0.243 0.133-0.585 0.172-1.05 0.117-1.398l-0.199 0.199v1.442c-0.105 0.293-0.172 0.535-0.199 0.718-0.051 0.133-0.094 0.254-0.117 0.36-0.137 0.429-0.243 0.828-0.325 1.203zm2.723-2.16c-0.187-0.297-0.402-0.574-0.641-0.84-0.082-0.109-0.187-0.227-0.32-0.363 0-0.078 0.016-0.172 0.039-0.278 0.242 0.371 0.68 0.719 1.321 1.039 0.054 0.055 0.121 0.094 0.203 0.121l0.558 0.239c0.719 0.32 1.481 0.535 2.281 0.64 0.079-0.265-0.054-0.613-0.402-1.039 0-0.027-0.215-0.254-0.64-0.679-0.079-0.055-0.145-0.11-0.2-0.161-0.508-0.507-1-0.906-1.48-1.199-0.106-0.027-0.215-0.066-0.32-0.121-0.161-0.082-0.508-0.187-1.04-0.32-0.48-0.133-0.828-0.266-1.039-0.403l0.598 1c-0.027 0.161-0.027 0.309 0 0.442l-0.48-0.359-0.719-0.481c0.055 0.16 0.265 0.426 0.64 0.801 0.028 0.027 0.055 0.051 0.082 0.078 0.239 0.269 0.438 0.496 0.598 0.68-0.027 0.136-0.039 0.254-0.039 0.363-0.055 1.039 0.106 2.078 0.481 3.117 0.503 1.387 1.32 2.481 2.437 3.281-0.238-0.453-0.48-1.144-0.719-2.078-0.054-0.16-0.093-0.32-0.121-0.48-0.32-1.203-0.613-2.067-0.879-2.602-0.054-0.133-0.121-0.265-0.199-0.398zm14.641-4.121c0-0.028-0.055-0.68-0.16-1.961 0.32 0.988 0.652 1.027 1 0.121 0.691 0.426 1.371 0.625 2.039 0.597 0.691-0.05 1.347-0.519 1.961-1.398 0.105-0.16 0.531-0.945 1.277-2.359-0.691 0.933-1.145 1.507-1.359 1.718-0.532 0.536-1.161 0.868-1.879 1-0.614 0.133-1.243 0.133-1.879 0 0.05-0.211 0.133-0.48 0.238-0.8 0.453-0.051 0.828-0.161 1.121-0.317 0.293-0.215 0.586-0.574 0.879-1.082-0.613 0.055-1.105 0.094-1.48 0.121 0.16-0.16 0.347-0.254 0.558-0.281 0.508-0.105 0.883-0.227 1.121-0.359 0.16-0.11 0.309-0.282 0.442-0.52-0.11-0.242-0.27-0.426-0.481-0.562-0.269-0.184-0.64-0.305-1.121-0.36-0.531-0.023-0.918-0.051-1.16-0.078l-0.078-0.84c-0.137-0.082-0.387-0.109-0.762-0.082-0.133-0.051-0.227-0.16-0.281-0.32-0.051-0.16-0.117-0.266-0.199-0.32-0.985-0.614-1.692 0.136-2.121 2.242 0.054-0.692 0.054-1.16 0-1.403-0.106-0.449-0.399-0.73-0.879-0.839-0.188-0.051-0.614-0.024-1.282 0.082-0.558 0.082-0.972 0.039-1.238-0.121v-0.039c-0.105 0.613-0.281 1.148-0.519 1.601 0.214-0.293 0.453-0.453 0.718-0.48-0.133 1.144-0.105 1.933 0.082 2.359 0.157-0.082 0.317-0.215 0.481-0.402 0.105-0.133 0.238-0.305 0.398-0.516 0.028 0.289-0.121 0.73-0.441 1.316-0.293 0.586-0.414 1.055-0.36 1.403 0.614 0.238 1.426 0.133 2.442-0.321-0.535 0.348-1.016 0.801-1.442 1.36-0.425 0.558-0.679 1.094-0.757 1.601 0.16-0.054 0.414-0.093 0.757-0.121l-0.597 1.078c-0.242 0.481-0.293 0.829-0.16 1.043 0.211 0.293 0.664 0.094 1.359-0.601 0.453-0.481 0.812-0.934 1.078-1.36-0.133 0.426 0.055 0.614 0.563 0.559 0.531-0.051 0.773-0.254 0.718-0.598 0.508 0.051 0.973 0.133 1.403 0.239zm-36.641-8.082c-0.027 0.027-0.051 0.054-0.082 0.082 0.027-0.028 0.039-0.055 0.039-0.082h0.043z"
      />
      <g id="g24" transform="matrix(1 0 0 -1 0 23.753)">
        <path
          id="path26"
          style="
            stroke-linejoin: round;
            stroke: #939865;
            stroke-linecap: round;
            stroke-miterlimit: 3;
            stroke-width: 0.08;
            fill: none;
          "
          d="m31.84 6.32h1.801"
        />
      </g>
    </g>
  </g>
</svg>
