<?xml version="1.0" encoding="UTF-8"?>
<!DOCTYPE svg PUBLIC "-//W3C//DTD SVG 1.1//EN" "http://www.w3.org/Graphics/SVG/1.1/DTD/svg11.dtd">
<svg version="1.1" xmlns="http://www.w3.org/2000/svg" xmlns:xlink="http://www.w3.org/1999/xlink" x="0" y="0" width="515" height="497" viewBox="0, 0, 515, 497">
  <defs>
    <pattern id="Pattern_1" patternUnits="userSpaceOnUse" x="10.481" y="496.834" width="NaN" height="NaN" patternTransform="matrix(7.164, 0, 0, 7.515, -73.263, -76.065)">
      <g transform="translate(-0, -0)"/>
    </pattern>
    <pattern id="Pattern_2" patternUnits="userSpaceOnUse" x="3.729" y="443.45" width="NaN" height="NaN" patternTransform="matrix(7.164, 0, 0, 7.515, -73.263, -76.065)">
      <g transform="translate(-0, -0)"/>
    </pattern>
    <pattern id="Pattern_3" patternUnits="userSpaceOnUse" x="6.337" y="389.868" width="NaN" height="NaN" patternTransform="matrix(7.164, 0, 0, 7.515, -73.263, -76.065)">
      <g transform="translate(-0, -0)"/>
    </pattern>
    <pattern id="Pattern_4" patternUnits="userSpaceOnUse" x="173.492" y="34.647" width="NaN" height="NaN" patternTransform="matrix(7.358, 0, 0, 7.867, -0.685, 6.152)">
      <g transform="translate(-0, -0)"/>
    </pattern>
    <pattern id="Pattern_5" patternUnits="userSpaceOnUse" x="8.24" y="130.411" width="NaN" height="NaN" patternTransform="matrix(7.164, 0, 0, 7.515, -73.265, -76.041)">
      <g transform="translate(-0, -0)"/>
    </pattern>
  </defs>
  <g id="Layer_1">
    <g>
      <g>
        <g>
          <path d="M61.056,418.567 C86.943,406.253 122.641,399.414 140.958,401.171 C173.128,404.258 204.521,422.708 225.354,436.886 C238.061,445.535 285.723,478.497 319.678,490.375 C305.881,494.19 246.673,483.066 225.026,475.58 C195.638,465.42 151.962,432.288 126.724,432.606 C81.441,433.175 45.011,446.99 17.943,458.845 C17.943,458.845 31.519,432.621 61.062,418.569 z" fill="#FFFFFF"/>
          <path d="M61.056,418.567 C86.943,406.253 122.641,399.414 140.958,401.171 C173.128,404.258 204.521,422.708 225.354,436.886 C238.061,445.535 285.723,478.497 319.678,490.375 C305.881,494.19 246.673,483.066 225.026,475.58 C195.638,465.42 151.962,432.288 126.724,432.606 C81.441,433.175 45.011,446.99 17.943,458.845 C17.943,458.845 31.519,432.621 61.062,418.569 z" fill-opacity="0" stroke="#FF0000" stroke-width="1.701" stroke-linejoin="round"/>
        </g>
        <g>
          <path d="M61.056,418.567 C86.943,406.253 122.641,399.414 140.958,401.171 C173.128,404.258 204.521,422.708 225.354,436.886 C238.061,445.535 285.723,478.497 319.678,490.375 C305.881,494.19 246.673,483.066 225.026,475.58 C195.638,465.42 151.962,432.288 126.724,432.606 C81.441,433.175 45.011,446.99 17.943,458.845 C17.943,458.845 31.519,432.621 61.062,418.569 z" fill="url(#Pattern_1)"/>
          <path d="M61.056,418.567 C86.943,406.253 122.641,399.414 140.958,401.171 C173.128,404.258 204.521,422.708 225.354,436.886 C238.061,445.535 285.723,478.497 319.678,490.375 C305.881,494.19 246.673,483.066 225.026,475.58 C195.638,465.42 151.962,432.288 126.724,432.606 C81.441,433.175 45.011,446.99 17.943,458.845 C17.943,458.845 31.519,432.621 61.062,418.569 z" fill-opacity="0" stroke="#FF0000" stroke-width="1.701" stroke-linejoin="round"/>
        </g>
      </g>
      <g>
        <g>
          <path d="M135.639,343.651 C166.706,344.781 197.228,353.706 220.571,366.098 C253.568,383.613 297.918,409.801 319.395,422.965 C335.578,432.882 380.027,451.33 402.293,451.046 C431.494,450.674 454.878,441.343 470.089,430.71 C482.569,421.986 492.237,412.047 505.453,399.23 C506.017,445.597 457.774,483.796 403.781,485.935 C381.863,486.803 346.374,477.385 318.671,461.011 C291.045,444.683 239.414,408.009 208.51,394.469 C181.991,382.854 154.413,375.974 133.62,373.809 C83.833,368.625 38.587,396.117 8.268,411.104 C34.433,363.278 98.112,342.28 135.644,343.65 z" fill="#FFFFFF"/>
          <path d="M135.639,343.651 C166.706,344.781 197.228,353.706 220.571,366.098 C253.568,383.613 297.918,409.801 319.395,422.965 C335.578,432.882 380.027,451.33 402.293,451.046 C431.494,450.674 454.878,441.343 470.089,430.71 C482.569,421.986 492.237,412.047 505.453,399.23 C506.017,445.597 457.774,483.796 403.781,485.935 C381.863,486.803 346.374,477.385 318.671,461.011 C291.045,444.683 239.414,408.009 208.51,394.469 C181.991,382.854 154.413,375.974 133.62,373.809 C83.833,368.625 38.587,396.117 8.268,411.104 C34.433,363.278 98.112,342.28 135.644,343.65 z" fill-opacity="0" stroke="#FF0000" stroke-width="1.701" stroke-linejoin="round"/>
        </g>
        <g>
          <path d="M135.639,343.651 C166.706,344.781 197.228,353.706 220.571,366.098 C253.568,383.613 297.918,409.801 319.395,422.965 C335.578,432.882 380.027,451.33 402.293,451.046 C431.494,450.674 454.878,441.343 470.089,430.71 C482.569,421.986 492.237,412.047 505.453,399.23 C506.017,445.597 457.774,483.796 403.781,485.935 C381.863,486.803 346.374,477.385 318.671,461.011 C291.045,444.683 239.414,408.009 208.51,394.469 C181.991,382.854 154.413,375.974 133.62,373.809 C83.833,368.625 38.587,396.117 8.268,411.104 C34.433,363.278 98.112,342.28 135.644,343.65 z" fill="url(#Pattern_2)"/>
          <path d="M135.639,343.651 C166.706,344.781 197.228,353.706 220.571,366.098 C253.568,383.613 297.918,409.801 319.395,422.965 C335.578,432.882 380.027,451.33 402.293,451.046 C431.494,450.674 454.878,441.343 470.089,430.71 C482.569,421.986 492.237,412.047 505.453,399.23 C506.017,445.597 457.774,483.796 403.781,485.935 C381.863,486.803 346.374,477.385 318.671,461.011 C291.045,444.683 239.414,408.009 208.51,394.469 C181.991,382.854 154.413,375.974 133.62,373.809 C83.833,368.625 38.587,396.117 8.268,411.104 C34.433,363.278 98.112,342.28 135.644,343.65 z" fill-opacity="0" stroke="#FF0000" stroke-width="1.701" stroke-linejoin="round"/>
        </g>
      </g>
      <g>
        <g>
          <path d="M162.38,286.1 C184.355,286.581 241.949,307.906 260.857,319.414 C284.907,334.051 315.084,354.084 342.361,367.634 C369.488,381.111 386.906,385.033 405.453,385.173 C428.451,385.347 451.319,375.44 466.591,364.888 C483.558,353.166 496.162,344.257 502.761,337.686 C505.925,348.293 490.428,379.809 465.53,395.342 C439.883,411.344 428.566,420.56 396.275,419.442 C378.729,418.834 342.158,400.136 320.72,386.28 C293.769,368.862 260.242,351.244 229.338,337.708 C202.819,326.093 165.67,317.891 144.858,315.888 C98.475,311.424 56.239,332.367 12.004,351.895 C46.598,312.164 110.744,284.961 162.386,286.098 z" fill="#FFFFFF"/>
          <path d="M162.38,286.1 C184.355,286.581 241.949,307.906 260.857,319.414 C284.907,334.051 315.084,354.084 342.361,367.634 C369.488,381.111 386.906,385.033 405.453,385.173 C428.451,385.347 451.319,375.44 466.591,364.888 C483.558,353.166 496.162,344.257 502.761,337.686 C505.925,348.293 490.428,379.809 465.53,395.342 C439.883,411.344 428.566,420.56 396.275,419.442 C378.729,418.834 342.158,400.136 320.72,386.28 C293.769,368.862 260.242,351.244 229.338,337.708 C202.819,326.093 165.67,317.891 144.858,315.888 C98.475,311.424 56.239,332.367 12.004,351.895 C46.598,312.164 110.744,284.961 162.386,286.098 z" fill-opacity="0" stroke="#FF0000" stroke-width="1.701" stroke-linejoin="round"/>
        </g>
        <g>
          <path d="M162.38,286.1 C184.355,286.581 241.949,307.906 260.857,319.414 C284.907,334.051 315.084,354.084 342.361,367.634 C369.488,381.111 386.906,385.033 405.453,385.173 C428.451,385.347 451.319,375.44 466.591,364.888 C483.558,353.166 496.162,344.257 502.761,337.686 C505.925,348.293 490.428,379.809 465.53,395.342 C439.883,411.344 428.566,420.56 396.275,419.442 C378.729,418.834 342.158,400.136 320.72,386.28 C293.769,368.862 260.242,351.244 229.338,337.708 C202.819,326.093 165.67,317.891 144.858,315.888 C98.475,311.424 56.239,332.367 12.004,351.895 C46.598,312.164 110.744,284.961 162.386,286.098 z" fill="url(#Pattern_3)"/>
          <path d="M162.38,286.1 C184.355,286.581 241.949,307.906 260.857,319.414 C284.907,334.051 315.084,354.084 342.361,367.634 C369.488,381.111 386.906,385.033 405.453,385.173 C428.451,385.347 451.319,375.44 466.591,364.888 C483.558,353.166 496.162,344.257 502.761,337.686 C505.925,348.293 490.428,379.809 465.53,395.342 C439.883,411.344 428.566,420.56 396.275,419.442 C378.729,418.834 342.158,400.136 320.72,386.28 C293.769,368.862 260.242,351.244 229.338,337.708 C202.819,326.093 165.67,317.891 144.858,315.888 C98.475,311.424 56.239,332.367 12.004,351.895 C46.598,312.164 110.744,284.961 162.386,286.098 z" fill-opacity="0" stroke="#FF0000" stroke-width="1.701" stroke-linejoin="round"/>
        </g>
      </g>
      <path d="M395.375,47.405 C385.88,47.558 377.195,48.244 369.036,49.537 C373.012,59.291 378.031,72.653 379.86,82.949 C382.71,98.986 383.756,116.086 380.461,132.692 C375.167,159.376 367.848,182.839 351.341,205.538 C347.78,210.434 343.699,219.237 336.719,225.404 C332.637,229.009 323.34,237.622 313.418,242.308 C312.441,235.065 313.735,226.23 314.993,217.748 C317.26,202.459 315.976,183.644 314.537,175.314 C312.718,164.777 311.175,153.392 308.006,145.109 C304.838,136.826 301.386,132.45 293.887,131.474 C285.231,130.348 278.147,135.099 271.745,144.062 C265.343,153.025 260.738,165.758 258.944,176.515 C254.318,204.258 273.081,244.028 291.707,268.47 C309.045,291.221 342.471,308.925 370.383,322.192 C384.327,328.819 401.49,330.158 415.676,328.879 C421.572,328.347 426.706,327.335 431.035,326.214 C410.857,305 385.784,267.701 382.469,230.366 C379.408,195.911 390.127,168.143 412.373,159.566 C428.299,153.427 443.995,158.894 454.963,166.291 C471.296,177.307 489.272,214.704 496.806,242.194 C515.759,204.848 505.475,151.891 493.453,123.119 C473.365,75.037 430.04,46.851 395.375,47.408 z" fill="#FFFFFF"/>
      <path d="M395.375,47.405 C385.88,47.559 377.195,48.244 369.036,49.536 C373.012,59.29 378.031,72.652 379.86,82.949 C382.71,98.986 383.756,116.086 380.461,132.692 C375.167,159.376 367.848,182.839 351.341,205.538 C347.78,210.434 343.699,219.237 336.719,225.404 C332.637,229.009 323.34,237.622 313.418,242.308 C312.441,235.065 313.735,226.23 314.993,217.748 C317.26,202.459 315.976,183.644 314.537,175.314 C312.718,164.776 311.175,153.391 308.006,145.108 C304.838,136.825 301.386,132.449 293.887,131.474 C285.231,130.348 278.147,135.099 271.745,144.061 C265.343,153.024 260.738,165.757 258.944,176.515 C254.318,204.257 273.081,244.027 291.707,268.469 C309.045,291.22 342.471,308.924 370.383,322.191 C384.327,328.818 401.49,330.157 415.676,328.878 C421.572,328.346 426.706,327.334 431.035,326.213 C410.857,304.999 385.784,267.7 382.469,230.365 C379.408,195.91 390.127,168.142 412.373,159.565 C428.299,153.427 415.695,112.514 418.9,99.679 C423.778,80.147 450.239,99.729 457.773,127.218 C476.727,89.872 481.716,112.861 493.453,123.118 C473.365,75.036 430.04,46.85 395.374,47.407 z" fill="url(#Pattern_4)"/>
      <path d="M397.971,43.757 C386.616,43.94 376.297,44.904 366.555,46.683 C367.885,49.848 369.264,53.204 370.858,57.401 C379.164,56.271 388.039,55.756 397.865,55.763 C429.269,55.782 468.656,86.435 487.726,126.958 C497.507,147.745 507.79,194.638 499.432,225.963 C496.815,219.765 489.994,198.394 486.234,191.155 C478.483,176.234 469.75,166.846 459.672,160.049 C448.077,152.229 431.757,143.421 412.878,150.698 C386.471,160.875 372.358,193.559 375.696,231.118 C378.114,258.33 389.078,283.371 402.567,304.251 C408.517,313.461 416.677,321.487 424.109,328.303 C427.361,327.709 430.306,327.009 432.763,326.268 C433.544,326.033 434.215,325.747 434.904,325.473 C427.934,318.47 419.657,308.609 412.19,297.051 C399.668,277.668 388.971,253.525 386.908,230.302 C384.123,198.952 399.763,170.167 417.849,163.197 C430.822,158.197 443.199,164.16 453.539,171.133 C466.853,180.113 484.359,209.586 491.457,235.488 L496.797,254.965 L504.578,236.505 C520.217,199.425 510.375,151.852 497.717,121.558 C476.61,71.038 435.893,43.14 397.973,43.754 z M352.562,49.93 C323.476,58.342 298.654,76.062 266.211,107.636 C234.635,138.367 204.722,185.862 207.41,249.05 L207.604,253.75 L211.5,255.698 C240.007,270.013 269.868,290.507 295.721,308.686 C321.573,326.863 342.688,342.609 357.295,348.213 C391.806,361.452 420.497,358.216 445.399,349.482 L461.185,343.94 L446.998,335.596 C444.139,337.526 440.908,338.501 436.823,339.734 C431.062,341.473 423.917,342.889 415.921,343.61 C399.929,345.052 380.534,343.802 363.313,335.615 C335.053,322.18 299.862,304.422 279.5,277.707 C278.014,275.757 276.529,273.577 275.042,271.476 C274.362,272.773 273.687,274.068 272.988,275.294 C256.781,264.253 255.302,263.272 237.899,253.51 C239.822,240.577 241.815,224.515 245.962,210.523 C244.199,203.099 243.125,195.639 243.045,188.303 C242.283,189.797 241.525,191.286 240.787,192.867 C233.493,208.497 226.609,227.173 223.518,244.991 C222.349,244.368 222.73,244.727 221.561,244.119 C220.726,189.144 245.584,142.67 274.625,114.402 C307.026,82.868 329.422,66.946 356.652,60.095 C355.123,56.134 353.734,52.769 352.563,49.929 z M400.384,67.847 C396.127,67.739 391.796,68.001 387.428,68.584 C383.488,69.11 379.524,69.97 375.567,70.977 C376.596,74.289 377.44,77.478 378.116,80.513 C389.767,77.537 401.207,76.564 411.131,78.778 C424.21,81.696 438.075,86.316 449.534,95.61 C456.536,101.289 465.697,108.245 472.044,117.685 C468.717,105.101 460.846,97.514 454.117,91.415 C440.369,78.954 428.357,72.791 412.885,69.34 C408.826,68.434 404.642,67.955 400.384,67.847 z M362.069,75.27 C344.536,81.864 327.952,91.957 315.468,102.2 C311.2,105.702 304.618,111.489 297.105,118.771 C300.584,119.535 303.688,120.868 306.417,122.676 C312.266,117.151 317.352,112.693 320.739,109.913 C332.366,100.374 348.236,90.954 364.676,84.757 C364.103,82.023 363.204,78.793 362.069,75.27 z M411.783,94.913 C400.831,95.172 390.86,97.494 381.142,102.142 C381.393,105.821 381.489,109.528 381.442,113.238 C392.899,106.746 403.772,103.902 418.45,104.633 C432.06,105.309 448.297,111.916 462.192,125.04 C468.761,131.245 477.495,138.115 482.794,148.675 C481.936,138.41 477.119,129.879 470.807,123.373 C455.064,107.148 436.814,95.913 418.847,95.019 C416.445,94.899 414.091,94.858 411.782,94.912 z M356.823,120.21 C346.229,125.755 337.381,133.844 329.764,143.831 C327.571,146.707 325.475,149.521 323.466,152.31 C324.467,156.639 325.211,160.78 325.898,164.975 C329.019,160.49 332.211,156.267 335.385,152.455 C343.986,142.124 354.894,131.98 366.752,123.113 C367.214,118.924 367.416,114.666 356.822,120.211 z M429.975,125.186 C425.082,125.267 420.231,126.036 415.536,127.318 C403.015,130.735 391.492,137.757 382.559,145.72 C379.991,148.009 377.268,151.029 374.507,154.49 C369.465,172.779 362.34,189.728 350.319,206.259 C349.234,207.751 347.257,210.415 345.862,212.315 C343.496,225.681 343.562,243.272 343.73,261.631 C343.851,274.863 345.877,287.796 346.627,304.356 C346.738,306.79 346.729,309.195 346.686,311.537 C351.735,314.229 356.748,316.769 361.696,319.192 C360.894,315.635 360.15,312.432 359.225,307.99 C355.912,292.073 352.624,272.943 352.52,261.534 C352.306,238.181 352.965,215.574 356.599,205.709 C364.652,183.846 379.253,161.094 388.112,153.197 C396.123,146.055 406.676,139.663 417.658,136.665 C421.776,135.541 425.935,134.888 430.062,134.814 C436.941,134.69 443.733,136.184 450.111,139.824 C456.568,143.509 465.72,148.552 473.339,157.354 C477.706,162.399 483.923,168.313 491.17,184.226 C491.407,170.984 488.192,162.214 479.715,152.422 C471.239,142.629 461.478,135.447 454.172,131.277 C447.947,127.724 441.416,125.874 434.878,125.346 C433.244,125.214 431.605,125.165 429.975,125.191 z M289.685,132.037 C287.082,132.137 284.642,132.864 282.301,134.033 C276.41,140.484 270.481,147.543 264.888,154.994 C261.54,162.169 259.106,170.125 257.92,177.233 C257.523,179.614 257.358,182.105 257.291,184.646 C262.385,174.995 266.832,167.683 268.531,165.304 C277.023,153.416 286.899,142.285 296.032,132.919 C295.053,132.603 294.023,132.343 292.864,132.192 C291.781,132.051 290.72,131.997 289.685,132.037 z M312.322,169.151 C310.531,172.15 308.8,175.222 307.118,178.425 C299.229,193.448 287.378,219.274 283.076,245.852 C282.506,249.376 281.855,252.381 281.167,255.145 C284.277,260.151 287.46,264.957 290.683,269.186 C291.277,269.966 291.932,270.725 292.563,271.492 C292.674,265.322 293.104,257.744 294.269,248.148 C297.185,224.125 306.729,199.02 313.95,184.812 C314.008,181.354 313.903,178.289 313.514,176.032 C313.121,173.759 312.707,171.464 312.322,169.151 z" fill="#000000"/>
      <path d="M154.928,282.511 C70.731,285.735 9.541,341.302 5.6,358.583 C50.119,338.93 101.835,315.561 146.187,319.83 C166.212,321.757 197.663,330.379 224.629,340.171 C249.351,349.147 275.975,364.989 308.365,385.232 C318.892,391.811 334.399,400.927 349.607,408.537 C364.815,416.146 386.676,424.136 403.468,424.642 C428.001,425.382 453.138,410.918 476.38,390.793 C498.443,371.689 505.397,351.808 505.509,333.447 C482.499,346.911 474.136,356.037 456.136,367.538 C440.117,377.774 423.862,381.227 401.81,380.349 C368.123,379.008 346.125,365.693 324.074,352.285 C298.128,336.511 274.197,320.83 246.016,306.391 C213.71,289.84 177.688,281.643 154.927,282.514 z M154.734,291.301 C175.915,291.766 211.206,298.43 242.008,314.209 C269.686,328.39 293.406,343.923 319.514,359.793 C341.795,373.339 365.807,388.336 401.464,389.757 C425.377,390.708 442.613,384.789 459.501,374.397 C469.332,368.347 487.056,352.769 498.883,344.589 C494.567,353.613 487.794,370.187 473.106,382.905 C450.639,402.36 434.504,413.491 403.77,415.242 C386.272,416.239 368.377,408.099 353.543,400.677 C338.711,393.256 323.347,384.235 313.018,377.779 C280.546,357.485 253.555,341.318 227.626,331.904 C200.167,321.934 168.629,313.158 147.029,311.079 C104.601,306.996 60.447,323.952 19.959,346.692 C52.441,313.573 110.899,290.339 154.733,291.299 z" fill="#000000"/>
      <g>
        <path d="M14.733,312.752 C45.171,238.049 122.541,108.865 159.174,69.96 C190.396,36.805 215.349,9.091 279.256,7.584 C313.913,6.765 358.437,43.944 363.035,100.993 C365.795,135.222 348.224,178.12 328.885,206.167 C331.192,179.585 327.26,144.539 318.452,129.889 C310.258,116.259 292.669,111.571 276.743,117.709 C254.497,126.283 237.769,156.495 240.45,191.03 C245.462,255.6 275.56,289.21 300.123,304.527 C262.199,284.738 222.618,265.093 150.095,259.129 C107.294,255.61 48.08,284.588 14.73,312.756 z" fill="#FFFFFF"/>
        <path d="M14.733,312.752 C45.171,238.049 122.541,108.865 159.174,69.96 C190.396,36.805 215.349,9.091 279.256,7.584 C313.913,6.765 358.437,43.944 363.035,100.993 C365.795,135.222 348.224,178.12 328.885,206.167 C331.192,179.585 327.26,144.539 318.452,129.889 C310.258,116.259 292.669,111.571 276.743,117.709 C254.497,126.283 237.769,156.495 240.45,191.03 C245.462,255.6 275.56,289.21 300.123,304.527 C262.199,284.738 222.618,265.093 150.095,259.129 C107.294,255.61 48.08,284.588 14.73,312.756 z" fill-opacity="0" stroke="#0000FF" stroke-width="1.701"/>
      </g>
      <path d="M14.733,312.752 C45.171,238.049 122.541,108.865 159.174,69.96 C190.396,36.805 215.349,9.091 279.256,7.584 C313.913,6.765 359.709,43.519 364.312,100.565 C353.376,83.12 349.181,97.731 335.44,86.627 C321.742,78.048 312.561,68.643 305.13,77.189 C296.743,86.834 300.342,101.92 310.819,124.371 C300.504,116.681 292.672,111.569 276.746,117.707 C254.5,126.281 237.773,156.493 240.454,191.028 C245.466,255.598 275.564,289.208 300.127,304.525 C262.202,284.736 222.622,265.091 150.098,259.127 C107.298,255.608 48.084,284.586 14.734,312.754 z" fill="url(#Pattern_5)"/>
      <path d="M143.754,339.152 C124.431,338.449 96.761,341.065 69.507,352.031 C42.253,362.996 19.107,383.093 2.384,415.823 C14.72,413.869 40.355,398.692 67.467,388.966 C91.429,380.369 116.269,376.843 138.023,378.699 C158.412,380.439 175.399,385.635 201.69,397.15 C231.884,410.375 274.295,439.185 303.719,458.355 C313.186,464.522 336.206,477.688 354.992,483.608 C373.777,489.529 392.399,491.326 404.48,490.847 C432.314,489.745 457.717,480.719 477.301,463.103 C496.888,445.487 506.163,424.35 510.956,389.806 C495.899,404.611 472.21,424.108 462.298,430.884 C446.406,441.754 420.32,447.195 398.487,447.164 C385.964,447.164 355.199,438.894 340.095,430.216 C318.469,417.792 275.026,390.313 241.757,372.654 C218.182,360.14 176.516,340.346 143.761,339.154 z M143.434,347.931 C172.831,347.931 214.517,368.144 237.634,380.414 C270.362,397.786 313.647,425.154 335.713,437.828 C352.972,447.744 382.574,455.918 398.468,455.949 C421.388,455.997 449.684,452.159 467.775,437.76 C480.933,427.288 491.334,419.944 501.904,406.402 C495.711,429.593 485.618,443.808 471.428,456.568 C453.535,472.66 430.289,481.019 404.127,482.053 C394.291,482.442 376.447,480.956 358.253,475.221 C340.06,469.488 318.953,457.382 308.621,451.054 C285.384,436.823 236.833,402.943 207.644,390.16 C178.454,377.377 160.168,372.156 138.932,369.945 C113.396,367.286 88.176,371.549 64.239,380.56 C46.358,387.292 28.646,397.496 15.02,404.995 C30.399,383.103 51.43,368.778 72.783,360.186 C98.565,349.813 125.213,347.928 143.434,347.928 z" fill="#000000"/>
      <path d="M59.053,416.433 C28.62,430.858 14.62,454.125 6.387,470.241 C18.117,460.396 39.032,453.38 62.115,447.091 C85.201,440.802 109.908,436.986 130.559,438.806 C154.04,440.875 173.646,456.536 202.501,470.804 C225.756,482.303 250.07,490.372 280.16,493.269 C295.41,494.738 316.149,495.816 331.482,491.638 C323.922,487.168 306.729,482.01 289.428,473.13 C270.854,463.595 252.061,450.244 242.059,443.195 C221.381,428.621 175.215,399.302 141.6,397.038 C107.984,394.773 85.219,404.03 59.054,416.431 z M134.346,404.901 C178.844,408.427 207.819,431.472 228.272,446.018 C246.785,459.182 284.509,483.578 312.075,489.489 C275.35,487.322 235.069,474.94 207.013,461.067 C179.097,447.263 160.615,431.799 133.813,429.437 C111.66,427.485 87.446,430.238 63.527,436.753 C54.592,439.188 35.372,446.767 27.372,449.981 C35.388,441.388 48.524,429.729 58.488,424.989 C84.117,412.798 120.24,403.783 134.342,404.901 z" fill="#000000"/>
      <path d="M281.586,2.428 C216.114,3.976 187.823,29.923 156.455,63.231 C117.897,104.177 46.424,224.58 15.45,300.603 L5.66,327.04 L26.167,311.053 C47.659,294.298 111.482,262.304 151.745,265.613 C223.183,271.488 264.919,290.917 302.071,313.005 L304.232,302.731 C298.108,298.872 292.483,293.615 287.273,287.307 C269.798,266.149 248.06,234.41 244.365,186.803 C241.961,155.829 263.112,127.047 281.256,120.054 C293.753,115.237 308.373,122.317 314.756,132.934 C322.457,145.745 328.388,168.162 326.229,193.036 L323.884,220.103 L338.846,198.409 C359.009,169.166 369.874,135.413 366.948,99.124 C362.063,38.543 320.482,1.511 281.585,2.427 z M355.415,100.484 C357.358,124.585 347.923,159.827 337.613,180.976 C339.537,159.147 333.208,135.624 326.499,124.465 C316.494,107.823 295.938,98.051 276.583,105.51 C250.236,115.665 229.874,151.38 232.831,189.473 C235.886,228.832 251.382,257.566 268.773,278.778 C251.659,271.541 223.909,262.771 213.453,259.961 C213.453,259.961 202.987,230.002 202.773,206.594 C202.566,184.079 208.32,161.979 212.444,150.784 C220.405,129.168 235.94,108.546 245.187,100.301 C260.969,86.233 287.202,77.881 307.808,89.64 C320.79,97.049 338.839,110.952 341.133,135.471 C343.88,121.138 340.001,108.641 334.887,101.506 C328.104,92.045 319.493,85.443 311.869,81.092 C305.692,77.567 299.225,75.532 292.711,74.71 C273.166,72.245 253.226,80.731 239.647,92.836 C228.699,102.595 212.976,123.58 204.287,147.173 C199.739,159.52 193.763,182.354 193.986,206.694 C194.167,226.481 192.66,243.802 192.077,254.414 C177.099,251.193 170.739,251.737 152.802,250.262 C149.069,249.954 147.743,249.525 143.906,249.564 C144.422,239.547 143.935,218.352 148.451,194.507 C152.752,171.795 165.085,148.507 172.279,136.738 C186.585,113.34 206.954,91.308 217.33,82.795 C240.362,63.897 265.843,55.416 294.706,61.855 C315.402,66.472 340.572,78.969 346.455,114.406 C348.993,102.629 344.439,87.973 339.247,80.431 C327.933,63.994 311.47,55.764 296.452,52.414 C288.608,50.664 280.951,49.95 273.486,50.173 C251.09,50.844 230.468,59.98 212.06,75.085 C200.348,84.695 179.996,106.823 164.984,131.375 C156.996,144.44 143.885,168.926 138.103,192.71 C132.448,215.975 128.385,241.148 127.958,250.57 C114.402,251.54 105.117,254.087 91.425,258.417 C93.68,247.087 98.637,225.427 107.579,204.081 C121.056,171.908 143.083,134.168 155.062,117.401 C173.031,92.247 195.644,72.097 205.731,63.818 C228.812,44.88 260.383,31.127 288.689,37.441 C309.9,42.173 328.765,48.394 341.859,73.832 C340.407,63.353 335.99,54.447 328.327,46.784 C317.585,36.042 304.68,31.177 290.441,28.001 C282.458,26.22 274.37,25.837 266.351,26.567 C242.295,28.76 218.829,41.034 200.457,56.109 C189.95,64.73 166.902,85.198 148.137,111.463 C135.457,129.214 114.542,167.451 99.58,200.067 C86.952,227.592 74.407,256.113 73.086,263.749 C58.382,269.176 41.366,281.285 28.462,289.341 C62.439,215.675 133.429,105.134 164.691,71.937 C195.768,38.935 229.462,17.284 275.854,17.202 C319.445,17.126 351.099,46.977 355.414,100.492 z" fill="#000000"/>
    </g>
  </g>
</svg>
