<svg
  xmlns:dc="http://purl.org/dc/elements/1.1/"
  xmlns:cc="http://creativecommons.org/ns#"
  xmlns:rdf="http://www.w3.org/1999/02/22-rdf-syntax-ns#"
  xmlns:svg="http://www.w3.org/2000/svg"
  xmlns="http://www.w3.org/2000/svg"
  version="1.1"
  id="Layer_1"
  x="0px"
  y="0px"
  width="594"
  height="386"
  viewBox="0 0 594.0000000000003 385.9999999999992"
  enable-background="new 0 0 578 462"
  xml:space="preserve"
  aria-label="A yellow action box, like what would show in a comic book"
>
  <defs id="defs6" />
  <path
    id="path4993"
    d="m 266.2532082481312,371 -0.5266381464037,0 0.472381830398,-41 0.4723818303979,-41 -0.5856668812617,0.029825315948 -17.5109418069532,24.4913917409751 -17.2338797677426,24.1529615829763 -2.2577336454069,-26.09106697874 -2.4692633014866,-26.3025966348203 -0.5201344981306,-0.5201344981315 -14.2968569307708,8.3154930466716 -18.6699170700514,11.6039719259844 -4.3730601392806,3.2884788793127 1.3730601392806,0.4352290787269 11.3730601392805,2.1070906823503 12.3756332983317,2.220548711727 2.3756332983317,0.5486871081039 -1.4841814487829,0.8305896980915 -36.3756332983317,15.9623896875345 -36.3914518495488,15.7228209733278 -1.5,0.5910209838847 10.667250928691,-11.4433506519617 10.8090440107473,-12.4282518896461 0.1417930820561,-0.9849012376846 -8.3090440107472,-2.0933740847323 -9.6078301324013,-2.5313608028668 -1.2987861216542,-0.4379867181345 21.4746802498488,-19.4491352816082 21.4746802498487,-19.4491352816083 -0.4849111225696,-0.7846026778403 -1.7232428558849,-0.7846026778404 -31.6158683999731,8.9917812723195 -30.7007208795647,8.6685970594108 5.7250932718317,-8.9917812723195 6.0482774847387,-8.6685970594107 -1.0767703721804,0 -29.2235560979503,7.0500726827459 -28.14678572576982,7.0500726827459 -11.44260891286194,1.5006368505958 -11.84876885832739,1.0944769051237 37.36595713332852,-22.7124524130304 38.46774409191913,-23.3655892414112 0.4423714526258,-1.3125523343522 -51.65805637006958,-1.8247230367348 -51.67717054156069,-1.843837208229 18.13777938205575,-12.7042373097236 18.4101491140463,-12.4318675777301 -6.51971342392188,-6.6201882153081 -6.51971342392189,-6.620188215308 6.84436339881052,-1.5288652190273 27.12288503905938,-5.8240981814591 20.27852164024888,-4.295232962432 -1.2785216402489,-0.7153701652965 -44.55968485591983,-16.9412170542285 -42.94093181599867,-16.5660782886042 42.28116321567096,-2.83454122895 49.29578633067364,-3.1194106346587 7.3548545146749,-0.625100805381 -0.8548545146749,-0.8295548838976 -21.85280735505695,-8.9939257870522 -22.30679783544497,-8.8968373884276 -1.30884499506301,-0.7324664852729 6.54497102378579,-5.4284622423481 6.55679783544497,-5.9751626516679 -15.73817318834082,-5.3655374911534 -17.25,-5.6728909047802 -1.5,-0.8540538229465 40.33651046221019,-0.0304086859 40.33651046221022,-0.0304086859 -3.0736551234012,4.1795220054774 -2.6317875284039,4.6213896004698 17.237144661191,2.2262702327179 17.0392890656412,1.5512650667511 -15.7011548565901,-19.1213040482731 -15.6439303135693,-19.18940301976394 34.1065676762057,11.22676565712602 34.1186294411877,11.21470389214592 -18.6656923913141,-18.19588372797389 -18.9789906987646,-17.88258542052846 1.2515732869983,-0.77351483077656 6.0102795716986,-1.91511087772068 4.7587062847003,-1.82044638543742 -7.9894567077407,-10.15025924135369 -7.9894567077406,-9.4714089028605 0.047086392574,-1.5 0.7394567077407,-5.23264055926654 0.6923703151661,-3.7326405592666 32.9486939374381,20.7326405592666 32.9486939374381,20.73264055926653 -7.1986939374381,0.29380955272062 -7.1986939374381,0.29380955272063 0.017345254691,2.20619044727937 0.017345254691,2.20619044727938 12.594637868163,7.33801687714447 12.5946378681629,7.33801687714453 0.7679052360324,-0.83801687714453 4.5359555709254,-20.83801687714447 4.4001025848727,-21.77140597972158 0.6320522499797,-1.77140597972163 15.9700090562408,17.96210496649859 15.9700090562406,17.96210496649854 0.578128398963,-0.69069898677697 6.8454623708926,-34.69069898677696 6.8118115815798,-36.37563329833479 0.5444776096499,-2.37563329833478 0.7287365463806,1.37563329833478 7.9965377966012,25.87563329833478 7.6076031671238,24.89294636072269 6.6135222228559,-5.22048556158205 12.4088288563506,-11.13661520551756 6.1351085503975,-5.52318328321274 8.7849937814116,23.49366884479479 8.7849937814119,23.49366884479478 0.8445258566332,0 17.9539716975548,-10.75 17.1094458409215,-10.75 -1.874074029364,-0.27837220389544 -11.2772095663867,-1 -9.4031355370227,-0.72162779610456 37.725831651618,-22.84397055207703 37.7258316516179,-22.84397055207711 0.5158733944324,0.5158733944437 0.5158733944324,0.5158733944437 -7.5885695090276,13.00441411844673 -7.5885695090277,13.67122950144676 0,0.66681538300008 14,-0.72131543867135 14,-0.27536508307247 -26.9149990362337,25.37818309485794 -26.6351881324486,25.21371127347493 47.5989676564938,-13.73269804641296 47.6385003883385,-13.69483294498527 -29.6345519286517,20.73269804641298 -29.9538955642815,20.41335441076946 0.8535054403099,0.3009740439728 21.2005833083916,-3.2772579238815 23.223202640716,-4.1581309567883 2.8761247726343,-0.5798989889341 -10.6261247726343,20.4943039959053 -10.6261247726343,21.1071569128155 0,0.6128529169103 16.25,-0.01103173416 16.25,-0.01103173416 -5.5,-4.9456742307365 -5.5,-4.9456742307365 10.5869234991201,-0.043294035103 42.3339619055405,0.6199664293221 31.7470384064211,0.663260464425 -1.3339619055407,0.7162529671499 -19.583493236295,7.086739535575 -18.2495313307543,6.370486568425 -4.686692457e-4,0.7591365985056 5.3007130919783,9 6.0096316547813,9.4109562434855 0.7084498935562,1.1700928419912 -28.0348217062046,9.3249035621338 -28.034821706205,9.3249035621339 1.775190051424,1.3076038511794 19.0451209362561,11.9017393777055 16.9551363245607,10.9089300868044 -25.1188102305324,1.8949994739513 -24.8040156702611,1.580204913673 -2.4524671830354,1.6069182154809 -2.4524671830354,1.606918215481 0.8013465287358,0.7329726077321 43.3013465287356,14.4773707263893 43.9999999999998,14.5879652351043 1.5,0.8435671164473 -2.5,0.00380415032 -33,-1.4429867785229 -32.2499999999998,-1.4733954644237 -1.75,-0.026604535576 0,4.5 -0.25,4.4979119594245 -28.75,-3.9979119594245 -29.75,-3.9979119594244 -1.25,0.8145099336058 26.1870080972889,17.2432755815018 26.1870080972888,16.4266776073205 -3.9370080972888,0.6612587471691 -13.4370080972889,1.3883050418417 -11.2625926569502,1.3721963548046 -1.7625926569503,0.6451500601318 22.5511666665923,13.3513619735464 22.213185833263,13.6893428068803 -33.288574009642,-8.9862421955128 -32.9505931763126,-9.3242230288465 -0.7058246822572,2.6081495384909 -1.5,6.3761269928997 -0.7941753177428,3.7679774544087 -19.5969654815163,-11.9113603459371 -26.75,-17.0153970198372 -7.143705654719,-4.3566171084717 10.5081728026416,28.6559134294528 10.1402259039976,28.2671118989048 -7.2202275704038,-0.6131057629294 -7.0966653192865,-0.736668014047 2.6591653192863,11.674168014047 2.6720011016541,11.6613322316791 -24.5340093765654,-20.4695561151422 -24.3117893751715,-20.691776116537 2.8368988250415,-0.631685211574 7.3368988250414,-0.8202852626104 6.1838648225605,-0.8683147884259 1.6838648225605,-0.6797147373897 -15.6316158544768,-13.252248968084 -15.6316158544769,-13.2522489680841 -0.6829248903803,0.7522489680841 -8.4402113302838,32.7103732731006 -7.7572864399034,31.9581243050168 -6.1437736065345,-12.2560568638276 -6.1437736065346,-12.2560568638274 -9.328340833998,22.5479325588107 z"
    style="fill: #fec80d"
  />
</svg>
