<?xml version="1.0"?>
<svg xmlns:rdf="http://www.w3.org/1999/02/22-rdf-syntax-ns#" xmlns="http://www.w3.org/2000/svg" xmlns:cc="http://creativecommons.org/ns#" xmlns:xlink="http://www.w3.org/1999/xlink" xmlns:dc="http://purl.org/dc/elements/1.1/" xmlns:svg="http://www.w3.org/2000/svg" id="svg10047" viewBox="0 0 79 123" version="1.1">
  <g id="coins-1" transform="matrix(.014935 0 0 .014935 114.74 93.062)">
    <path id="path3497" d="m-5054.6 634.09c-28.691 10.147-63.6 20.666-99.125 18.812-5.2489 15.011-14.196 32.649-23.656 46.438l-5.7188 8.3125 7.125 10.688c3.9123 5.872 9.5544 15.643 12.531 21.719l5.4063 11.031 14.562-4.3438c8.0057-2.3964 22.406-6.3564 32.031-8.7812 39.654-9.9902 81.84-17.181 122.5-20.906 9.35-0.85653 19.845-1.8357 23.312-2.1562l6.3125-0.5625-8.8125-5.2188c-35.427-20.977-67.758-49.622-86.469-75.031zm609.34 212.91c8.2365-25.207 22.838-49.482 44.558-74.081l8.0185-9.0815-13.514 3.3159c-37.855 9.2885-82.294 16.396-125.42 20.06-22.539 1.9147-21.829 0.72961-5.819 9.7099 12.886 7.2283 38.169 24.382 50.498 34.264 6.0492 4.8477 16.624 14.439 23.5 21.314l12.502 12.5 0.8779-3c0.4829-1.65 2.6425-8.4 4.7991-15zm-1605.7 758.83c-94.899-3.1631-183.43-20.91-253.5-50.817-131.08-70.364-172.44-161.14-195.4-284.51-5.2929-29.522-3.061-66.779 5.8107-97 14.718-50.136 44.967-99.065 90.501-146.39 4.1743-4.3383 6.9146-7.6399 6.0896-7.3369s-7.8518 3.2529-15.615 6.5552c-64.479 27.428-145.54 48.801-224.38 59.166-47.768 6.2793-68.401 7.5031-126.5 7.5031-54.467 0-67.848-0.6991-106.5-5.5639-174.42-21.953-298.55-97.405-324.81-197.44-4.6062-55.31-20.855-127.17-6.0201-175.77 20.096-63.748 81.275-127.4 168.97-175.8l14.645-8.083-2.4349-6.1719c-3.0381-52.911-17.637-110-7.3244-162.17 18.741-89.287 119.58-164.07 276.47-205.02 53.804-14.044 108.59-22.56 178-27.669 22.524-1.658 108.48-1.658 131 0 41.87 3.082 68.193 6.1035 102.5 11.765 151.38 24.983 271.73 83.854 324.35 158.67 2.6114 3.7125 4.9099 6.75 5.1078 6.75s5.4627-2.306 11.7-5.1244c14.887-6.7274 34.726-14.729 48.068-19.387 10.665-3.7236 10.732-3.7674 11.305-7.367 0.317-1.9916 1.502-7.5592 2.6333-12.372l2.057-8.7513-2.0633-8.2487c-9.1712-36.666-2.6534-72.564 19.292-106.25 51.67-79.314 183.06-136.68 348.05-151.96 40.951-3.7932 109.88-4.5262 147.5-1.5685 70.577 5.549 136.47 18.077 187.95 35.733 6.4829 2.2235 10.587 3.1786 10.808 2.5152 1.4309-4.2927 14.003-28.072 17.916-33.886 26.236-38.987 67.231-72.249 124.19-100.77 83.3-41.705 183.43-65.992 308.13-74.739 23.328-1.6363 103.25-1.6289 127 0.0119 89.915 6.2114 162.09 19.729 232.66 43.574 27.222 9.1981 46.608 17.185 71.837 29.597 41.084 20.211 69.936 39.764 95.861 64.963 33.588 32.646 51.731 65.416 57.713 104.24-5.8888 54.848 8.3495 100.62-6.7396 145.79-11.649 34.547-38.044 68.992-74.554 97.293-4.2791 3.3169-7.7772 6.2954-7.7735 6.619 0 0.32353 3.2662 2.3398 7.25 4.4806 61.093 32.83 102.17 74.801 117.55 120.11 4.5398 13.373 6.2232 22.504 6.8863 37.353-6.5364 57.704 3.3359 123.61-27.947 168.65-2.7557 3.85-6.1891 8.3017-7.6297 9.8926l-2.6194 2.8926 2.5-0.66616c70.738-18.849 125.44-27.776 193.88-31.639 23.827-1.345 82.581-1.3276 106.72 0.0316 138.46 7.7966 262.72 43.904 349.66 101.61 63.107 41.882 101.71 91.518 113.74 146.23-4.3775 48.583 9.3122 95.259 1.5563 141.85-8.8247 50.093-37.613 94.294-87.55 134.42-75.986 61.062-195.35 103.72-329.59 117.79-38.222 4.005-51.037 4.5843-101.41 4.5843-50.37 0-63.185-0.5794-101.41-4.5843-61.38-6.4314-118.01-18.387-172.09-36.332-79.563-26.399-140.35-61.295-185.21-106.32l-14.211-14.263-1.0736 4.253c-12.27 48.607-52.774 97.729-111.88 135.68-94.57 60.727-232.07 95.07-380.63 95.07-120.85 0-232.64-22.126-323.96-64.118-8.2299-3.7844-15.252-6.8807-15.605-6.8807-0.3529 0-3.3531 4.1624-6.6672 9.25-62.103 95.335-183.63 183.78-337.26 245.44-146.4 58.762-317.03 89.653-467.5 84.638z"/>
    <path id="path3495" d="m-6163.1 739.01c55.454-39.963-46.048-104.11-10.574-14.538 5.1756-1.0297 1.1148 48.345 10.574 14.538zm-15.918 125.6c14.99-87.161-72.923 73.872-1.714 8.8689l1.1793-6.1021 0.5347-2.7668zm2296.1 263.88c145.55-11.854 317.87-43.667 402.33-175.59 50.045-101.99-60.001-189.5-144.32-223.08-212.88-84.186-469.77-83.524-672.46 29.11-91.276 42.403-144.67 172.77-51.226 243.77 125.31 109.28 305.65 131.37 465.68 125.79zm0 80c138.57-10.84 295.32-41.242 388.96-153.49-189.06 142.31-448.85 153.62-671.88 100.42-70.533-14.361-163.13-65.19-203.56-95.487 119.63 130.71 318.64 153.96 486.49 148.55zm-2103.5 243.98c239.03-17.858 492.81-94.758 654.95-280.56 33.028-39.33 68.792-107.92-6.1333-54.308-222.45 88.848-488.08 86.116-702.32-24.996-79.413-13.958-109.63-145.06-156.85-149.32-113.73 64.268-251.54 160.02-250.51 305.44 21.978 139.55 185.2 184.05 304.96 199.22 51.677 6.7109 103.93 5.858 155.9 4.5196zm10 98.034c241.46-15.614 500.1-91.288 664.95-278.19 32.768-27.379 83.239-167.31 23.876-67.243-171.72 200.79-444.78 284.86-700.86 302.14-139.26 6.0494-287.12-9.399-406.86-86.665 96.642 120.3 276.37 132.14 418.89 129.96z" fill="#f0e000"/>
    <path id="path3481" d="m-5448.4 388.5c104.86-5.5516 213.5-25.504 302.22-84.838-78.431-49.332-90.958-139.78-86.069-222.95-153.72-55.517-326.96-55.033-483.21-9.2775-68.886 24.6-162.4 60.898-169.79 144.99 13.761 81.589 102.98 116.47 172.45 140.53 85.282 26.28 175.44 35.337 264.39 31.548zm0 80c118.78-8.0111 251.34-28.752 338.22-117.71 3.1988-12.805-76.317 47.505-109.48 50.721-190.49 62.73-408.14 60.04-591.37-25.069-26.464-12.751-87.154-59.643-33.839-8.4866 108.57 87.754 261.7 103.67 396.46 100.55zm-1005.4 128.99c135.36-10.776 285.59-34.65 384.51-136.03 54.995-52.661 23.957-139.23-35.164-174.34-147.07-99.454-334.72-114.11-507.14-99.322-122.44 15.641-258.39 44.227-342.39 142.34-48.865 58.718-3.9241 137.9 53.057 170.89 130.91 84.769 294.55 101.9 447.13 96.464zm0 80c133.11-10.651 280.04-34.026 379.8-130.75 27.338-32.312-53.334 34.667-79.386 39.083-197.37 83.557-424.84 87.268-629.72 29.402-61.317-18.495-120.43-45.763-171.33-84.987 83.413 100.39 222.49 127.46 345.53 143.53 51.481 5.7491 103.41 5.101 155.11 3.7248zm841.86 67.941c137.89-10.187 291.88-41.367 385.45-151.85 41.908-43.681 39.207-154.64-40.403-97.273-184.25 46.046-390.17 40.144-560.9-48.891-71.661-9.9561-82.024-144.53-150.36-94.856-25.283 59.879 17.509 155.72-41.046 214.01-22.989 33.518-90.035 58.565-19.075 84.585 124.76 80.718 280.6 100.88 426.33 94.275zm564.24-387.15c-9.8584 61.384-132.39 64.656-100.4 127.44 8.1758 48.05-21.752 88.427 60.797 46.058 33.599-46.276-15.46-78.502 31.605-134.56 2.382-16.639 48.156-34.805 7.9959-38.94zm-563.74 467.15c133.85-9.275 278.89-40.371 375.6-140.09 10.09-16.857-67.04 47.126-94.376 51.497-200.7 84.339-435.03 86.404-638.97 11.517-37.082-7.5569-137.97-79.056-124.14-66.019 98.916 106.13 252.58 135.38 391.5 143.79 30.116 1.2198 60.288 0.93115 90.383-0.69994z" fill="#c0b020"/>
    <path id="path3475" d="m-4680.9 283.5c145.16-7.4375 308.92-31.006 413.86-141.47 85.398-119.6-79.221-210.7-178.35-237.1-209.91-58.584-449.8-55.472-643.83 51.671-131.4 53.199-92.05 224.77 33.475 257.01 115.8 55.874 247.45 72.941 374.85 69.887zm-0.3377 80.016c147.33-7.9144 316.57-30.967 418.8-148.4-188.88 134.5-440.76 144.04-661.65 101.06-61.812 2.6584-253.31-108.17-220.93-87.021 119.88 114.98 305.09 135.33 463.79 134.36zm116.34 290.96c126.62-10.713 276.3-32.448 355.78-142.76 40.592-118.54-131.89-213.02-222.47-131.84-174.09 51.107-362.57 51.455-537.79 5.3778-129.31 84.906 10.604 220.3 116.32 234.88 92.76 30.082 191.12 38.596 288.16 34.341zm0 80c123.75-9.9007 264.98-31.951 349.37-132.15-190.11 128.7-443.91 132.16-658.19 68.75-46.111-3.9151-189.65-112.5-94.542-28.072 116.21 80.457 265.48 96.424 403.37 91.473zm-2140 222.58c165.62-17.121 355.16-62.962 454.38-208.65 61.671-109.26-117.36 2.7509-171.83-18.138-196.2 11.694-417.82-10.08-566.05-152.76-94.764 42.176-222.42 156.87-138.24 265.87 105.44 111.39 278.21 120.33 421.74 113.68zm-29.5 81.442c176.75-10.55 377.84-54.052 489.22-204.02-40.962 38.748-139.75 106.47-216.05 127.4-205.63 71.655-458.58 77.416-644.17-25.957 98.658 89.25 243.41 104.75 371 102.58zm1116.5 5.0022c147.13-11.902 326.29-42.964 407.97-180.78 31.508-66.278-10.596-155.43-71.825-70.758-218.75 116.01-492.93 118-719.4 22.662-53.555-15.925-127.56-121.49-125.92-1.9254 12.653 132.19 163.92 183.57 274.58 211.58 76.824 17.672 155.98 22.537 234.6 19.22zm0 80c139.55-10.093 295.52-39.842 390.5-151.58-194.92 143.63-461.57 153.61-688.64 92.529-57.319-8.3418-194.19-90.952-176.6-83.498 119.47 123.53 311.01 147.32 474.74 142.55zm766.14 78c137.39-11.781 302.59-40.991 382.37-166.5 49.304-103.91-66.915-186.13-152.01-217.66-166.04-63.775-354.35-65.142-523.63-12.663 18.754 95.359-28.725 186.14-67.047 256.05-16.821 105.54 85.385 113.3 164.84 129.3 64.413 12.148 130.13 13.922 195.48 11.47zm0 80c131.96-10.152 279.98-39.1 369.36-145.43-192.65 140.62-457.44 148.11-679.55 81.742-134.4-29.673 63.603 55.557 108.56 51.078 66.369 13.071 134.2 15.197 201.62 12.613z" fill="#f0d040"/>
  </g>
  <metadata>
    <rdf:RDF>
      <cc:Work>
        <dc:format>image/svg+xml</dc:format>
        <dc:type rdf:resource="http://purl.org/dc/dcmitype/StillImage"/>
        <cc:license rdf:resource="http://creativecommons.org/licenses/publicdomain/"/>
        <dc:publisher>
          <cc:Agent rdf:about="http://openclipart.org/">
            <dc:title>Openclipart</dc:title>
          </cc:Agent>
        </dc:publisher>
        <dc:title>coins-1</dc:title>
        <dc:date>2013-03-12T16:56:39</dc:date>
        <dc:description>small bunch of coins</dc:description>
        <dc:source>http://openclipart.org/detail/176281/coins-1-by-mariotomo-176281</dc:source>
        <dc:creator>
          <cc:Agent>
            <dc:title>mariotomo</dc:title>
          </cc:Agent>
        </dc:creator>
        <dc:subject>
          <rdf:Bag>
            <rdf:li>clip art</rdf:li>
            <rdf:li>clipart</rdf:li>
            <rdf:li>coin</rdf:li>
            <rdf:li>money</rdf:li>
            <rdf:li>stack</rdf:li>
          </rdf:Bag>
        </dc:subject>
      </cc:Work>
      <cc:License rdf:about="http://creativecommons.org/licenses/publicdomain/">
        <cc:permits rdf:resource="http://creativecommons.org/ns#Reproduction"/>
        <cc:permits rdf:resource="http://creativecommons.org/ns#Distribution"/>
        <cc:permits rdf:resource="http://creativecommons.org/ns#DerivativeWorks"/>
      </cc:License>
    </rdf:RDF>
  </metadata>
</svg>
