<?xml version="1.0"?>
<svg xmlns:rdf="http://www.w3.org/1999/02/22-rdf-syntax-ns#" xmlns="http://www.w3.org/2000/svg" xmlns:cc="http://creativecommons.org/ns#" xmlns:xlink="http://www.w3.org/1999/xlink" xmlns:dc="http://purl.org/dc/elements/1.1/" xmlns:svg="http://www.w3.org/2000/svg" id="svg10047" viewBox="0 0 79 123" version="1.1">
  <g id="coins-3" transform="matrix(.016243 0 0 .016243 35.622 72.291)">
    <path id="path17310" d="m1031.8 2637.5c-40.174-1.9965-66.247-4.0479-95-7.4744-142.31-16.96-270.86-61.964-356.5-124.81-24.588-18.044-56.468-48.356-71.123-67.624-25.261-33.214-40.794-68.326-46.005-104-1.8741-12.828-1.6271-41.495 0.4735-54.966 1.6127-10.343 1.6129-11.594 0-22-2.0978-13.557-2.3459-42.235-0.4761-55.034 1.7752-12.151 5.3445-26.167 10.106-39.686 2.1733-6.17 3.8455-11.324 3.7159-11.454-0.1297-0.1296-7.2013 1.7666-15.715 4.2138-34.114 9.806-75.358 17.21-113.98 20.463-7.425 0.6252-13.994 1.2824-14.599 1.4605-0.7832 0.2307-0.7195 2.1456 0.2214 6.6631 3.9239 18.84 3.8365 44.019-0.2209 63.662-1.4138 6.8446-1.4128 8.2738 0.01 15.335 5.675 28.164 3.8757 56.018-5.4297 84.053-9.7231 29.293-26.589 55.371-52.959 81.886-71.152 71.542-195.85 121.83-345.52 139.34-38.956 4.5574-65.58 5.9709-111.5 5.9197-78.787-0.088-146.92-7.7093-214-23.938-174.95-42.326-288.86-129.39-304.54-232.78-0.7392-4.8726-1.5491-9.0644-1.7998-9.315-0.2506-0.2507-4.664 1.3299-9.8074 3.5123-31.446 13.343-72.818 27.497-108.85 37.24-15.348 4.1499-15.583 4.2565-24 10.858-68.526 53.753-158.44 92.704-262 113.49-93.817 18.836-198.21 20.454-290 4.4969-121.94-21.198-222.23-71.713-278.27-140.17-12.166-14.861-20.213-27.222-28.802-44.246-19.155-37.966-25.632-77.667-19.41-118.98 1.337-8.878 1.3359-11.084-0.01-20.148-8.4159-56.678 7.3115-112.79 46.182-164.78l7.4005-9.8973-1.1251-16.103c-2.0117-28.795 1.1782-57.617 9.5848-86.603 9.2192-31.788 26.309-65.493 48.422-95.5 63.928-86.749 177.87-159.42 318.03-202.84 76.587-23.724 157.24-37.794 245.34-42.802 21.109-1.1998 21.682-1.2872 17-2.5957-31.604-8.8332-55.248-16.902-78.443-26.768-90.434-38.468-145.26-91.123-158.03-151.78-3.1002-14.722-3.0353-36.378 0.1504-50.212 2.9269-12.711 2.9342-16.603 0.055-29.5-2.9837-13.367-3.3095-34.92-0.7285-48.182 9.3959-48.28 46.285-92.719 106.03-127.73 158.61-92.95 443.2-106.5 637.12-30.34 71.171 27.953 125.07 67.365 151.49 110.78 2.3362 3.8384 4.4153 7.1624 4.6203 7.3866 0.2051 0.2243 6.2101-2.3732 13.344-5.772 48.811-23.254 116.18-42.353 183.55-52.035 43.128-6.1986 68.136-8.0828 116.5-8.7774 60.794-0.8732 102.34 1.8572 156.5 10.286 15.449 2.4041 51.819 9.455 58.03 11.25 2.9378 0.849 3.146 0.6825 6.8533-5.4813 5.204-8.6523 15.481-19.543 25.117-26.616 9.2129-6.7629 29.906-17.25 43-21.793 17.343-6.0166 46.242-12.563 64.128-14.526 3.3701-0.37 6.5342-0.9583 7.0313-1.3073 0.4971-0.3491 2.31-3.8597 4.0286-7.8013 25.968-59.558 125.37-86.289 281.81-75.787 208.2 13.976 460.32 93.072 605.5 189.96 27.418 18.298 44.779 32.184 63.071 50.446 26.313 26.269 41.383 50.338 46.5 74.266 2.3666 11.065 2.1673 27.58-0.4474 37.083-2.6372 9.5843-7.8585 20.584-12.862 27.094-5.6256 7.3207-5.7289 7.4767-5.2273 7.8953 0.2555 0.2132 11.04 5.791 23.965 12.395 88.279 45.106 161.12 98.648 222.19 163.31 42.265 44.753 76.497 94.67 96.958 141.38 20.351 46.46 30.15 92.729 28.494 134.54-1.8009 45.47-12.645 81.651-35.302 117.78-5.0698 8.0847-7.0386 12.444-9.4858 21-6.4587 22.583-16.751 44.523-30.451 64.908l-8.2564 12.286 7.1749 5.7403c10.881 8.7051 39.386 37.651 47.627 48.364 41.004 53.3 55.976 104.67 47.429 162.74-1.383 9.3964-1.3638 11.128 0.2332 21 2.1393 13.224 2.4093 41.835 0.5168 54.759-3.9866 27.225-15.288 57.474-30.636 82-19.238 30.741-51.51 63.98-87.995 90.63-34.073 24.888-80.581 49.614-129 68.583-82.503 32.321-177.13 52.29-283.5 59.826-19.941 1.4127-97.136 2.6874-113.5 1.8741z"/>
    <path id="path17280" d="m613.18 1878.6c10.681-0.8456 19.632-1.75 19.892-2.0098 0.2598-0.2597-1.5454-2.8457-4.0115-5.7467-13.691-16.105-35.88-48.378-48.425-70.433-25.229-44.352-42.658-95.716-46.012-135.59-0.3585-4.2625-0.7713-7.75-0.9174-7.75-1.6809 0-38.502-8.2435-57.947-12.973-145.8-35.463-280.95-89.752-372.95-149.81-15.474-10.102-35.651-24.563-42.213-30.254l-3.1594-2.7399-10.841 1.9332c-77.028 13.736-136.25 42.733-158.86 77.785-13.602 21.086-15.378 44.781-5.331 71.133 12.312 32.294 47.946 71.734 95.492 105.69 124.17 88.687 328.3 151.71 525.36 162.21 23.112 1.2307 86.72 0.3982 109.92-1.4385zm-20.92 80.484c19.811-1.5229 47.468-4.7983 64-7.5797 15.786-2.6557 37.788-7.2555 39.694-8.2985 0.7489-0.4097-2.1171-3.7315-7.6837-8.9058l-8.8781-8.2523-9.8163 1.4645c-75.453 11.257-165.62 11.081-257.82-0.5033-192.83-24.228-378.54-93.451-489.5-182.45-16.539-13.266-36.403-31.799-46.55-43.43-4.8276-5.5334-8.9815-9.8568-9.2309-9.6074-0.6289 0.6289 4.7662 11.965 9.7797 20.55 10.259 17.566 31.264 41.487 52.446 59.726 94.092 81.021 258.87 147.34 435.56 175.29 43.348 6.8585 79.776 10.555 132 13.396 12.227 0.665 82.48-0.3564 96-1.3957zm749.09 68.519c77.064-6.3098 139.13-27.152 186.91-62.771 12.487-9.3074 32.792-29.86 41.257-41.762 8.2079-11.54 19.624-34.091 23.794-47 33.086-102.44-28.052-233.25-160.55-343.53-163.31-135.92-401.73-209.83-585-181.34-120.48 18.725-201.5 79.357-219.48 164.25-3.1219 14.743-4.0207 23.804-4.012 40.443 0.01 18.225 1.0748 28.906 4.5895 46.019 25.2 122.7 148.69 254.75 316.94 338.93 99.319 49.689 204.54 79.519 307.46 87.161 18.427 1.3683 69.298 1.136 88.085-0.4023zm-35.26 79.966c56.522-4.8141 104.83-17.281 145.18-37.466 10.831-5.4189 27.363-15.006 26.812-15.549-0.1717-0.1688-6.1621 1.7058-13.312 4.1659-49.253 16.946-105.35 25.358-169 25.341-50.512-0.013-98.048-5.045-151-15.985-246.15-50.9-471.02-210-548.19-387.9-3.4902-8.0463-6.3472-13.865-6.349-12.93-0.01 3.7978 4.3259 23.752 7.6329 35.149 33.939 116.96 153.8 239.33 311.91 318.43 99.222 49.64 202.18 78.874 306.96 87.155 17.824 1.4087 70.722 1.1536 89.325-0.4307zm-2334.5 139c146.04-9.6409 278.86-48.189 382.92-111.13 73.164-44.258 125.72-96.851 153.77-153.87 23.008-46.773 28.206-97.246 14.728-143-16.154-54.837-57.645-105.56-120.25-147-143.56-95.025-374.59-127.73-593-83.954-166.96 33.466-305.99 108.46-378.21 204.01-9.7769 12.935-18.873 27.843-26.81 43.938-44.714 90.681-21.016 185.17 65.02 259.25 45.733 39.377 100.45 68.895 172 92.794 65.283 21.805 131.72 34.206 211 39.382 22.058 1.4402 94.492 1.1799 118.83-0.4271zm-0.1873 80.027c167.3-11.148 318.21-60.478 424.85-138.88 27.344-20.102 56.477-46.834 72.635-66.649l2.854-3.5-3.1691 2.5c-1.743 1.375-7.5904 6.2581-12.994 10.851-99.059 84.2-256.09 145.72-421.33 165.05-45.736 5.3526-76.998 7.1019-126.43 7.0745-69.819-0.039-126.95-5.5723-191.09-18.508-109.01-21.987-210.48-66.917-275.86-122.16-10.355-8.7486-11.55-9.3424-6.6692-3.3119 7.311 9.0322 32.827 34.006 43.548 42.622 89.245 71.724 219.72 115.37 374.5 125.29 22.102 1.416 95.69 1.1783 119.15-0.3847z" fill="#e0c000"/>
    <path id="path17268" d="m-53.744 1434.3c17.916-7.047 32.569-11.775 50.963-16.443 7.1705-1.8198 13.037-3.6348 13.037-4.0332 0-0.3985-2.2865-4.2259-5.0812-8.5054-12.893-19.744-18.925-38.114-18.912-57.596 0.014-19.901 6.2757-36.448 19.939-52.685l2.9451-3.5-1.4102-6.5c-2.0915-9.6403-1.8601-25.858 0.51-35.744 2.093-8.7301 6.779-19.153 12.065-26.836 4.9717-7.2262 17.25-18.83 26.284-24.842 7.8914-5.2507 25.589-14.578 27.661-14.578 0.5496 0 0.9993-0.3871 0.9993-0.8601 0-0.9102-0.7385-1.0088-30.5-4.0731-34.109-3.5119-56.217-4.3457-100.28-3.7822-60.09 0.7684-99.065 4.6838-151.72 15.241-50.06 10.038-97.551 25.499-134.5 43.787l-12.5 6.187-0.657 13.5c-0.6652 13.669-1.5861 19.873-4.4842 30.212-1.5221 5.43-1.4967 6.1468 0.5131 14.5 6.7279 27.963 5.345 51.606-4.5436 77.682-1.8551 4.8919-3.2504 8.9908-3.1006 9.1088 0.1497 0.1179 9.0473 0.9711 19.772 1.896 71.854 6.1964 137.21 19.958 195 41.061 16.312 5.9566 39.351 15.68 50.786 21.434l7.6205 3.8342 12.046-6.1842c6.6256-3.4013 19.022-8.9278 27.547-12.281zm-397.1 319.69c-3.8708-35.945 9.7534-72.659 37.914-102.17 41.184-43.158 117.26-73.444 214.18-85.269 22.475-2.7419 20.999-2.4027 21.007-4.8286 0.026-8.2784 8.2993-32.124 15.33-44.189 4.4685-7.6674 14.171-20.895 17.534-23.905 1.1707-1.0478 2.1286-2.3013 2.1286-2.7856 0-1.126-5.4524-3.4485-26.5-11.287-50.578-18.837-111.46-31.902-177-37.98-53-4.916-116.05-4.5436-169.5 1.001-122.32 12.689-227.31 51.384-279.3 102.94-3.7419 3.7101-6.6669 6.8796-6.5 7.0432 0.16689 0.1636 7.5964 1.9248 16.51 3.9137 45.609 10.177 98.187 27.553 139.12 45.977 82.96 37.341 149.01 89.657 188.04 148.93 3.9271 5.965 7.1401 11.328 7.1401 11.917 0 0.5891 0.2073 0.8639 0.4606 0.6106s0-4.7158-0.5576-9.9167zm45.43 206.01c4.4916-1.1214 8.762-2.2449 9.4898-2.4968 0.8424-0.2915-1.7478-3.8201-7.1287-9.7111-4.6485-5.0893-9.8912-10.828-11.65-12.753-2.9939-3.2762-3.165-3.3402-2.6766-1 0.287 1.375 1.0861 8.2375 1.7756 15.25 0.6896 7.0125 1.427 12.75 1.6387 12.75s4.0598-0.9175 8.5515-2.0388zm739.17 82.019c49.492-3.4991 96.228-11.713 132-23.198l13-4.174-17.5-1.2462c-258.35-18.397-513.12-120.77-613.69-246.61-21.868-27.361-35.121-54.918-40.761-84.753-3.1548-16.689-1.429-45.67 3.49-58.608l1.0167-2.674-6.7789 0.6944c-3.7284 0.3819-14.497 1.9953-23.929 3.5853-96.188 16.214-161.4 53.203-174.49 98.979-8.1065 28.347 3.5127 62.48 33.198 97.524 8.5071 10.043 27.786 28.94 38.939 38.169 92.405 76.462 248.32 139.43 415.6 167.85 51.736 8.7902 90.154 12.835 150.9 15.887 12.626 0.6344 73.671-0.3468 89-1.4305zm-9.5 79.992c98.747-7.2669 174.54-30.633 214.61-66.166 7.0303-6.2332 15.823-15.535 13.887-14.691-0.55 0.2398-9.325 4.5465-19.5 9.5706-27.561 13.608-56.428 23.551-91.114 31.38-130.12 29.373-308.94 19.236-478.39-27.12-147.96-40.479-270.11-102.68-346.43-176.4l-11.429-11.041 3.2104 5.79c13.451 24.259 42.492 54.517 77.716 80.974 41.618 31.26 101.8 63.717 164.85 88.906 85.482 34.152 184.98 59.498 281.68 71.753 35.055 4.4429 56.178 6.211 101.4 8.4878 12.764 0.6426 74.76-0.3541 89.5-1.4388zm-467.5 316.02c125.79-5.6585 238.14-34.883 318.86-82.946 23.53-14.01 39.805-26.326 57.476-43.498 16.231-15.773 26.937-29.89 35.1-46.282 13.334-26.777 16.245-54.266 8.5648-80.866l-1.473-5.102-26.265-0.6877c-37.332-0.9773-64.781-2.7245-97.265-6.1911-144.7-15.442-287.88-56.567-402.77-115.69-26.122-13.442-45.46-24.785-70.043-41.084-15.255-10.114-20.434-13.063-22.5-12.81-10.542 1.2898-65.646 14.11-73.528 17.107-1.6456 0.6256-2.8222 2.0109-3.2055 3.7738-1.835 8.4408-7.2185 26.234-10.978 36.285-28.697 76.717-94.361 147.81-188.54 204.12l-11.957 7.1495 1.9648 3.114c10.899 17.274 30.258 38.752 47.06 52.212 45.857 36.736 110.98 66.919 186.08 86.252 78.052 20.09 167.79 28.993 253.42 25.141zm1287.5 62.533c94.882-6.9593 178.93-24.036 251.74-51.152 72.331-26.934 129.63-60.875 169.11-100.16 19.25-19.158 32.992-37.759 42.635-57.709 6.8134-14.096 9.7691-22.498 12.427-35.326 10.452-50.444-7.6016-99.873-53.579-146.69-9.469-9.6422-28.314-26.153-31.047-27.202-0.7267-0.2789-4.8019 2.1703-9.0558 5.4426-43.775 33.674-102.28 57.497-168.84 68.748-55.221 9.3348-122.93 10.05-186.4 1.9692-136.67-17.4-277.51-71.734-392.58-151.45-6.3418-4.3935-11.954-7.9882-12.472-7.9882-1.9152 0-32.84 11.374-48.39 17.798-18.11 7.4812-50.047 23.03-65.061 31.676-75.054 43.22-121.66 96.131-133.68 151.78-3.1641 14.647-3.1668 39.936-0.01 54.25 7.3333 33.208 25.515 64.016 55.179 93.5 79.415 78.934 226.35 134.54 397.5 150.43 14.136 1.3123 37.923 2.9153 59 3.976 17.035 0.8573 93.447-0.4068 113.5-1.8776zm-1287 17.443c160.87-7.2324 301.3-54.18 374.68-125.27 10.74-10.405 23.043-24.328 22.212-25.138-0.2131-0.2076-3.9874 2.5136-8.3874 6.0471-64.272 51.616-168.4 91.696-284 109.31-50.078 7.6322-87.606 10.367-143 10.422-49.096 0.048-75.258-1.4643-120.5-6.9675-129.54-15.757-242.24-57.787-316.84-118.17l-4.5884-3.7135 4.7538 6.2249c16.368 21.434 43.726 44.371 75.853 63.597 98.348 58.856 249.21 90.417 399.82 83.646zm1287 62.592c78.532-5.9237 143.74-17.403 208.19-36.648 105.04-31.369 190.76-82.083 233.83-138.35 0.8145-1.0639-3.2441 1.8779-9.0191 6.5375-28.694 23.152-53.397 38.855-91 57.847-77.798 39.293-173.09 66.621-277 79.44-49.664 6.1267-82.305 8.0313-138 8.0521-45.216 0.017-63.213-0.6976-100.5-3.9894-168.89-14.91-317.16-66.979-411-144.33-8.8814-7.3208-8.6454-6.8011 3.1422 6.9163 43.797 50.968 126.85 98.047 224.85 127.45 74.354 22.312 152.04 34.777 242.51 38.916 18.322 0.838 94.853-0.4003 114-1.8446z" fill="#d07020"/>
    <path id="path17256" d="m1232.8 1346c21.692-13.582 23.346-29.806 5.7232-56.153-5.6395-8.4315-24.27-28.064-36.277-38.229-55.227-46.75-152.92-96.566-264.54-134.9-117.89-40.484-243.71-66.854-356.96-74.809-22.802-1.6018-86.654-1.5591-104.5 0.07-63.078 5.7578-105.8 20.616-117.76 40.95-11.58 19.7 12.628 55.919 62.257 93.144 67.119 50.344 173.42 99.702 295.35 137.13 18.277 5.6105 27.316 7.9357 29.5 7.5888 1.7322-0.275 9.2244-2.6027 16.649-5.1727 78.434-27.148 180.71-32.679 285.5-15.439 53.22 8.7555 116.49 25.669 164 43.84 7.15 2.7347 13.699 4.9956 14.554 5.0242 0.8548 0.029 3.7798-1.3415 6.5-3.0446zm-783.05 6.935c-11.206-5.8085-40.361-23.125-54.742-32.514-55.875-36.48-92.484-73.112-107.67-107.74-9.0477-20.631-11.117-40.41-6.1298-58.586 1.9347-7.0505 6.5797-17.542 10.096-22.802l2.207-3.3019-2.3811 0.5396c-1.3096 0.2967-6.8811 1.4495-12.381 2.5616-19.891 4.0221-41.257 11.747-53.206 19.237-7.4788 4.6876-15.688 13.399-17.338 18.401-0.7141 2.1639-1.0017 6.4758-0.7067 10.598 0.4063 5.6781 1.338 8.6266 5.0904 16.108 5.9965 11.956 12.681 20.687 26.156 34.163 38.497 38.499 105.28 78.811 194 117.11 18.598 8.0273 24.986 10.368 17 6.228zm209.64 17.102c5.5644-4.433 11.208-8.7748 12.542-9.6487 1.3337-0.8739 2.0643-1.9379 1.6235-2.3645-0.4407-0.4267-10.251-4.003-21.801-7.9474-118.52-40.475-221.36-93.286-284-145.84-4.95-4.153-14.738-13.353-21.75-20.445-11.75-11.883-12.75-12.668-12.75-10.005 0 4.9184 2.8961 14.321 6.5353 21.218 23.858 45.214 108.82 102.68 223.21 150.98 28.749 12.139 80.882 31.782 85.016 32.032 0.6927 0.042 5.8121-3.5507 11.376-7.9835zm-1086.8 9.0384c3.4024-4.8091 2.7938-4.9916-2.671-0.8007-6.2473 4.7911-6.2684 4.8237-3.0939 4.8007 2.2887-0.017 3.581-0.9132 5.7649-4zm-346.81 44.982c100.35-4.6794 189.06-24.517 257.48-57.579 55.594-26.861 91.188-59.335 103.38-94.318 2.7591-7.9166 2.9859-9.6232 2.9986-22.564 0.012-12.686-0.2444-14.751-2.7355-22-3.2328-9.4076-8.8131-20.099-14.719-28.2-6.6019-9.0559-26.353-28.238-37.802-36.713-90.272-66.823-262.51-101.12-429.61-85.54-128.03 11.936-235.62 50.943-289.5 104.95-15.822 15.862-26.124 32.37-30.578 48.999-2.6149 9.763-2.4399 26.366 0.3826 36.298 11.789 41.486 58.634 80.973 130.7 110.17 85.483 34.631 199.08 51.668 310 46.496zm1148.5 46.755c-56.522-25.977-90.014-43.789-125.77-66.891-26.779-17.301-46.781-32.658-63.895-49.056-18.136-17.378-25.734-26.115-34.585-39.769-15.047-23.213-20.372-40.179-19.516-62.185 0.4034-10.377 0.965-13.726 3.5694-21.285 1.6999-4.9336 2.8884-9.1725 2.6412-9.4197-0.8244-0.8244-16.8 3.0374-28.68 6.9328-22.692 7.4407-37.149 16.395-43.579 26.993-3.121 5.1436-3.2925 5.9046-2.9223 12.964 0.2349 4.4797 1.2738 9.7535 2.5798 13.096 5.4034 13.829 23.135 35.312 43.538 52.75 47.298 40.424 128 84.428 218.12 118.94 32.29 12.364 58.386 21.475 48.5 16.931zm207.48 7.2844c1.2236-3.575 3.3945-9.3352 4.8243-12.8 1.8321-4.4404 2.2451-6.4161 1.3991-6.6923-0.6602-0.2155-4.8004-1.371-9.2004-2.5676-60.39-16.424-145.57-47.828-204.5-75.4-79.269-37.084-138.32-75.559-177.88-115.9l-11.386-11.609 0.5004 6.2343c1.5343 19.115 22.084 45.404 57.141 73.1 65.921 52.08 178.97 105.36 303.63 143.1 14.025 4.2458 26.625 8.0978 28 8.5599 4.2556 1.4305 5.1802 0.6855 7.477-6.0247zm-1408.3 21.362c3.4583-3.1007 10.269-8.7257 15.136-12.5l8.8482-6.8624-12.848-0.01c-43.605-0.032-104.04-5.1648-147.67-12.542-95.123-16.084-179.56-48.398-232.85-89.114-3.1208-2.3841-5.9325-4.3347-6.2484-4.3347-1.1978 0 7.0138 10.463 14.317 18.243 57.67 61.432 186.39 104.52 333.61 111.68 8.8 0.4277 17.22 0.8456 18.712 0.9287 2.0033 0.1114 4.3558-1.3227 9-5.4867zm1362.2 99.3c0.2369-1.2375 1.411-7.1221 2.6091-13.077 1.1981-5.9547 1.9944-11.011 1.7697-11.235-0.2248-0.2247-4.6527-1.2898-9.84-2.3669-46.814-9.7205-122.46-30.979-176.09-49.487-136.37-47.062-250.9-109.95-305.07-167.52l-8.0572-8.5635 0.5902 6c1.2462 12.668 13.587 31.371 33.324 50.506 15.867 15.382 30.033 26.574 52.867 41.77 68.622 45.666 164.53 88.449 272.5 121.56 40.174 12.321 88.41 25.018 124 32.64 11.099 2.3772 10.893 2.3814 11.392-0.2294zm-1910.4 741.34c-36.74-12.299-58.701-21.312-89-36.525-50.083-25.147-89.163-52.581-122.52-86.009-37.65-37.73-62.322-77.164-75.421-120.55-1.7435-5.775-3.4367-11.175-3.7626-12-0.327-0.8276-1.4093 1.8621-2.4144 6-6.0803 25.03-4.5466 54.025 4.1523 78.5 30.846 86.788 141.54 153.22 293.97 176.41 6.875 1.0462 13.85 1.9329 15.5 1.9705 1.65 0.038-7.575-3.4717-20.5-7.7985zm147 91.908c81.182-4.4112 157.24-20.31 224.36-46.899 15.41-6.1047 17.486-7.1815 12.642-6.5568-9.6973 1.2504-26.946 2.4609-49.5 3.4739-22.415 1.0067-26.551 1.4736-40 4.5145-142.18 32.149-283.9 28.087-407.35-11.677-55.933-18.015-104.01-43.101-146.13-76.248l-6.4837-5.1022 4.9624 6.5c7.285 9.5422 27.498 29.304 39.521 38.64 68.528 53.208 169.48 86.124 285.98 93.246 19.766 1.2082 60.761 1.2623 82 0.1082z" fill="#c0d030"/>
  </g>
  <metadata>
    <rdf:RDF>
      <cc:Work>
        <dc:format>image/svg+xml</dc:format>
        <dc:type rdf:resource="http://purl.org/dc/dcmitype/StillImage"/>
        <cc:license rdf:resource="http://creativecommons.org/licenses/publicdomain/"/>
        <dc:publisher>
          <cc:Agent rdf:about="http://openclipart.org/">
            <dc:title>Openclipart</dc:title>
          </cc:Agent>
        </dc:publisher>
        <dc:title>coins-3</dc:title>
        <dc:date>2013-03-12T16:57:15</dc:date>
        <dc:description>small bunch of coins</dc:description>
        <dc:source>http://openclipart.org/detail/176282/coins-3-by-mariotomo-176282</dc:source>
        <dc:creator>
          <cc:Agent>
            <dc:title>mariotomo</dc:title>
          </cc:Agent>
        </dc:creator>
        <dc:subject>
          <rdf:Bag>
            <rdf:li>clip art</rdf:li>
            <rdf:li>clipart</rdf:li>
            <rdf:li>coin</rdf:li>
            <rdf:li>money</rdf:li>
            <rdf:li>stack</rdf:li>
          </rdf:Bag>
        </dc:subject>
      </cc:Work>
      <cc:License rdf:about="http://creativecommons.org/licenses/publicdomain/">
        <cc:permits rdf:resource="http://creativecommons.org/ns#Reproduction"/>
        <cc:permits rdf:resource="http://creativecommons.org/ns#Distribution"/>
        <cc:permits rdf:resource="http://creativecommons.org/ns#DerivativeWorks"/>
      </cc:License>
    </rdf:RDF>
  </metadata>
</svg>
