<?xml version="1.0"?>
<svg xmlns:rdf="http://www.w3.org/1999/02/22-rdf-syntax-ns#" xmlns="http://www.w3.org/2000/svg" xmlns:cc="http://creativecommons.org/ns#" xmlns:xlink="http://www.w3.org/1999/xlink" xmlns:dc="http://purl.org/dc/elements/1.1/" xmlns:svg="http://www.w3.org/2000/svg" id="svg10047" viewBox="0 0 79 123" version="1.1">
  <g id="coins-2">
    <path id="path11275" d="m12.433 114.07c-2.3309-0.0436-3.988-0.985-4.3553-2.4742l-0.043525-0.17649 0.00762-0.51504c0.00897-0.60634 0.00897-0.47385 0-1.0918-0.00616-0.42304-0.00354-0.52167 0.016597-0.6239 0.062543-0.31751 0.19547-0.7007 0.34872-1.0053 0.66443-1.3205 2.108-2.6265 3.9414-3.5658l0.27941-0.14315-0.168-0.0562c-0.69372-0.23219-1.1774-0.60411-1.4108-1.0849-0.11058-0.22777-0.14956-0.39817-0.15123-0.66104-0.000981-0.15486 0.0062-0.25154 0.02546-0.34399 0.02588-0.12406 0.02588-0.13269-0.000149-0.2451-0.03559-0.15395-0.03536-0.48289 0.000446-0.65129 0.12201-0.57378 0.50736-1.163 1.1045-1.6888 1.3572-1.1951 3.5008-2.0453 5.6742-2.2504 0.37766-0.03565 1.1839-0.0353 1.5267 0.000668 0.6348 0.06659 1.1328 0.19509 1.5652 0.40389 0.50403 0.24336 0.8543 0.56683 1.0276 0.94897l0.04235 0.0934 0.14562-0.05098c0.40572-0.14205 1.0513-0.31502 1.5345-0.41118 1.8464-0.36738 3.5349-0.25602 4.6325 0.30554 0.39624 0.20273 0.71491 0.46568 0.91976 0.75895l0.05987 0.08571 0.05526-0.10056c0.13974-0.2543 0.33679-0.50809 0.58164-0.74916 0.19685-0.1938 0.26148-0.24931 0.48258-0.41446 0.74865-0.5592 1.7818-0.99027 2.9869-1.2462 0.12036-0.02557 0.29082-0.06678 0.3788-0.09159 0.5899-0.16636 1.3118-0.28842 2.0242-0.34226 0.33797-0.02554 1.3095-0.02555 1.6415-0.00001 0.13889 0.01069 0.41579 0.03935 0.61533 0.0637l0.3628 0.04427 0.0977-0.09466c0.83902-0.81289 2.3598-1.3483 4.2571-1.4989 0.31775-0.02521 1.3085-0.02518 1.6415 0 2.4983 0.18936 4.3932 1.1032 4.795 2.3124 0.06498 0.19555 0.0826 0.33077 0.07301 0.56026-0.0076 0.18097-0.01885 0.24443-0.07795 0.4382-0.0087 0.0286 0.01164 0.0211 0.15576-0.05736 0.32707-0.17807 0.85497-0.38683 1.3123-0.51896 0.60759-0.17555 1.327-0.29961 2.0754-0.35792 0.31981-0.02492 1.3274-0.02469 1.6489 0.000356 1.8592 0.14491 3.3952 0.68146 4.2278 1.4768 0.29948 0.28609 0.51934 0.63462 0.58801 0.93214 0.01588 0.06882 0.02131 0.0751 0.08504 0.09856 1.8787 0.69156 3.3506 1.6746 4.0114 2.6791 0.11804 0.17942 0.23665 0.41548 0.29482 0.58677 0.12637 0.3721 0.13988 0.7419 0.03941 1.0786l-0.03373 0.11302 0.02842 0.10237c0.14826 0.53413 0.06706 1.0356-0.23644 1.4602-0.52932 0.74049-1.6526 1.2001-3.2783 1.3412-0.34359 0.0298-1.4652 0.0252-1.8494-0.008-1.1709-0.10007-2.225-0.29946-3.3088-0.62589-0.75261-0.22666-1.6066-0.55548-2.1427-0.82503-0.06511-0.0327-0.12359-0.0595-0.12994-0.0595-0.0064 0-0.02698 0.0336-0.04582 0.0747-0.09921 0.21624-0.3542 0.51696-0.60996 0.71935-0.43869 0.34712-1.1096 0.65749-1.8809 0.87011-0.944 0.26022-1.9851 0.3883-3.1641 0.38926-0.80773 0.00065-1.4777-0.046-2.1962-0.15295-0.74464-0.11083-1.6012-0.3142-2.1184-0.50297-0.06574-0.024-0.11953-0.0417-0.11953-0.0393 0 0.002 0.02595 0.0604 0.05766 0.12894 0.11909 0.25739 0.16376 0.4413 0.17562 0.72303 0.0088 0.20794-0.0045 0.33448-0.05725 0.54463-0.0283 0.11286-0.02853 0.12236-0.005 0.21539 0.13024 0.51583 0.07153 0.96936-0.18532 1.4315-0.42602 0.76651-1.3962 1.4264-2.7336 1.8591-2.194 0.70997-5.0648 0.69861-7.242-0.0286-0.15523-0.0519-0.3658-0.1288-0.46793-0.171-0.34192-0.14127-0.27175-0.13352-0.57446-0.0634-0.89428 0.20718-1.6455 0.29038-2.6268 0.29095-0.52137 0.00029-0.81593-0.0133-1.2552-0.0581-1.1575-0.11791-2.2664-0.40459-3.207-0.82907l-0.184-0.083-0.12052 0.0724c-0.75877 0.456-1.8752 0.89363-2.8984 1.1361-0.89669 0.21251-1.6096 0.29589-2.4808 0.29015l-0.51992-0.003-0.28967 0.13399c-1.7154 0.79345-3.6714 1.2288-5.3774 1.1969z"/>
    <path id="path11249" d="m59.627 105.65c1.2846-0.0208 3.8689-0.49934 3.1579-2.2999-1.34-2.0056-3.8393-2.7707-6.0761-3.2976-1.9385-0.34071-4.1094-0.57448-5.9054 0.39825-1.7176 1.3944 0.75407 3.1538 2.0355 3.7212 2.0979 1.017 4.4542 1.5559 6.7881 1.478zm0 1.1884c1.0588 0.13747 3.3736-0.70906 3.1553-1.4301-2.2507 1.3555-5.0843 0.92184-7.5144 0.34455-1.7629-0.34368-4.0283-1.6846-4.9633-2.5293 1.2532 1.9854 3.7012 2.7467 5.8696 3.2882 1.132 0.24378 2.294 0.38131 3.4528 0.32656zm-38.467 3.8762c0.75499-0.21163 2.0133-0.37897 0.87631-1.1842-0.1585 0.35679-0.96758 1.0751-0.87631 1.1842zm15.776 0.17955c1.7818-0.18115 3.9038-0.50604 4.9699-2.1053 0.61759-2.0259-2.197-2.8179-3.7032-3.1043-2.5492-0.37597-5.4682-0.25172-7.5416 1.448-1.3929 1.2992 0.43688 2.8665 1.7476 3.1892 1.4434 0.52329 3.0025 0.65793 4.5273 0.57239zm0.0074 1.1883c1.7762-0.17566 3.8716-0.51308 4.9555-2.0829 0.21105-0.61123-1.3126 0.97866-1.9134 0.89849-2.9782 0.97169-6.4939 0.93213-9.2203-0.72927-1.3805-1.1714 0.45317 1.1956 1.1633 1.1469 1.5673 0.68864 3.3195 0.86048 5.0149 0.76682zm-17.458 0.11115c1.3311-0.14701 3.1674-0.55377 3.9959-1.3018-0.92202-0.67942-2.0926 0.69684-3.1804 0.54459-0.20381 0.11724-1.8606 1.05-0.81552 0.75719z" fill="#f0e000"/>
    <path id="path11247" d="m39.944 105.45c-0.03831-0.0894-0.08524-0.25246-0.09772-0.33961-0.0083-0.0579-0.01481-0.0696-0.03441-0.0619-0.03579 0.0141-0.63198 0.21494-0.64065 0.21581-0.0041 0.00041 0.1129 0.0368 0.25996 0.0809s0.32421 0.10009 0.39365 0.12441c0.06945 0.0243 0.13104 0.0447 0.13688 0.0453 0.0058 0.00061-0.0021-0.0286-0.01771-0.065z"/>
    <path id="path11233" d="m29.314 103.02c-0.04585-0.0727-0.10958-0.18393-0.14162-0.24724-0.03204-0.0633-0.06139-0.11513-0.06522-0.11513-0.0038 0-0.02141 0.0284-0.03908 0.0631-0.0347 0.0682-0.19498 0.31405-0.2325 0.35661-0.01265 0.0143-0.01959 0.0295-0.01543 0.0336 0.0042 0.004 0.12054 0.0144 0.25863 0.0227 0.13809 0.008 0.26444 0.0169 0.28078 0.0189s0.03153 0.003 0.03376 0.002c0.0022-0.001-0.03346-0.0616-0.07931-0.13428z"/>
    <path id="path11229" d="m37.27 101.76c1.5552-0.16169 4.6668-0.6057 4.271-2.7471-1.2651-1.6989-3.6875-1.8478-5.6466-1.8097-1.6495 0.15716-4.4625 0.46995-4.538 2.5617 0.91783 1.7062 3.1891 1.9168 4.9298 2.0213 0.3281 0.005 0.65641-0.004 0.98376-0.0262zm0 0.89129c1.4019 0.0381 3.8838-0.85089 4.1177-1.7028-2.4097 1.6747-5.6967 1.6824-8.4057 0.77692-0.59976-0.0407-2.3417-1.6707-1.0874-0.31143 1.5001 1.1482 3.5508 1.3298 5.3754 1.2373zm10.584 3.5531c0.93583-0.1254 3.3978-0.33992 3.2715-1.1527-1.8813-0.77954-0.86812-3.5454-3.2152-3.2286-1.7295-0.44498-3.4246 0.41451-5.1698 0.16636 0.26122 1.6748-3.3247 2.6237-0.64254 3.3773 1.8068 0.76537 3.8121 0.95126 5.756 0.83763zm0 1.1884c1.3461-0.1431 3.8754-0.46879 4.0113-1.8272-2.7004 1.6386-6.1502 1.4477-9.0953 0.64435-0.85663-0.0143-3.2306-2.0852-1.8628-0.38624 1.9386 1.474 4.5979 1.6719 6.9469 1.5691zm-18.665 2.9464c1.3554-0.0266-0.50364-2.7056 0.87444-3.4574 0.33199-0.92439 2.8888-1.3494 2.5763-1.6724-1.4977-0.30301-2.5094-1.7751-4.1622-1.4056-1.3202 0.56792-2.5405 1.8097-4.0904 2.0885-2.0822-0.31578-2.3667 2.4542-0.64909 3.1586 1.6034 1.0185 3.5776 1.3476 5.4509 1.2882zm0.32681 1.1734c1.4589 0.29656 1.3327-0.77644 0.07737-0.5068-2.4898 0.13086-5.2409-0.31798-7.1088-2.0994 1.391 2.2979 4.5906 2.6931 7.0314 2.6062zm-16.117 0.5872c3.1813-0.35698 6.6288-1.7738 8.2802-4.6706 1.1376-1.946-1.1022-3.5779-2.9027-3.4999-3.4738-0.15396-7.1678 1.248-9.3454 4.0214-1.6419 1.7213 0.00301 4.1609 2.1228 4.1082 0.61055 0.094 1.2308 0.0822 1.8451 0.0408zm-0.0028 1.1886c2.9637-0.30715 5.9957-1.574 7.8676-3.9661-2.7337 2.6411-6.8077 4.1126-10.579 3.3312-0.8066-0.14409-2.454-1.3666-1.0575-0.0972 1.0975 0.7346 2.4904 0.82381 3.7693 0.73203z" fill="#c0b020"/>
    <path id="path11223" d="m47.948 101.15c-0.0336-0.0633-0.06589-0.12061-0.07175-0.12733-0.0059-0.007-0.09006 0.0299-0.1871 0.0814-0.12282 0.0652-0.16742 0.0954-0.14674 0.0995 0.07974 0.0159 0.37704 0.0584 0.41903 0.0598l0.04766 0.002-0.0611-0.11513z"/>
    <path id="path11219" d="m44.251 100.28c1.5983-0.18722 4.2893-0.52389 4.3407-2.5607-0.85855-1.6194-2.9869-1.8632-4.6349-2.0026-1.7363-0.05205-3.5998 0.16532-5.0429 1.2114 1.7609 0.27041 3.2316 1.4567 3.6794 3.1955 0.26995 0.38793 1.2054 0.0991 1.6577 0.15646zm0 1.1884c1.5877-0.19005 3.8678-0.46339 4.3864-2.2566-1.5604 1.4487-3.8575 1.679-5.8941 1.5953-0.387 1.1317 0.88746 0.55927 1.5077 0.66127zm5.2773 0.0545c0.11994-2.0103 2.648-2.3509 4.2346-2.3869 1.5855-0.02699 3.1629 0.2527 4.6789 0.70348-1.4-1.6958-3.8735-1.8108-5.9185-1.7226-1.2162 0.26855-3.4542 0.16603-3.542 1.791-0.94872 0.80104-0.53972 1.7053 0.54712 1.6149zm-30.553 1.5012c0.8658-0.17006 3.1574-2.6751 1.3571-1.1043-0.28723 0.49839-3.9987 1.7218-1.3571 1.1043zm-3.913 0.22679c2.3211-0.26511 4.9172-1.0818 6.2271-3.1517 0.64234-2.1785-2.6013-2.2722-4.036-2.0154-2.1487 0.36999-4.5771 1.1651-5.7192 3.1601-0.65749 1.9658 2.3103 2.1235 3.5281 2.007zm-1.4287 0.79354c1.6896-0.49014-1.8554-0.12637-2.0611-0.96543-0.02686 0.47784 1.3841 1.162 2.0611 0.96543zm23.028 0.0618c1.965-0.17014 4.5073-0.66373 5.3377-2.7087 0.19257-0.82895-1.24 1.4752-2.0351 1.2354-2.6509 0.86875-5.8325 0.87392-8.239-0.67602-1.3006-0.52256-0.76534-2.7305-0.91355-3.127-1.8679 0.92335-1.324 3.4584 0.42796 4.1513 1.6327 0.92703 3.5673 1.211 5.422 1.1251zm-14.02 0.71241c2.332-0.47111 4.9922-1.4282 6.1059-3.7 0.43072-2.2043-2.5762-2.4102-4.1282-2.1968-1.3188 0.19426-3.2727 0.2034-2.7594 2.0578 0.01305 1.4131-3.7043 2.3484-1.0639 2.6669 0.80407 0.067 1.1447 1.2618 1.8456 1.1721zm12.631 0.10321c1.5428 0.0389 3.1269 0.0724 4.5576-0.62305 0.79547-0.29863 2.1059-1.3474 0.65214-0.43759-3.169 1.428-7.1573 1.2983-10.097-0.61827 1.3128 1.135 3.1695 1.7075 4.8872 1.6789zm-12.058 0.67673c1.8605-0.44141 3.7478-1.2379 5.0245-2.7116-1.5664 1.3964-3.5899 2.1977-5.6413 2.5477-0.01569 0.48033 0.35218 0.15028 0.61682 0.16396z" fill="#ffd040"/>
  </g>
  <metadata>
    <rdf:RDF>
      <cc:Work>
        <dc:format>image/svg+xml</dc:format>
        <dc:type rdf:resource="http://purl.org/dc/dcmitype/StillImage"/>
        <cc:license rdf:resource="http://creativecommons.org/licenses/publicdomain/"/>
        <dc:publisher>
          <cc:Agent rdf:about="http://openclipart.org/">
            <dc:title>Openclipart</dc:title>
          </cc:Agent>
        </dc:publisher>
        <dc:title>coins-2</dc:title>
        <dc:date>2013-03-12T16:55:50</dc:date>
        <dc:description>small bunch of coins</dc:description>
        <dc:source>http://openclipart.org/detail/176280/coins-2-by-mariotomo-176280</dc:source>
        <dc:creator>
          <cc:Agent>
            <dc:title>mariotomo</dc:title>
          </cc:Agent>
        </dc:creator>
        <dc:subject>
          <rdf:Bag>
            <rdf:li>clip art</rdf:li>
            <rdf:li>clipart</rdf:li>
            <rdf:li>coin</rdf:li>
            <rdf:li>money</rdf:li>
            <rdf:li>stack</rdf:li>
          </rdf:Bag>
        </dc:subject>
      </cc:Work>
      <cc:License rdf:about="http://creativecommons.org/licenses/publicdomain/">
        <cc:permits rdf:resource="http://creativecommons.org/ns#Reproduction"/>
        <cc:permits rdf:resource="http://creativecommons.org/ns#Distribution"/>
        <cc:permits rdf:resource="http://creativecommons.org/ns#DerivativeWorks"/>
      </cc:License>
    </rdf:RDF>
  </metadata>
</svg>
