<?xml version="1.0" encoding="utf-8"?>

<!DOCTYPE svg PUBLIC "-//W3C//DTD SVG 1.1//EN" "http://www.w3.org/Graphics/SVG/1.1/DTD/svg11.dtd">
<svg version="1.1" id="Layer_1" xmlns="http://www.w3.org/2000/svg" xmlns:xlink="http://www.w3.org/1999/xlink" x="0px" y="0px"
	 viewBox="0 0 1920 1550" style="enable-background:new 0 0 1920 1550;" xml:space="preserve">
<g>
	<path d="M701.472,1235.999c0,22.977-9.786,6.046-9.81-0.023c-0.023-5.77-1.44-4.202-15.151-16.634
		c-8.616-7.812-8.426,5.187-7.54,7.142c3.938,8.692,3.924,17.995,4.798,27.263c4.308,45.676-5.219,46.671-8.279,57.723
		c-2.205,7.966-6.561-2.73-8.142,3.532c-4.452,17.641-7.821-0.728-8.961-0.71c-2.144,0.032-0.702,9.085-4.632,9.497
		c-6.261,0.657-5.645-14.116-4.555-20.429c0.174-1.008,1.07-6.236-0.154-6.352c-1.646-0.156-1.382,5.246-5.427,14.608
		c-2.212,5.121-4.803,3.831-6.214-0.148c-3.499-9.863,3.361-16.156-2.312-19.797c-1.884-1.209-11.278-32.762-11.885-37.887
		c-1.319-11.129-15.998-22.341-25.833-47.619c-11.29-29.018,0.704-15.068-59.593-5.301c-5.714,0.926-6.527-5.008-3.371-7.71
		c4.092-3.505,5.969-7.049,7.68-6.911c43.55,3.51,77.533-45.758,132.246-55.601c17.284-3.109,14.047,9.308,35.883,11.586
		c4.67,0.488,8.309,8.101,36.847,1.298c33.897-8.081,11.465-5.217,42.456,5.645c3.837,1.345,13.935,2.903,12.695,6.815
		c-0.861,2.714-11.627-0.122-13.279-0.531c-9.49-2.349-10.864,4.735-31.461,2.091c-12.289-1.577-24.14-0.033-35.933,3.292
		c-9.012,2.542,29.21,54.938,28.855,56.06c-0.811,2.568-11.322-1.481-5.528,6.891c1.469,2.122,5.189,4.59,3.209,7.123
		c-2.916,3.729-10.387-3.781-13.102-6.318c-1.027,1.152-0.552,1.47,3.811,13.52c2.764,7.631-4.944,10.194-11.937-5.318
		c-6.228-13.815,5.914,25.531-4.586,16.302c-6.248-5.491-6.207-12.585-8.236-22.392c-0.161-0.777-0.638-1.489-0.97-2.231
		c-1.689,2.988-1.431-0.232-1.431,11.526C701.576,1235.999,701.524,1235.999,701.472,1235.999z M639.541,1292.047
		c0.167,0.698-0.276,1.551,0.513,2.115c0.653-1.517,2.687-5.262,0.593-4.918C638.942,1289.525,639.807,1291.044,639.541,1292.047z"
		/>
	<path d="M1208.462,1130.149c0,22.978-11.091,4.66-10.737-0.696c0.182-2.756-0.893-4.245-3.299-5.412
		c-5.01-2.431-8.578-6.823-13.046-10.016c-8.581-6.132-7.661,6.106-6.821,8.051c7.062,16.347,7.625,65.938,0.375,71.192
		c-6.123,4.437-1.159,13.1-9.819,9.994c-4.997-1.792-2.609,9.046-7.36,8.517c-6.398-0.712-2.964-15.455-7.423-1.438
		c-2.205,6.933-10.057,0.61-8.341-11.198c5.102-35.111-4.832,17.499-11.288,3.403c-4.172-9.113,3.118-16.265-2.801-19.596
		c-1.096-0.617-1.829-1.463-2.047-2.666c-2.036-11.215-8.651-21.065-10.178-32.282c-1.736-12.745-11.279-12.157-30.14-50.733
		c-3.433-7.021-2.655-13.368-10.102-11.215c-85.588,24.746-54.059-4.69-29.926-3.432c23.595,1.229,21.341-8.626,29.873-11.336
		c8.025-2.549,88.603-52.717,108.845-38.345c14.344,10.184,20.074,6.711,27.705,10.27c21.803,10.172,50.466-11.707,61.273-2.094
		c9.416,8.375,31.629,7.355,30.089,13.5c-0.764,3.048-9.15,0.267-11.671-0.228c-11.8-2.317-9.21,1.613-18.585,1.563
		c-11.997-0.064-23.995-0.046-35.992-0.121c-6.224-0.039-11.808,3.126-18.001,3.439c-7.232,0.365,8.901,21.987,9.969,23.288
		c3.999,4.871,5.87,11.153,9.81,16.136c10.094,12.765,11.47,11.236,10.58,13.925c-0.874,2.637-14.07-2.008-4.102,8.102
		c3.419,3.469,3.383,5.816-2.916,5.109c-6.419-0.721-6.817-7.318-9.267-5.497c-1.655,1.23,0.876,2.911,4.05,11.873
		c2.381,6.724-3.652,11.015-13.334-6.044c-5.652-9.957,7.219,27.266-4.536,16.348c-7.138-6.63-5.78-12.674-8.491-20.759
		c-0.258-0.771,0.336-2.321-1.165-2.098c-1.132,0.168-1.11,1.506-1.119,2.502c-0.023,2.665-0.008,5.33-0.008,7.995
		C1208.497,1130.149,1208.479,1130.149,1208.462,1130.149z M1143.477,1182.016c0.126,0.744,0.262,1.543,0.398,2.342
		c0.891-0.291,2.22-3.527,0.469-3.786C1143.216,1180.405,1143.824,1181.476,1143.477,1182.016z"/>
	<path d="M320.561,230.183c0,8.123,0.469,9.911-1.916,10.625c-3.282,0.982-8.149-6.976-7.899-11.702
		c0.186-3.516-1.155-5.465-4.148-7.096c-4.434-2.415-7.37-6.685-11.194-9.884c-8.237-6.89-7.369,7.005-6.261,8.986
		c4.852,8.677,9.517,66.984-1.633,76.452c-3.201,2.718,0.372,12.152-7.401,8.977c-4.916-2.009-3.141,15.636-9.568,6.814
		c-1.997-2.741,0.321-5.971-2.032-5.98c-1.054-0.004-1.827,4.272-1.926,5.211c-0.628,5.97-4.828,5.656-6.717,0.862
		c-2.712-6.884,1.127-31.694-2.46-19.673c-4.185,14.027-4.741,14.936-6.653,14.816c-3.442-0.217-5.108-8.402-3.547-15.302
		c2.033-8.982-2.91-7.056-3.484-10.441c-9.158-53.983-28.028-54.861-41.11-97.042c-2.237-7.212-4.406-2.211-36.89,5.448
		c-3.582,0.845-19.839,4.903-20.931,1.227c-1.713-5.769,5.662-15.365,22.987-13.716c19.383,1.845,20.235-7.575,28.395-11.806
		c14.66-7.602,83.872-54.791,101.061-41.122c10.914,8.679,36.318,14.304,38.1,14.28c25.436-0.332,37.019-15.214,49.192-2.831
		c4.037,4.107,17.14,5.905,22.242,8.043c5.799,2.431,4.536,6.471-1.873,5.416c-8.442-1.39-11.244-4.152-16.859-1.338
		c-5.524,2.768-27.274,1.464-31.589,0.685c-7.411-1.337-12.798,1.63-23.9,3.72c-4.238,0.798-4.456,1.219-3.03,5.097
		c6.346,17.253,29.949,51.588,29.949,51.588c-0.583,2.171-2.427,1.176-3.768,1.247c-10.008,0.533,3.508,8.425,1.448,11.947
		c-4.13,7.061-16.79-12.198-12.955-2.034c4.97,13.174,5.029,13.951,3.487,14.85c-5.675,3.31-10.74-6.601-12.07-11.513
		c-0.952-3.516-2.856-2.373-2.002,0.57c8.268,28.489-6.884,19.206-8.825,2.612c-1.287-11.001-3.789-10.923-3.984-6.977
		c-0.147,2.988-0.055,5.988-0.055,8.983C320.681,230.182,320.621,230.182,320.561,230.183z M259.482,285.296
		c0.554,0.721-0.509,1.95,0.593,2.814c0.86-2.606,2.446-6.209,0.532-5.833C258.974,282.598,259.804,284.072,259.482,285.296z"/>
	<path d="M1594.46,1098.842c-5.356,13.454,5.973,18.798,25.002,25.302c5.749,1.965,7.297,8.704,2.661,12.72
		c-1.758,1.522-1.637,1.559,10.375,4.401c33.963,8.036,8.083,3.604,36.91,4.598c10.436,0.36,8.651,8.536,14.251,10.708
		c4.583,1.778,6.573,6.15,9.728,9.34c1.657,1.675,0.711,3.535-0.595,4.865c-4.474,4.555-4.489-2.878-17.299-5.525
		c-25.706-5.307-8.509-9.867-65.363-22.569c-24.182-5.403-30.455,5.235-64.21,4.34c-29.092-0.771-44.238,4.552-58.766,1.201
		c-1.744-0.402-3.824-0.673-5.425-0.1c-6.167,2.21-18.363-7.17-13.384-21.008c3.584-9.959-35.649-9.877-48.436-9.15
		c-5.462,0.311-4.698-5.27-0.258-5.809c62.469-7.591,19.71-2.836,67.838-14.976c7.106-1.792,19.797-6.285,12.492-10.03
		c-6.344-3.252-10.571-6.756-1.906-50.146c0.323-1.62,1.061-10.511,3.194-10.584c8.379-0.287,5.218-56.948,13.207-28.573
		c2.406,8.544,4.01-10.114,7.783-10.4c4.249-0.322,2.638,16.324,6.181,9.227c5.007-10.021,8.193-11.993,9.12-0.292
		c0.692,8.745,5.857-6.344,9.745-5.177c4.548,1.366-1.345,9.182,7.508,9.349c5.185,0.098,1.057,5.162,7.841,10.056
		c1.845,1.331,2.835,3.054,3.931,4.962c2.223,3.868,6.233,6.123,9.348,9.207C1589.498,1038.211,1602.434,1078.815,1594.46,1098.842z
		"/>
	<path d="M222.255,1301.081c6.453-1.636,99.069-52.438,122.02-36.904c11.164,7.557,21.372,7.468,23.669,8.546
		c22.846,10.722,50.752-7.257,60.371,0.257c8.287,6.474,19.032,7.309,27.723,10.189c3.623,1.201,3.165,4.664-0.879,4.146
		c-31.47-4.032-16.355,1.521-39.927-0.793c-34.01-3.338-18.868-0.362-37.536,0.911c-8.063,0.55,4.41,16.934,6.039,18.69
		c5.248,5.658,8.493,17.255,19.023,25.81c8.791,7.143-12.29-0.325-3.835,9.007c5.346,5.9,1.254,7.736-4.326,4.756
		c-3.669-1.959-10.566-12.571-2.834,6.598c3.251,8.057-7.703,5.398-12.279-5.83c-3.496-8.58,0.038,10.575,0.007,11.801
		c-0.194,7.68-9.922,1.911-11.602-11.873c-0.957-7.849-3.78-10.798-4.337,8.088c-0.317,10.749-10.72-0.198-9.934-7.085
		c0.163-1.431-0.297-2.761-1.671-3.329c-9.743-4.027-17.626-17.951-20.829-8.066c-0.59,1.823-0.775,3.543,0.189,5.297
		c3.422,6.229,2.996,13.2,3.726,19.93c4.333,39.987-8.262,41.398-10.797,50.233c-1.529,5.328-5.961-5.18-8.429,3.198
		c-0.639,2.168-1.554,4.243-3.735,4.001c-5.407-0.6-2.227-13.651-7.365-1.417c-2.283,5.434-8.41,0.701-7.61-8.484
		c0.52-5.977,2.009-7.642,1.138-11.064c-2.211,2.22-7.328,20.678-11.988,12.022c-4.724-8.776,4.644-14.135-2.8-17.672
		c-0.375-0.178-0.812-0.833-0.762-1.203c0.544-3.983-2.441-6.667-3.503-9.981c-2.706-8.448-6.621-16.597-7.293-25.636
		c0,0-21.789-23.546-29.317-46.254c-1.922-5.798-3.692-2.477-38.486,3.263c-12.297,2.029-29.297,3.317-19.859-4.808
		C198.535,1295.109,200.811,1306.517,222.255,1301.081z M300.153,1393.476c0.458-1,0.971-2.16,0.02-2.897
		C299.593,1391.582,299.072,1392.634,300.153,1393.476z"/>
	<path d="M1081.63,517.045c-2.794,2.809-4.158,15.045-8.476,14.625c-3.847-0.374-4.712-7.532-4-10.564
		c0.831-3.54,1.789-7.291-2.585-9.553c-0.461-0.238-0.898-1.159-0.824-1.691c0.455-3.271-1.864-5.406-2.914-8.075
		c-3.294-8.372-7.759-16.433-8.219-25.723c-0.053-1.067-0.348-2.045-1.327-2.516c-5.827-2.804-8.09-8.865-12.229-13.188
		c-40.734-42.54,10.561-36.072-65.257-23.873c-24.213,3.896-11.86-13.104,9.653-11.629c9.569,0.656,18.666-0.091,26.403-7.236
		c4.386-4.049,10.874-4.733,16.278-7.273c114.367-53.732,80.222-22.219,117.078-21.186c0.799,0.022,1.633,0.34,2.374,0.686
		c16.31,7.622,41.053-2.56,51.654-3.079c10.954-0.537-0.176-0.303,27.942,8.42c23.255,7.215,3.112,6.55-1.374,4.874
		c-7.146-2.67-16.585,3.79-31.912,1.575c-19.76-2.857-31.137,1.805-36.959,2.638c-11.198,1.602,29.142,44.848,28.334,46.737
		c-0.693,1.622-2.641,0.717-4.04,0.882c-8.999,1.066,9.316,11.209-0.033,11.043c-3.728-0.066-6.669-1.742-9.036-4.519
		c-8.599-10.089,10.062,19.715-2.649,14.092c-5.482-2.425-5.927-6.874-8.595-8.767c-0.38-5.757-2.708-2.365-0.574,0.483
		c1.233,10.997,3.025,17.665-3.451,13.086c-8.815-6.232-8.413-27.823-10.753-18.373c-1.699,6.859,1.061,15.511-2.105,16.795
		c-3.071,1.245-8.172-4.118-8.331-10.326c-0.041-1.592-0.276-3.249-1.823-3.812c-8.604-3.133-15.829-13.847-19.64-10.595
		c-2.232,1.905-2.619,5.312-1.315,7.894c5.839,11.561,6.364,43.179,3.417,56.511c-1.868,8.449-3.848,3.717-7.031,12.669
		c-2.884,8.109-6.541-2.438-8.747,3.901c-1.066,3.063-1.383,5.674-4.008,5.579c-5.253-0.191-3.61-12.573-6.954-2.731
		c-3.568,10.505-10.959-2.125-8.259-10.177c0.807-2.405,1.703-5.103,0.199-7.701c0.52,0.016,1.075,0.056,0.497-0.704
		C1081.903,516.513,1081.767,516.779,1081.63,517.045z M1083.721,513.023c-0.647-5.542-2.069,0.67-0.486,1.151
		C1083.28,514.187,1083.576,513.372,1083.721,513.023z"/>
	<path d="M1532.215,610.004c7.823,1.805,3.455,5.799,12.726,9.624c13.011,5.367,8.703,17.144,1.068,10.92
		c-8.607-7.017-20.454-2.47-29.049-10.18c-5.642-5.061-65.263-18.392-67.297-17.158c-12.427,7.538-119.608,5.2-120.609,5.195
		c-7.751-0.039-16.796-9.894-12.254-17.959c4.343-7.71-32.963-10.01-41.236-9.509c-8.422,0.51-11.486,2.692-11.894-1.564
		c-0.215-2.239-1.306-4.136,26.82-4.226c18.317-0.058,10.553-3.861,47.427-10.173c8.773-1.502,21.044-5.152,13.366-8.09
		c-11.142-4.264-7.917-12.287-0.41-46.973c2.007-9.271,5.203-1.626,6.815-7.406c2.46-8.816,4.001-38.79,9.203-25.294
		c3.827,9.928,3.278,5.373,6.425-2c1.059-2.48,3.88-3.903,5.865,0.482c0.848,1.873-0.301,5.274,1.962,5.609
		c2.799,0.414,4.018-9.673,8.191-7.836c4.588,2.02,1.551,7.957,3.601,8.966c2.41,1.186,5.423-7.811,9.754-6.095
		c4.102,1.625-0.864,8.014,5.575,7.717c3.517-0.163,5.663,1.437,6.28,4.999c0.233,1.345,15.887,15.011,18.278,16.578
		c14.012,9.182,8.344,13.914,12.538,20.254c23.473,35.478-12.016,49.063,14.343,58.753c17.583,6.464,20.467,4.963,22.119,11.02
		c2.374,8.706-14.733,3.13,9.6,9.586C1518.164,612.337,1519.773,607.133,1532.215,610.004z"/>
	<path d="M787.826,225.435c-0.178-5.932,31.692-1.421,47.674-8.779c11.238-5.174,31.252-5.851,39.757-10.445
		c4.551-2.459,0.887-4.932-0.114-5.213c-8.379-2.353-8.756-7.851-1.18-44.473c0.207-1,1.867-7.227,3.108-7.075
		c9.323,1.139,3.837-29.306,10.408-29.384c3.632-0.043,3.662,11.865,6.285,6.058c9.427-20.871,7.296-1.043,10.384-0.575
		c2.164,0.328,4.098-8.984,7.808-7.931c5.61,1.593,1.153,13.783,6.963,6.96c10.436-12.256,7.312,3.985,12.705,2.878
		c6.114-1.255,1.826,3.797,17.371,16.367c5.784,4.677,12.939,7.736,16.678,14.838c1.295,2.461,0.677,5.148,2.028,7.589
		c5.171,9.345,14.636,25.574,7.305,44.623c-1.176,3.056-0.093,6.094-1.202,9.079c-1.507,4.055,24.783,12.727,29.064,13.3
		c3.827,0.512,5.613,6.547,2.982,9.55c-1.284,1.465-2.302,2.192,0.465,2.758c9.248,1.892,18.42,4.335,27.753,5.573
		c14.826,1.966,24.355-4.015,29.772,5.241c0.983,1.68,2.339,2.889,4.078,3.496c4.374,1.527,7.368,4.819,10.476,7.949
		c3.806,3.832-2.663,7.071-5.883,4.564c-8.919-6.946-22.951-2.284-30.803-10.771c-2.275-2.459-64.811-17.983-68.234-15.028
		c-6.442,5.561-120.883,7.982-116.29,6.895c-8.505,2.013-19.233-8.804-15.908-16.479c1.569-3.623,3.847-6.876-17.605-8.865
		C791.239,225.126,787.981,230.604,787.826,225.435z"/>
	<path d="M654.516,307.206c14.268,3.902,0.629,11.224,5.685,12.947c33.913,11.562,51.333-0.272,58.071,10.762
		c1.453,2.38,23.096,13.524,13.271,16.78c-1.828,0.606-3.714,0.417-5.19-0.901c-8.014-7.152-21.406-2.087-29.174-9.735
		c-3.137-3.089-43.905-12.693-49.142-13.489c-44.221-6.72-165.289,23.806-151.36-13.309c2.19-5.837-9.136-5.183-14.59-6.531
		c-11.787-2.913-13.527-3.552-34.986-1.297c-6.539,0.687-6.371-4.994-0.663-5.301c29.821-1.604,36.086-2.67,43.231-5.809
		c13.075-5.746,29.121-5.385,39.338-10.091c10.728-4.942-7.249-2.462-5.661-18.1c0.103-1.012,4.015-39.715,10.036-39.066
		c5.358,0.577,3.482-31.177,8.576-30.556c3.839,0.468,1.186,8.046,4.914,8.214c3.08,0.139,2.576-10.68,7.104-10.038
		c4.307,0.611,1.777,8.71,4.482,9.078c2.047,0.279,3.919-9.372,7.928-8.416c4.187,0.999,2.142,8.017,4.215,8.69
		c2.964,0.962,4.82-7.432,9.176-6.103c5.03,1.535,0.113,8.1,5.827,7.393c7.331-0.907,4.011,6.088,10.51,9.03
		c1.164,0.527,2.605,1.049,3.132,2.361c2.021,5.035,7.239,6.316,10.91,9.395c16.956,14.224,7.348,10.976,13.796,21.156
		C650.975,286.934,600.522,292.439,654.516,307.206z"/>
	<path d="M1836.397,876.049c12.844-0.792,10.51,6.708,17,9.138c4.053,1.517,15.794,9.921,8.943,12.744
		c-1.649,0.68-3.47,0.674-4.755-0.469c-8.105-7.205-20.504-2.604-29.246-9.547c-6.526-5.184-64.932-19.813-74.484-14.375
		c-72.765,2.418-123.738,14.917-127.892-7.005c-1.093-5.77,5.321-8.666-1.915-10.34c-22.981-5.316-33.454-5.122-45.795-3.302
		c-6.914,1.02-8.597-5.394,2.308-5.63c30.36-0.656,35.598-3.411,42.022-6.315c8.773-3.966,29.694-5.396,38.261-9.767
		c4.211-2.149-0.754-5.688-1.754-5.954c-5.342-1.422-9.097-3.418,0.662-45.931c1.985-8.646,5.025-0.353,6.621-7.575
		c4.057-18.372,0.911-17.072,4.021-24.93c3.485-8.809,4.984,5.802,6.921,5.774c2.618-0.038,4.799-17.15,9.656-7.761
		c1.484,2.869-0.607,5.549,2.286,5.828c2.674,0.257,3.494-8.927,7.927-7.632c3.253,0.95,3.216,6.093,3.326,7.194
		c0.515,5.14,4.205-2,6.809-3.967c7.597-5.74,2.382,8.031,10.319,6.527c5.84-1.106,2.589,6.543,9.38,8.973
		c0.46,0.165,1.052,0.389,1.261,0.765c4.012,7.23,12.153,9.709,17.611,15.315c8.284,8.509,3.715,8.709,7.662,14.993
		c14.405,22.932,7.898,37.589,5.49,52.245c-1.035,6.302,31.023,11.789,32.599,17.096c2.824,9.511-11.107,6.505,8.339,10.33
		C1815.294,875.483,1813.806,877.442,1836.397,876.049z"/>
	<path d="M1067.515,1373.149c9.497,0.23,7.88,7.847,14.773,9.794c2.312,0.653,14.48,8.797,8.035,11.883
		c-1.55,0.742-3.498,0.788-4.8-0.285c-5.665-4.671-12.699-4.407-19.312-5.504c-11.05-1.833-8.185-5.076-17.097-7.488
		c-94.336-25.522-47.862-4.403-121.018-7.815c-17.276-0.806-69.185,11.403-74.127-8.946c-1.638-6.745,5.415-10.202-1.845-11.582
		c-41.558-7.892-42.626-2.896-46.351-3.332c-1.807-0.212-4.51,1.138-4.942-1.782c-0.775-5.244,20.992-3.866,36.15-5.887
		c7.184-0.958,13.452-4.656,20.309-6.615c8.367-2.391,39.675-4.838,31.802-11.72c-3.81-3.33-8.539-1.084-7.516-12.136
		c0.571-6.17,5.272-38.941,7.662-39.265c9.418-1.279,5.568-20.328,8.764-28.347c1.863-4.675,3.485-3.078,4.522-0.034
		c5.06,14.863,4.176-5.775,9.847-4.763c4.05,0.722,2.41,8.324,4.108,8.703c2.99,0.667,3.489-8.81,8.401-7.798
		c4.802,0.989,1.806,7.802,4.32,8.621c2.059,0.67,1.625-1.94,5.523-5.255c2.78-2.364,5.346-1.704,5.632,1.846
		c0.295,3.66,1.283,4.936,5.119,4.36c4.847-0.728,2.47,4.532,9.414,9.124c0.416,0.275,0.998,0.445,1.232,0.829
		c4.262,7.002,12.202,9.724,17.722,15.264c9.242,9.274,2.825,8.288,8.458,16.77c7.363,11.088,11.121,27.282,4.419,50.393
		c-1.251,4.315,22.797,11.593,26.706,12.75c12.917,3.82,0.589,11.631,4.415,12.539
		C1054.83,1376.263,1042.273,1372.537,1067.515,1373.149z"/>
	<path d="M1232.288,871.794c-0.171-4.289,2.265-1.677,36.936-5.671c7.116-0.82,13.422-4.62,20.294-6.554
		c6.896-1.941,38.627-4.648,30.257-11.739c-2.153-1.823-8.526-0.149-7.089-14.465c0.325-3.232,4.147-38.04,9.95-37.351
		c4.858,0.577,4.853-41.897,10.462-28.752c0.427,1,2.451,10.443,4.69,4.726c7.776-19.854,8.129,0.033,9.997,0.186
		c2.487,0.204,3.523-8.765,7.891-7.844c2.721,0.573,3.117,3.546,3.202,6.145c0.276,8.405,6.563-5.69,10.438-3.866
		c4.74,2.23-0.766,7.931,6.427,7.505c6.297-0.373,4.206,5.959,7.799,7.788c2.865,1.459,4.651,3.914,6.735,6.295
		c3.124,3.57,20.847,13.205,20.231,20.242c-0.692,7.903,19.274,22.545,7.139,57.712c-0.603,1.747,1.223,2.392,2.456,3.258
		c16.613,11.657,31.491,6.039,30.445,17.182c-0.425,4.529-5.287,4.278,0.774,5.593c67.084,14.555,30.636-9.904,71.292,22.675
		c2.68,2.148-2.32,6.794-5.053,4.557c-9.209-7.537-23.473-3.637-29.719-9.697c-4.784-4.641-43.279-13.163-49.865-14.236
		c-44.067-7.181-164.668,24.741-151.838-13.843c1.296-3.898-2.426-4.109-4.365-4.427c-5.591-0.917-15.618-3.255-23.478-4.218
		C1247.121,871.626,1232.486,876.752,1232.288,871.794z"/>
</g>
</svg>
