<svg xmlns="http://www.w3.org/2000/svg" width="375" viewBox="0 0 375 375" height="375" version="1.0"><path fill="#FFBA57" d="M 168.324219 353.132812 C 168.355469 353.769531 168.359375 354.402344 168.332031 355.035156 C 168.300781 355.671875 168.242188 356.300781 168.15625 356.929688 C 168.066406 357.558594 167.949219 358.183594 167.804688 358.800781 C 167.65625 359.417969 167.480469 360.027344 167.277344 360.628906 C 167.074219 361.230469 166.839844 361.820312 166.578125 362.402344 C 166.320312 362.980469 166.03125 363.546875 165.71875 364.097656 C 165.40625 364.652344 165.066406 365.1875 164.703125 365.707031 C 164.339844 366.226562 163.953125 366.730469 163.539062 367.214844 C 163.128906 367.699219 162.695312 368.164062 162.238281 368.605469 C 161.785156 369.046875 161.308594 369.46875 160.816406 369.867188 C 160.320312 370.265625 159.808594 370.640625 159.277344 370.992188 C 158.746094 371.339844 158.199219 371.664062 157.640625 371.964844 C 157.078125 372.261719 156.503906 372.535156 155.917969 372.78125 C 155.332031 373.023438 154.734375 373.242188 154.128906 373.429688 C 153.519531 373.617188 152.90625 373.777344 152.285156 373.910156 C 151.664062 374.039062 151.035156 374.140625 150.402344 374.214844 C 149.789062 374.269531 149.171875 374.289062 148.550781 374.28125 C 147.933594 374.273438 147.316406 374.234375 146.703125 374.164062 C 146.085938 374.09375 145.480469 373.988281 144.875 373.855469 C 144.269531 373.722656 143.675781 373.558594 143.085938 373.367188 C 142.5 373.171875 141.925781 372.949219 141.359375 372.695312 C 140.796875 372.441406 140.246094 372.160156 139.710938 371.851562 C 139.175781 371.542969 138.65625 371.210938 138.152344 370.847656 C 137.652344 370.484375 137.171875 370.097656 136.707031 369.6875 C 136.246094 369.277344 135.808594 368.84375 135.390625 368.390625 C 134.972656 367.933594 134.578125 367.457031 134.207031 366.960938 C 133.839844 366.464844 133.496094 365.953125 133.179688 365.421875 C 132.863281 364.890625 132.574219 364.34375 132.3125 363.785156 C 132.054688 363.226562 131.820312 362.652344 131.621094 362.070312 C 131.417969 361.484375 131.246094 360.894531 131.101562 360.292969 C 130.960938 359.691406 130.851562 359.082031 130.769531 358.46875 C 130.691406 357.859375 130.640625 357.242188 130.625 356.625 L 130.113281 345.972656 L 126.589844 269.507812 C 126.515625 267.835938 126.648438 266.179688 126.976562 264.539062 C 127.308594 262.898438 127.832031 261.324219 128.550781 259.8125 C 129.265625 258.296875 130.152344 256.894531 131.214844 255.597656 C 132.273438 254.300781 133.472656 253.152344 134.8125 252.148438 L 142.976562 243.632812 L 143.0625 243.632812 L 176.160156 209.089844 L 209.132812 174.726562 L 239.199219 219.902344 L 174.246094 269.714844 L 170.722656 272.421875 L 164.714844 276.980469 L 167.945312 345.527344 Z M 168.324219 353.132812"/><path fill="#FFBA57" d="M 334.71875 135.171875 L 333.773438 134.59375 L 279.050781 101.980469 C 278.238281 101.503906 277.398438 101.085938 276.53125 100.722656 C 275.953125 100.488281 275.367188 100.28125 274.773438 100.101562 C 274.175781 99.921875 273.574219 99.773438 272.960938 99.652344 C 272.351562 99.535156 271.734375 99.445312 271.117188 99.386719 C 270.496094 99.328125 269.875 99.296875 269.253906 99.300781 C 268.628906 99.300781 268.011719 99.335938 267.390625 99.398438 C 266.769531 99.460938 266.15625 99.554688 265.546875 99.675781 C 264.9375 99.800781 264.332031 99.953125 263.738281 100.132812 C 263.144531 100.316406 262.558594 100.527344 261.984375 100.769531 C 261.410156 101.007812 260.847656 101.273438 260.300781 101.570312 C 259.753906 101.863281 259.222656 102.183594 258.703125 102.53125 C 258.1875 102.878906 257.691406 103.25 257.210938 103.648438 C 256.730469 104.042969 256.273438 104.460938 255.832031 104.902344 C 255.394531 105.34375 254.976562 105.804688 254.585938 106.285156 C 254.191406 106.769531 253.824219 107.269531 253.480469 107.785156 C 253.136719 108.304688 252.816406 108.839844 252.527344 109.386719 C 252.234375 109.9375 251.972656 110.5 251.734375 111.074219 C 251.5 111.648438 251.292969 112.234375 251.113281 112.832031 C 250.933594 113.425781 250.785156 114.027344 250.664062 114.640625 C 250.546875 115.25 250.457031 115.863281 250.398438 116.484375 C 250.339844 117.101562 250.3125 117.722656 250.3125 118.34375 C 250.316406 118.964844 250.347656 119.585938 250.414062 120.203125 C 250.476562 120.820312 250.570312 121.4375 250.691406 122.042969 C 250.816406 122.652344 250.96875 123.257812 251.152344 123.851562 C 251.335938 124.445312 251.546875 125.027344 251.789062 125.601562 C 252.027344 126.175781 252.296875 126.734375 252.589844 127.28125 C 252.886719 127.828125 253.207031 128.359375 253.554688 128.875 C 253.902344 129.390625 254.277344 129.890625 254.671875 130.367188 C 255.070312 130.847656 255.488281 131.304688 255.929688 131.742188 C 256.371094 132.179688 256.835938 132.597656 257.316406 132.988281 C 257.800781 133.382812 258.300781 133.75 258.820312 134.09375 C 259.339844 134.4375 259.875 134.753906 260.421875 135.042969 C 260.972656 135.335938 261.535156 135.597656 262.113281 135.832031 L 311.777344 156.183594 L 303.867188 211.511719 C 303.734375 212.433594 303.695312 213.359375 303.746094 214.289062 C 303.800781 215.21875 303.941406 216.136719 304.171875 217.039062 C 304.40625 217.941406 304.722656 218.8125 305.125 219.652344 C 305.53125 220.492188 306.011719 221.28125 306.570312 222.027344 C 307.132812 222.773438 307.757812 223.457031 308.453125 224.078125 C 309.148438 224.699219 309.898438 225.246094 310.699219 225.722656 C 311.503906 226.195312 312.34375 226.585938 313.222656 226.894531 C 314.101562 227.203125 315.003906 227.425781 315.925781 227.554688 C 316.851562 227.6875 317.777344 227.730469 318.707031 227.679688 C 319.640625 227.628906 320.558594 227.488281 321.460938 227.253906 C 322.363281 227.023438 323.234375 226.707031 324.078125 226.304688 C 324.917969 225.902344 325.710938 225.421875 326.457031 224.863281 C 327.203125 224.304688 327.886719 223.679688 328.511719 222.984375 C 329.132812 222.292969 329.683594 221.542969 330.160156 220.742188 C 330.632812 219.941406 331.027344 219.101562 331.335938 218.222656 C 331.648438 217.34375 331.867188 216.445312 332 215.523438 L 341.472656 149.296875 C 341.664062 147.917969 341.65625 146.542969 341.441406 145.167969 C 341.230469 143.789062 340.824219 142.476562 340.222656 141.21875 C 339.621094 139.964844 338.851562 138.820312 337.917969 137.792969 C 336.980469 136.761719 335.914062 135.886719 334.71875 135.171875 Z M 334.71875 135.171875"/><path fill="#FFBA57" d="M 322.480469 25.148438 C 321.917969 24.050781 321.300781 22.980469 320.628906 21.941406 C 319.953125 20.90625 319.230469 19.90625 318.457031 18.941406 C 317.679688 17.980469 316.855469 17.058594 315.988281 16.179688 C 315.117188 15.300781 314.207031 14.46875 313.25 13.683594 C 312.296875 12.898438 311.300781 12.164062 310.273438 11.480469 C 309.242188 10.796875 308.179688 10.167969 307.082031 9.59375 C 305.988281 9.019531 304.867188 8.5 303.71875 8.039062 C 302.570312 7.578125 301.402344 7.179688 300.210938 6.839844 C 299.023438 6.5 297.820312 6.21875 296.601562 6 C 295.382812 5.785156 294.160156 5.628906 292.925781 5.539062 C 291.691406 5.445312 290.457031 5.417969 289.21875 5.449219 C 287.984375 5.484375 286.75 5.582031 285.523438 5.742188 C 284.296875 5.902344 283.082031 6.125 281.878906 6.410156 C 280.675781 6.695312 279.488281 7.042969 278.320312 7.449219 C 277.152344 7.855469 276.007812 8.320312 274.886719 8.839844 C 273.765625 9.363281 272.675781 9.945312 271.613281 10.578125 C 270.539062 11.257812 269.503906 11.988281 268.496094 12.765625 C 267.492188 13.546875 266.527344 14.367188 265.601562 15.238281 C 264.675781 16.105469 263.792969 17.015625 262.949219 17.96875 C 262.109375 18.921875 261.316406 19.910156 260.570312 20.9375 C 259.820312 21.964844 259.125 23.023438 258.476562 24.117188 C 257.828125 25.207031 257.234375 26.328125 256.691406 27.476562 C 256.148438 28.625 255.664062 29.796875 255.230469 30.988281 C 254.800781 32.183594 254.425781 33.394531 254.105469 34.625 C 253.789062 35.855469 253.53125 37.09375 253.332031 38.347656 C 253.128906 39.601562 252.988281 40.863281 252.90625 42.128906 C 252.824219 43.398438 252.804688 44.664062 252.839844 45.933594 C 252.878906 47.203125 252.976562 48.464844 253.132812 49.726562 C 253.289062 50.984375 253.507812 52.234375 253.78125 53.476562 C 254.054688 54.714844 254.386719 55.9375 254.777344 57.144531 C 255.167969 58.355469 255.613281 59.542969 256.117188 60.707031 C 256.617188 61.875 257.175781 63.015625 257.785156 64.128906 C 258.351562 65.226562 258.972656 66.296875 259.648438 67.332031 C 260.324219 68.371094 261.050781 69.371094 261.828125 70.332031 C 262.605469 71.292969 263.433594 72.214844 264.304688 73.09375 C 265.175781 73.972656 266.089844 74.800781 267.046875 75.585938 C 268.007812 76.371094 269 77.105469 270.035156 77.789062 C 271.066406 78.472656 272.128906 79.101562 273.226562 79.675781 C 274.324219 80.25 275.449219 80.769531 276.597656 81.226562 C 277.746094 81.6875 278.917969 82.085938 280.109375 82.429688 C 281.296875 82.769531 282.503906 83.046875 283.722656 83.265625 C 284.941406 83.480469 286.167969 83.636719 287.40625 83.730469 C 288.640625 83.820312 289.875 83.851562 291.113281 83.816406 C 292.351562 83.78125 293.585938 83.683594 294.8125 83.523438 C 296.042969 83.367188 297.257812 83.144531 298.464844 82.859375 C 299.667969 82.574219 300.855469 82.230469 302.027344 81.824219 C 303.199219 81.417969 304.34375 80.957031 305.464844 80.433594 C 306.589844 79.910156 307.683594 79.332031 308.746094 78.699219 C 309.816406 78.015625 310.855469 77.285156 311.855469 76.507812 C 312.859375 75.726562 313.824219 74.902344 314.75 74.03125 C 315.671875 73.164062 316.554688 72.25 317.394531 71.296875 C 318.234375 70.34375 319.027344 69.355469 319.773438 68.328125 C 320.515625 67.300781 321.210938 66.238281 321.859375 65.148438 C 322.503906 64.054688 323.097656 62.933594 323.636719 61.785156 C 324.175781 60.636719 324.660156 59.464844 325.089844 58.269531 C 325.519531 57.074219 325.894531 55.863281 326.207031 54.636719 C 326.523438 53.40625 326.78125 52.164062 326.980469 50.910156 C 327.175781 49.65625 327.316406 48.398438 327.394531 47.128906 C 327.476562 45.863281 327.496094 44.597656 327.453125 43.328125 C 327.414062 42.058594 327.316406 40.796875 327.15625 39.539062 C 326.996094 38.277344 326.777344 37.03125 326.5 35.792969 C 326.226562 34.550781 325.890625 33.328125 325.5 32.121094 C 325.105469 30.914062 324.65625 29.730469 324.152344 28.566406 C 323.648438 27.398438 323.09375 26.261719 322.480469 25.148438 Z M 298.988281 115.878906 C 297.761719 113.527344 295.992188 111.699219 293.683594 110.394531 L 249.636719 83.050781 C 248.601562 82.339844 247.464844 81.867188 246.226562 81.632812 C 244.578125 81.167969 242.90625 81.042969 241.207031 81.253906 L 221.597656 118.90625 L 181.910156 189.203125 L 181.816406 189.203125 L 118.539062 176.050781 L 109.160156 174.066406 C 108.128906 173.625 107.066406 173.285156 105.96875 173.042969 C 104.875 172.800781 103.765625 172.660156 102.644531 172.625 C 101.523438 172.585938 100.410156 172.652344 99.300781 172.820312 C 98.191406 172.988281 97.109375 173.257812 96.046875 173.625 C 94.988281 173.992188 93.972656 174.457031 93 175.011719 C 92.023438 175.570312 91.109375 176.210938 90.257812 176.933594 C 89.402344 177.660156 88.621094 178.457031 87.914062 179.328125 C 87.207031 180.195312 86.582031 181.121094 86.046875 182.105469 L 41.433594 259.875 L 36.410156 268.582031 C 35.558594 270.101562 34.910156 271.707031 34.460938 273.394531 C 34.011719 275.078125 33.78125 276.792969 33.765625 278.539062 C 33.75 280.28125 33.949219 282 34.363281 283.695312 C 34.78125 285.390625 35.398438 287.003906 36.222656 288.542969 C 37.828125 291.410156 40.003906 293.746094 42.757812 295.542969 C 43.28125 295.871094 43.820312 296.171875 44.375 296.445312 C 44.929688 296.71875 45.496094 296.964844 46.074219 297.179688 C 46.65625 297.394531 47.242188 297.582031 47.839844 297.734375 C 48.441406 297.890625 49.042969 298.015625 49.65625 298.109375 C 50.265625 298.203125 50.878906 298.261719 51.496094 298.292969 C 52.113281 298.324219 52.730469 298.324219 53.347656 298.292969 C 53.964844 298.257812 54.582031 298.195312 55.191406 298.097656 C 55.800781 298.003906 56.40625 297.878906 57.003906 297.722656 C 57.601562 297.5625 58.191406 297.378906 58.769531 297.160156 C 59.347656 296.941406 59.914062 296.695312 60.464844 296.421875 C 61.019531 296.148438 61.558594 295.84375 62.078125 295.515625 C 62.601562 295.183594 63.105469 294.828125 63.59375 294.449219 C 64.078125 294.066406 64.542969 293.660156 64.988281 293.230469 C 65.433594 292.804688 65.855469 292.351562 66.25 291.878906 C 66.648438 291.410156 67.023438 290.917969 67.371094 290.40625 C 67.71875 289.898438 68.039062 289.371094 68.335938 288.828125 L 75.25 276.8125 L 109.632812 216.828125 L 176.984375 240.292969 L 191.570312 194.972656 L 238.367188 222.503906 L 238.839844 222.695312 L 248.59375 205.382812 L 280.421875 148.992188 L 299.082031 115.976562 Z M 298.988281 115.878906"/><path fill="#263238" d="M 164.734375 276.90625 L 170.703125 272.335938 L 174.226562 269.648438 L 239.21875 219.828125 L 209.160156 174.726562 L 143.0625 243.679688 L 143.015625 243.679688 L 134.851562 252.195312 C 133.511719 253.199219 132.308594 254.347656 131.25 255.644531 C 130.191406 256.941406 129.304688 258.347656 128.585938 259.859375 C 127.871094 261.371094 127.347656 262.949219 127.015625 264.585938 C 126.683594 266.226562 126.554688 267.882812 126.628906 269.554688 L 130.113281 345.972656 L 167.945312 345.480469 L 164.714844 276.90625 Z M 164.734375 276.90625"/><path fill="#2196F3" d="M 242.828125 81.308594 L 181.871094 189.210938 L 238.800781 222.703125 L 299.082031 115.957031 L 299.082031 115.859375 C 297.828125 113.535156 296.058594 111.699219 293.777344 110.355469 L 249.714844 83.011719 C 247.582031 81.789062 245.285156 81.222656 242.828125 81.308594 Z M 242.828125 81.308594"/><path fill="#455A64" d="M 238.839844 222.695312 L 234.199219 230.738281 L 233.914062 231.304688 C 233.441406 232.246094 232.925781 233.164062 232.363281 234.054688 C 231.800781 234.945312 231.195312 235.804688 230.546875 236.636719 C 229.902344 237.464844 229.210938 238.261719 228.484375 239.023438 C 227.757812 239.785156 226.992188 240.507812 226.191406 241.195312 C 225.394531 241.878906 224.5625 242.523438 223.695312 243.125 C 222.832031 243.726562 221.9375 244.285156 221.019531 244.800781 C 220.097656 245.3125 219.15625 245.777344 218.1875 246.199219 C 217.222656 246.617188 216.234375 246.988281 215.230469 247.308594 C 214.226562 247.628906 213.210938 247.898438 212.179688 248.121094 C 211.148438 248.339844 210.109375 248.507812 209.0625 248.621094 C 208.015625 248.738281 206.964844 248.800781 205.910156 248.8125 C 204.855469 248.824219 203.804688 248.78125 202.753906 248.6875 C 201.703125 248.59375 200.660156 248.449219 199.625 248.25 C 198.589844 248.054688 197.566406 247.804688 196.558594 247.503906 C 195.546875 247.207031 194.554688 246.855469 193.578125 246.457031 C 192.601562 246.058594 191.648438 245.613281 190.71875 245.117188 L 176.984375 240.292969 L 109.632812 216.828125 L 75.25 276.8125 L 41.433594 259.875 L 86.046875 182.105469 C 86.582031 181.121094 87.207031 180.195312 87.914062 179.328125 C 88.621094 178.457031 89.402344 177.660156 90.257812 176.933594 C 91.109375 176.210938 92.027344 175.570312 93 175.011719 C 93.972656 174.457031 94.988281 173.992188 96.046875 173.625 C 97.109375 173.257812 98.191406 172.988281 99.300781 172.820312 C 100.410156 172.652344 101.523438 172.585938 102.644531 172.625 C 103.765625 172.660156 104.875 172.800781 105.96875 173.042969 C 107.066406 173.285156 108.128906 173.625 109.160156 174.066406 L 118.539062 176.050781 L 181.816406 189.203125 L 181.910156 189.203125 Z M 238.839844 222.695312"/><path fill="#FFBA57" d="M 260.625 109.164062 C 260.351562 109.722656 260.054688 110.265625 259.730469 110.792969 C 259.402344 111.324219 259.050781 111.835938 258.675781 112.328125 C 258.300781 112.824219 257.898438 113.300781 257.476562 113.753906 C 257.054688 114.210938 256.609375 114.644531 256.144531 115.054688 C 255.679688 115.464844 255.191406 115.855469 254.6875 116.21875 C 254.183594 116.582031 253.664062 116.921875 253.125 117.234375 C 252.589844 117.546875 252.039062 117.832031 251.472656 118.089844 C 250.90625 118.347656 250.332031 118.578125 249.742188 118.78125 C 249.152344 118.980469 248.558594 119.152344 247.953125 119.296875 C 247.347656 119.441406 246.734375 119.550781 246.121094 119.636719 C 245.503906 119.71875 244.882812 119.769531 244.261719 119.792969 C 243.640625 119.816406 243.019531 119.804688 242.398438 119.765625 C 241.777344 119.726562 241.160156 119.660156 240.546875 119.558594 C 239.933594 119.460938 239.328125 119.328125 238.726562 119.171875 C 238.125 119.011719 237.53125 118.820312 236.949219 118.605469 C 236.367188 118.386719 235.796875 118.140625 235.238281 117.867188 C 234.226562 117.410156 233.277344 116.84375 232.398438 116.164062 L 187.496094 83.808594 L 186.457031 82.957031 C 185.546875 82.3125 184.730469 81.570312 184 80.734375 C 183.269531 79.894531 182.648438 78.980469 182.136719 77.992188 C 181.625 77.003906 181.238281 75.972656 180.976562 74.890625 C 180.714844 73.808594 180.582031 72.714844 180.582031 71.601562 L 180.582031 14.835938 C 180.582031 13.90625 180.675781 12.980469 180.855469 12.066406 C 181.039062 11.152344 181.308594 10.265625 181.664062 9.40625 C 182.023438 8.542969 182.460938 7.726562 182.976562 6.953125 C 183.496094 6.175781 184.085938 5.460938 184.746094 4.800781 C 185.40625 4.144531 186.121094 3.554688 186.898438 3.035156 C 187.671875 2.519531 188.492188 2.082031 189.355469 1.726562 C 190.214844 1.367188 191.105469 1.097656 192.019531 0.917969 C 192.933594 0.734375 193.859375 0.644531 194.792969 0.644531 C 195.726562 0.644531 196.648438 0.734375 197.5625 0.917969 C 198.480469 1.097656 199.367188 1.367188 200.230469 1.726562 C 201.089844 2.082031 201.910156 2.519531 202.6875 3.035156 C 203.460938 3.554688 204.179688 4.144531 204.839844 4.800781 C 205.5 5.460938 206.085938 6.175781 206.605469 6.953125 C 207.125 7.726562 207.5625 8.542969 207.917969 9.40625 C 208.277344 10.265625 208.546875 11.152344 208.726562 12.066406 C 208.910156 12.980469 209 13.90625 209 14.835938 L 209 62.804688 L 247.269531 81.535156 L 257.40625 87.78125 C 258.0625 88.480469 258.664062 89.226562 259.207031 90.019531 C 259.75 90.808594 260.230469 91.636719 260.652344 92.5 C 261.070312 93.363281 261.421875 94.253906 261.707031 95.171875 C 261.988281 96.089844 262.203125 97.023438 262.347656 97.972656 C 262.488281 98.921875 262.558594 99.875 262.558594 100.835938 C 262.558594 101.792969 262.484375 102.75 262.335938 103.699219 C 262.191406 104.644531 261.976562 105.578125 261.6875 106.496094 C 261.402344 107.410156 261.046875 108.300781 260.625 109.164062 Z M 260.625 109.164062"/><path fill="#2196F3" d="M 322.195312 127.707031 L 302.492188 152.398438 L 262.140625 135.84375 C 261.566406 135.605469 261.003906 135.34375 260.453125 135.054688 C 259.902344 134.761719 259.371094 134.445312 258.851562 134.101562 C 258.332031 133.761719 257.832031 133.390625 257.351562 133 C 256.867188 132.609375 256.40625 132.191406 255.964844 131.753906 C 255.523438 131.316406 255.105469 130.859375 254.707031 130.382812 C 254.3125 129.902344 253.941406 129.40625 253.59375 128.890625 C 253.246094 128.375 252.921875 127.84375 252.628906 127.296875 C 252.332031 126.75 252.066406 126.191406 251.824219 125.617188 C 251.585938 125.046875 251.375 124.460938 251.191406 123.867188 C 251.007812 123.273438 250.855469 122.671875 250.730469 122.066406 C 250.605469 121.457031 250.511719 120.84375 250.449219 120.222656 C 250.386719 119.605469 250.355469 118.988281 250.351562 118.367188 C 250.347656 117.746094 250.378906 117.125 250.4375 116.507812 C 250.496094 115.886719 250.582031 115.273438 250.703125 114.664062 C 250.820312 114.054688 250.96875 113.453125 251.148438 112.855469 C 251.324219 112.261719 251.53125 111.675781 251.769531 111.101562 C 252.003906 110.527344 252.269531 109.964844 252.558594 109.417969 C 252.851562 108.867188 253.167969 108.335938 253.511719 107.816406 C 253.855469 107.300781 254.222656 106.800781 254.613281 106.316406 C 255.007812 105.835938 255.421875 105.375 255.859375 104.933594 C 256.300781 104.492188 256.757812 104.074219 257.238281 103.679688 C 257.714844 103.28125 258.214844 102.910156 258.730469 102.5625 C 259.246094 102.214844 259.777344 101.894531 260.324219 101.601562 C 260.871094 101.304688 261.433594 101.039062 262.003906 100.796875 C 262.578125 100.558594 263.164062 100.347656 263.757812 100.164062 C 264.351562 99.980469 264.953125 99.828125 265.5625 99.707031 C 266.171875 99.582031 266.789062 99.488281 267.40625 99.425781 C 268.023438 99.363281 268.644531 99.328125 269.265625 99.328125 C 269.890625 99.324219 270.507812 99.351562 271.128906 99.410156 C 271.746094 99.46875 272.363281 99.558594 272.972656 99.675781 C 273.582031 99.796875 274.1875 99.945312 274.78125 100.121094 C 275.378906 100.300781 275.964844 100.507812 276.539062 100.742188 C 277.40625 101.058594 278.230469 101.46875 279.003906 101.972656 Z M 322.195312 127.707031"/><path fill="#2196F3" d="M 260.625 109.164062 C 260.351562 109.722656 260.054688 110.265625 259.730469 110.792969 C 259.402344 111.324219 259.050781 111.835938 258.675781 112.328125 C 258.300781 112.824219 257.898438 113.300781 257.476562 113.753906 C 257.054688 114.210938 256.609375 114.644531 256.144531 115.054688 C 255.679688 115.464844 255.191406 115.855469 254.6875 116.21875 C 254.183594 116.582031 253.664062 116.921875 253.125 117.234375 C 252.589844 117.546875 252.039062 117.832031 251.472656 118.089844 C 250.90625 118.347656 250.332031 118.578125 249.742188 118.78125 C 249.152344 118.980469 248.558594 119.152344 247.953125 119.296875 C 247.347656 119.441406 246.734375 119.550781 246.121094 119.636719 C 245.503906 119.71875 244.882812 119.769531 244.261719 119.792969 C 243.640625 119.816406 243.019531 119.804688 242.398438 119.765625 C 241.777344 119.726562 241.160156 119.660156 240.546875 119.558594 C 239.933594 119.460938 239.328125 119.328125 238.726562 119.171875 C 238.125 119.011719 237.53125 118.820312 236.949219 118.605469 C 236.367188 118.386719 235.796875 118.140625 235.238281 117.867188 C 234.226562 117.410156 233.277344 116.84375 232.398438 116.164062 L 191.003906 86.265625 L 217.050781 66.777344 L 247.363281 81.535156 L 257.40625 87.78125 C 258.0625 88.480469 258.664062 89.226562 259.207031 90.019531 C 259.75 90.808594 260.230469 91.636719 260.652344 92.5 C 261.070312 93.363281 261.421875 94.253906 261.707031 95.171875 C 261.988281 96.089844 262.203125 97.023438 262.347656 97.972656 C 262.488281 98.921875 262.558594 99.875 262.558594 100.835938 C 262.558594 101.792969 262.484375 102.75 262.335938 103.699219 C 262.191406 104.644531 261.976562 105.578125 261.6875 106.496094 C 261.402344 107.410156 261.046875 108.300781 260.625 109.164062 Z M 260.625 109.164062"/></svg>