<?xml version="1.0" encoding="UTF-8" standalone="no"?>
<!-- Created with Inkscape (http://www.inkscape.org/) -->
<svg xmlns:inkscape="http://www.inkscape.org/namespaces/inkscape" xmlns:rdf="http://www.w3.org/1999/02/22-rdf-syntax-ns#" xmlns="http://www.w3.org/2000/svg" xmlns:xlink="http://www.w3.org/1999/xlink" xmlns:ns1="http://sozi.baierouge.fr" xmlns:cc="http://creativecommons.org/ns#" xmlns:sodipodi="http://sodipodi.sourceforge.net/DTD/sodipodi-0.dtd" xmlns:dc="http://purl.org/dc/elements/1.1/" id="svg2" xml:space="preserve" viewBox="0 0 230.05 49.85" version="1.1" inkscape:version="0.91 r13725">
  <g id="g10" transform="matrix(1.25 0 0 -1.25 0 49.85)">
    <g id="g12">
      <path id="path14" style="fill-rule:evenodd;fill:#353626" d="m184.04 19.919c0-5.492-8.984-10.184-26.961-14.078-17.98-3.895-39.67-5.84-65.08-5.84-25.414 0-47.094 1.945-65.039 5.84-17.973 3.891-26.961 8.586-26.961 14.078 0 5.52 8.988 10.227 26.961 14.121 17.945 3.895 39.625 5.84 65.039 5.84 25.441 0 47.133-1.945 65.078-5.84 17.977-3.894 26.961-8.601 26.961-14.121z" inkscape:connector-curvature="0"/>
      <path id="path16" style="fill-rule:evenodd;fill:#505239" d="m144.8 31.56c14.586-2.668 21.879-5.895 21.879-9.68s-7.293-7.012-21.879-9.68-32.188-4-52.801-4c-20.617 0-38.199 1.332-52.762 4-14.586 2.668-21.879 5.891-21.879 9.68s7.293 7.012 21.879 9.68c14.59 2.695 32.176 4.039 52.762 4.039 20.613 0 38.215-1.344 52.801-4.039z" inkscape:connector-curvature="0"/>
      <path id="path18" style="fill-rule:evenodd;fill:#3e402d" d="m149.6 23.841c0-2.481-5.614-4.602-16.84-6.359-11.25-1.762-24.84-2.641-40.76-2.641-15.895 0-29.465 0.879-40.719 2.641-11.226 1.757-16.84 3.878-16.84 6.359 0 2.48 5.614 4.598 16.84 6.359 11.254 1.758 24.824 2.641 40.719 2.641 15.918 0 29.508-0.883 40.762-2.641 11.226-1.761 16.84-3.879 16.84-6.359z" inkscape:connector-curvature="0"/>
    </g>
  </g>
<metadata><rdf:RDF><cc:Work><dc:format>image/svg+xml</dc:format><dc:type rdf:resource="http://purl.org/dc/dcmitype/StillImage"/><cc:license rdf:resource="http://creativecommons.org/licenses/publicdomain/"/><dc:publisher><cc:Agent rdf:about="http://openclipart.org/"><dc:title>Openclipart</dc:title></cc:Agent></dc:publisher></cc:Work><cc:License rdf:about="http://creativecommons.org/licenses/publicdomain/"><cc:permits rdf:resource="http://creativecommons.org/ns#Reproduction"/><cc:permits rdf:resource="http://creativecommons.org/ns#Distribution"/><cc:permits rdf:resource="http://creativecommons.org/ns#DerivativeWorks"/></cc:License></rdf:RDF></metadata></svg>
