<?xml version="1.0" encoding="utf-8"?>
<!-- Generator: Adobe Illustrator 23.0.2, SVG Export Plug-In . SVG Version: 6.00 Build 0)  -->
<svg version="1.1" xmlns="http://www.w3.org/2000/svg" xmlns:xlink="http://www.w3.org/1999/xlink" x="0px" y="0px"
	 viewBox="0 0 393.9 306" style="enable-background:new 0 0 393.9 306;" xml:space="preserve">
<style type="text/css">
	.st0{display:none;}
	.st1{display:inline;}
	.st2{fill:url(#path68751_1_);}
	.st3{fill:#6C7D53;}
	.st4{fill:#506850;}
	.st5{fill:#320D40;}
	.st6{fill:#898795;}
	.st7{fill:#BAB8C5;}
	.st8{fill:#FFFFD7;}
	.st9{fill-opacity:0;}
	.st10{fill:#4B1B43;}
	.st11{fill:#662044;}
	.st12{fill:none;}
	.st13{fill:#391342;}
	.st14{fill:#4D1B41;}
	.st15{fill:#5F2141;}
	.st16{fill:#381444;}
	.st17{fill:#3C1742;}
	.st18{fill:#632244;}
	.st19{fill:#571D43;}
	.st20{fill:#FEDAD1;}
	.st21{fill:#7A8953;}
	.st22{fill:#8C9552;}
	.st23{fill:#9A9E54;}
	.st24{fill:#607C54;}
	.st25{fill:#748455;}
	.st26{fill:#9D9F54;}
	.st27{fill:#677D53;}
	.st28{fill:#738458;}
	.st29{fill:#979B58;}
	.st30{fill:#7F8E57;}
	.st31{fill:#7B8956;}
	.st32{fill:#989B56;}
	.st33{fill:#3B1641;}
	.st34{fill:#BEBDC5;}
	.st35{fill:#2D4042;}
	.st36{fill:#282F3F;}
	.st37{fill:#445D4C;}
	.st38{fill:#55664F;}
	.st39{fill:#324043;}
	.st40{fill:#431B40;}
	.st41{fill:#2D2A3D;}
	.st42{fill:#52624F;}
	.st43{fill:#232134;}
	.st44{fill:#2C3743;}
	.st45{fill:#283048;}
	.st46{fill:#495A47;}
	.st47{fill:#53614B;}
	.st48{fill:#66724A;}
	.st49{fill:#3D414A;}
	.st50{fill:#3B1A47;}
	.st51{fill:#1E1834;}
	.st52{fill:#648155;}
	.st53{fill:#425C42;}
	.st54{display:inline;fill:#402F14;}
	.st55{display:inline;fill:#94B2A8;}
	.st56{display:inline;fill:#ACCCBB;}
	.st57{display:inline;fill:#8CB8A1;}
	.st58{display:inline;fill:#87A99D;}
	.st59{display:inline;fill:#6D9790;}
	.st60{display:inline;fill:#709993;}
	.st61{display:inline;fill:#CCEDD3;}
	.st62{display:inline;fill:#8FAFAA;}
	.st63{display:inline;fill:#BAD4C6;}
	.st64{display:inline;fill:#668A80;}
	.st65{display:inline;fill:#D0F1D4;}
	.st66{display:inline;fill:none;}
	.st67{display:inline;fill:#B5D1C2;}
	.st68{display:inline;fill:#99B9AD;}
	.st69{display:inline;fill:#ADCBC0;}
	.st70{display:inline;fill:#C8E4D5;}
	.st71{display:inline;fill:#8DAAA0;}
	.st72{display:inline;fill:#5F8892;}
	.st73{display:inline;fill:#72978D;}
	.st74{display:inline;fill:#586D6B;}
	.st75{display:inline;fill:#BFDBCA;}
	.st76{display:inline;fill:#86A7A0;}
	.st77{display:inline;fill:#98B9B1;}
	.st78{display:inline;fill:#B4C02B;}
</style>
<g id="Layer_2" class="st0">
	<rect x="-13.8" y="-14.2" class="st1" width="461.2" height="361.2"/>
</g>
<g id="svg827" xmlns:cc="http://creativecommons.org/ns#" xmlns:dc="http://purl.org/dc/elements/1.1/" xmlns:inkscape="http://www.inkscape.org/namespaces/inkscape" xmlns:osb="http://www.openswatchbook.org/uri/2009/osb" xmlns:rdf="http://www.w3.org/1999/02/22-rdf-syntax-ns#" xmlns:sodipodi="http://sodipodi.sourceforge.net/DTD/sodipodi-0.dtd" xmlns:svg="http://www.w3.org/2000/svg">
	
		<sodipodi:namedview  bordercolor="#666666" borderopacity="1.0" fit-margin-bottom="0" fit-margin-left="0" fit-margin-right="0" fit-margin-top="0" id="base" inkscape:current-layer="svg827" inkscape:cx="262.56703" inkscape:cy="203.72418" inkscape:document-units="mm" inkscape:guide-bbox="true" inkscape:pageopacity="0.0" inkscape:pageshadow="2" inkscape:window-height="947" inkscape:window-maximized="1" inkscape:window-width="1280" inkscape:window-x="-9" inkscape:window-y="-9" inkscape:zoom="1.5462718" pagecolor="#ffffff" showgrid="false" showguides="true">
		</sodipodi:namedview>
	
		<g id="layer4" transform="translate(-28.544529,-108.38489)" inkscape:groupmode="layer" inkscape:label="landscape" sodipodi:insensitive="true">
		
			<linearGradient id="path68751_1_" gradientUnits="userSpaceOnUse" x1="-1057.3668" y1="816.0608" x2="-918.6339" y2="814.6923" gradientTransform="matrix(2.8346 0 0 -2.8437 3025.9648 2690.5867)">
			<stop  offset="0" style="stop-color:#7F8954"/>
			<stop  offset="1" style="stop-color:#879755"/>
		</linearGradient>
		<path id="path68751" inkscape:connector-curvature="0" sodipodi:nodetypes="ccccccc" class="st2" d="M309.1,328.4l113.2,13.1v72.7
			H29v-73l17.8-0.1L309.1,328.4z"/>
		<g id="g68890">
			<path id="path68392" inkscape:connector-curvature="0" class="st3" d="M181.8,344.4l10.7,11.2l26.3,12.9l11.2-19.8l-21.9-5.7
				L181.8,344.4z"/>
			<path id="path68390" inkscape:connector-curvature="0" sodipodi:nodetypes="cccccccccccccc" class="st4" d="M46.8,341.3l6.1,17.7
				l14.1-2.2l5.3,8l22.2-14.7l6.9,0.3l-5.8,15l3,4.2l21.1-3.3l7.5-3.9l34.6-20L110,321.6l-47.7,15.2L46.8,341.3z"/>
			<path id="path67439" inkscape:connector-curvature="0" sodipodi:nodetypes="ccccccccc" class="st5" d="M78.9,331.3l9.8-18.4
				l25.2-40l32.8-34.6l12.6,40l13,21.2l9.6,44.8l-86.1,0.7L78.9,331.3z"/>
			<path id="path67441" inkscape:connector-curvature="0" class="st6" d="M113.9,273l23.7-57.1l9.1,22.5L113.9,273"/>
			<path id="path67443" inkscape:connector-curvature="0" class="st7" d="M137.6,215.9l25.3-14.5l21.4,67.3l-37.7-30.3L137.6,215.9z
				"/>
			<path id="path67445" inkscape:connector-curvature="0" class="st8" d="M163,201.4l22.9,30.7l10.3,19.1l-11.8,17.6L163,201.4z"/>
			
				<path id="path67447" inkscape:connector-curvature="0" inkscape:transform-center-x="-0.0782778" inkscape:transform-center-y="2.9430411" class="st9" d="
				M184.3,268.8l14.8,14.1l13.1,55.2l-27.9-28.6l-12.1-9.8l-13-21.2l-12.6-40L184.3,268.8z"/>
			<path id="path68394" inkscape:connector-curvature="0" sodipodi:nodetypes="ccccccc" class="st10" d="M212.2,338.1l-4.1,4.9
				l-17.5,3.4l-8.8-2l-9.6-44.8l12.1,9.8L212.2,338.1z"/>
			<path id="path67449" inkscape:connector-curvature="0" class="st11" d="M184.3,268.8l11.8-17.6l16.7,35.8l17.7,15.4l-5.5,22.6
				l-8.5,6.8l-4.4,6.4l-13.1-55.2L184.3,268.8z"/>
			<path id="path67451" inkscape:connector-curvature="0" sodipodi:nodetypes="ccccc" class="st12" d="M200.2,259.6l14.7-7.5
				l11.2,4.7l-20.2,15.1L200.2,259.6z"/>
			<path id="path67453" inkscape:connector-curvature="0" class="st13" d="M226.1,256.8l-6.5,36l-6.7-5.9l-7-15L226.1,256.8z"/>
			<path id="path67455" inkscape:connector-curvature="0" class="st14" d="M230.5,302.4l6.7-6.7l-11.2-38.8l-6.5,36L230.5,302.4z"/>
			<path id="path67457" inkscape:connector-curvature="0" class="st15" d="M226.1,256.8l18.8,25.3l-7.6,13.5L226.1,256.8z"/>
			<path id="path67459" inkscape:connector-curvature="0" class="st16" d="M244.9,282.1l12.7,1.6l-20.4,11.9L244.9,282.1z"/>
			<path id="path67461" inkscape:connector-curvature="0" class="st17" d="M257.6,283.7l17.1,28.8L255,321l-17.7-25.4L257.6,283.7z"
				/>
			<path id="path67463" inkscape:connector-curvature="0" sodipodi:nodetypes="ccccc" class="st18" d="M230.5,302.4l6.7-6.7L255,321
				l-6.2,7.3L230.5,302.4z"/>
			<path id="path67465" inkscape:connector-curvature="0" class="st19" d="M225.1,324.9l5.5-22.6l18.3,26L225.1,324.9z"/>
			<path id="path67467" inkscape:connector-curvature="0" class="st20" d="M197.3,253.2l17.6-1.1l-14.7,7.5L197.3,253.2z"/>
			<path id="path68396" inkscape:connector-curvature="0" class="st21" d="M212.2,338.1l17.8,10.6l-21.9-5.7L212.2,338.1z"/>
			<path id="path68729" inkscape:connector-curvature="0" class="st22" d="M233.6,338.8l10-0.5l5.2-9.9l-23.7-3.4L233.6,338.8z"/>
			<path id="path68731" inkscape:connector-curvature="0" class="st23" d="M233.6,338.8l0.2,5.9l-3.8,4.1l-17.8-10.6l4.4-6.4
				l8.5-6.8L233.6,338.8z"/>
			<path id="path68733" inkscape:connector-curvature="0" class="st24" d="M233.6,338.8l10-0.5l13.8-3.1l8.2,4.4l9,3h-11.4
				l-22.7,5.7l-6.8-3.6L233.6,338.8z"/>
			<path id="path68735" inkscape:connector-curvature="0" class="st25" d="M248.8,328.3l8.6,6.8l-13.8,3.1L248.8,328.3z"/>
			<path id="path68737" inkscape:connector-curvature="0" class="st26" d="M255,321l14.5,18l5.1,3.6l-9-3l-8.2-4.4l-8.6-6.8L255,321
				z"/>
			<path id="path68739" inkscape:connector-curvature="0" class="st27" d="M255,321l19.8-8.5l-3.6,6.2l-1.7,20.3L255,321z"/>
			<path id="path68741" inkscape:connector-curvature="0" class="st28" d="M263.3,342.6l-4.8,13.6l-17.9-7.9L263.3,342.6z"/>
			<path id="path68743" inkscape:connector-curvature="0" class="st29" d="M233.8,344.6l6.8,3.6l17.9,7.9l-6.4,7.7L230,348.7
				L233.8,344.6z"/>
			<path id="path68745" inkscape:connector-curvature="0" class="st30" d="M230,348.7l22.1,15.2l-11.4,11.5l-21.9-6.9L230,348.7z"/>
			<path id="path68747" inkscape:connector-curvature="0" class="st31" d="M274.8,312.5l6.9,12.6l6.7,14.2l1.3,5l-15-1.8l-5.1-3.6
				l1.7-20.3L274.8,312.5z"/>
			<path id="path68749" inkscape:connector-curvature="0" class="st32" d="M274.8,312.5l20.3,7.3l10.2,6.8l3.8,2.1L309,346
				l-19.4-1.7l-1.3-5L274.8,312.5z"/>
		</g>
		<path id="path69310" inkscape:connector-curvature="0" class="st33" d="M146.7,238.5l12.6,40l13,21.2l40,38.5l-13.1-55.2
			l-14.8-14.1L146.7,238.5z"/>
		<path id="path69312" inkscape:connector-curvature="0" class="st34" d="M200.2,259.6l14.7-7.5l11.2,4.7l-20.2,15.1L200.2,259.6z"
			/>
	</g>
	
		<g id="layer5" transform="translate(-28.544529,-108.38489)" inkscape:groupmode="layer" inkscape:label="trees" sodipodi:insensitive="true">
		<path id="path67585" inkscape:connector-curvature="0" sodipodi:nodetypes="cccc" class="st35" d="M282.7,320.6l-2.5,4.7l2.9-1.9
			L282.7,320.6z"/>
		<path id="path67587" inkscape:connector-curvature="0" sodipodi:nodetypes="ccccccc" class="st36" d="M280.2,325.3l2.5,4l0.6,3.8
			l2.1-0.7l3.8-8.9l-6.2-0.2L280.2,325.3z"/>
		<path id="path67589" inkscape:connector-curvature="0" sodipodi:nodetypes="cccccc" class="st37" d="M282.7,320.6l3.2-2.5l8,1.5
			l-4.7,4l-6.2-0.2L282.7,320.6z"/>
		<path id="path67591" inkscape:connector-curvature="0" sodipodi:nodetypes="cccc" class="st38" d="M289.3,323.6l3.7,2.4l1.1-6.4
			L289.3,323.6z"/>
		<path id="path67595" inkscape:connector-curvature="0" sodipodi:nodetypes="cccccc" class="st39" d="M289.3,323.6l3.7,2.4l1,5.8
			l-2.8,1.6l-5.7-0.9L289.3,323.6z"/>
		<path id="path67597" inkscape:connector-curvature="0" class="st40" d="M286.9,333.6l-1.1,11.7h4.5l-1.1-11.8L286.9,333.6z"/>
		<path id="path67599" inkscape:connector-curvature="0" sodipodi:nodetypes="ccccc" class="st41" d="M283.3,333.2l4.3,1.5l3.5-1.3
			l-5.7-0.9L283.3,333.2z"/>
		<path id="path67609" inkscape:connector-curvature="0" sodipodi:nodetypes="cccccc" class="st42" d="M294,319.6l2.8,5.9l0,3.4
			l-2.9,2.9l-1-5.8L294,319.6z"/>
		<path id="path67617" inkscape:connector-curvature="0" class="st43" d="M280.2,325.3l0.4,5.2l2.7,2.7l-0.6-3.8L280.2,325.3z"/>
		<path id="path67585-1-9-6" inkscape:connector-curvature="0" sodipodi:nodetypes="cccc" class="st35" d="M328.5,320.9l-2.8,4
			l2.8-1.5L328.5,320.9z"/>
		<path id="path67587-2-7-3" inkscape:connector-curvature="0" sodipodi:nodetypes="ccccccc" class="st36" d="M325.7,324.9l1.9,3.7
			l0.2,3.4l2-0.5l4.3-7.5l-5.7-0.5L325.7,324.9z"/>
		<path id="path67589-3-2-4" inkscape:connector-curvature="0" sodipodi:nodetypes="cccccc" class="st37" d="M328.5,320.9l3.2-2
			l7.3,1.7l-4.7,3.3l-5.7-0.5L328.5,320.9z"/>
		<path id="path67591-6-3-6" inkscape:connector-curvature="0" sodipodi:nodetypes="cccc" class="st38" d="M334.2,324l3.1,2.3
			l1.6-5.5L334.2,324z"/>
		<path id="path67597-0-5-4" inkscape:connector-curvature="0" sodipodi:nodetypes="cccccccccc" class="st40" d="M334,331.3l4,6.8
			l-0.9,13.8l4.2-0.1l-0.7-13.3l4.1-6.4l-1.2,0l-3.8,4.6l-5.1-6.7L334,331.3z"/>
		<path id="path67595-8-5-0" inkscape:connector-curvature="0" sodipodi:nodetypes="cccccc" class="st39" d="M334.2,324l3.1,2.3
			l0.4,5.1l-2.7,1.2l-5.2-1.1L334.2,324z"/>
		<path id="path67599-5-8-4" inkscape:connector-curvature="0" sodipodi:nodetypes="ccccc" class="st41" d="M327.9,331.9l3.8,1.5
			l3.3-0.9l-5.2-1.1L327.9,331.9z"/>
		<path id="path67609-1-1-6" inkscape:connector-curvature="0" sodipodi:nodetypes="cccccc" class="st42" d="M338.9,320.7l2,5.3
			l-0.3,3l-2.9,2.3l-0.4-5.1L338.9,320.7z"/>
		<path id="path67617-0-9-24" inkscape:connector-curvature="0" class="st43" d="M325.7,324.9l-0.1,4.6l2.3,2.5l-0.2-3.4
			L325.7,324.9z"/>
		<path id="path67585-1-9-1-2" inkscape:connector-curvature="0" sodipodi:nodetypes="cccc" class="st35" d="M345.3,323.9l-2.4,1.8
			l1.9-0.1L345.3,323.9z"/>
		<path id="path67587-2-7-0-0" inkscape:connector-curvature="0" sodipodi:nodetypes="ccccccc" class="st36" d="M342.9,325.7
			l0.1,3.2l-0.7,2.4l1.2,0.4l4.1-3.7l-2.9-2.3L342.9,325.7z"/>
		<path id="path67589-3-2-8-3" inkscape:connector-curvature="0" sodipodi:nodetypes="cccccc" class="st37" d="M345.3,323.9l2.1-0.3
			l3.4,3.7l-3.3,0.6l-2.9-2.3L345.3,323.9z"/>
		<path id="path67591-6-3-9-7" inkscape:connector-curvature="0" sodipodi:nodetypes="cccc" class="st38" d="M347.6,328l1.1,2.6
			l2.2-3.3L347.6,328z"/>
		<path id="path67595-8-5-5-6" inkscape:connector-curvature="0" sodipodi:nodetypes="cccccc" class="st39" d="M347.6,328l1.1,2.6
			l-1,3.6l-1.7-0.1l-2.5-2.5L347.6,328z"/>
		<path id="path67599-5-8-1-5" inkscape:connector-curvature="0" sodipodi:nodetypes="ccccc" class="st41" d="M342.3,331.3l1.7,2.4
			l2,0.5l-2.5-2.5L342.3,331.3z"/>
		<path id="path67609-1-1-1-4" inkscape:connector-curvature="0" sodipodi:nodetypes="cccccc" class="st42" d="M350.9,327.3
			l-0.2,4.3l-0.9,1.9l-2.1,0.6l1-3.6L350.9,327.3z"/>
		<path id="path67617-0-9-2-4" inkscape:connector-curvature="0" class="st43" d="M342.9,325.7l-1.2,3.1l0.6,2.5l0.7-2.4
			L342.9,325.7z"/>
		<path id="path67585-1-9-6-8" inkscape:connector-curvature="0" sodipodi:nodetypes="cccc" class="st35" d="M379.6,328.8l-2.5,5.5
			l3-2.4L379.6,328.8z"/>
		<path id="path67587-2-7-3-2" inkscape:connector-curvature="0" sodipodi:nodetypes="ccccccc" class="st36" d="M377.2,334.4l3,4.2
			l0.9,4.2l2.2-1l3.6-10.3l-6.8,0.4L377.2,334.4z"/>
		<path id="path67589-3-2-4-5" inkscape:connector-curvature="0" sodipodi:nodetypes="cccccc" class="st37" d="M379.6,328.8l3.3-3
			l8.9,0.8l-4.9,5l-6.8,0.4L379.6,328.8z"/>
		<path id="path67591-6-3-6-2" inkscape:connector-curvature="0" sodipodi:nodetypes="cccc" class="st38" d="M387,331.6l4.2,2.3
			l0.7-7.3L387,331.6z"/>
		<path id="path67597-0-5-4-2" inkscape:connector-curvature="0" sodipodi:nodetypes="cccccccccc" class="st40" d="M388.6,341.6
			l4,6.8l-0.9,13.8l4.2-0.1l-0.7-13.3l4.1-6.4l-1.2,0l-3.8,4.6l-5.1-6.7L388.6,341.6z"/>
		<path id="path67595-8-5-0-9" inkscape:connector-curvature="0" sodipodi:nodetypes="cccccc" class="st39" d="M387,331.6l4.2,2.3
			l1.5,6.3l-2.9,2.1l-6.3-0.4L387,331.6z"/>
		<path id="path67599-5-8-4-4" inkscape:connector-curvature="0" sodipodi:nodetypes="ccccc" class="st41" d="M381.1,342.8l4.8,1.2
			l3.7-1.8l-6.3-0.4L381.1,342.8z"/>
		<path id="path67609-1-1-6-7" inkscape:connector-curvature="0" sodipodi:nodetypes="cccccc" class="st42" d="M391.9,326.6l3.4,6.3
			l0.2,3.8l-2.9,3.5l-1.5-6.3L391.9,326.6z"/>
		<path id="path67617-0-9-24-7" inkscape:connector-curvature="0" class="st43" d="M377.2,334.4l0.8,5.8l3.2,2.7l-0.9-4.2
			L377.2,334.4z"/>
		<path id="path67585-1-9-1-2-0" inkscape:connector-curvature="0" sodipodi:nodetypes="cccc" class="st35" d="M400.5,334.6l-3,1.8
			l2.3-0.1L400.5,334.6z"/>
		<path id="path67587-2-7-0-0-7" inkscape:connector-curvature="0" sodipodi:nodetypes="ccccccc" class="st36" d="M397.5,336.4
			l0.2,3.2l-0.9,2.4l1.4,0.4l5.1-3.7l-3.5-2.3L397.5,336.4z"/>
		<path id="path67589-3-2-8-3-2" inkscape:connector-curvature="0" sodipodi:nodetypes="cccccc" class="st37" d="M400.5,334.6
			l2.7-0.3l4.2,3.7l-4.1,0.6l-3.5-2.3L400.5,334.6z"/>
		<path id="path67591-6-3-9-7-3" inkscape:connector-curvature="0" sodipodi:nodetypes="cccc" class="st38" d="M403.3,338.7l1.4,2.6
			l2.7-3.3L403.3,338.7z"/>
		<path id="path67595-8-5-5-6-7" inkscape:connector-curvature="0" sodipodi:nodetypes="cccccc" class="st39" d="M403.3,338.7
			l1.4,2.6l-1.3,3.6l-2.1-0.1l-3-2.5L403.3,338.7z"/>
		<path id="path67599-5-8-1-5-6" inkscape:connector-curvature="0" sodipodi:nodetypes="ccccc" class="st41" d="M396.8,342l2,2.4
			l2.4,0.5l-3-2.5L396.8,342z"/>
		<path id="path67609-1-1-1-4-8" inkscape:connector-curvature="0" sodipodi:nodetypes="cccccc" class="st42" d="M407.4,338.1
			l-0.3,4.3l-1.1,1.9l-2.6,0.6l1.3-3.6L407.4,338.1z"/>
		<path id="path67617-0-9-2-4-9" inkscape:connector-curvature="0" class="st43" d="M397.5,336.4l-1.5,3.1l0.8,2.5l0.9-2.4
			L397.5,336.4z"/>
		<path id="path67585-5" inkscape:connector-curvature="0" sodipodi:nodetypes="cccc" class="st35" d="M358.2,326.1l-2.5,4.7
			l2.9-1.9L358.2,326.1z"/>
		<path id="path67587-3" inkscape:connector-curvature="0" sodipodi:nodetypes="ccccccc" class="st36" d="M355.6,330.8l2.5,4
			l0.6,3.8l2.1-0.7l3.8-8.9l-6.2-0.2L355.6,330.8z"/>
		<path id="path67589-8" inkscape:connector-curvature="0" sodipodi:nodetypes="cccccc" class="st37" d="M358.2,326.1l3.2-2.5l8,1.5
			l-4.7,4l-6.2-0.2L358.2,326.1z"/>
		<path id="path67591-5" inkscape:connector-curvature="0" sodipodi:nodetypes="cccc" class="st38" d="M364.7,329.2l3.7,2.4l1.1-6.4
			L364.7,329.2z"/>
		<path id="path67595-7" inkscape:connector-curvature="0" sodipodi:nodetypes="cccccc" class="st39" d="M364.7,329.2l3.7,2.4l1,5.8
			l-2.8,1.6l-5.7-0.9L364.7,329.2z"/>
		<path id="path67597-3" inkscape:connector-curvature="0" class="st40" d="M362.3,339.1l-1.1,11.7h4.5l-1.1-11.8L362.3,339.1z"/>
		<path id="path67599-4" inkscape:connector-curvature="0" sodipodi:nodetypes="ccccc" class="st41" d="M358.8,338.7l4.3,1.5
			l3.5-1.3l-5.7-0.9L358.8,338.7z"/>
		<path id="path67609-3" inkscape:connector-curvature="0" sodipodi:nodetypes="cccccc" class="st42" d="M369.4,325.1l2.8,5.9l0,3.4
			l-2.9,2.9l-1-5.8L369.4,325.1z"/>
		<path id="path67617-5" inkscape:connector-curvature="0" class="st43" d="M355.6,330.8l0.4,5.2l2.7,2.7l-0.6-3.8L355.6,330.8z"/>
		<path id="path67585-1" inkscape:connector-curvature="0" sodipodi:nodetypes="cccc" class="st35" d="M166,334.9l-4.2,7.4l4.8-3
			L166,334.9z"/>
		<path id="path67587-2" inkscape:connector-curvature="0" sodipodi:nodetypes="ccccccc" class="st36" d="M161.8,342.4l4.2,6.3l1,6
			l3.5-1.1l6.4-13.9l-10.3-0.4L161.8,342.4z"/>
		<path id="path67589-3" inkscape:connector-curvature="0" sodipodi:nodetypes="cccccc" class="st37" d="M166,334.9l5.3-3.8
			l13.4,2.3l-7.9,6.3l-10.3-0.4L166,334.9z"/>
		<path id="path67591-6" inkscape:connector-curvature="0" sodipodi:nodetypes="cccc" class="st38" d="M176.9,339.7l6.1,3.7
			l1.8-10.1L176.9,339.7z"/>
		<path id="path67595-8" inkscape:connector-curvature="0" sodipodi:nodetypes="cccccc" class="st39" d="M176.9,339.7l6.1,3.7
			l1.6,9.1L180,355l-9.5-1.4L176.9,339.7z"/>
		<path id="path67597-0" inkscape:connector-curvature="0" class="st40" d="M172.9,355.3l-1.9,18.4h7.5l-1.9-18.4L172.9,355.3z"/>
		<path id="path67599-5" inkscape:connector-curvature="0" sodipodi:nodetypes="ccccc" class="st41" d="M167,354.7l7.2,2.3l5.8-2
			l-9.5-1.4L167,354.7z"/>
		<path id="path67609-1" inkscape:connector-curvature="0" sodipodi:nodetypes="cccccc" class="st42" d="M184.8,333.4l4.6,9.2l0,5.4
			l-4.8,4.5l-1.6-9.1L184.8,333.4z"/>
		<path id="path67617-0" inkscape:connector-curvature="0" class="st43" d="M161.8,342.4l0.6,8.2l4.6,4.1l-1-6L161.8,342.4z"/>
		<path id="path67585-1-9" inkscape:connector-curvature="0" sodipodi:nodetypes="cccc" class="st35" d="M119.6,326.8l-6.7,3.3
			l5.1-0.1L119.6,326.8z"/>
		<path id="path67587-2-7" inkscape:connector-curvature="0" sodipodi:nodetypes="ccccccc" class="st36" d="M112.8,330.1l0.4,5.9
			l-2,4.5l3.2,0.7l11.4-6.9L118,330L112.8,330.1z"/>
		<path id="path67589-3-2" inkscape:connector-curvature="0" sodipodi:nodetypes="cccccc" class="st37" d="M119.6,326.8l5.9-0.5
			l9.5,6.9l-9.1,1.2L118,330L119.6,326.8z"/>
		<path id="path67591-6-3" inkscape:connector-curvature="0" sodipodi:nodetypes="cccc" class="st38" d="M125.9,334.3l3.1,4.9l6-6.1
			L125.9,334.3z"/>
		<path id="path67597-0-5" inkscape:connector-curvature="0" sodipodi:nodetypes="cccccccccc" class="st40" d="M126.3,343.8l5.4,8.7
			l-1.1,17.6l5.6-0.1l-0.9-17.1l5.5-8.2l-1.6,0l-5.1,5.9l-6.8-8.6L126.3,343.8z"/>
		<path id="path67595-8-5" inkscape:connector-curvature="0" sodipodi:nodetypes="cccccc" class="st39" d="M125.9,334.3l3.1,4.9
			l-2.9,6.8l-4.8-0.1l-6.8-4.7L125.9,334.3z"/>
		<path id="path67599-5-8" inkscape:connector-curvature="0" sodipodi:nodetypes="ccccc" class="st41" d="M111.3,340.5l4.6,4.4
			l5.5,1l-6.8-4.7L111.3,340.5z"/>
		<path id="path67609-1-1" inkscape:connector-curvature="0" sodipodi:nodetypes="cccccc" class="st42" d="M135,333.2l-0.6,8.1
			l-2.5,3.6l-5.8,1.2l2.9-6.8L135,333.2z"/>
		<path id="path67617-0-9" inkscape:connector-curvature="0" class="st43" d="M112.8,330.1l-3.3,5.8l1.7,4.6l2-4.5L112.8,330.1z"/>
		<path id="path67585-1-9-1" inkscape:connector-curvature="0" sodipodi:nodetypes="cccc" class="st35" d="M142,336.2l-3.7,2
			l2.8-0.1L142,336.2z"/>
		<path id="path67587-2-7-0" inkscape:connector-curvature="0" sodipodi:nodetypes="ccccccc" class="st36" d="M138.3,338.2l0.2,3.5
			l-1.1,2.6l1.8,0.4l6.2-4l-4.3-2.5L138.3,338.2z"/>
		<path id="path67589-3-2-8" inkscape:connector-curvature="0" sodipodi:nodetypes="cccccc" class="st37" d="M142,336.2l3.2-0.3
			l5.2,4l-4.9,0.7l-4.3-2.5L142,336.2z"/>
		<path id="path67591-6-3-9" inkscape:connector-curvature="0" sodipodi:nodetypes="cccc" class="st38" d="M145.4,340.7l1.7,2.9
			l3.3-3.6L145.4,340.7z"/>
		<path id="path67595-8-5-5" inkscape:connector-curvature="0" sodipodi:nodetypes="cccccc" class="st39" d="M145.4,340.7l1.7,2.9
			l-1.6,4l-2.6-0.1l-3.7-2.8L145.4,340.7z"/>
		<path id="path67599-5-8-1" inkscape:connector-curvature="0" sodipodi:nodetypes="ccccc" class="st41" d="M137.5,344.3l2.5,2.6
			l3,0.6l-3.7-2.8L137.5,344.3z"/>
		<path id="path67609-1-1-1" inkscape:connector-curvature="0" sodipodi:nodetypes="cccccc" class="st42" d="M150.4,340l-0.3,4.7
			l-1.3,2.1l-3.2,0.7l1.6-4L150.4,340z"/>
		<path id="path67617-0-9-2" inkscape:connector-curvature="0" class="st43" d="M138.3,338.2l-1.8,3.4l0.9,2.7l1.1-2.6L138.3,338.2z
			"/>
		<path id="path67553" inkscape:connector-curvature="0" class="st44" d="M67,320l-3.7,4.6l4-1.2L67,320z"/>
		<path id="path67555" inkscape:connector-curvature="0" class="st45" d="M63.3,324.6l-0.5,6l4.9,4.6l2.2-0.8l1.9-8.9l-4.4-2.1
			L63.3,324.6z"/>
		<path id="path67557" inkscape:connector-curvature="0" sodipodi:nodetypes="cccccc" class="st46" d="M67,320l6-2.5l6.1,1.4
			l-7.3,6.7l-4.4-2.1L67,320z"/>
		<path id="path67559" inkscape:connector-curvature="0" sodipodi:nodetypes="cccc" class="st47" d="M71.7,325.5l8.9,0.6l-1.6-7.3
			L71.7,325.5z"/>
		<path id="path67561" inkscape:connector-curvature="0" sodipodi:nodetypes="cccccc" class="st48" d="M79,318.8l3.1,6.1l-0.1,5.1
			l-3.1,3.5l1.7-7.4L79,318.8z"/>
		<path id="path67563" inkscape:connector-curvature="0" sodipodi:nodetypes="cccccc" class="st49" d="M71.7,325.5l8.9,0.6l-1.7,7.4
			l-3,1.9l-6.1-1.1L71.7,325.5z"/>
		<path id="path67567" inkscape:connector-curvature="0" class="st50" d="M71.4,335.6l-1.2,14.1H75l-1.2-14.2L71.4,335.6z"/>
		<path id="path67565" inkscape:connector-curvature="0" sodipodi:nodetypes="ccccc" class="st51" d="M67.6,335.2l4.6,1.8l3.7-1.5
			l-6.1-1.1L67.6,335.2z"/>
		<path id="path67569" inkscape:connector-curvature="0" class="st44" d="M67,320l-3.7,4.6l4-1.2L67,320z"/>
		<path id="path67571" inkscape:connector-curvature="0" class="st45" d="M63.3,324.6l-0.5,6l4.9,4.6l2.2-0.8l1.9-8.9l-4.4-2.1
			L63.3,324.6z"/>
		<path id="path67573" inkscape:connector-curvature="0" sodipodi:nodetypes="cccccc" class="st46" d="M67,320l6-2.5l6.1,1.4
			l-7.3,6.7l-4.4-2.1L67,320z"/>
		<path id="path67575" inkscape:connector-curvature="0" sodipodi:nodetypes="cccc" class="st47" d="M71.7,325.5l8.9,0.6l-1.6-7.3
			L71.7,325.5z"/>
		<path id="path67577" inkscape:connector-curvature="0" sodipodi:nodetypes="cccccc" class="st48" d="M79,318.8l3.1,6.1l-0.1,5.1
			l-3.1,3.5l1.7-7.4L79,318.8z"/>
		<path id="path67579" inkscape:connector-curvature="0" sodipodi:nodetypes="cccccc" class="st49" d="M71.7,325.5l8.9,0.6l-1.7,7.4
			l-3,1.9l-6.1-1.1L71.7,325.5z"/>
		<path id="path67581" inkscape:connector-curvature="0" class="st50" d="M71.4,335.6l-1.2,14.1H75l-1.2-14.2L71.4,335.6z"/>
		<path id="path67583" inkscape:connector-curvature="0" sodipodi:nodetypes="ccccc" class="st51" d="M67.6,335.2l4.6,1.8l3.7-1.5
			l-6.1-1.1L67.6,335.2z"/>
		<path id="path69314" inkscape:connector-curvature="0" sodipodi:nodetypes="cccccccccccc" class="st52" d="M290.9,371.5l17.7-3.8
			l15.8-0.9l13.2,0.9l18.9-1.7l35.3-3.8l4.2-0.1l-40.4,6.3l-9.3,1l-14.9,1l-23.8,2.1L290.9,371.5z"/>
		<path id="path69314-7" inkscape:connector-curvature="0" sodipodi:nodetypes="cccccccccccc" class="st52" d="M298,360.2l11.4-3.8
			l10.2-0.9l8.5,0.9l12.2-1.7l20.9-3.9h4.5l-26,6.3l-6,1l-9.6,1l-15.4,2.1L298,360.2z"/>
		<path id="path69314-7-0" inkscape:connector-curvature="0" sodipodi:nodetypes="cccccccccccc" class="st52" d="M286.8,356.3
			l9.2-3.8l8.2-0.9l6.9,0.9l9.8-0.2l16.3-0.5l4.2-0.1l-5.3,1.3l-20.4,1.2l-7.8,1l-12.4,2.1L286.8,356.3z"/>
		<path id="path69314-7-0-1" inkscape:connector-curvature="0" sodipodi:nodetypes="cccccccccccc" class="st24" d="M247.9,349.9
			l7.1-3.8l6.4-0.9l5.3,0.9l7.6-0.2l12.4-0.6h3.5l-4.1,1.3l-15.8,1.2l-6,1l-9.6,2.1L247.9,349.9z"/>
		<path id="path69314-7-4" inkscape:connector-curvature="0" sodipodi:nodetypes="cccccccccccc" class="st53" d="M110.9,383
			l11.4-3.8l10.2-0.9l8.5,0.9l12.2-1.7l17.9-3.9h7.5l-26,6.3l-6,1l-9.6,1l-15.4,2.1L110.9,383z"/>
		
			<path id="path69314-7-4-8" inkscape:connector-curvature="0" inkscape:transform-center-x="-15.592645" inkscape:transform-center-y="8.6101905" sodipodi:nodetypes="cccccccccccc" class="st53" d="
			M28.5,356l7.6-3.8l6.8-0.9l5.7-1.1l8.2,0.2l13.3-0.7H75l-18.5,3.1l-4-0.9l-6.5,3L35.7,357L28.5,356z"/>
		
			<path id="path69314-7-4-8-8" inkscape:connector-curvature="0" inkscape:transform-center-x="-15.592645" inkscape:transform-center-y="8.6101905" sodipodi:nodetypes="cccccccccccc" class="st53" d="
			M85,370.7l9.1-2.2l5.9-0.4l9.9,2.4l8.2,0.2l13.3-0.7h4.8l-18.5,3.1l-4.6,1.1l-12.9,4.4l-10.7-2.5L85,370.7z"/>
	</g>
	<g id="layer6" inkscape:groupmode="layer" inkscape:label="river" class="st0">
		<path id="path69636" inkscape:connector-curvature="0" sodipodi:nodetypes="cccccccccccccccccccc" class="st54" d="M393.7,281.5
			l-20.7,4.6l-23.8,2l-24.3,5.2l-28.1,0.7l-33.5,3l-8.7,5.2l-36.4-1.5l-20.5,4l-17.4,1.4l17.8,0l20.1-2.9l34.9,1l14.6-4.9l33-2.5
			l22.8-0.7l26.7-5.9H374l19.7-4.6L393.7,281.5z"/>
		<path id="path73086" inkscape:connector-curvature="0" sodipodi:nodetypes="cccc" class="st55" d="M384.4,287.7l9.3,4.9l0-7.1
			L384.4,287.7z"/>
		<path id="path73088" inkscape:connector-curvature="0" sodipodi:nodetypes="cccc" class="st56" d="M374,290.1l11.5,3.9l-1-6.3
			L374,290.1z"/>
		<path id="path73090" inkscape:connector-curvature="0" sodipodi:nodetypes="cccc" class="st55" d="M354.8,293.7l19.1-3.6h-23.8
			L354.8,293.7z"/>
		<path id="path73094" inkscape:connector-curvature="0" sodipodi:nodetypes="cccc" class="st57" d="M374.2,295.8l11.2-1.8
			l-11.5-3.9L374.2,295.8z"/>
		<path id="path73100" inkscape:connector-curvature="0" sodipodi:nodetypes="cccc" class="st58" d="M358.6,296.4l15.4-6.3
			l-19.1,3.6L358.6,296.4z"/>
		<path id="path73102" inkscape:connector-curvature="0" sodipodi:nodetypes="cccc" class="st55" d="M339.4,296.6l10.8-6.5L337,293
			L339.4,296.6z"/>
		<path id="path73104" inkscape:connector-curvature="0" sodipodi:nodetypes="cccc" class="st59" d="M358.6,296.4l15.7-0.6l-0.3-5.7
			L358.6,296.4z"/>
		<path id="path73108" inkscape:connector-curvature="0" sodipodi:nodetypes="cccc" class="st59" d="M339.4,296.6l15.5-2.9l-4.6-3.6
			L339.4,296.6z"/>
		<path id="path73110" inkscape:connector-curvature="0" class="st60" d="M339.4,296.6l8.6,2l6.9-4.9L339.4,296.6z"/>
		<path id="path73112" inkscape:connector-curvature="0" sodipodi:nodetypes="cccc" class="st61" d="M327.8,299.2l9.3-6.2l-14,3
			L327.8,299.2z"/>
		<path id="path73114" inkscape:connector-curvature="0" class="st62" d="M348,298.6l10.6-2.2l-3.7-2.7L348,298.6z"/>
		<path id="path73116" inkscape:connector-curvature="0" sodipodi:nodetypes="cccc" class="st63" d="M327.8,299.2l11.6-2.6L337,293
			L327.8,299.2z"/>
		<path id="path73118" inkscape:connector-curvature="0" class="st64" d="M340.6,301l7.3-2.4l-8.6-2L340.6,301z"/>
		<path id="path73120" inkscape:connector-curvature="0" sodipodi:nodetypes="cccc" class="st55" d="M302,300.7l10.3-4.3l-11.7,0.4
			L302,300.7z"/>
		<path id="path73122" inkscape:connector-curvature="0" sodipodi:nodetypes="cccc" class="st59" d="M302,300.7l11,1l-0.6-5.3
			L302,300.7z"/>
		<path id="path73124" inkscape:connector-curvature="0" class="st56" d="M327.8,299.2l12.9,1.8l-1.3-4.4L327.8,299.2z"/>
		<path id="path73126" inkscape:connector-curvature="0" sodipodi:nodetypes="cccc" class="st55" d="M313,301.6l10-5.6l-10.7,0.4
			L313,301.6z"/>
		<path id="path73128" inkscape:connector-curvature="0" sodipodi:nodetypes="cccc" class="st61" d="M286.2,297.7l15.8,3l-1.3-3.9
			L286.2,297.7z"/>
		<path id="path73134" inkscape:connector-curvature="0" class="st62" d="M313,301.6l14.8-2.4L323,296L313,301.6z"/>
		<path id="path73136" inkscape:connector-curvature="0" class="st65" d="M269,302.3l17.2-4.6l-20.3,1.6L269,302.3z"/>
		<path id="path73138" inkscape:connector-curvature="0" class="st62" d="M286.3,301.8l15.7-1.1l-15.8-3L286.3,301.8z"/>
		<path id="path73140" inkscape:connector-curvature="0" class="st57" d="M327.6,301.9l13.1-1l-12.9-1.8L327.6,301.9z"/>
		<path id="path73142" inkscape:connector-curvature="0" class="st62" d="M313,301.6l14.6,0.3l0.2-2.7L313,301.6z"/>
		<path id="path73144" inkscape:connector-curvature="0" class="st66" d="M231.4,303.9l-15.2-0.8l0,0L231.4,303.9z"/>
		<path id="path73148" inkscape:connector-curvature="0" class="st67" d="M269,302.3l17.3-0.5l-0.1-4.1L269,302.3z"/>
		<path id="path73152" inkscape:connector-curvature="0" class="st68" d="M277,306.2l9.3-4.4l-17.3,0.5L277,306.2z"/>
		<path id="path73154" inkscape:connector-curvature="0" class="st62" d="M313.6,304.1l14-2.2l-14.6-0.3L313.6,304.1z"/>
		<path id="path73156" inkscape:connector-curvature="0" class="st69" d="M266,299.4l-2.4,6.9l5.5-3.9L266,299.4z"/>
		<path id="path73158" inkscape:connector-curvature="0" class="st70" d="M238.1,306.3l13.4-2.3l-20.1-0.1L238.1,306.3z"/>
		<path id="path73160" inkscape:connector-curvature="0" class="st56" d="M286.3,301.8l12.1,4.4l3.6-5.5L286.3,301.8z"/>
		<path id="path73162" inkscape:connector-curvature="0" class="st71" d="M251.5,304l12,2.2l2.4-6.9L251.5,304z"/>
		<path id="path73164" inkscape:connector-curvature="0" class="st60" d="M302,300.7l11.5,3.4l-0.5-2.5L302,300.7z"/>
		<path id="path73166" inkscape:connector-curvature="0" class="st72" d="M217.1,306.3l14.4-2.4l-15.2-0.8L217.1,306.3z"/>
		<path id="path73170" inkscape:connector-curvature="0" class="st73" d="M298.5,306.2l15.1-2l-11.5-3.4L298.5,306.2z"/>
		<path id="path73172" inkscape:connector-curvature="0" class="st74" d="M263.5,306.2l13.5-0.1l-8-3.9L263.5,306.2z"/>
		<path id="path73174" inkscape:connector-curvature="0" class="st75" d="M195.4,305.8l21.7,0.5l-0.8-3.2L195.4,305.8z"/>
		<path id="path73176" inkscape:connector-curvature="0" class="st55" d="M277,306.2h21.4l-12.1-4.4L277,306.2z"/>
		<path id="path73178" inkscape:connector-curvature="0" class="st76" d="M217.1,306.3l21,0.1l-6.6-2.4L217.1,306.3z"/>
		<path id="path73182" inkscape:connector-curvature="0" class="st77" d="M238.1,306.3l25.4-0.1l-12-2.2L238.1,306.3z"/>
		<path id="path73184" inkscape:connector-curvature="0" class="st64" d="M348,298.6l26.3-2.8l-15.7,0.6L348,298.6z"/>
		<path id="path73186" inkscape:connector-curvature="0" class="st66" d="M384.4,287.7l9.3,4.9L384.4,287.7z"/>
		<path id="path73188" inkscape:connector-curvature="0" class="st57" d="M385.4,294l8.2-1.3l-9.3-4.9L385.4,294z"/>
		<path id="path73585" inkscape:connector-curvature="0" sodipodi:nodetypes="cccccccccccccccccccc" class="st78" d="M298.5,306.2
			l1-0.2l14.1-1.9l14-2.2l13.1-1l7.3-2.4l26.3-2.8l11.2-1.8l8.2-1.3l0,2.5l-7.6-0.3l-11.1,2.3l-3.5,1l-12.2-0.4l-9.9,2.9l-6.6,1.8
			l-14.3,1.3l-14.7,1.2l-11.2,1.2L298.5,306.2z"/>
	</g>
</g>
</svg>
