<svg
  xmlns:dc="http://purl.org/dc/elements/1.1/"
  xmlns:cc="http://creativecommons.org/ns#"
  xmlns:rdf="http://www.w3.org/1999/02/22-rdf-syntax-ns#"
  xmlns:svg="http://www.w3.org/2000/svg"
  xmlns="http://www.w3.org/2000/svg"
  xmlns:xlink="http://www.w3.org/1999/xlink"
  width="225.77777mm"
  height="90.343918mm"
  viewBox="0 0 799.99998 320.11624"
  id="svg6518"
  version="1.1"
  aria-label="A large green covered mountain behind a smaller green covered mountain with a brown shadow"
>
  <defs id="defs6520">
    <linearGradient
      x1="2111.8342"
      y1="629.84979"
      x2="2027.4612"
      y2="1110.9955"
      id="linearGradient5182"
      xlink:href="#linearGradient5176"
      gradientUnits="userSpaceOnUse"
      gradientTransform="matrix(0.953326,0,0,0.9848236,-1615.48,-509.53511)"
    />
    <linearGradient id="linearGradient5176">
      <stop
        id="stop5178"
        style="stop-color: #000000; stop-opacity: 1"
        offset="0"
      />
      <stop
        id="stop5180"
        style="stop-color: #000000; stop-opacity: 0"
        offset="1"
      />
    </linearGradient>
  </defs>
  <g id="layer1" transform="translate(-145.1912,-191.91581)">
    <g
      id="g6567"
      transform="matrix(1.8138689,0,0,1.8138689,-118.1666,-416.72693)"
    >
      <path
        d="m 394.7039,500.35379 c 13.5931,1.2193 27.7413,0.3631 39.8507,-3.6975 11.0594,-4.0995 23.1706,-6.9927 35.2798,-6.1883 0,-1.62186 3.5211,-2.88047 1.4822,-4.09978 -4.5094,-2.47791 -10.0706,-2.02361 -15.6305,-4.51462 -9.0837,-3.69752 -14.5816,-10.3266 -23.6637,-14.89305 -0.9887,-0.35047 -5.0045,-2.43924 -5.0045,-4.51493 31.7573,3.69741 70.6198,-2.02391 101.3888,6.59047 3.522,0.81693 12.6042,-2.02374 20.141,-4.51478 9.0839,-3.28227 31.2598,-1.63943 36.8209,-5.38858 0.9267,-0.35026 -9.5728,-6.15742 -11.6115,-7.83116 -5.4998,-6.18309 -19.1529,-4.91565 -26.1962,-11.55553 -11.0606,-11.14801 -27.6799,-14.03708 -41.3963,-23.15838 -3.027,-1.62188 -9.0837,-0.88727 -13.593,-1.74887 -5.6619,-4.29036 -0.2829,-4.31778 -43.5042,-36.27097 -38.6134,-13.84343 -36.7622,-25.3551 -60.7116,-33.35815 -8.5257,-3.69741 -16.439,-10.54914 -23.4824,-8.46023 -12.6027,3.69741 -39.7038,18.11997 -51.8136,25.57588 -10.0709,6.18312 -22.5883,17.11553 -31.1755,24.16012 -2.2553,1.84923 -28.3101,24.55521 -58.1313,41.56176 -29.8212,17.00619 -73.024,40.38254 -76.7934,40.78811 68.4386,-5.49026 -60.6493,20.64569 247.7443,31.51849 z"
        id="path430"
        style="
          fill: #806600;
          fill-opacity: 1;
          stroke: url(#linearGradient5182);
          stroke-width: 1.61911011;
          stroke-linecap: round;
          stroke-miterlimit: 4;
          stroke-dasharray: none;
        "
      />
      <path
        d="m 221.5531,429.95078 c 17.044,-9.61464 82.2656,-46.69393 102.0215,-71.93545 -2.8046,0.2723 5.8496,7.46703 5.2708,10.52825 6.428,-0.42918 2.8896,-7.03656 8.2324,-7.46594 4.1175,0 7.0769,-1.71862 10.6156,-3.06231 4.1173,-0.85956 1.7342,1.71891 1.7342,3.06231 -5.273,10.09917 -17.0438,16.2228 -26.5039,24.11902 1.1554,0.85925 2.3109,1.71891 1.7341,3.06102 3.4644,0.3769 7.5816,0.3769 9.9647,-1.71901 0.5785,-0.42908 0.5785,-1.77258 0.5785,-2.63194 3.5388,1.28993 2.3114,3.92196 1.156,5.69435 -2.3112,5.26428 -12.3501,4.78024 -15.3116,9.61513 -3.4666,5.2106 -7.0052,9.61513 -12.3481,13.59086 4.1155,-3.49169 8.8094,-7.89632 14.1542,-8.32658 8.2325,-0.85976 11.1942,-6.12374 18.2716,-7.84265 7.6534,-1.71881 12.348,-7.89612 18.2713,-12.73111 -2.311,3.4916 -7.0788,6.55391 -5.2731,10.52974 0.5788,0.42889 2.8899,2.63184 5.2731,1.71851 -5.2731,7.03686 -16.4671,11.38811 -20.0057,19.7144 -3.5383,-1.28973 -5.8493,1.28864 -8.2324,1.71911 -3.4663,1.28844 -2.311,6.55252 -4.694,8.3251 -9.9668,5.69445 -14.733,14.93426 -18.8483,22.77688 -0.5788,0.85945 -8.2327,5.25974 -11.1945,6.12619 -5.2726,2.20019 -37.9068,28.14724 -38.4835,24.65427 -3.4664,-16.64765 -36.2688,14.65626 -112.7448,-8.99578"
        id="path436"
        style="fill: #677821; stroke: none"
      />
      <path
        d="m 407.4371,461.36412 c -0.5769,-0.64732 -1.7322,-0.96611 -1.7322,-1.2845 1.1553,-2.60989 -4.1172,-2.93862 -4.1172,-5.58317 8.8112,0 15.8882,9.46711 21.2312,3.5691 1.1574,-1.32508 -2.3111,-3.24873 2.8896,-4.89349 1.1554,-0.28185 -1.1554,-1.2846 -0.5787,-1.96669 -2.8876,0 -5.2709,0.32056 -7.0768,-0.28156 -2.3111,-0.6422 -3.5386,-1.28411 -6.4265,-1.9665 -2.8895,-0.6424 -4.1171,-3.57166 0,-4.57519 7.6539,-1.32479 15.8881,3.57235 21.8099,0.64191 4.6941,-2.28716 9.3881,-2.92916 14.0821,-4.5749 2.3111,-0.6427 10.0387,-0.28097 7.654,1.92621 -1.7325,1.3243 -5.8498,0.96375 -8.2328,1.60596 -4.1152,1.2843 -7.6538,3.2509 -11.7713,4.89585 2.8899,-0.32056 2.3113,2.93005 5.8498,1.96659 5.2726,-1.60496 10.6157,-3.57166 16.4651,-4.25394 -0.5768,-1.28402 1.1574,-2.28794 1.1574,-3.61263 0.5766,0 1.1535,0 1.7321,0 -2.8895,-3.89261 5.2727,-2.24688 8.2329,-5.53904 0,0.6422 0.5064,0.6422 1.1555,0.96384 -4.1157,1.60487 -2.3112,4.21367 -3.4664,6.22133 -0.5773,0.6423 -2.3112,0.96286 -1.7326,1.9665 2.3109,1.60516 2.3109,-1.28402 4.1154,-0.64221 1.7339,0.32076 4.1172,0.96287 5.2726,0.64221 2.8878,0 5.8494,-1.28402 4.0434,-3.61263 -2.3111,-1.92622 -4.6941,-3.57235 -4.6941,-6.18115 0,-0.32075 -0.5768,-0.6421 -1.7322,-0.96286 4.694,0 8.2323,1.32429 9.9649,3.2514 2.3109,1.96639 2.8895,4.89674 6.5002,5.57873 7.0047,0.96286 6.426,-2.28795 6.426,-5.57873 5.2731,0.32026 12.9287,2.28676 11.7731,4.89674 -0.5064,1.92631 -4.6938,3.57126 -8.8112,3.93289 -2.8877,0.28077 -1.1555,2.28725 -2.8877,2.60909 -3.4665,0 -7.6558,0.64211 -8.8111,1.9664 -1.1554,1.96659 0.5767,5.86384 2.8876,7.17917 3.4666,1.61294 10.5453,-0.63719 15.8883,0 0.507,-2.92838 4.1176,-3.88415 7.0771,-5.89467 3.4666,-1.92661 -1.732,-3.57274 -4.6939,-4.89703 -2.3109,-0.6423 -0.5768,-1.2847 0.5785,-2.92956 1.7327,-1.92641 7.077,-0.32144 7.6541,-1.92641 1.1557,-1.9662 -1.1555,-4.89694 1.1557,-6.22142 1.7338,-1.28412 4.117,0.96296 3.466,2.60879 2.3109,-0.28038 2.8898,-1.60575 5.2726,-1.92631 2.8877,-0.32076 4.6941,1.92631 3.4668,2.6087 -3.4668,2.28814 -6.4285,3.8933 -5.2727,7.18409 0,1.64584 -4.1151,2.28824 -2.311,3.61243 3.4663,2.28725 3.4663,4.57559 4.694,7.18557 1.1554,2.92827 7.6558,3.5755 13.5052,2.29109 -2.3108,-5.5483 11.1944,-3.25701 17.1161,-4.90107 0.5048,0 0.5048,-0.96611 0,-1.28411 -2.8899,-1.60497 -3.4665,-2.24855 -2.8899,-4.57569 0,-0.28136 -1.0834,-0.96355 -1.7324,-1.28431 8.8115,2.6088 24.4051,6.07162 30.9053,10.97082 -8.2324,1.60299 -23.828,-1.49445 -32.0606,0.4683 -9.9668,2.60959 -20.0036,5.85665 -30.6934,5.85665 -4.6938,0 -9.3879,-1.92169 -14.0817,-1.92169 -33.0026,-1.64406 -61.3127,-0.96581 -94.9661,-2.60968 1.1557,0.27772 -2.8875,-0.31859 -3.466,-0.64733"
        id="path3090"
        style="fill: #677821; stroke: none"
      />
      <g id="g6561">
        <path
          style="fill: #677821; stroke: none"
          id="path440"
          d="m 302.6273,492.26719 c -0.5769,-0.866 -1.7325,-1.2929 -1.7325,-1.7189 1.1556,-3.49294 -4.1172,-3.93266 -4.1172,-7.47241 8.8112,0 15.8884,12.67041 21.2314,4.77718 1.1574,-1.77367 -2.3112,-4.34849 2.8896,-6.54977 1.1554,-0.37689 -1.1554,-1.71901 -0.5787,-2.63233 -2.888,0 -5.2709,0.42908 -7.0771,-0.3767 -2.311,-0.85935 -3.5383,-1.71891 -6.4262,-2.63214 -2.8899,-0.85935 -4.1172,-4.77978 0,-6.12327 7.6538,-1.77259 15.888,4.78145 21.8098,0.85925 4.6942,-3.06073 9.3878,-3.92048 14.0822,-6.12323 2.3109,-0.85956 10.039,-0.37571 7.654,2.57826 -1.7324,1.77249 -5.8498,1.29002 -8.2327,2.14928 -4.1157,1.71901 -7.6539,4.35082 -11.7715,6.55286 2.8899,-0.42938 2.3113,3.92157 5.8498,2.63184 5.2727,-2.14829 10.6158,-4.78011 16.4651,-5.69304 -0.5769,-1.71917 1.1575,-3.06247 1.1575,-4.83515 0.5766,0 1.1535,0 1.7321,0 -2.8896,-5.21021 5.2727,-3.00756 8.2327,-7.41326 0,0.85935 0.5062,0.85935 1.1554,1.28962 -4.1154,2.1481 -2.3109,5.63969 -3.4665,8.32688 -0.5767,0.85926 -2.3109,1.28821 -1.7322,2.63191 2.3109,2.14807 2.3109,-1.71917 4.1155,-0.85966 1.734,0.42919 4.1169,1.28855 5.2725,0.85966 2.888,0 5.8495,-1.71917 4.0434,-4.83515 -2.3112,-2.57837 -4.6942,-4.78132 -4.6942,-8.27301 0,-0.42899 -0.5767,-0.85936 -1.7323,-1.28835 4.6938,0 8.2326,1.77239 9.9649,4.35115 2.3111,2.63184 2.8894,6.5537 6.5004,7.46693 7.0046,1.2884 6.4261,-3.06251 6.4261,-7.46693 5.2725,0.42889 12.9288,3.06093 11.7732,6.5537 -0.5066,2.57853 -4.6941,4.7801 -8.8112,5.26412 -2.888,0.37561 -1.1556,3.06113 -2.888,3.4915 -3.4665,0 -7.6557,0.85955 -8.8112,2.63213 -1.1556,2.63204 0.5769,7.84806 2.8878,9.60833 3.4663,2.1588 10.5454,-0.85265 15.8882,0 0.5065,-3.9191 4.1174,-5.19829 7.0771,-7.88951 3.4667,-2.57817 -1.7321,-4.78132 -4.6939,-6.55371 -2.3109,-0.85975 -0.5768,-1.71909 0.5786,-3.92086 1.7322,-2.57813 7.0769,-0.43037 7.654,-2.57813 1.1554,-2.63214 -1.1554,-6.5542 1.1554,-8.32678 1.7341,-1.71891 4.1173,1.28845 3.4662,3.4915 2.3113,-0.37532 2.89,-2.14928 5.2728,-2.57827 2.8878,-0.42919 4.694,2.57827 3.4666,3.49149 -3.4666,3.06241 -6.4281,5.21051 -5.2727,9.61487 0,2.20305 -4.1152,3.06261 -2.3108,4.83519 3.4661,3.06123 3.4661,6.12373 4.6939,9.61641 1.1555,3.9191 7.6556,4.7853 13.5053,3.0665 -2.3112,-7.42582 11.1944,-4.35918 17.116,-6.55918 0.5046,0 0.5046,-1.29297 0,-1.71901 -2.8902,-2.14809 -3.4668,-3.00903 -2.8902,-6.12373 0,-0.37669 -1.083,-1.28992 -1.7322,-1.71891 8.8114,3.4916 18.8485,4.83361 25.3486,11.39037 -8.2324,2.14526 -18.2713,1.29278 -26.504,3.91946 -9.9666,3.4924 -20.0034,7.8378 -30.6933,7.8378 -4.6935,0 -9.388,-2.5713 -14.0815,-2.5713 -33.0029,-2.2004 -61.3128,-1.2925 -94.9661,-3.4929 1.1558,0.3712 -2.8874,-0.4263 -3.4663,-0.8665"
        />
        <path
          style="
            fill: #89a02c;
            fill-opacity: 1;
            stroke: #315b22;
            stroke-width: 1.11339426;
            stroke-miterlimit: 4;
            stroke-dasharray: none;
            stroke-opacity: 1;
          "
          id="path1871"
          d="m 372.0713,506.97169 c 16.3473,-1.4162 19.3361,10.7217 29.6969,-0.3029 9.8692,1.416 18.847,-2.0308 18.9353,-3.3913 23.0216,3.865 93.8065,-4.7323 88.9484,-9.4034 -7.598,-7.8078 -19.6047,-10.45559 -29.2273,-17.05598 -2.1406,-1.20011 -6.5436,-1.74127 -9.7984,-2.51041 -5.4327,-1.40475 -12.5427,0.0207 -17.2025,-2.13681 -7.4997,-3.73439 -15.442,-6.92921 -22.1491,-11.71445 -4.2164,-2.69672 -5.782,-7.16219 -10.4129,-10.45084 -4.9489,-3.27578 -11.9388,-3.71051 -16.9739,-5.65767 -7.5713,-2.63821 -11.9273,-9.44476 -19.0402,-14.25409 -2.4667,-1.75807 -6.5607,-1.47493 -9.4035,-3.0176 -6.0646,-2.81004 -10.8625,-9.11816 -16.0922,-8.06906 -9.3564,1.8508 -14.648,9.41747 -23.804,13.75412 -7.6137,3.59479 -10.9692,9.92129 -17.5371,14.14815 -1.725,1.1096 -21.7093,14.80664 -44.1992,24.59757 -22.4904,9.79095 -52.0176,21.71727 -54.7859,21.81177 0,0 20.6388,13.5979 67.4595,10.1829 l 28.9784,7.9584 15.9335,-3.2244 c 0,0 39.9076,-1.3118 40.6742,-1.264 z"
        />
        <path
          style="fill: #677821; stroke: none"
          id="path3088"
          d="m 269.3547,475.25697 c 10.3637,-5.19291 50.0212,-25.21684 61.9951,-38.7709 -1.7088,0.15427 3.5866,3.97284 3.2418,5.61127 3.9175,-0.24964 1.7422,-3.7704 4.9982,-4.01671 2.5096,-0.0129 4.3091,-0.9407 6.4631,-1.66998 2.5076,-0.47253 1.0617,0.9133 1.0654,1.63134 -3.187,5.41486 -10.3455,8.72505 -16.0907,12.9753 0.7064,0.45586 1.4135,0.91182 1.0651,1.63087 2.1132,0.19055 4.6229,0.17767 6.0699,-0.95011 0.3516,-0.2312 0.348,-0.94916 0.3456,-1.40857 2.1609,0.67835 1.4196,2.08902 0.7201,3.04032 -1.3945,2.82106 -7.5154,2.59385 -9.3077,5.18742 -2.0989,2.79587 -4.244,5.16129 -7.4902,7.30328 2.4994,-1.87918 5.3487,-4.24822 8.6058,-4.49517 5.016,-0.48515 6.8071,-3.30832 11.1167,-4.24893 4.6611,-0.94281 7.5057,-4.25952 11.1033,-6.86258 -1.3993,1.87348 -4.2973,3.52546 -3.1855,5.64486 0.354,0.22757 1.7689,1.39779 3.2189,0.90232 -3.1949,3.77782 -10.0069,6.13871 -12.1414,10.60045 -2.1605,-0.67851 -3.5622,0.70708 -5.0138,0.94438 -2.1095,0.69985 -1.3909,3.50993 -2.8384,4.465 -6.0603,3.07477 -8.9404,8.02892 -11.4274,12.23353 -0.3508,0.46139 -5.0045,2.83767 -6.8076,3.30989 -3.2083,1.19264 -23.0308,15.16404 -23.3923,13.29904 -2.1585,-8.8878 -21.3998,4.9511 -68.0841,-7.4528"
        />
        <path
          style="fill: #677821; stroke: none"
          id="path14697"
          d="m 385.1042,430.1396 c 0.076,0.0945 0.2022,0.13534 0.2103,0.18369 -0.052,0.40396 0.497,0.41922 0.5644,0.82085 -0.9032,0.0579 -1.87,-1.33334 -2.2673,-0.40248 -0.085,0.20884 0.3197,0.47819 -0.1715,0.76216 -0.1112,0.0504 0.1512,0.1875 0.1095,0.29486 0.296,-0.019 0.5321,-0.0833 0.7326,-0.004 0.2532,0.0823 0.3954,0.17175 0.7088,0.25641 0.3126,0.0786 0.5131,0.51537 0.1167,0.69483 -0.7508,0.2515 -1.7197,-0.4381 -2.252,0.0459 -0.4229,0.3782 -0.8877,0.50655 -1.3269,0.78734 -0.2205,0.1128 -1.0219,0.10866 -0.8337,-0.24223 0.1438,-0.21251 0.5751,-0.18481 0.803,-0.298 0.3891,-0.2221 0.7017,-0.54403 1.0818,-0.82091 -0.2881,0.0677 -0.3116,-0.42979 -0.6498,-0.26023 -0.4995,0.27842 -0.9971,0.61222 -1.5793,0.75428 0.092,0.19121 -0.06,0.35508 -0.027,0.55626 -0.059,0.004 -0.1182,0.008 -0.1775,0.0114 0.3954,0.57218 -0.4832,0.3759 -0.7028,0.89532 -0.016,-0.0975 -0.068,-0.0942 -0.143,-0.13878 0.381,-0.27077 0.1295,-0.65511 0.1968,-0.96761 0.043,-0.10134 0.2123,-0.16143 0.1274,-0.31004 -0.2777,-0.22858 -0.2041,0.21019 -0.4054,0.12459 -0.1859,-0.0373 -0.4466,-0.11918 -0.5569,-0.0629 -0.296,0.019 -0.5668,0.23344 -0.3223,0.57522 0.2859,0.27735 0.5722,0.51168 0.6387,0.90788 0.01,0.0487 0.076,0.0937 0.2021,0.13484 -0.4812,0.0309 -0.8776,-0.14701 -1.1044,-0.42829 -0.287,-0.28344 -0.421,-0.72467 -0.8085,-0.80452 -0.7425,-0.10017 -0.6004,0.38971 -0.5165,0.88948 -0.5487,-0.014 -1.3835,-0.26231 -1.3316,-0.66628 0,-0.29588 0.3901,-0.57322 0.803,-0.65521 0.2888,-0.0616 0.06,-0.35494 0.2295,-0.41521 0.3553,-0.0228 0.7684,-0.14785 0.853,-0.35655 0.068,-0.30627 -0.2085,-0.88676 -0.479,-1.07134 -0.3964,-0.22216 -1.0647,0.1661 -1.6286,0.10444 0.023,0.44807 -0.3231,0.61695 -0.5752,0.94175 -0.3062,0.31538 0.2686,0.5312 0.606,0.71285 0.2532,0.0824 0.092,0.19131 0.015,0.44872 -0.1285,0.30394 -0.7172,0.0953 -0.7355,0.34287 -0.068,0.30619 0.2433,0.73611 0.04,0.95244 -0.145,0.20642 -0.4466,-0.11919 -0.4218,-0.37341 -0.2297,0.0578 -0.2553,0.26284 -0.4914,0.3272 -0.2878,0.0677 -0.5302,-0.26169 -0.4218,-0.37339 0.297,-0.3703 0.5597,-0.63354 0.3574,-1.12571 -0.042,-0.24996 0.3634,-0.37457 0.1448,-0.56381 -0.4136,-0.32458 -0.472,-0.67211 -0.6643,-1.06041 -0.1931,-0.43713 -0.8759,-0.49269 -1.4428,-0.25918 0.3783,0.82742 -1.0645,0.56821 -1.6296,0.85682 -0.052,0.003 -0.027,0.15005 0.033,0.19502 0.3372,0.22475 0.4127,0.31869 0.4129,0.67592 0.01,0.0427 0.1356,0.1392 0.2103,0.18365 -0.9697,-0.33828 -2.6564,-0.76168 -3.4476,-1.46299 0.803,-0.29756 2.4806,0.0703 3.2745,-0.28186 0.9551,-0.46182 1.9012,-1.02093 2.9969,-1.09119 0.4812,-0.0308 1.0113,0.23014 1.4925,0.19929 3.4248,0.0328 6.3095,-0.25632 9.801,-0.22786 -0.1255,-0.0346 0.3041,0.0294 0.3718,0.0755"
        />
      </g>
    </g>
  </g>
</svg>
