<?xml version="1.0"?>
<svg xmlns:rdf="http://www.w3.org/1999/02/22-rdf-syntax-ns#" xmlns="http://www.w3.org/2000/svg" xmlns:cc="http://web.resource.org/cc/" xmlns:xlink="http://www.w3.org/1999/xlink" xmlns:dc="http://purl.org/dc/elements/1.1/" xmlns:svg="http://www.w3.org/2000/svg" id="svg4916" viewBox="0 0 683.62 819.93" version="1.0">
  <defs id="defs4918">
    <radialGradient id="radialGradient25976" gradientUnits="userSpaceOnUse" cy="100.69" cx="166.69" gradientTransform="matrix(-3.4867 -.61923 .42325 -2.3832 1056.3 1238.5)" r="192.13">
      <stop id="stop7606" stop-color="#510f0f" offset="0"/>
      <stop id="stop7610" stop-color="#a75020" stop-opacity=".49804" offset=".5"/>
      <stop id="stop7608" stop-color="#dc7d2d" stop-opacity="0" offset="1"/>
    </radialGradient>
    <radialGradient id="radialGradient25978" gradientUnits="userSpaceOnUse" cy="578.41" cx="397.19" gradientTransform="matrix(-.57068 -.012926 .018154 -.80147 613.04 982.2)" r="192.13">
      <stop id="stop7594" stop-color="#dc7d2d" offset="0"/>
      <stop id="stop7596" stop-color="#dc7d2d" stop-opacity="0" offset="1"/>
    </radialGradient>
    <radialGradient id="radialGradient25980" gradientUnits="userSpaceOnUse" cy="417" cx="489.31" gradientTransform="matrix(1.5086 -1.8577 2.8923 2.3488 -1469.6 373.52)" r="63.189">
      <stop id="stop7625" stop-color="#808080" offset="0"/>
      <stop id="stop7627" stop-color="#9e9c9d" stop-opacity="0" offset="1"/>
    </radialGradient>
  </defs>
  <g id="layer6" transform="translate(-70.51 -112.53)">
    <g id="g25952" stroke="#000" transform="matrix(.79440 .60739 -.60739 .79440 395.79 -162.99)">
      <path id="path7577" stroke-width="1px" fill-rule="evenodd" fill="#333" d="m431.91 95.202l-12.25 21.568c-5.42-0.14-5.89 4.28-5.43 7.69 1.34 7.17 5.54 8.21 9.07 3.13 1.57-2.94 2.37-6.01-1.24-8.97 4.99-8.92 8.91-13.95 12.78-21.454l-2.93-1.964z"/>
      <path id="path7580" stroke-width=".79473px" fill-rule="evenodd" fill="#333" d="m440.79 137.11l-15.33 5.6c-1.82-7.11-5.53-4.11-5.88 1.21-1.14 7.4-0.92 13.42 2.94 12.58 2.06-0.84 2.96-6.02 2.99-10.73 6.3-2.38 10.29-2.89 15.47-5.14l-0.19-3.52z"/>
      <path id="path6557" stroke-width="3" fill-rule="evenodd" fill="#663519" d="m430.59 383c-8.15 31.32-35.85 37.4-66.53 60.59-57.54 46.65-66.65 94.49-56.1 153.29 32.91 4.09 36.33 27.76 30.34 67.06-9.23 38.99-25.64 56.59-48.61 54.79-11.26 58.14-48.07 113.28 0.97 194.45 5.43 7.39 12.01 14.24 20.34 20.22l-0.24-0.33c-49.04-81.17-4.76-139.53 6.5-197.67 22.97 1.8 39.38-15.8 48.61-54.79 6-39.31 2.27-69.81-30.64-73.91-10.55-58.8-16.35-116.73 41.19-163.39 30.67-23.19 70.13-43.21 78.28-74.52l-24.11 14.21z"/>
      <path id="path5586" stroke-width="3" fill-rule="evenodd" fill="#953d1d" d="m454.7 368.77c-8.14 31.32-47.6 51.34-78.28 74.53-57.54 46.65-51.73 104.61-41.18 163.41 32.91 4.1 36.64 34.6 30.65 73.91-9.23 38.99-25.67 56.59-48.63 54.79-11.26 58.14-55.55 116.49-6.51 197.66 22.25 30.26 44.72 60.41 150.06 48.62 112.91-19.19 126.28-55.75 145.96-91.21 28.59-56.05 8.23-112.26-5.62-168.44-39.03 20.25-42.47-23.64-49.54-60.97 0.88-55.92 17.95-60.26 35.64-62.63 14.17-50.82 14.38-102.25-34.27-155.86-26.83-22.04-63.82-35.42-74.22-71.45l-24.06-2.36z"/>
      <path id="path7600" stroke-width="3" fill-rule="evenodd" fill="url(#radialGradient25976)" d="m455.36 365.85c-8.14 31.32-47.6 51.34-78.28 74.53-57.54 46.65-51.73 104.6-41.18 163.41 32.91 4.09 36.64 34.6 30.65 73.9-9.23 39-25.67 56.6-48.63 54.79-11.26 58.14-55.55 116.5-6.51 197.67 22.25 30.26 44.72 60.4 150.06 48.61 112.91-19.18 126.28-55.74 145.96-91.2 28.59-56.05 8.23-112.26-5.62-168.45-39.03 20.25-42.47-23.63-49.54-60.96 0.88-55.93 17.95-60.27 35.64-62.64 14.17-50.81 14.38-102.25-34.27-155.85-26.83-22.04-63.82-35.43-74.22-71.45l-24.06-2.36z"/>
      <path id="path7582" stroke-width="3" fill-rule="evenodd" fill="url(#radialGradient25978)" d="m454.38 367.47c-8.15 31.32-47.6 51.34-78.28 74.53-57.54 46.65-51.73 104.61-41.18 163.41 32.91 4.09 36.64 34.6 30.64 73.91-9.22 38.99-25.66 56.59-48.62 54.79-11.26 58.13-55.55 116.49-6.51 197.66 22.25 30.26 44.72 60.41 150.06 48.62 112.91-19.19 126.28-55.75 145.96-91.21 28.58-56.05 8.23-112.26-5.62-168.44-39.03 20.25-42.47-23.64-49.54-60.97 0.88-55.92 17.95-60.26 35.64-62.63 14.17-50.82 14.38-102.25-34.27-155.86-26.83-22.04-63.82-35.43-74.22-71.45l-24.06-2.36z"/>
      <path id="path7542" stroke-width="3" fill-rule="evenodd" fill="#ad5422" d="m450.64 173.03c-11.14 7.13-13.32-2.75-14.59-14.36-7.01-4.25-4.07-10.96-4.82-16.76 2.35-29.8-17.84-59.576-7.98-93.992-3.15-7.566-3.71-13.941 3.47-16.733 5.69-6.793 9.42-21.507 17.78-17.499l7.65-2.576 7.63 2.951c5.92 10.045 6.94 17.123 6.42 23.269 5.61 6.979 3.24 11.502-1.02 15.441-2.65 11.664-8.68 9.626-14.66 7.755l0.95 6.669c15.25 17.474 24.02 40.965 25.78 70.965l-0.43 31.86-26.18 3.01z"/>
      <path id="path7545" stroke-width="3" fill-rule="evenodd" fill="#e08135" d="m451.07 141.16c-5.73 1.83-8.42-1.34-8.92-8.15 1.16-22.59-6.47-47.151-12.77-71.416l9.56 10.762c11.94 23.57 10.92 46.094 12.13 68.804z"/>
      <path id="path7548" stroke-width="3" fill-rule="evenodd" fill="#e08135" d="m477.24 140.92c-5.72 1.84-9.25 3.7-9.74-3.12 1.16-22.58-4.22-40.795-16.36-69.143l17.32 22.654c7.39 24.689 7.57 26.909 8.78 49.609z"/>
      <path id="path7552" stroke-width="3" fill-rule="evenodd" fill="#9c431e" d="m444.99 12.875c-3 15.279-1.66 34.765-15.9 39.127l7.94 7.017c4.66 1.458 9.65 2.369 15.6 1.677 8.57 3.474 9.04-4.349 12.55-7.925l1.83-14.95c-1.21-14.546-2.16-29.354-22.02-24.946z"/>
      <path id="path7554" stroke-width="1px" fill="none" d="m439.23 34.315z"/>
      <path id="path7556" stroke-width="3" fill="none" d="m436.53 14.96c8.07-0.375 5.59 10.773 5.46 19.364-0.17 16.033-8.61 11.587-13.06 17.027-9.87-2.861-6.08-9.088-8.25-13.846 2.41-4.869 5.79-7.682 12.05-4.349l0.62 8.13"/>
      <path id="path7562" stroke-width="3" fill-rule="evenodd" fill="#e08135" d="m431.64 706.52c11.41 8.84 2.8 9.23 33.78 11.01 14.98 1.51 29.2 2.51 59.02-1.44 4.19-4.89-2.8-11.38-16.52-19.4l-17.88 0.27c1.26 6.26-2.92 8.09-8.16 8.91-19.05 3.2-22.26-0.83-25.66-8.86l-23.57-0.4-1.01 9.91z"/>
      <path id="path7565" stroke-width="1px" fill-rule="evenodd" d="m420.9 660.15c-5.03 5.62-2.44 11.16 3.05 12.37 3.14 0.69 8.25-4.15 6.54-9.9-4.62-15.52-21.8-10.19-26.32-5.94-17.72 16.68-14.15 37.41-13.68 56.53 0.97 39.21-5.03 49.8-14.57 54.34-3.34 1.58-9.2-0.84-12.41-6.95 13.1-8.99 5.25-15.88 0.7-16.75-7.71-1.47-12.67 8.9-8.66 15.26 10.49 16.66 27.51 19.44 39.34-0.04 10.74-17.68 5.38-45.37 6.58-71.34 0.71-15.48 1.95-36.56 19.43-27.58z"/>
      <path id="path7567" stroke-width=".86961px" fill-rule="evenodd" d="m513.83 659.15c3.97 4.94 2.14 10.73-2.02 12.59-2.37 1.06-6.38-3.11-5.22-8.99 3.14-15.9 16.36-12.71 19.91-9.04 13.91 14.35 11.7 35.26 11.81 54.23 0.22 38.87 5.05 48.61 12.43 51.95 2.58 1.17 7-1.93 9.29-8.37-10.21-7.3-4.39-15.06-0.95-16.46 5.85-2.39 9.88 7.27 6.98 14.03-7.59 17.74-20.49 22.53-29.98 4.71-8.62-16.19-5.21-44.2-6.76-69.73-0.92-15.22-2.38-35.9-15.49-24.92z"/>
      <path id="path6571" stroke-width="3" fill-rule="evenodd" fill="#2b2b2d" d="m462.05 605.83c16.62-7.26 34.09-11.07 54.95-1.12l-41.4-459.24c-0.71-6.91-15.77-4.75-25.02-6.26l11.47 466.62z"/>
      <path id="path7621" stroke-width="3" fill-rule="evenodd" fill="url(#radialGradient25980)" d="m462.05 605.83c16.62-7.26 34.09-11.07 54.95-1.12l-41.4-459.24c-0.71-6.91-15.77-4.75-25.02-6.26l11.47 466.62z"/>
      <path id="path7569" stroke-width="1px" fill="none" d="m463.32 854.45l17.87-137.36-23.78-578.18-6.09-24.73"/>
      <path id="path7571" stroke-width="1px" fill="none" d="m469.62 855.66l26.85-138.19-33.85-579.85-12.89-35.48"/>
      <path id="path7573" stroke-width="1px" fill="none" d="m479.91 855.22c32.02-144.58 31.2-139.98 31.2-139.98l-42-573.69-18.4-41.03"/>
      <path id="path7575" stroke-width="1px" fill="none" d="m486.92 853.02l36.23-139.37-50.46-574.37-11.94-26.05"/>
      <path id="path7559" stroke-width="3" fill-rule="evenodd" fill="#333" d="m443.76 974.15c-0.16 9.02 6.51 12.88 17.19 13.72 9.21-1.53 13.49-7.1 15.82-14.26-4.67-26.76-6.54-53.11 1.06-76.89 13.91-43.44 19.27-52.02 23.31-67.88-16.32 3.83-32.39 10.11-49.91 1.95 1.78 27.27 10.8 58.77 7.69 81.64-4.76 21.75-8.82 46.37-15.16 61.72z"/>
    </g>
  </g>
  <metadata>
    <rdf:RDF>
      <cc:Work>
        <dc:format>image/svg+xml</dc:format>
        <dc:type rdf:resource="http://purl.org/dc/dcmitype/StillImage"/>
        <cc:license rdf:resource="http://creativecommons.org/licenses/publicdomain/"/>
        <dc:publisher>
          <cc:Agent rdf:about="http://openclipart.org/">
            <dc:title>Openclipart</dc:title>
          </cc:Agent>
        </dc:publisher>
        <dc:title>double bass 1</dc:title>
        <dc:date>2007-11-26T11:47:18</dc:date>
        <dc:description>Yet another Bezier-shaped instrument, colored with gradient.</dc:description>
        <dc:source>http://openclipart.org/detail/9058/double-bass-1-by-papapishu-9058</dc:source>
        <dc:creator>
          <cc:Agent>
            <dc:title>papapishu</dc:title>
          </cc:Agent>
        </dc:creator>
        <dc:subject>
          <rdf:Bag>
            <rdf:li>clip art</rdf:li>
            <rdf:li>clipart</rdf:li>
            <rdf:li>double bass</rdf:li>
            <rdf:li>image</rdf:li>
            <rdf:li>instrument</rdf:li>
            <rdf:li>media</rdf:li>
            <rdf:li>music</rdf:li>
            <rdf:li>musical instrument</rdf:li>
            <rdf:li>png</rdf:li>
            <rdf:li>public domain</rdf:li>
            <rdf:li>svg</rdf:li>
          </rdf:Bag>
        </dc:subject>
      </cc:Work>
      <cc:License rdf:about="http://creativecommons.org/licenses/publicdomain/">
        <cc:permits rdf:resource="http://creativecommons.org/ns#Reproduction"/>
        <cc:permits rdf:resource="http://creativecommons.org/ns#Distribution"/>
        <cc:permits rdf:resource="http://creativecommons.org/ns#DerivativeWorks"/>
      </cc:License>
    </rdf:RDF>
  </metadata>
</svg>
