<?xml version="1.0" encoding="UTF-8" standalone="no"?>
<!-- Created with Inkscape (http://www.inkscape.org/) -->
<svg xmlns:inkscape="http://www.inkscape.org/namespaces/inkscape" xmlns:rdf="http://www.w3.org/1999/02/22-rdf-syntax-ns#" xmlns="http://www.w3.org/2000/svg" xmlns:xlink="http://www.w3.org/1999/xlink" xmlns:ns1="http://sozi.baierouge.fr" xmlns:cc="http://creativecommons.org/ns#" xmlns:sodipodi="http://sodipodi.sourceforge.net/DTD/sodipodi-0.dtd" xmlns:dc="http://purl.org/dc/elements/1.1/" id="svg2" xml:space="preserve" viewBox="0 0 247.74 143.65" version="1.1" inkscape:version="0.91 r13725">
  <g id="g10" transform="matrix(1.25 0 0 -1.25 0 143.65)">
    <g id="g12">
      <path id="path14" style="fill-rule:evenodd;fill:#adb7c1" d="m176.22 38.681c-1.703 0.238-3.25 0.613-4.637 1.117-0.32 0.723-0.242 1.508 0.238 2.363 0.16-0.109 0.348-0.214 0.559-0.32l0.961-0.359 0.039-0.039c0.082 0 0.148-0.016 0.203-0.043 1.57-0.426 2.918-0.414 4.039 0.043 1.145 0.476 2.16 1.425 3.039 2.839 0.535 0.879 1.707 1.211 3.52 1 2.082-0.453 3.453-0.75 4.121-0.882 2.851-0.532 5.199-1.293 7.039-2.282l1.84-1.117c0.453-0.48 0.761-0.933 0.922-1.359l-0.161 0.039c-1.175 0.48-3.082 0.879-5.722 1.199-1.227 0.188-2.68 0.293-4.36 0.32-0.984 0.028-2.453 0.028-4.398 0-1.332 0-2.613-0.199-3.84-0.601-1.359-0.453-2.492-1.09-3.402-1.918zm-29.797 6.398-1.043-0.078c-0.691 1.625-0.465 3.957 0.68 7 0.347 0.985 0.546 1.598 0.601 1.84 0.16 0.641 0.254 1.281 0.281 1.918 0.028 1.121-0.132 2.094-0.48 2.922-0.293 0.641-0.867 1.48-1.719 2.519-0.801 0.985-1.519 2.387-2.16 4.2-0.402 1.066-0.855 2.586-1.359 4.558-0.215 0.723-0.375 1.321-0.481 1.801-0.187 0.906-0.16 1.508 0.078 1.801 0.989 0.988 2.403 0.238 4.242-2.238 0.719-0.989 1.68-2.497 2.879-4.524 1.121-1.73 2.266-3.078 3.442-4.039 0.879-0.691 2.32-1.465 4.32-2.32 2-0.825 3.438-1.586 4.317-2.278 0.296-0.242 0.683-0.601 1.16-1.082 0.48-0.425 0.933-0.718 1.359-0.879 0.43-0.16 0.961-0.242 1.602-0.242 0.718 0.028 1.254 0.039 1.601 0.039 1.387-0.05 2.641-0.265 3.758-0.636 1.039-0.348 2.16-0.922 3.359-1.719 0.321-0.242 0.922-0.656 1.801-1.242 0.774-0.559 1.242-1.094 1.399-1.602 0.054-0.184 0.043-0.824-0.039-1.918-0.399-0.133-1.266-0.32-2.598-0.558h-0.043l-0.039 0.078c-0.215 0.265-0.453 0.492-0.719 0.679l-0.082 0.082c0.641 0.774 0.906 1.575 0.801 2.399-0.028 0.109-0.215 0.668-0.559 1.683-0.508 0.106-1.187 0.145-2.043 0.118-0.48-0.028-1.183-0.051-2.117-0.079-1.547 0-4.133 0.227-7.762 0.68-0.691 0.078-1.453 0.348-2.277 0.797-0.988 0.535-1.723 0.867-2.203 1-2.531 0.641-4.598 0.883-6.199 0.723-0.16-0.801-0.149-1.989 0.039-3.563 0.187-1.68 0.242-2.879 0.16-3.597-0.106-0.934-0.598-1.762-1.481-2.481-0.503-0.426-1.332-1.012-2.476-1.762zm-23.723 7.442c-0.851 0.961-1.734 1.828-2.64 2.601l-2.559 1.918-0.039 0.039c-0.133 0.055-0.254 0.121-0.359 0.203-0.641 2.293-2.016 3.934-4.122 4.918-2.242 1.094-3.949 1.829-5.121 2.2-0.984 0.293-1.586 0.48-1.8 0.562-0.637 0.266-1.211 0.586-1.719 0.957-2.774 2.16-4.32 3.348-4.641 3.563-1.785 1.277-3.492 2.211-5.117 2.8 0.211-0.773 0.613-1.789 1.199-3.043 0.692-1.519 1.133-2.519 1.321-3 0.347-1.011 0.519-2.183 0.519-3.519-0.105 0.855-0.453 1.894-1.039 3.121-0.906 1.918-1.387 2.934-1.441 3.039-0.293 0.828-0.786 2.016-1.481 3.563l-1 2.199c-0.426 0.906-0.758 1.652-1 2.238-0.426 1.094-0.613 1.973-0.558 2.641 0.054 0.855 0.492 1.386 1.32 1.601 0.64 0.184 1.16 0.106 1.558-0.242 0.161-0.105 0.52-0.574 1.082-1.398 1.84-2.641 3.864-5.067 6.079-7.282 1.972-2.054 4.027-3.558 6.16-4.519 0.691-0.293 1.492-0.481 2.398-0.559 0.375-0.027 1.188-0.043 2.442-0.043 3.308 0.055 6.015-0.73 8.121-2.359 1.066-0.852 1.812-2.066 2.238-3.641 0.293-1.066 0.469-2.519 0.52-4.359 0.027-1.387-0.079-2.785-0.321-4.199zm19.563-24.16c-0.082 0.027-0.149 0.039-0.203 0.039-0.559 0.187-1.09 0.336-1.598 0.441-1.762 0.402-3.309 1.106-4.641 2.121-1.519 1.387-2.785 2.531-3.8 3.438-1.305 1.043-2.227 1.8-2.758 2.281-0.907 0.828-1.563 1.789-1.961 2.879-0.293 0.777-0.481 1.789-0.559 3.043-0.137 1.785-0.226 2.812-0.281 3.078-0.215 1.629-1.016 3.363-2.402 5.203l-0.079 1.68c0.321 0.023 0.614-0.336 0.879-1.082 0.161-0.399 0.336-0.918 0.52-1.559 0.535-1.199 1.375-3.016 2.519-5.441 0.348-0.801 0.829-1.973 1.442-3.52 0.558-1.281 1.226-2.348 2-3.199 1.066-1.199 2.414-2.32 4.039-3.359 0.855-0.559 2.375-1.442 4.562-2.641 1.067-0.586 2.575-1.149 4.52-1.68 2.293-0.64 3.824-1.121 4.598-1.441l0.961-0.36 1.121-0.441c0.316-0.16 0.625-0.387 0.918-0.68 0.293-0.265 0.707-0.734 1.242-1.398 0.48-0.481 1.504-1.293 3.078-2.441 1.336-0.961 2.293-1.852 2.879-2.68 0.508-0.719 0.855-1.508 1.043-2.36 0.133-0.613 0.199-1.468 0.199-2.562v-0.598c-0.105 0.266-0.293 1-0.559 2.2-0.242 0.988-0.48 1.707-0.722 2.16-0.266 0.507-1 1.254-2.199 2.238-3.04 2.242-5.598 3.91-7.68 5-2 1.039-4.36 1.586-7.078 1.641zm-51.28 16.519l-0.96 0.242-1.918 0.52c-0.856 0.265-1.536 0.531-2.043 0.801-0.266 0.132-0.637 0.437-1.118 0.918-0.453 0.425-0.816 0.691-1.082 0.8-0.531 0.184-1.679 0.161-3.437-0.082h-3.524c-0.273 0.004-0.543 0.016-0.796 0.039-0.961 0-1.829-0.039-2.602-0.117h-0.16c-0.375-0.054-0.746-0.109-1.121-0.16-0.051 0-0.094-0.016-0.117-0.043h-0.122l-0.8 1.801c-0.188 0.215-0.375 0.562-0.559 1.043-0.187 0.504-0.336 0.867-0.441 1.078-0.985 2.402-1.774 4.176-2.36 5.32-1.226 2.188-2.293 3.535-3.199 4.039-0.668 0.375-1.723 0.496-3.16 0.364-0.961-0.082-1.867-0.454-2.723-1.121-0.476-0.403-1.238-1.028-2.277-1.879-0.188-0.137-0.734-0.43-1.641-0.883-0.668-0.348-1.187-0.719-1.558-1.117l-0.961-0.922c0.347 0.828 1.172 1.949 2.48 3.359 1.387 1.469 2.227 2.629 2.52 3.481 0.187 0.695 0.32 1.175 0.398 1.441 0.16 0.426 0.453 0.785 0.883 1.078 1.066 0.695 2.25 1.109 3.559 1.242 1.359 0.133 2.707-0.148 4.039-0.84 1.254-0.64 2.281-1.546 3.082-2.722 0.32-0.504 0.664-1.41 1.039-2.719 0.347-1.227 0.719-2.094 1.121-2.598 0.398-0.535 1.027-1.015 1.879-1.441 0.48-0.266 1.199-0.629 2.16-1.082 0.531-0.293 1.238-0.84 2.121-1.641 0.906-0.773 1.613-1.304 2.117-1.597 0.828-0.481 1.774-0.828 2.84-1.039 1.149-0.243 2.176-0.297 3.082-0.161 0.664 0.106 1.277 0.45 1.84 1.04 0.293 0.292 0.719 0.878 1.277 1.757 0.27 0.508 0.453 0.868 0.563 1.082 0.215 0.399 0.48 0.735 0.801 1 0.425 0.348 1 0.68 1.718 1 0.828 0.348 1.426 0.625 1.801 0.84 0.906 0.481 1.746 1.149 2.52 2 0.851 0.961 1.332 1.918 1.441 2.879v-0.078c-0.027-0.75-0.203-1.613-0.523-2.602-0.051-0.187-0.371-1.027-0.957-2.519-0.321-0.828-0.79-2.309-1.403-4.442-0.531-1.89-1.039-3.359-1.519-4.398-0.399-0.883-0.692-1.453-0.879-1.719-0.403-0.64-0.84-1.054-1.321-1.242zm-44.121 19.641c-0.398 0.508-0.918 0.933-1.558 1.281l-1.719 0.758-1.562 0.359c-0.321 0.055-0.625 0.11-0.918 0.16l-0.961 0.082c-0.082 0.028-0.161 0.039-0.243 0.039-4.851 0.426-7.437 0.68-7.757 0.762h-0.039c-1.043 0.293-2.696 0.68-4.961 1.16-1.868 0.586-3.2 1.465-4 2.637-0.243 0.348-0.559 0.977-0.961 1.883-0.055 0.133-0.106 0.265-0.16 0.398-0.028 0.028-0.04 0.055-0.04 0.082-0.054 0.133-0.105 0.254-0.16 0.36l-0.16 0.359c-0.027 0.078-0.055 0.148-0.078 0.199-0.297 0.614-0.535 1.082-0.723 1.403v0.039c0.266-0.321 0.653-0.629 1.161-0.922 0.265-0.16 0.679-0.387 1.242-0.68 0.398-0.238 0.984-0.613 1.758-1.121 0.668-0.398 1.292-0.68 1.878-0.84 0.75-0.16 1.668-0.238 2.762-0.238 1.281 0.027 2.215 0.051 2.801 0.078 2.531 0.27 4.453 0.469 5.758 0.602 2.32 0.214 4.187 0 5.601-0.641 1.735-0.773 2.868-1.961 3.399-3.559 0.535-1.547 0.414-3.093-0.36-4.64z" inkscape:connector-curvature="0"/>
      <path id="path16" style="fill-rule:evenodd;fill:#8f97a4" d="m198.1 39.642c0.078-0.215 0.105-0.43 0.078-0.641 0-0.082-0.012-0.148-0.039-0.203-0.883-0.238-2.254-0.156-4.121 0.242-2.321 0.481-3.747 0.735-4.282 0.758-1.812 0.027-3.105 0.027-3.879 0-1.464-0.078-2.718-0.277-3.757-0.598-1.309-0.425-2.243-0.668-2.801-0.718-0.641-0.082-1.563-0.028-2.762 0.16-0.105 0.023-0.211 0.039-0.32 0.039 0.91 0.828 2.043 1.465 3.402 1.918 1.227 0.402 2.508 0.601 3.84 0.601 1.945 0.028 3.414 0.028 4.398 0 1.68-0.027 3.133-0.132 4.36-0.32 2.64-0.32 4.547-0.719 5.722-1.199l0.161-0.039zm-51.321 5.437h-0.359c1.144 0.75 1.973 1.336 2.48 1.762 0.879 0.719 1.371 1.547 1.481 2.481 0.078 0.718 0.023 1.917-0.16 3.597-0.188 1.574-0.203 2.762-0.043 3.563 1.601 0.16 3.668-0.082 6.203-0.723 0.476-0.133 1.211-0.465 2.199-1 0.824-0.449 1.586-0.719 2.277-0.797 3.629-0.453 6.215-0.68 7.762-0.68 0.934 0.024 1.641 0.051 2.121 0.079 0.852 0.027 1.531-0.012 2.039-0.118 0.348-1.015 0.535-1.574 0.559-1.683 0.109-0.824-0.16-1.625-0.801-2.399l-2.68 1c-0.441 0.102-0.921 0.157-1.437 0.161h-0.883c-1.094 0-2.465-0.067-4.117-0.2-0.961 0-2.59 0.067-4.883 0.2-2 0.027-3.547-0.266-4.641-0.879-0.773-0.457-1.812-1.375-3.117-2.762-0.828-0.746-1.414-1.188-1.761-1.32-0.372-0.161-1.122-0.254-2.239-0.282zm16.68-38.679c-1.094 0.8-2.106 2.121-3.039 3.961-0.723 1.441-1.309 3.039-1.762 4.8-0.558 2.028-1.625 3.961-3.199 5.801-1.547 1.813-3.332 3.211-5.359 4.199-3.067 1.465-5.68 2.532-7.84 3.2 2.718-0.051 5.078-0.602 7.078-1.641 2.082-1.094 4.64-2.758 7.68-5 1.203-0.984 1.933-1.734 2.203-2.238 0.238-0.453 0.48-1.176 0.718-2.16 0.266-1.2 0.454-1.934 0.559-2.2v-0.082c0.32-0.851 0.801-2.121 1.441-3.801 0.559-1.519 0.985-2.796 1.282-3.839l0.238-0.84v-0.16zm-46.359 50.882c-0.321 0.184-0.641 0.36-0.961 0.52-1.625 0.852-3.625 1.344-6 1.48-0.293 0-2.375-0.015-6.243-0.043h-3.238c-0.961-0.183-1.562-0.878-1.801-2.078-0.105-0.562-0.226-1.332-0.359-2.32-0.16-0.852-0.387-1.613-0.68-2.281-0.562-1.199-1.015-2.719-1.359-4.559-0.59-2.988-0.895-4.547-0.922-4.679-0.984 0.558-2.508 1.078-4.559 1.558 0.481 0.188 0.918 0.602 1.321 1.242 0.183 0.266 0.48 0.84 0.879 1.719 0.48 1.039 0.984 2.508 1.519 4.398 0.613 2.133 1.082 3.614 1.399 4.442 0.59 1.492 0.906 2.332 0.961 2.519 0.32 0.989 0.496 1.852 0.519 2.602v0.078l0.043 0.84c0 1.336-0.176 2.508-0.523 3.519-0.184 0.481-0.625 1.481-1.317 3-0.59 1.254-0.988 2.27-1.203 3.043 1.629-0.589 3.336-1.523 5.121-2.8 0.321-0.215 1.867-1.403 4.641-3.563 0.508-0.371 1.078-0.691 1.719-0.957 0.214-0.082 0.812-0.269 1.8-0.562 1.172-0.371 2.879-1.106 5.121-2.2 2.106-0.984 3.481-2.625 4.122-4.918zm-81-17.96h-0.122c0.239 0.214 0.614 0.453 1.122 0.718 0.636 0.375 1.011 0.586 1.117 0.641 0.453 0.32 0.961 0.762 1.519 1.32 0.641 0.641 1.11 1.106 1.403 1.399 0.32 0.293 0.933 0.773 1.839 1.441 0.774 0.586 1.348 1.094 1.719 1.52 1.414 1.597 2.602 3.082 3.563 4.437 1.117 1.629 1.957 2.711 2.519 3.242l1.52 1.481 0.961 0.922c0.371 0.398 0.89 0.769 1.558 1.117 0.907 0.453 1.453 0.746 1.641 0.879 1.039 0.855 1.801 1.48 2.277 1.883 0.856 0.664 1.762 1.039 2.723 1.117 1.437 0.136 2.492 0.015 3.16-0.36 0.906-0.504 1.973-1.851 3.199-4.039 0.586-1.148 1.375-2.922 2.36-5.32 0.105-0.215 0.254-0.574 0.441-1.078 0.184-0.485 0.371-0.828 0.559-1.043l0.8-1.801c-1.972-0.398-3.64-1.184-5-2.359 0 0.695 0.547 1.668 1.641 2.922 0.984 1.144 1.348 2.332 1.078 3.558-0.183 0.774-0.531 1.348-1.039 1.719-0.238 0.16-0.894 0.453-1.961 0.883-0.453 0.183-1.105 0.586-1.961 1.199-0.851 0.559-1.476 0.918-1.879 1.078-1.359 0.481-3.011 0.496-4.961 0.043-1.597-0.375-3.144-0.988-4.636-1.844-1.176-0.664-2.227-1.543-3.16-2.636-0.403-0.508-1.215-1.653-2.442-3.442-1.441-2.133-2.668-3.785-3.68-4.961-1.652-1.89-3.253-3.183-4.8-3.879-0.399-0.187-0.918-0.347-1.559-0.48-0.348-0.051-0.855-0.145-1.519-0.277z" inkscape:connector-curvature="0"/>
      <path id="path18" style="fill-rule:evenodd;fill:#b7bfca" d="m171.82 42.161c0.133 0.188 0.266 0.36 0.399 0.52 0.722 1.039 1.215 1.828 1.48 2.359 0.508 1.016 0.496 1.961-0.039 2.84-0.078 0.16-0.172 0.309-0.281 0.442h0.043c1.332 0.238 2.199 0.425 2.598 0.558 0.082 1.094 0.093 1.734 0.039 1.918-0.157 0.508-0.625 1.043-1.399 1.602-0.879 0.586-1.48 1-1.801 1.242-1.199 0.801-2.32 1.371-3.359 1.719-1.117 0.371-2.371 0.586-3.758 0.64-0.347 0-0.883-0.015-1.601-0.043-0.641 0-1.172 0.082-1.602 0.242-0.426 0.161-0.879 0.454-1.359 0.879-0.481 0.481-0.864 0.84-1.16 1.082-0.879 0.692-2.317 1.453-4.317 2.282-2 0.851-3.441 1.625-4.32 2.316-1.176 0.961-2.321 2.309-3.442 4.043-1.199 2.023-2.16 3.531-2.879 4.52-1.839 2.48-3.253 3.226-4.242 2.238-0.238-0.293-0.265-0.895-0.078-1.801 0.106-0.477 0.266-1.078 0.481-1.797 0.504-1.973 0.957-3.496 1.359-4.562 0.641-1.813 1.359-3.211 2.16-4.2 0.852-1.039 1.426-1.878 1.719-2.519 0.348-0.828 0.508-1.801 0.48-2.922-0.027-0.637-0.121-1.277-0.281-1.918-0.055-0.242-0.254-0.852-0.601-1.84-1.145-3.039-1.371-5.375-0.68-7-0.32-0.054-0.574-0.148-0.758-0.281-0.133-0.078-0.226-0.184-0.281-0.32-0.051-0.051-0.094-0.118-0.121-0.2v-0.078c-0.024-0.054-0.039-0.109-0.039-0.16v-0.121c-0.028-0.082-0.039-0.172-0.039-0.281v-0.16c-0.028-0.078-0.039-0.172-0.039-0.278l-0.043-1.121v-0.121c0-0.266 0.015-0.531 0.043-0.801-1.176 1.043-1.868 2.203-2.082 3.481-0.082 0.508-0.055 2.586 0.082 6.242 0.078 2.531-0.414 4.453-1.481 5.758-2.187 2.265-3.816 4-4.883 5.199-1.89 2.082-3.039 4.094-3.437 6.043-0.11 0.504-0.16 0.824-0.16 0.957 0 0.215 0.132 0.48 0.398 0.801 0.348 0.375 1.16 0.668 2.441 0.883 1.172 0.183 1.868 0.546 2.079 1.078 0.16 0.375 0.175 0.894 0.043 1.558-0.137 0.563-0.309 1.055-0.52 1.481-0.508 0.933-1.281 1.949-2.32 3.039-1.227 1.176-2.133 2.066-2.723 2.683-0.773 0.77-1.934 1.692-3.48 2.758-0.797 0.508-1.438 0.949-1.918 1.321-0.907 0.668-1.387 1.238-1.442 1.718-0.027 0.297 0 0.496 0.082 0.602 0.16 0.105 0.321 0.238 0.481 0.398 0.586 0.535 1.531 1.227 2.84 2.082 1.359 0.907 2.32 1.614 2.878 2.121 0.989 0.825 1.68 1.399 2.082 1.719 0.774 0.535 1.559 0.946 2.36 1.238h0.039c0.32-0.773 0.734-1.957 1.242-3.558 0.692-1.949 1.266-3.359 1.719-4.238 0.773-1.469 1.734-2.668 2.879-3.602 2.109-1.762 5.547-4.082 10.32-6.961 1.785-1.066 3.426-2.574 4.922-4.519 0.852-1.122 2.184-2.907 4-5.36 0.746-0.855 1.906-1.894 3.48-3.121 1.973-1.519 3.184-2.48 3.637-2.879 1.977-1.734 5.07-3.586 9.281-5.558 4.668-2.188 7.868-3.911 9.602-5.161 0.078-0.054 0.199-0.148 0.359-0.281l1.758-1.203c0.75-0.531 1.707-1.199 2.883-2 1.199-0.851 2.227-1.652 3.078-2.398l2.563-2.399-1.84 1.117c-1.84 0.989-4.188 1.75-7.043 2.282-0.664 0.132-2.039 0.425-4.117 0.882-1.817 0.211-2.989-0.121-3.52-1-0.883-1.414-1.894-2.363-3.043-2.839-1.117-0.457-2.465-0.469-4.039-0.043-0.051 0.027-0.121 0.043-0.199 0.043l-0.039 0.039-0.961 0.359c-0.215 0.106-0.399 0.215-0.559 0.32h-0.004zm-124.94 22.301c-0.012 0.02-0.02 0.039-0.02 0.059 0.774 1.547 0.895 3.093 0.36 4.64-0.531 1.598-1.664 2.786-3.399 3.559-1.414 0.641-3.281 0.855-5.601 0.641-1.305-0.133-3.227-0.332-5.758-0.602-0.586-0.023-1.519-0.051-2.801-0.078-1.094 0-2.011 0.078-2.761 0.238-0.586 0.16-1.211 0.442-1.879 0.84-0.774 0.508-1.36 0.883-1.758 1.121-0.563 0.293-0.977 0.52-1.242 0.68-0.504 0.293-0.895 0.601-1.161 0.922v-0.039c-0.16 0.265-0.32 0.519-0.48 0.757l-0.48 0.602c-0.293 0.32-0.934 0.84-1.918 1.559-0.856 0.64-1.454 1.187-1.801 1.64 0 0.028-0.012 0.039-0.039 0.039l-0.68 1.199c-0.32 0.563-0.707 1.282-1.16 2.161-0.055 0.082-0.094 0.16-0.121 0.242-0.238 0.48-0.508 0.918-0.801 1.32l-0.719 0.84c-0.238 0.293-0.492 0.547-0.761 0.758l-0.161 0.519c1.227 0.082 2.364-0.254 3.403-1 0.613-0.425 1.465-1.265 2.558-2.519 0.375-0.426 1.293-1.332 2.762-2.719 1.145-1.066 2-2.016 2.559-2.84 0.64-0.933 1.574-1.453 2.8-1.558 0.536-0.028 1.668 0.078 3.399 0.316 0.883 0.137 1.949 0.203 3.203 0.203h3.277c0.641 0.027 1.121 0.027 1.442 0 0.558 0 1.039-0.082 1.441-0.242 0.453-0.133 1.012-0.414 1.68-0.84 0.851-0.531 1.398-0.851 1.637-0.961 0.773-0.371 1.773-0.719 3-1.039 1.949-0.531 2.96-0.812 3.043-0.84 0.558-0.16 0.933-0.347 1.117-0.558 0.187-0.215 0.308-0.614 0.363-1.2 0.238-1.816 0.344-3.308 0.316-4.48-0.023-0.426-0.105-0.867-0.238-1.32-0.078-0.293-0.226-0.723-0.441-1.282-0.16-0.535-0.321-1.214-0.477-2.039l-0.32-1.961-0.043-0.078-0.078 0.68c-0.16 0.691-0.403 1.32-0.719 1.879l-0.121 0.238c-0.106 0.16-0.215 0.309-0.32 0.442-0.028 0.027-0.055 0.054-0.082 0.082l-0.02 0.019zm5.422-8.941-1.52-1.481c-0.562-0.531-1.402-1.613-2.519-3.242-0.961-1.355-2.149-2.84-3.563-4.437-0.371-0.426-0.945-0.934-1.718-1.52-0.907-0.668-1.52-1.148-1.84-1.441-0.293-0.293-0.762-0.758-1.403-1.399-0.558-0.558-1.066-1-1.519-1.32-0.106-0.055-0.481-0.266-1.117-0.641-0.508-0.265-0.883-0.508-1.121-0.718-0.082-0.028-0.161-0.055-0.243-0.083-0.183-0.05-0.343-0.105-0.476-0.16l-0.602-0.238c-0.558-0.293-1.054-0.707-1.48-1.242-0.028-0.024-0.055-0.067-0.078-0.117l-0.043-0.039c-0.133-0.161-0.278-0.364-0.438-0.602-0.16-0.215-0.32-0.441-0.48-0.68v0.039l-0.403 0.559c-0.132 0.695 0.11 1.43 0.723 2.203 0.32 0.399 0.906 0.957 1.758 1.68 0.988 0.801 1.723 1.398 2.203 1.801 0.824 0.691 1.492 1.343 2 1.957 0.957 1.121 2.266 2.507 3.918 4.16 0.879 0.855 2.105 1.933 3.68 3.242 0.242 0.211 1.093 0.812 2.562 1.797 1.012 0.723 1.785 1.414 2.317 2.082 0.988 1.094 1.695 1.933 2.121 2.519 0.453 0.586 0.812 1.293 1.082 2.122 0 0.027 0.183 0.8 0.558 2.32 0.348 1.652 0.641 2.879 0.879 3.68 0.426 1.414 1.055 2.48 1.883 3.199 1.199 1.039 3.211 1.519 6.039 1.441 3.121-0.32 5.277-0.453 6.481-0.402 0.398-1.145 0.984-2.918 1.757-5.317 0.828-2 1.895-3.48 3.2-4.441 1.043-0.746 2.761-1.359 5.16-1.84 0.933-0.187 2.32-0.281 4.16-0.281 2.773 0.055 5.43 1.519 7.961 4.402 0.801 0.906 1.347 1.637 1.64 2.199 0.399 0.774 0.586 1.625 0.559 2.559 0 1.254-0.238 2.785-0.719 4.602 0.696-1.547 1.188-2.735 1.481-3.563 0.051-0.105 0.531-1.117 1.441-3.039 0.586-1.227 0.934-2.266 1.039-3.121l-0.039-0.84c-0.109-0.961-0.59-1.918-1.441-2.879-0.774-0.855-1.614-1.519-2.52-2-0.375-0.215-0.972-0.492-1.801-0.84-0.718-0.32-1.293-0.652-1.718-1-0.321-0.265-0.586-0.601-0.801-1-0.106-0.214-0.293-0.574-0.563-1.082-0.558-0.879-0.984-1.465-1.277-1.757-0.562-0.586-1.176-0.934-1.84-1.04-0.906-0.136-1.933-0.082-3.082 0.161-1.066 0.211-2.012 0.558-2.84 1.039-0.504 0.293-1.211 0.824-2.117 1.597-0.883 0.801-1.59 1.348-2.121 1.641-0.961 0.453-1.68 0.816-2.16 1.082-0.852 0.426-1.481 0.906-1.879 1.441-0.402 0.504-0.773 1.371-1.121 2.598-0.375 1.309-0.719 2.215-1.039 2.719-0.801 1.176-1.828 2.082-3.082 2.722-1.332 0.692-2.68 0.973-4.039 0.84-1.309-0.133-2.492-0.547-3.559-1.242-0.43-0.293-0.723-0.652-0.883-1.078-0.078-0.266-0.211-0.746-0.398-1.441-0.293-0.852-1.133-2.012-2.52-3.481-1.308-1.414-2.132-2.531-2.48-3.359zm71.758-4.641c-0.586 0.746-1.039 1.293-1.36 1.641 0.243 1.414 0.348 2.812 0.321 4.199-0.051 1.84-0.227 3.293-0.52 4.359-0.426 1.575-1.172 2.789-2.238 3.641-2.11 1.629-4.817 2.414-8.121 2.359-1.254 0-2.067 0.016-2.442 0.043-0.906 0.078-1.707 0.266-2.398 0.559-2.133 0.961-4.188 2.465-6.16 4.519-2.215 2.215-4.239 4.641-6.078 7.282-0.563 0.824-0.922 1.293-1.082 1.398-0.399 0.348-0.918 0.426-1.559 0.242-0.828-0.215-1.266-0.746-1.32-1.601-0.426 1.254-0.653 2.359-0.68 3.32 0.027 0.613 0.051 1.078 0.078 1.398 0 0.563-0.066 1.016-0.199 1.36 4.293 0.055 8.027-0.492 11.199-1.637 0.719-0.242 1.332-0.68 1.84-1.32 0.215-0.242 0.668-0.922 1.359-2.043 0.668-1.199 1.215-2.051 1.641-2.559 0.668-0.851 1.441-1.504 2.32-1.961 1.492-0.773 3.653-1.211 6.481-1.32 0.265 0 1.386 0.055 3.359 0.16 1.442 0.11 2.535 0.043 3.281-0.199 0.719-0.238 1.453-1.066 2.2-2.481 0.293-0.558 0.574-1.277 0.839-2.16 0.133-0.504 0.336-1.254 0.602-2.238 0.559-2.082 0.906-3.48 1.039-4.199 0.16-0.801 0.215-1.762 0.16-2.883-0.055-1.172-0.215-2.105-0.48-2.797-0.586-1.601-0.801-2.75-0.641-3.441 0.188-0.668 0.695-1.508 1.52-2.52 1.066-1.254 1.695-2.039 1.882-2.359 0.426-0.719 0.957-1.883 1.598-3.481 0.613-1.574 1.133-2.718 1.559-3.441 0.297-0.481 0.722-1.227 1.281-2.238 0.535-0.883 1.027-1.586 1.48-2.121 0.536-0.641 1.215-1.254 2.039-1.84 0.348-0.239 1.137-0.735 2.364-1.481 0.238-0.16 0.824-0.574 1.758-1.242 0.691-0.504 1.281-0.879 1.761-1.117 0.266-0.133 0.746-0.332 1.438-0.602 0.586-0.238 1.054-0.465 1.402-0.679 1.012-0.641 2.492-1.68 4.438-3.118l-0.957 0.36c-0.774 0.316-2.309 0.801-4.602 1.437-1.945 0.535-3.453 1.094-4.519 1.68-2.188 1.203-3.708 2.082-4.559 2.641-1.629 1.043-2.977 2.16-4.043 3.359-0.774 0.855-1.438 1.922-2 3.203-0.613 1.547-1.09 2.719-1.438 3.52-1.148 2.425-1.988 4.238-2.519 5.437-0.188 0.641-0.359 1.16-0.52 1.563-0.269 0.746-0.562 1.105-0.882 1.078l0.078-1.68zm36.441-35.758v0.598c0 1.094-0.066 1.949-0.199 2.562-0.188 0.852-0.535 1.637-1.043 2.36-0.586 0.824-1.543 1.719-2.879 2.68-1.574 1.148-2.598 1.96-3.078 2.437-0.535 0.668-0.949 1.137-1.242 1.402 0.375-0.187 0.64-0.359 0.8-0.519 0.161-0.133 0.399-0.399 0.719-0.801 0.266-0.348 0.508-0.586 0.719-0.719 0.375-0.215 0.988-0.32 1.84-0.32 0.855 0 1.48 0.121 1.883 0.359l0.238 0.161v0.039l0.121-0.118c1.387-1.23 2.293-2.773 2.719-4.644 0.16-0.719 0.332-2.531 0.519-5.438l0.321-1.761c0.187-0.719 0.453-1.571 0.8-2.559 0.614-1.758 0.852-3.187 0.719-4.281l-0.238 0.84c-0.293 1.043-0.723 2.32-1.281 3.843-0.641 1.68-1.122 2.946-1.442 3.797v0.082h0.004zm4.442 19.879c0.05 0.133 0.132 0.266 0.238 0.399l0.199 0.32c0.242 0.32 0.508 0.586 0.801 0.801 0.32 0.215 0.879 0.441 1.679 0.679-0.05-0.027-0.093-0.05-0.117-0.078-0.64-0.402-1.254-0.988-1.84-1.761-0.32-0.051-0.64-0.188-0.96-0.399v0.039zm-1.12-2.601c0.188 0.136 0.293 0.214 0.321 0.242v-0.32c0.051-0.161 0.293-0.52 0.718-1.079 0.426-0.457 0.934-0.629 1.52-0.523 0.559 0.109 1.027 0.414 1.402 0.922l0.039 0.039c0.372-0.508 0.907-0.785 1.598-0.84 0.586-0.055 1.203 0.066 1.84 0.359 1.094 0.508 2.375 1.442 3.844 2.801 0.316-0.558 0.492-1.148 0.519-1.758l-0.082-0.601c-0.16-0.828-0.984-1.719-2.48-2.68-1.387-0.906-2.082-1.883-2.082-2.922-0.664-0.32-1.586-0.078-2.758 0.719-1.625 1.094-2.531 1.668-2.719 1.723-0.613 0.211-1.48 0.414-2.601 0.597-0.692 0.293-0.801 1.016-0.321 2.16 0.16 0.375 0.414 0.668 0.762 0.883 0.187 0.133 0.348 0.227 0.48 0.278zm-128.8 0.402c0.16-0.453 0.414-0.789 0.761-1 0.426-0.215 0.879-0.227 1.36-0.043 2.664 1.016 5.613 1.934 8.84 2.762l0.199-0.078c-0.028-2-0.375-3.161-1.039-3.485-0.055-0.023-1.36-0.16-3.922-0.398-0.664-0.078-2.012-0.559-4.039-1.442-1.68-0.718-3-0.957-3.961-0.718 0.055 0.16 0.137 0.761 0.242 1.8 0.051 0.668 0.227 1.2 0.52 1.598 0.238 0.324 0.585 0.656 1.039 1.004zm69.48-7.641-0.039-1.48c-0.027-0.266-0.055-0.547-0.082-0.84-0.613-0.215-1.266-0.16-1.961 0.16-0.398 0.16-1.012 0.465-1.84 0.918-1.386 0.508-2.211 0.895-2.48 1.16-0.504 0.481-0.785 1.375-0.84 2.68 0.137 1.789 0.148 3.082 0.043 3.883-0.055 0.344-0.215 0.851-0.481 1.519l1.879-2.601 0.321-1.442c0.105-0.531 0.375-0.918 0.8-1.16 0.372-0.183 0.801-0.226 1.282-0.117l1.238-1.082c0.613-0.453 1.281-0.414 2 0.121 0.082-0.613 0.133-1.187 0.16-1.719zm-2.32 6.68c-0.238 0.957-0.52 1.867-0.84 2.719 0.641-0.746 1.187-1.668 1.641-2.762-0.215-0.051-0.399-0.133-0.559-0.238l-0.242 0.281z" inkscape:connector-curvature="0"/>
      <path id="path20" style="fill-rule:evenodd;fill:#cdd5d9" d="m144.1 41.079c0.265-3.172 1.945-6.117 5.039-8.84 1.89-1.652 4.933-3.957 9.117-6.917l-0.238-0.161c-0.399-0.242-1.028-0.359-1.879-0.359-0.856 0-1.469 0.105-1.84 0.32-0.215 0.133-0.453 0.371-0.723 0.719-0.32 0.398-0.558 0.668-0.719 0.801-0.16 0.156-0.425 0.332-0.8 0.519-0.293 0.293-0.598 0.52-0.918 0.68l-1.121 0.441c-1.946 1.438-3.426 2.477-4.438 3.118-0.348 0.214-0.816 0.441-1.402 0.679-0.692 0.27-1.172 0.469-1.442 0.602-0.48 0.238-1.066 0.613-1.758 1.117-0.933 0.668-1.519 1.082-1.761 1.242-1.227 0.746-2.012 1.242-2.36 1.481-0.824 0.586-1.504 1.199-2.039 1.84-0.453 0.535-0.949 1.238-1.48 2.121-0.559 1.011-0.985 1.757-1.281 2.238-0.426 0.723-0.946 1.867-1.559 3.441-0.641 1.598-1.172 2.758-1.602 3.481-0.183 0.32-0.812 1.105-1.878 2.359-0.829 1.012-1.332 1.852-1.52 2.52-0.16 0.691 0.055 1.84 0.641 3.441 0.265 0.692 0.425 1.625 0.48 2.797 0.051 1.121 0 2.082-0.16 2.883-0.133 0.719-0.481 2.117-1.039 4.199-0.27 0.984-0.469 1.734-0.602 2.238-0.265 0.883-0.547 1.602-0.84 2.16-0.746 1.415-1.48 2.243-2.199 2.481-0.75 0.242-1.84 0.309-3.281 0.199-1.973-0.105-3.094-0.16-3.359-0.16-2.829 0.109-4.989 0.551-6.481 1.32-0.879 0.453-1.652 1.11-2.32 1.961-0.426 0.508-0.973 1.36-1.641 2.559-0.691 1.121-1.144 1.801-1.359 2.043-0.508 0.64-1.121 1.078-1.84 1.32-3.172 1.145-6.906 1.692-11.199 1.637 0.133-0.344 0.199-0.797 0.199-1.36-0.027-0.32-0.051-0.785-0.078-1.398 0.027-0.961 0.25-2.066 0.68-3.32-0.055-0.668 0.132-1.547 0.558-2.641 0.238-0.586 0.574-1.332 1-2.238l1-2.199c0.481-1.817 0.719-3.348 0.719-4.602 0.027-0.934-0.16-1.785-0.559-2.559-0.293-0.562-0.84-1.296-1.64-2.203-2.532-2.879-5.188-4.347-7.961-4.398-1.84 0-3.227 0.094-4.16 0.281-2.399 0.481-4.118 1.094-5.161 1.84-1.304 0.957-2.371 2.437-3.199 4.437-0.773 2.403-1.359 4.176-1.758 5.321-1.203-0.051-3.359 0.082-6.48 0.402-2.828 0.078-4.84-0.402-6.039-1.441-0.828-0.719-1.453-1.785-1.883-3.199-0.238-0.801-0.531-2.028-0.879-3.68-0.375-1.52-0.558-2.293-0.558-2.32-0.27-0.829-0.629-1.536-1.082-2.122-0.426-0.586-1.133-1.425-2.122-2.519-0.531-0.668-1.304-1.359-2.316-2.082-1.469-0.985-2.32-1.586-2.562-1.801-1.571-1.305-2.801-2.383-3.68-3.238-1.652-1.653-2.961-3.039-3.918-4.16-0.508-0.614-1.176-1.266-2-1.957-0.481-0.403-1.215-1-2.203-1.801-0.852-0.723-1.438-1.281-1.758-1.684-0.613-0.773-0.856-1.504-0.723-2.199l0.403-0.559c-0.161-0.187-0.266-0.308-0.321-0.359-2.132-2.242-3.199-3.375-3.199-3.398-0.988-1.204-1.668-2.602-2.039-4.204-0.508-2.105-0.801-3.281-0.883-3.519-0.453-1.305-1.078-2.32-1.879-3.039 0.133 2.398 0.535 4.961 1.2 7.68 1.335 5.359 5.292 10.8 11.878 16.32 3.684 3.066 6.215 5.414 7.602 7.039 2.773 3.176 4.027 6 3.762 8.48l0.32 1.961c0.156 0.828 0.316 1.504 0.477 2.039 0.214 0.559 0.363 0.989 0.441 1.282 0.133 0.453 0.215 0.894 0.238 1.32 0.028 1.172-0.078 2.664-0.316 4.48-0.055 0.586-0.176 0.985-0.363 1.2-0.184 0.211-0.559 0.398-1.118 0.558-0.082 0.028-1.093 0.309-3.043 0.84-1.226 0.32-2.226 0.668-3 1.039-0.238 0.11-0.785 0.43-1.636 0.961-0.668 0.426-1.227 0.707-1.68 0.84-0.402 0.16-0.883 0.242-1.441 0.242-0.321 0.027-0.801 0.027-1.442 0h-3.277c-1.254 0-2.32-0.066-3.203-0.203-1.731-0.238-2.864-0.344-3.399-0.316-1.226 0.105-2.16 0.625-2.8 1.558-0.559 0.824-1.415 1.774-2.559 2.84-1.469 1.387-2.387 2.293-2.762 2.719-1.094 1.254-1.945 2.094-2.558 2.519-1.039 0.746-2.176 1.082-3.403 1l0.16-0.519c0.27-0.211 0.524-0.465 0.762-0.758-0.426 0.48-0.894 0.891-1.398 1.238-0.723 0.375-1.16 0.625-1.321 0.762-0.136 0.133-0.253 0.641-0.359 1.52-0.187 1.464 0 2.746 0.559 3.839 0.8 1.895 1.441 3.239 1.918 4.039 0.773 1.336 1.789 2.282 3.043 2.84 0.933 0.321 1.57 0.574 1.918 0.762 0.562 0.266 1.039 0.746 1.441 1.437 0.238 0.403 1.254 0.801 3.039 1.204 1.812 0.425 2.855 0.824 3.121 1.199 1.039 1.465 2.691 2.652 4.961 3.558 0.266 0.106 2.266 0.735 6 1.879 1.25 0.403 4.078 1.176 8.477 2.321 4.507 1.175 9.054 1.668 13.64 1.48 4.961-0.187 9.403-1.16 13.321-2.918 4.828-2.16 9.867-3.695 15.121-4.601 4.453-0.747 9.691-1.122 15.718-1.122h8.922c2.184 0.028 4.289-0.183 6.317-0.64 1.683-0.399 3.695-1.051 6.043-1.957 0.929-0.348 1.613-0.653 2.039-0.922 0.48-0.293 1.132-0.785 1.961-1.481 0.613-0.503 1.519-1.105 2.718-1.796 1.36-0.778 2.293-1.348 2.801-1.723 1.172-0.852 2.051-1.895 2.641-3.121 0.051-0.106 0.105-0.223 0.156-0.36h-0.039c-0.801-0.292-1.586-0.703-2.359-1.238-0.399-0.32-1.094-0.894-2.079-1.719-0.562-0.507-1.523-1.214-2.882-2.121-1.305-0.851-2.254-1.547-2.84-2.082-0.16-0.16-0.32-0.293-0.481-0.398-0.078-0.106-0.105-0.305-0.078-0.602 0.051-0.48 0.531-1.05 1.438-1.718 0.48-0.372 1.121-0.813 1.922-1.321 1.546-1.066 2.707-1.984 3.48-2.758 0.586-0.617 1.492-1.507 2.719-2.683 1.039-1.09 1.812-2.106 2.32-3.039 0.211-0.426 0.387-0.918 0.52-1.481 0.132-0.664 0.117-1.183-0.043-1.558-0.211-0.535-0.907-0.895-2.078-1.078-1.282-0.215-2.094-0.508-2.442-0.883-0.265-0.321-0.398-0.586-0.398-0.801 0-0.133 0.051-0.449 0.16-0.957 0.398-1.949 1.547-3.961 3.437-6.043 1.067-1.199 2.696-2.934 4.883-5.199 1.067-1.305 1.559-3.227 1.481-5.758-0.133-3.652-0.16-5.734-0.082-6.242 0.218-1.278 0.91-2.438 2.086-3.481zm0.238 3.321c-0.051-0.078-0.094-0.172-0.121-0.278v0.078c0.027 0.082 0.07 0.149 0.121 0.2zm0.281 0.32c0.184 0.133 0.438 0.227 0.758 0.281l1.043 0.082h0.359c-1.066-0.027-1.789-0.148-2.16-0.363zm27.598-2.039c0.215 0.398 0.48 0.828 0.801 1.281 1.039 1.492 1.253 2.797 0.64 3.918 0.535-0.879 0.547-1.824 0.039-2.84-0.265-0.531-0.758-1.32-1.48-2.359zm-3.797 7.641c0.516-0.004 0.996-0.059 1.437-0.161-0.398 0.051-0.8 0.094-1.199 0.121-0.07 0.024-0.148 0.036-0.238 0.04zm-6.922-6.68c-0.852 0.801-1.148 1.773-0.879 2.918 1.492 0.426 3.68 0.64 6.559 0.64l1.679-0.558c0.133-1.414-0.281-2.496-1.238-3.242-0.828-0.668-1.867-0.973-3.121-0.918-1.227 0.078-2.227 0.465-3 1.16zm-0.359-7c-0.082 0.773 0.078 1.519 0.48 2.238l3.359 0.563c0.079-1.387-0.199-2.243-0.839-2.563-0.375-0.187-1.375-0.266-3-0.238zm14.48-4.403c-0.027 0.614-0.199 1.204-0.519 1.762-1.469-1.359-2.747-2.293-3.84-2.801-0.641-0.293-1.254-0.414-1.84-0.359-0.695 0.051-1.227 0.332-1.602 0.84l-0.039-0.039c-0.375-0.508-0.84-0.817-1.402-0.922-0.586-0.106-1.09 0.066-1.52 0.519-0.425 0.559-0.664 0.922-0.718 1.083v0.32c-0.028-0.028-0.133-0.11-0.321-0.242 0.242 0.187 0.403 0.347 0.481 0.48 0.16 0.266 0.293 0.629 0.402 1.082 0.078 0.531 0.156 0.879 0.238 1.039v-0.039c0.321 0.211 0.641 0.348 0.961 0.399 0.586 0.773 1.2 1.359 1.84 1.761 0.641 0.211 1.199 0.426 1.68 0.637l1.64-1.68c1.227 0.27 2.333-0.105 3.321-1.117 0.824-0.828 1.238-1.734 1.238-2.723zm3.758 2.204c0-1.387-0.024-2.282-0.078-2.684-0.961-0.105-2.016-0.117-3.16-0.039-0.321 0.934 0.027 2.199 1.039 3.801l2.199-1.078zm-15.92-27.883c0.133 1.094-0.106 2.519-0.719 4.281-0.347 0.988-0.613 1.84-0.801 2.559 0.215-0.719 0.493-1.586 0.84-2.598 0.614-1.789 0.84-3.254 0.68-4.402v0.16zm-5.723-2.078 1.684-1.684c-0.027-0.613-0.055-1.504-0.082-2.68-1.227-0.16-2.469-0.16-3.719 0-0.133 1.336-0.094 2.243 0.117 2.723 0.242 0.559 0.91 1.106 2 1.641zm-80.84 43.597c-1.82-0.027-2.953-0.05-3.398-0.078 0.773 0.078 1.641 0.117 2.602 0.117 0.253-0.019 0.523-0.035 0.796-0.039zm14.08-3.199c-0.054 0-0.121 0.016-0.199 0.039-0.265 0.055-0.519 0.121-0.761 0.203l0.96-0.242zm-51.082 22.32c-0.851 0.055-1.972 0.122-3.359 0.2-2 0.109-3.465 0.293-4.398 0.562 0.32-0.082 2.906-0.336 7.757-0.762zm6.981-2.738c-0.449 0.524-0.973 0.969-1.578 1.34 0.64-0.348 1.16-0.773 1.558-1.281 0-0.02 0.008-0.039 0.02-0.059zm-44.059-2.18c-0.851-0.214-1.718-0.214-2.601 0-0.293 0.665-0.293 1.344 0 2.04 0.64 0.16 1.176 0.187 1.601 0.078l1.641-1.118c-0.027-0.054-0.16-0.175-0.402-0.363-0.184-0.133-0.266-0.344-0.239-0.637zm6.762 9.879-0.562-1.64c0.242-0.961-0.372-1.602-1.84-1.922-1.414-0.317-2.481-0.211-3.2 0.32-1.601 1.176-1.308 2.055 0.879 2.641 1.442 0.402 3.016 0.601 4.723 0.601zm26.52-32.839c-0.137-0.028-0.254-0.055-0.364-0.083 0.082 0.028 0.16 0.055 0.242 0.083h0.122zm-8.204-23.762c0.801-0.371 0.922-0.801 0.364-1.278-0.563-0.484-1.215-0.589-1.961-0.32-0.242 0.774-0.082 1.492 0.48 2.16l1.117-0.562zm-5.16 2.039c-0.851 0.91-0.824 1.789 0.082 2.644 0.852 0.797 1.801 1.09 2.84 0.879l1.68-0.562v-2c-0.106-0.613-0.481-1.067-1.121-1.36-0.321-0.156-0.918-0.199-1.797-0.117-0.883 0.106-1.442 0.278-1.684 0.516zm12.282 15.203c0.453 0.348 1.027 0.691 1.718 1.039 1.149 0.641 2.469 1.016 3.961 1.121 0.215 0.024 1.68 0.039 4.403 0.039l1.078-0.558-0.2 0.078c-3.226-0.824-6.175-1.746-8.839-2.758-0.481-0.188-0.934-0.176-1.36 0.039-0.347 0.211-0.601 0.547-0.761 1zm67.16-0.961 0.242-0.281c0.16 0.105 0.344 0.187 0.558 0.238-0.453 1.094-1 2.016-1.64 2.762 0.32-0.852 0.601-1.758 0.84-2.719zm2.32-6.68c-0.027 0.532-0.082 1.106-0.16 1.719-0.719-0.531-1.387-0.574-2-0.121l-1.238 1.082c-0.481-0.105-0.911-0.066-1.282 0.121-0.425 0.238-0.695 0.625-0.8 1.16l-0.321 1.438-1.879 2.601c-0.054 0.133-0.105 0.266-0.16 0.399-0.32 0.828-0.496 1.48-0.519 1.961l1.679 1.121c2.426-0.375 4.266-2.242 5.52-5.602 0.746-2.027 1.133-3.984 1.16-5.879z" inkscape:connector-curvature="0"/>
    </g>
  </g>
<metadata><rdf:RDF><cc:Work><dc:format>image/svg+xml</dc:format><dc:type rdf:resource="http://purl.org/dc/dcmitype/StillImage"/><cc:license rdf:resource="http://creativecommons.org/licenses/publicdomain/"/><dc:publisher><cc:Agent rdf:about="http://openclipart.org/"><dc:title>Openclipart</dc:title></cc:Agent></dc:publisher></cc:Work><cc:License rdf:about="http://creativecommons.org/licenses/publicdomain/"><cc:permits rdf:resource="http://creativecommons.org/ns#Reproduction"/><cc:permits rdf:resource="http://creativecommons.org/ns#Distribution"/><cc:permits rdf:resource="http://creativecommons.org/ns#DerivativeWorks"/></cc:License></rdf:RDF></metadata></svg>
