<?xml version="1.0" encoding="UTF-8" standalone="no"?>
<!-- Created with Inkscape (http://www.inkscape.org/) -->

<svg
   xmlns:dc="http://purl.org/dc/elements/1.1/"
   xmlns:cc="http://creativecommons.org/ns#"
   xmlns:rdf="http://www.w3.org/1999/02/22-rdf-syntax-ns#"
   xmlns:svg="http://www.w3.org/2000/svg"
   xmlns="http://www.w3.org/2000/svg"
   xmlns:sodipodi="http://sodipodi.sourceforge.net/DTD/sodipodi-0.dtd"
   xmlns:inkscape="http://www.inkscape.org/namespaces/inkscape"
   width="228.5652mm"
   height="159.39665mm"
   viewBox="0 0 809.8767 564.79128"
   id="svg4242"
   version="1.1"
   inkscape:version="0.91 r13725"
   sodipodi:docname="textile-cloud.svg">
  <defs
     id="defs4244" />
  <sodipodi:namedview
     id="base"
     pagecolor="#ffffff"
     bordercolor="#666666"
     borderopacity="1.0"
     inkscape:pageopacity="0.0"
     inkscape:pageshadow="2"
     inkscape:zoom="0.90509668"
     inkscape:cx="318.21243"
     inkscape:cy="265.94124"
     inkscape:document-units="px"
     inkscape:current-layer="layer1"
     showgrid="false"
     inkscape:window-width="1920"
     inkscape:window-height="1058"
     inkscape:window-x="0"
     inkscape:window-y="22"
     inkscape:window-maximized="1"
     showguides="true"
     inkscape:guide-bbox="true"
     fit-margin-top="0"
     fit-margin-left="0"
     fit-margin-right="0"
     fit-margin-bottom="0">
    <sodipodi:guide
       position="10162.886,-8338.0113"
       orientation="0,1"
       id="guide54192" />
  </sodipodi:namedview>
  <metadata
     id="metadata4247">
    <rdf:RDF>
      <cc:Work
         rdf:about="">
        <dc:format>image/svg+xml</dc:format>
        <dc:type
           rdf:resource="http://purl.org/dc/dcmitype/StillImage" />
        <dc:title></dc:title>
      </cc:Work>
    </rdf:RDF>
  </metadata>
  <g
     inkscape:label="Layer 1"
     inkscape:groupmode="layer"
     id="layer1"
     transform="translate(3351.4579,-3372.4166)">
    <path
       id="path54011"
       sodipodi:nodetypes="csssssssssssssssc"
       style="fill:#0088aa;fill-opacity:1;stroke:#000000;stroke-width:4.24966097px"
       inkscape:connector-curvature="0"
       d="m -2926.0777,3521.5428 c 4.8667,-12.3906 -4.9425,-25.0573 -16.7894,-28.1763 -17.8871,-4.71 -34.8889,9.1082 -38.3738,26.3247 -4.7181,23.3062 13.2747,44.7986 35.8605,48.5719 28.7019,4.795 54.7457,-17.4396 58.7693,-45.3961 4.9068,-34.0882 -21.6032,-64.7127 -54.933,-68.9699 -39.4703,-5.0384 -74.6943,25.7668 -79.1644,64.4664 -5.1822,44.8504 29.9283,84.6815 74.0034,89.3652 50.2288,5.3344 94.6762,-34.0902 99.5593,-83.5376 5.492,-55.6059 -38.2535,-104.6777 -93.0745,-109.76 -60.9826,-5.6541 -114.6802,42.4152 -119.9544,102.608 -5.8188,66.3591 46.5753,124.6832 112.1449,130.1551 71.7352,5.986 134.6863,-50.7355 140.3493,-121.679 6.1557,-77.1107 -54.898,-144.696 -131.216,-150.5499 -82.4883,-6.3262 -154.7062,59.0591 -160.7445,140.7494 -6.4991,87.8616 63.2616,164.1377 150.2865,170.945 79.5629,6.2209 144.6408,-53.7994 123.1974,-75.0239" />
    <path
       d="m -2785.2279,3647.7201 c 0.2956,13.3088 14.2351,21.205 26.3677,19.5074 18.3183,-2.5626 28.6654,-21.8744 25.2318,-39.1011 -4.6477,-23.3203 -29.5444,-36.1976 -51.8354,-30.9566 -28.3271,6.6604 -43.7647,37.2274 -36.6806,64.5691 8.6372,33.3388 44.9167,51.3508 77.3051,42.4073 38.3543,-10.5943 58.9505,-52.6119 48.1298,-90.0358 -12.5391,-43.3726 -60.3072,-66.556 -102.7722,-53.8565 -48.3926,14.4756 -74.1682,68.0058 -59.5782,115.5034 16.4067,53.4134 75.7083,81.7862 128.2395,65.3048 58.4359,-18.3334 89.406,-83.4096 71.0272,-140.9702 -20.2575,-63.4588 -91.1099,-97.0265 -153.7063,-76.7539 -68.4825,22.1793 -104.6474,98.8101 -82.4757,166.4377 24.0986,73.5065 106.515,112.2731 179.1737,88.2023 78.5328,-26.018 119.9001,-114.219 93.9248,-191.9046 -27.9334,-83.556 -121.7375,-126.9773 -204.6407,-99.6513 -75.7939,24.9854 -112.6466,105.4805 -84.6705,116.7782"
       inkscape:connector-curvature="0"
       style="fill:#0088aa;fill-opacity:1;stroke:#000000;stroke-width:4.24966097px"
       sodipodi:nodetypes="csssssssssssssssc"
       id="path54013" />
    <path
       id="path54015"
       sodipodi:nodetypes="csssssssssssssssc"
       style="fill:#0088aa;fill-opacity:1;stroke:#000000;stroke-width:4.24966097px"
       inkscape:connector-curvature="0"
       d="m -2828.9475,3802.0882 c 9.2436,9.5796 24.8424,5.9278 32.6067,-3.5483 11.7233,-14.3071 6.229,-35.516 -7.9778,-45.8464 -19.2319,-13.9848 -46.261,-6.5621 -59.0869,12.4077 -16.299,24.1067 -6.912,57.0391 16.8376,72.3265 28.9584,18.6413 67.8347,7.2715 85.5697,-21.2674 20.9994,-33.7982 7.6371,-78.6438 -25.6966,-98.8059 -38.6308,-23.368 -89.457,-8.0066 -112.0492,30.1265 -25.7437,43.4586 -8.3794,100.2772 34.5565,125.2855 48.2829,28.1235 111.1041,8.7532 138.5285,-38.9864 30.5076,-53.105 9.1294,-121.9313 -43.4154,-151.7647 -57.9259,-32.8937 -132.7585,-9.5069 -165.0081,47.8454 -35.2819,62.7452 -9.8844,143.5854 52.2753,178.2442 67.5632,37.6719 154.4196,10.2625 191.4874,-56.7053 40.0639,-72.3824 10.6423,-165.2534 -61.1343,-204.7237 -77.197,-42.456 -175.5786,-10.7435 -217.9669,65.5644 -38.7515,69.766 -11.2387,153.9125 16.982,143.2404" />
    <path
       d="m -2700.3761,3812.0281 c 9.2436,9.5796 24.8424,5.9279 32.6067,-3.5482 11.7233,-14.3071 6.229,-35.5161 -7.9778,-45.8465 -19.2319,-13.9848 -46.261,-6.5621 -59.0869,12.4077 -16.299,24.1067 -6.912,57.0391 16.8376,72.3265 28.9584,18.6414 67.8347,7.2715 85.5697,-21.2673 20.9994,-33.7983 7.6371,-78.6438 -25.6966,-98.806 -38.6308,-23.3679 -89.457,-8.0066 -112.0492,30.1266 -25.7437,43.4586 -8.3793,100.2771 34.5565,125.2855 48.2829,28.1234 111.1041,8.7532 138.5285,-38.9864 30.5076,-53.1051 9.1294,-121.9313 -43.4154,-151.7648 -57.9259,-32.8937 -132.7584,-9.5068 -165.0081,47.8454 -35.2818,62.7452 -9.8844,143.5854 52.2753,178.2442 67.5632,37.672 154.4196,10.2625 191.4874,-56.7052 40.0639,-72.3825 10.6423,-165.2535 -61.1343,-204.7238 -77.197,-42.456 -175.5785,-10.7435 -217.9668,65.5644 -38.7516,69.766 -11.2388,153.9125 16.9819,143.2404"
       inkscape:connector-curvature="0"
       style="fill:#0088aa;fill-opacity:1;stroke:#000000;stroke-width:4.24966097px"
       sodipodi:nodetypes="csssssssssssssssc"
       id="path54017" />
    <path
       d="m -2846.2158,3667.6935 c 1.5007,13.2272 16.0986,19.8274 28.0273,17.037 18.0107,-4.2124 26.5647,-24.3827 21.5837,-41.2272 -6.7424,-22.803 -32.7038,-33.3705 -54.428,-26.1305 -27.6069,9.2006 -40.2102,41.0411 -30.6769,67.6281 11.6235,32.4187 49.3865,47.068 80.8309,35.2254 37.2362,-14.0272 53.939,-57.7387 39.7704,-94.0279 -16.4189,-42.0574 -66.0918,-60.8155 -107.2308,-44.319 -46.8813,18.8025 -67.6986,74.4487 -48.8633,120.4283 21.1807,51.7064 82.8102,74.5871 133.6312,53.4119 56.5335,-23.5547 81.4773,-91.1704 57.9566,-146.8281 -25.9263,-61.3614 -99.5296,-88.3686 -160.0309,-62.5054 -66.1901,28.2956 -95.26,107.889 -67.0496,173.2284 30.6624,71.0195 116.2535,102.1561 186.4313,71.5982 75.8511,-33.0294 109.0532,-124.6169 76.1431,-199.6283 -35.3923,-80.6801 -132.7461,-115.4197 -212.8312,-80.6915 -73.217,31.7527 -102.6216,115.2569 -73.7366,123.9722"
       inkscape:connector-curvature="0"
       style="fill:#0088aa;fill-opacity:1;stroke:#000000;stroke-width:4.24966097px"
       sodipodi:nodetypes="csssssssssssssssc"
       id="path54019" />
    <path
       d="m -3097.547,3590.7082 c -9.28,-9.5443 -24.8649,-5.8332 -32.593,3.6724 -11.6687,14.3517 -6.0937,35.5396 8.1524,45.8157 19.285,13.9114 46.2856,6.3858 59.0392,-12.6327 16.2071,-24.1686 6.6947,-57.065 -17.113,-72.262 -29.0292,-18.5307 -67.862,-7.0129 -85.4881,21.5934 -20.8706,33.8779 -7.3375,78.6723 26.0728,98.7073 38.7196,23.2207 89.4868,7.6659 111.9337,-30.5531 25.5779,-43.5565 7.9972,-100.3083 -35.0335,-125.1529 -48.3897,-27.9394 -111.1368,-8.33 -138.3792,39.5137 -30.305,53.2209 -8.6648,121.9652 43.9934,151.5983 58.0507,32.6727 132.7936,9.0011 164.8246,-48.4735 35.0425,-62.8792 9.3374,-143.6221 -52.9539,-178.0439 -67.7061,-37.4143 -154.4576,-9.6742 -191.2701,57.4342 -39.7878,72.5346 -10.0127,165.2929 61.9137,204.4894 77.3582,42.1617 175.6182,10.0747 217.7156,-66.3941 38.4854,-69.9131 10.6523,-153.9542 -17.5275,-143.1747"
       inkscape:connector-curvature="0"
       style="fill:#0088aa;fill-opacity:1;stroke:#000000;stroke-width:4.24966097px"
       sodipodi:nodetypes="csssssssssssssssc"
       id="path54021" />
    <path
       d="m -3060.4042,3750.708 c -9.28,-9.5442 -24.8649,-5.8332 -32.593,3.6725 -11.6687,14.3517 -6.0937,35.5396 8.1524,45.8157 19.285,13.9114 46.2856,6.3858 59.0392,-12.6327 16.2071,-24.1686 6.6947,-57.065 -17.113,-72.262 -29.0292,-18.5307 -67.862,-7.013 -85.4881,21.5933 -20.8705,33.8779 -7.3374,78.6723 26.0728,98.7073 38.7196,23.2207 89.4868,7.6659 111.9337,-30.5531 25.5779,-43.5564 7.9972,-100.3083 -35.0335,-125.1529 -48.3897,-27.9394 -111.1367,-8.33 -138.3791,39.5137 -30.305,53.2209 -8.6648,121.9652 43.9933,151.5983 58.0507,32.6727 132.7936,9.0011 164.8246,-48.4735 35.0425,-62.8792 9.3374,-143.6221 -52.9539,-178.0438 -67.7061,-37.4144 -154.4575,-9.6743 -191.27,57.4341 -39.7879,72.5346 -10.0127,165.2929 61.9137,204.4894 77.3581,42.1617 175.6181,10.0747 217.7155,-66.3941 38.4854,-69.9131 10.6523,-153.9542 -17.5275,-143.1747"
       inkscape:connector-curvature="0"
       style="fill:#0088aa;fill-opacity:1;stroke:#000000;stroke-width:4.24966097px"
       sodipodi:nodetypes="csssssssssssssssc"
       id="path54023" />
    <path
       id="path54025"
       sodipodi:nodetypes="csssssssssssssssc"
       style="fill:#0088aa;fill-opacity:1;stroke:#000000;stroke-width:4.24966097px"
       inkscape:connector-curvature="0"
       d="m -2963.2613,3760.648 c -9.28,-9.5443 -24.8649,-5.8332 -32.593,3.6724 -11.6687,14.3517 -6.0937,35.5396 8.1524,45.8157 19.285,13.9114 46.2856,6.3858 59.0392,-12.6327 16.2071,-24.1686 6.6947,-57.065 -17.113,-72.2619 -29.0292,-18.5308 -67.862,-7.013 -85.4881,21.5933 -20.8706,33.8779 -7.3374,78.6723 26.0728,98.7073 38.7196,23.2207 89.4868,7.6659 111.9337,-30.5531 25.5779,-43.5564 7.9972,-100.3083 -35.0335,-125.1529 -48.3897,-27.9394 -111.1367,-8.33 -138.3792,39.5137 -30.305,53.2209 -8.6648,121.9652 43.9934,151.5983 58.0507,32.6727 132.7936,9.0011 164.8246,-48.4735 35.0425,-62.8792 9.3374,-143.6221 -52.9539,-178.0438 -67.7061,-37.4144 -154.4576,-9.6743 -191.2701,57.4341 -39.7878,72.5346 -10.0127,165.2929 61.9138,204.4894 77.3581,42.1617 175.6181,10.0747 217.7155,-66.3941 38.4854,-69.9131 10.6523,-153.9542 -17.5275,-143.1747" />
    <path
       id="path54027"
       sodipodi:nodetypes="csssssssssssssssc"
       style="fill:#0088aa;fill-opacity:1;stroke:#000000;stroke-width:4.24966097px"
       inkscape:connector-curvature="0"
       d="m -3201.2383,3758.8217 c -12.1538,-5.4311 -25.2578,3.7855 -28.9182,15.4766 -5.5271,17.6516 7.4951,35.2707 24.5331,39.5432 23.0647,5.7844 45.3614,-11.2016 50.1689,-33.5901 6.1092,-28.4513 -14.9049,-55.4895 -42.6469,-60.7939 -33.8266,-6.4684 -65.6372,18.606 -71.4219,51.7049 -6.8472,39.1971 22.3063,75.7997 60.7596,82.0439 44.5647,7.2381 85.9676,-26.0044 92.6722,-69.8177 7.6374,-49.9305 -29.7025,-96.143 -78.8732,-103.2938 -55.2947,-8.042 -106.3254,33.4017 -113.9221,87.9312 -8.4512,60.6583 37.0992,116.5085 96.986,124.5438 66.0215,8.8629 126.6922,-40.7951 135.1722,-106.0439 9.2769,-71.3842 -44.4912,-136.876 -115.0995,-145.7938 -76.7463,-9.6934 -147.0664,48.1893 -156.422,124.1575 -10.1109,82.1104 51.8858,157.2573 133.2123,167.044 87.47,10.5306 166.872,-55.6504 177.6721,-142.2704 9.8714,-79.1929 -47.0944,-146.9608 -69.282,-126.5156" />
    <path
       id="path54029"
       sodipodi:nodetypes="csssssssssssssssc"
       style="fill:#0088aa;fill-opacity:1;stroke:#000000;stroke-width:4.24966097px"
       inkscape:connector-curvature="0"
       d="m -2942.9853,3633.2818 c -5.8308,-11.9671 -21.7947,-13.3145 -32.1072,-6.7016 -15.5707,9.9842 -16.8994,31.853 -6.5802,46.0679 13.969,19.2433 41.9689,20.5365 60.0291,6.4587 22.9507,-17.8901 24.2,-52.1114 6.3369,-73.9898 -21.7804,-26.6775 -62.2675,-27.8779 -87.9536,-6.2162 -30.416,25.6545 -31.5659,72.4345 -6.0941,101.9106 29.5188,34.1619 82.6041,35.2589 115.8747,5.9736 37.9132,-33.3764 38.9569,-92.7797 5.8507,-129.8322 -37.229,-41.6674 -102.9614,-42.6583 -143.7961,-5.73 -45.4249,41.0784 -46.3618,113.1422 -5.6078,157.753 44.9258,49.184 123.3227,50.0667 171.7169,5.4873 52.9446,-48.7714 53.7716,-133.5031 5.3645,-185.6742 -52.6147,-56.7066 -143.6902,-57.4793 -199.6382,-5.2439 -60.4706,56.4591 -61.1882,153.8766 -5.1219,213.5954 60.2989,64.2336 163.6649,64.4752 227.5594,5.0009 58.4139,-54.3761 58.2508,-142.9063 28.1134,-141.4771" />
  </g>
</svg>
