<svg
  xmlns:rdf="http://www.w3.org/1999/02/22-rdf-syntax-ns#"
  xmlns="http://www.w3.org/2000/svg"
  xmlns:cc="http://creativecommons.org/ns#"
  xmlns:dc="http://purl.org/dc/elements/1.1/"
  xmlns:svg="http://www.w3.org/2000/svg"
  xmlns:ns1="http://sozi.baierouge.fr"
  xmlns:xlink="http://www.w3.org/1999/xlink"
  id="svg2"
  viewBox="0 0 83.604 70.456"
  version="1.1"
  aria-label="A line drawing of a small town with a church steeple towering above the rest of the buildings"
>
  <g id="layer1" transform="translate(-440.21 -449.59)">
    <path
      id="path3132"
      d="m447.99 518.72c-1.6371-1.9726-0.22507-7.8026 2.0328-8.3931 1.2342-0.32276 1.8483-1.3998 1.8483-3.2417 0-2.3002-0.52879-2.8641-3.1837-3.3951-3.6457-0.72914-4.7252 0.34674-4.9033 4.8868l-0.11767 3-0.77008-3.2438c-0.42355-1.7841-1.361-3.9559-2.0833-4.8262-1.6209-1.9531 0.13342-3.391 4.1661-3.4146 2.2548-0.0132 2.7287-0.58781 3.5-4.2441 1.1498-5.4505 2.806-5.4614 3.1996-0.0212 0.28413 3.927 0.5311 4.2614 3.25 4.4 1.6184 0.0825 3.505 0.195 4.1925 0.25 1.5594 0.12475 1.2802-9.0562-0.33462-11.002-1.6519-1.9904-0.17699-3.398 3.5603-3.398 1.8467 0 3.5859-0.5625 3.8649-1.25 0.3914-0.96461 0.70214-0.97617 1.3611-0.0506 0.46962 0.65966 3.8789 1.5093 7.5761 1.8881 7.6428 0.78303 6.9511 1.7728 6.8777-9.8418-0.0235-3.7149-0.31963-7.2024-0.65808-7.75-0.33845-0.54762-2.6477-0.99567-5.1317-0.99567-4.3042 0-4.5078 0.12917-4.335 2.75 0.0997 1.5125 0.13364 4.6625 0.0754 7-0.0926 3.7142-0.38962 4.2481-2.356 4.2347-1.2375-0.008-2.925-0.45153-3.75-0.98469-1.4882-0.96176-1.4111-1.0089 2.25-1.375 1.5882-0.15882 2.285-10.49 0.80721-11.968-1.91-1.91-1.1143-2.6572 2.8292-2.6572 3.8766 0 3.8881-0.012 4.5505-4.75 1.3014-9.3092 1.7948-11.225 2.7409-10.64 0.52719 0.32582 0.68881 1.2953 0.35915 2.1544-0.32966 0.85908-0.30491 4.1647 0.055 7.3458l0.65437 5.7839 3.6268 0.30302 3.6268 0.30302 0.27746 14.25c0.21728 11.16 0.57023 14.25 1.6276 14.25 2.1247 0 3.615-2.3545 2.5531-4.0335-1.5145-2.3946-1.1208-2.9665 2.0419-2.9665 2.7148 0 3.0015-0.30896 3.0153-3.25 0.0265-5.6266 1.6853-6.6403 2.7195-1.662 0.53703 2.5849 1.4197 4.3028 2.1314 4.1485 0.66814-0.14493 2.0472 0.18197 3.0646 0.72645 1.6681 0.89272 1.7238 1.3562 0.56775 4.719-1.8128 5.2732-0.63912 7.745 3.8597 8.1284 3.3671 0.28695 4.8616 1.5738 2.7364 2.3563-0.49791 0.18333-1.0604 1.6833-1.25 3.3333-0.29517 2.569 0.0145 3.0402 2.1553 3.28 5.8678 0.6571 6.585 1.0887 6.542 3.9369-0.0323 2.1407 0.47739 2.8569 2.208 3.1027 3.1958 0.45387 2.7967 2.1832-0.5 2.1668-5.144-0.0256-7.25-1.0721-7.25-3.603 0-1.6907-0.56283-2.3834-1.9366-2.3834-1.4428 0-2.0166 0.80914-2.25 3.173-0.17235 1.7451-0.87309 3.3567-1.5572 3.5813-1.8346 0.6022-3.2562-4.085-3.2562-10.736 0-3.3472-0.4682-6.0076-1.0939-6.2162-0.60167-0.20056-1.6482-2.8256-2.3256-5.8333-1.148-5.0975-1.4302-5.4687-4.1561-5.4687-2.5934 0-2.8918 0.31129-2.6366 2.75 0.27126 2.5916 0.0563 2.75-3.731 2.75-3.5591 0-4.0935 0.31457-4.6722 2.75-0.35935 1.5125-1.1995 3.425-1.867 4.25-0.66753 0.825-1.4714 2.2312-1.7863 3.1248-0.77489 2.1989-6.4443 2.8931-10.339 1.2659-1.746-0.72952-4.5736-2.7255-6.2836-4.4355-2.9128-2.9128-3.1091-2.9713-3.1091-0.92651 0 1.2004-1.125 3.5196-2.5 5.1536-2.8673 3.4076-3.2502 7.5486-0.8597 9.2966 3.0228 2.2103-1.0702 2.5745-5.0374 0.44824-2.9302-1.5705-3.6029-1.6599-3.6029-0.4788 0 0.79874 0.7875 1.9109 1.75 2.4715 1.5102 0.87959 1.3899 1.0234-0.87756 1.0497-1.4452 0.0167-3.1343-0.58017-3.7536-1.3264zm4.8812-5.6432c0-0.55-0.45-1-1-1s-1 0.45-1 1 0.45 1 1 1 1-0.45 1-1zm23.643-12.513c0.68199-1.7772-1.2903-4.4873-3.2657-4.4873-1.4001 0-1.9463 4.0979-0.71089 5.3333 1.1794 1.1794 3.3789 0.71142 3.9766-0.84607zm-13.039-4.2164c-0.33229-0.33229-0.56864 0.25834-0.52522 1.3125 0.048 1.165 0.28494 1.4019 0.60416 0.60417 0.28888-0.72187 0.25335-1.5844-0.079-1.9167zm1.3958-4.7708c0-0.825-0.45-1.5-1-1.5s-1 0.675-1 1.5 0.45 1.5 1 1.5 1-0.675 1-1.5zm-23.5 26.5c0.33992-0.55 1.293-1 2.118-1s1.2219 0.45 0.88197 1c-0.33992 0.55-1.293 1-2.118 1s-1.2219-0.45-0.88197-1zm25.7-1.2c-1.5961-1.5961-1.5572-5.0977 0.05-4.5083 0.6875 0.25208 1.1206 1.0152 0.96254 1.6957-0.1581 0.68055 0.5169 1.8475 1.5 2.5932 1.4861 1.1272 1.5261 1.3612 0.23746 1.3876-0.8525 0.0175-2.09-0.5082-2.75-1.1682zm9.1894-0.37244c0.33187-0.86484 0.16325-2.3949-0.3747-3.4-0.71286-1.332-0.6028-1.9716 0.40582-2.3587 1.9691-0.75561 2.5794 0.19034 2.5794 3.9978 0 2.3949-0.4524 3.3333-1.607 3.3333-1.0505 0-1.398-0.54453-1.0036-1.5724zm8.105 0.56349c-0.92989-1.5046 0.49767-5.1603 1.8404-4.7129 1.5696 0.523 1.5883 5.7218 0.0206 5.7218-0.68059 0-1.518-0.45403-1.861-1.009zm13.172-0.65772c-1.0374-1.0374-0.78384-4.3333 0.33333-4.3333 0.55 0 1 1.125 1 2.5 0 2.6181-0.23099 2.9357-1.3333 1.8333zm-4.6667-2.8924c0-1.4514 0.43284-2.2915 1-1.941 0.55 0.33992 1 1.4915 1 2.559s-0.45 1.941-1 1.941-1-1.1516-1-2.559zm1.75-7.5229c-2.3939-1.3918-2.2016-4.606 0.35736-5.9755 2.7186-1.4549 4.1522-0.0646 3.7208 3.6085-0.37192 3.1672-1.5379 3.8439-4.0782 2.367zm-19.373-23.941c-0.56285-0.56285-0.82678-2.3628-0.5865-4 0.3447-2.3486 0.94039-2.9766 2.8234-2.9766 2.6048 0 2.959 1.364 1.4112 5.4349-1.0472 2.7545-2.023 3.1668-3.6481 1.5417z"
    />
  </g>
</svg>
