<svg xmlns="http://www.w3.org/2000/svg" width="375" viewBox="0 0 375 375" height="375" version="1.0"><defs><clipPath id="a"><path d="M 119.835938 90 L 286.308594 90 L 286.308594 374.910156 L 119.835938 374.910156 Z M 119.835938 90"/></clipPath><clipPath id="b"><path d="M 89.0625 0 L 267 0 L 267 206 L 89.0625 206 Z M 89.0625 0"/></clipPath></defs><g clip-path="url(#a)"><path d="M 270.019531 110.167969 C 271.5 110.933594 273.53125 111.21875 274.472656 112.460938 C 277.398438 110.925781 280.03125 113.40625 281.0625 115.691406 C 284.761719 114.222656 286.191406 117.601562 286.246094 122.027344 C 286.277344 124.445312 286.539062 128.449219 285.695312 130.382812 C 285.304688 131.273438 284.207031 131.628906 283.554688 132.4375 C 282.46875 133.792969 281.945312 135.878906 280.289062 136.417969 C 279.96875 137.757812 280.210938 139.730469 279.945312 141.589844 C 281.113281 141.773438 282.53125 142.046875 284.078125 142.664062 C 283.621094 143 284.003906 144.292969 283.546875 144.625 C 285.261719 150.269531 285.261719 154.972656 285.65625 161.152344 C 286.421875 173.226562 280.054688 182.46875 273.085938 190.6875 C 269.578125 194.824219 265.523438 198.707031 261.171875 201.289062 C 253.71875 205.710938 244.445312 208.226562 235.28125 208.371094 C 234.21875 222.316406 234.488281 237.644531 234.808594 251.691406 C 237.363281 253.398438 239.226562 258.679688 236.15625 261.574219 C 240.0625 277.140625 241.6875 295.824219 242.691406 313.953125 C 243.003906 319.613281 242.347656 325.707031 241.503906 331.855469 C 240.394531 339.933594 239.484375 348.304688 236.210938 354.285156 C 239.796875 356.535156 242.316406 360.039062 242.941406 364.519531 C 243.0625 365.417969 242.625 366.472656 242.757812 367.300781 C 243.101562 369.519531 246.097656 372.382812 242.890625 374.304688 C 240.734375 375.597656 235.929688 374.421875 232.472656 374.417969 C 229.394531 374.410156 226.523438 374.15625 223.105469 373.796875 C 217.566406 373.214844 211.742188 374.636719 208.890625 370.859375 C 208.28125 368.320312 209.539062 366.226562 210.867188 365.195312 C 210.667969 362.558594 211.289062 359.207031 211.035156 356.617188 C 210.628906 355.660156 208.980469 355.789062 208.335938 355.039062 C 210.824219 342.878906 211.628906 331.253906 210.074219 319.789062 C 208.53125 308.4375 206.667969 297.308594 204.050781 286.824219 C 200.902344 296.128906 198.945312 306.238281 197.226562 317.34375 C 195.964844 325.476562 195.558594 332.617188 195.878906 340.628906 C 195.953125 342.523438 196.050781 344.699219 196.070312 346.835938 C 196.097656 350.105469 197.125 353.238281 195.128906 354.964844 C 196.28125 360.9375 195 366.421875 193.4375 371.4375 C 188.097656 373.449219 181.847656 373.039062 175.910156 373.078125 C 168.699219 373.121094 160.722656 372.4375 153.179688 371.773438 C 151.730469 369.503906 153.164062 366.445312 154.996094 365.5 C 155.246094 363.773438 154.957031 361.65625 155.378906 359.730469 C 156.726562 353.597656 162.695312 349.730469 169.234375 353.054688 C 167.832031 326.261719 166.949219 295.847656 171.082031 267.863281 C 169.238281 264.695312 163.566406 264.964844 162.28125 261.6875 C 160.25 256.503906 166.238281 255.484375 166.25 250.160156 C 161.003906 249.972656 154.304688 248.953125 148.816406 247.410156 C 142.476562 245.632812 135.355469 240.378906 130.953125 236.039062 C 127.214844 232.355469 123.890625 229.105469 122.179688 223.472656 C 120.957031 219.457031 119.855469 214.488281 119.859375 210.132812 C 119.867188 205.644531 122.199219 202.222656 122.472656 197.917969 C 126.109375 190.628906 130.039062 183.757812 136.519531 179.269531 C 138.242188 178.074219 140.570312 177 142.554688 175.867188 C 146.9375 173.371094 151.304688 172.035156 156.527344 170.398438 C 162.953125 168.390625 171.191406 166.011719 179.910156 167.949219 C 179.707031 165.3125 179.640625 161.691406 181.847656 159.882812 C 186.183594 158.230469 189.609375 160.492188 194.800781 160.742188 C 198.5 160.917969 204.480469 160.832031 209.214844 160.695312 C 216.847656 160.476562 229.289062 156.789062 227.78125 167.515625 C 236.8125 168.109375 246.570312 165.769531 251.519531 159.691406 C 254.304688 156.273438 257.113281 148.988281 255.792969 143.59375 C 257.316406 141.4375 260.144531 142.320312 261.769531 140.988281 C 261.429688 137.648438 260.445312 134.605469 259.171875 131.828125 C 258.261719 129.832031 257.535156 127.527344 258.667969 124.402344 C 259.082031 123.246094 260.351562 122.519531 260.683594 121.140625 C 261.199219 118.980469 259.84375 115.125 259.472656 112.265625 C 258.703125 106.414062 256.589844 93.507812 261.929688 90.25 C 262.710938 89.777344 265.40625 90.140625 266.488281 90.953125 C 268.328125 92.332031 269.214844 96.289062 269.722656 99.558594 C 270.292969 103.234375 269.828125 107.238281 270.019531 110.167969 M 267.199219 110.382812 C 266.925781 108.128906 267.304688 105.503906 267.28125 103.191406 C 267.242188 99.820312 266.605469 93.167969 263.578125 92.558594 C 258.917969 99.265625 262.5 110.941406 263.207031 119.308594 C 264.34375 119.425781 265.71875 118.058594 267.113281 117.769531 C 267.6875 115.726562 267.445312 112.367188 267.199219 110.382812 M 268.347656 117.25 C 269.765625 116.929688 271.648438 116.765625 272.96875 116.953125 C 273 115.558594 272.609375 114.519531 272.199219 113.507812 C 269.640625 111.816406 268.132812 115.15625 268.347656 117.25 M 277.46875 130.636719 C 280.535156 129.917969 279.929688 110.125 274.699219 115.074219 C 274.644531 115.867188 274.589844 116.664062 274.539062 117.457031 C 277.730469 119.910156 278.9375 126.925781 275.382812 128.902344 C 275.347656 130.550781 276.757812 130.808594 277.46875 130.636719 M 279.964844 129.207031 C 285.027344 132.394531 283.230469 118.847656 281.328125 117.707031 C 278.996094 120.40625 281.117188 126.203125 279.964844 129.207031 M 274.832031 119.074219 C 270.800781 116.667969 267.0625 118.949219 263.9375 120.355469 C 263.570312 121.445312 263.460938 121.511719 263.367188 122.914062 C 257.582031 128.246094 266.476562 135.859375 263.882812 142.328125 C 269.027344 142.027344 273.164062 142.816406 277.511719 142.03125 C 277.40625 139.949219 278.027344 137.808594 277.324219 135.824219 C 279.003906 134.652344 280.863281 133.597656 280.65625 130.847656 C 278.839844 129.816406 277.144531 133.144531 274.839844 131.066406 C 274.796875 132.730469 273.808594 133.316406 273.035156 134.140625 C 273.453125 134.816406 274.523438 136.007812 273.273438 136.554688 C 272.4375 136.101562 272.242188 135.082031 272.035156 134.074219 C 267.464844 133.949219 268.488281 128.933594 267.382812 125.777344 C 266.570312 126.070312 265.28125 127.210938 264.765625 126.003906 C 266.246094 125.082031 268.5 124.785156 269.878906 124.34375 C 271.667969 124.898438 273.085938 126.742188 275.488281 127.3125 C 277.511719 125.042969 275.914062 121.273438 274.832031 119.074219 M 269.1875 125.699219 C 269.03125 125.730469 268.945312 125.847656 268.964844 126.082031 C 268.605469 129.355469 269.636719 132.742188 272.113281 132.882812 C 274.40625 133.011719 273.15625 129.402344 273.65625 127.789062 C 271.945312 127.390625 271.117188 125.289062 269.1875 125.699219 M 276.835938 143.183594 C 272.539062 143.9375 267.6875 143.011719 263.816406 143.320312 C 261.914062 143.476562 260.261719 144.320312 258.527344 144.574219 C 260.65625 163.515625 242.292969 172.667969 223.648438 169.441406 C 225.101562 168.308594 226.191406 164.46875 224.472656 163.101562 C 221.988281 161.121094 214.789062 163.398438 211.011719 163.8125 C 206.382812 164.3125 201.140625 163.410156 197.234375 163.300781 C 191.195312 163.128906 187.808594 161.402344 183.480469 162.394531 C 181.539062 165.027344 184.082031 168.691406 182.96875 170.148438 C 180.996094 170.902344 179.070312 170.015625 177.386719 169.78125 C 170.886719 168.875 164.003906 170.46875 157.378906 172.652344 C 151.007812 174.753906 145.570312 176.648438 141.105469 179.570312 C 140.011719 180.285156 138.734375 180.804688 137.769531 181.546875 C 128.023438 189.054688 120.265625 204.792969 124.863281 219.257812 C 129.667969 234.378906 142.589844 244.308594 160.03125 247.351562 C 165.5 248.308594 170.136719 247.28125 174.84375 247.335938 C 177.074219 243.195312 176.957031 235.546875 176.550781 230.664062 C 173.484375 229.835938 171.945312 230.839844 169.546875 230.597656 C 164.636719 230.109375 159.550781 228.339844 156.496094 225.140625 C 149.796875 218.125 151.574219 203.78125 159.277344 198.351562 C 163.597656 195.308594 172.296875 193.632812 176.828125 196.316406 C 178.832031 197.507812 179.488281 200.714844 179.355469 203.476562 C 178.925781 212.476562 175.617188 221.300781 173.855469 229.085938 C 175.804688 229.214844 176.554688 229.089844 178.25 229.175781 C 179.710938 227.203125 180.605469 224.585938 183.019531 223.699219 C 185.792969 224.628906 184.953125 228.519531 183.753906 230.738281 C 185.636719 231.113281 189.863281 229.269531 191.125 231.226562 C 191.921875 232.460938 191.222656 234.175781 190.25 235.363281 C 192.296875 236.148438 191.769531 238.589844 190.730469 240.191406 C 191.460938 241.054688 192.234375 241.878906 191.902344 243.664062 C 191.339844 244.519531 189.980469 244.46875 188.835938 244.664062 C 190.386719 251.152344 181.890625 250.179688 177.769531 248.527344 C 175.511719 250.238281 172 248.210938 169.875 249.800781 C 168.769531 250.632812 169.269531 251.613281 168.867188 252.933594 C 168.410156 254.429688 167.148438 255.789062 166.785156 257.191406 C 165.265625 257.535156 164.25 259.480469 165.113281 261.277344 C 175.429688 268.089844 191.347656 268.929688 203.550781 267.210938 C 207.332031 266.679688 210.226562 265.296875 213.554688 264.277344 C 217.246094 263.144531 221.660156 262.742188 225.953125 261.5 C 227.992188 260.90625 229.964844 259.503906 231.746094 258.6875 C 233.3125 257.960938 234.847656 257.867188 235.089844 256.507812 C 235.429688 254.597656 232.835938 253.984375 232.351562 252.53125 C 232.007812 251.503906 232.136719 249.167969 232.097656 247.320312 C 231.777344 232.722656 230.53125 218.566406 231.066406 205.496094 C 236.664062 205.921875 241.800781 205.476562 246.96875 204.148438 C 253.582031 202.445312 261.769531 198.6875 266.878906 193.671875 C 268.371094 192.210938 269.886719 190.015625 271.464844 187.984375 C 274.898438 183.539062 279.238281 178.410156 281.273438 172.847656 C 284.800781 163.222656 281.253906 152.9375 280.984375 144.054688 C 279.832031 144.203125 277.851562 143.753906 276.835938 143.183594 M 155.070312 213.460938 C 154.941406 218.289062 157.664062 224.070312 161.828125 226.296875 C 164.65625 227.804688 167.886719 227.9375 170.691406 228.476562 C 172.523438 221.328125 176.011719 211.945312 176.351562 203.476562 C 176.4375 201.382812 176.082031 199.6875 175.097656 198.199219 C 163.378906 196.152344 155.355469 202.972656 155.070312 213.460938 M 182.714844 225.273438 C 181.675781 227.261719 178.960938 228.867188 178.292969 231.578125 C 178.027344 232.652344 178.351562 233.722656 178.28125 234.773438 C 178 239.003906 177.515625 243.542969 177.847656 247.332031 C 181.3125 248.238281 184.582031 249.644531 187.640625 247.578125 C 187.714844 246.765625 187.789062 245.949219 187.585938 245.378906 C 186.859375 244.453125 184.871094 244.625 184.304688 243.5625 C 185.957031 241.910156 188.554688 244.882812 190.535156 243.175781 C 191.398438 239.015625 185.71875 242.234375 185.152344 239.820312 C 186.414062 239.195312 188.597656 239.613281 190 239.144531 C 190.390625 238.199219 190.566406 237.925781 190.34375 236.972656 C 188.863281 235.546875 185.101562 237.46875 184.617188 235.789062 C 185.570312 234.363281 187.890625 235.554688 189.492188 234.714844 C 189.800781 233.835938 190.519531 232.832031 190.09375 231.753906 C 187.210938 230.824219 184.269531 232.738281 182.09375 231.628906 C 182.261719 229.957031 185.203125 226.652344 182.714844 225.273438 M 228.117188 262.039062 C 215.84375 263.914062 204.917969 269.941406 191.808594 269.230469 C 187.34375 268.992188 181.546875 268.324219 176.527344 267.222656 C 176.082031 267.644531 175.925781 268.390625 174.867188 268.113281 C 173.304688 269.652344 173.898438 272.328125 172.664062 274.160156 C 171.96875 287.082031 171.050781 302.667969 171.128906 315.417969 C 171.210938 328.59375 171.371094 341.8125 172.449219 352.867188 C 177.691406 353.28125 182.890625 352.816406 188.445312 353.125 C 190.132812 353.21875 191.886719 353.554688 193.28125 352.648438 C 193.578125 345.371094 192.175781 336.445312 192.699219 328.230469 C 193.597656 314.132812 197.730469 300.53125 199.125 288.699219 C 200.03125 287.933594 199.867188 286.03125 200.835938 284.011719 C 201.183594 283.292969 202.695312 280.523438 203.480469 280.394531 C 206.519531 279.898438 208.769531 289.5 209.15625 291.359375 C 211.230469 301.265625 212.542969 309.316406 213.289062 319.601562 C 213.679688 324.960938 214.152344 330.402344 214.078125 334.839844 C 213.992188 340.257812 211.765625 348.871094 211.417969 353.84375 C 216.226562 354.796875 220.691406 354.609375 225.554688 354.976562 C 230.503906 355.351562 232.847656 355.488281 234.429688 350.96875 C 235.066406 349.148438 235.109375 346.925781 235.621094 345.054688 C 237.832031 336.976562 239.144531 328.933594 239.648438 320.546875 C 240.050781 313.878906 239.390625 307.085938 238.804688 300.109375 C 237.664062 286.539062 236.640625 273.226562 233.511719 262.199219 C 232.894531 261.488281 231.132812 261.78125 230.800781 260.820312 C 230.277344 260.800781 228.792969 261.523438 228.117188 262.039062 M 213.519531 355.378906 C 213.621094 359.199219 214.164062 363.722656 213.378906 366.5625 C 223.179688 367.625 229.492188 367.894531 239.273438 368.46875 C 239.6875 368.15625 239.933594 367.652344 240.535156 367.558594 C 240.582031 362.199219 237.914062 356.09375 231.628906 356.976562 C 230.285156 357.164062 229.273438 359.007812 227.761719 357.921875 C 227.734375 356.820312 229.128906 357.335938 229.265625 356.421875 C 224.414062 355.761719 217.976562 355.507812 213.519531 355.378906 M 185.972656 354.160156 C 181.703125 354.277344 177.046875 353.6875 173.328125 354.722656 C 172.738281 355.335938 173.738281 355.460938 173.394531 356.726562 C 172.386719 357.21875 171.953125 357.304688 170.976562 356.964844 C 170.078125 356.652344 169.703125 355.761719 168.875 355.429688 C 166.816406 354.597656 164.367188 355.210938 161.703125 354.953125 C 158.84375 357.246094 157.820312 361.035156 157.761719 366.082031 C 165.4375 366.191406 173.910156 366.28125 181.160156 366.429688 C 184.761719 366.503906 188.527344 366.8125 192 365.949219 C 193.277344 362.003906 192.5 357.578125 191.96875 354.359375 C 189.988281 354.136719 187.785156 354.113281 185.972656 354.160156 M 232.21875 369.203125 C 225.203125 368.929688 217.5 367.4375 211.675781 368.046875 C 211.59375 368.667969 211.714844 369.515625 211.359375 369.824219 C 214.109375 371.988281 217.632812 371.277344 221.871094 371.316406 C 225.832031 371.355469 230.375 371.128906 235.847656 371.84375 C 237.859375 372.101562 239.578125 373.28125 241.457031 371.8125 C 240.367188 368.152344 235.578125 369.335938 232.21875 369.203125 M 179.695312 367.332031 C 174.335938 367.28125 169.273438 367.242188 164.882812 367.351562 C 161.5625 367.433594 156.425781 365.855469 155.332031 369.515625 C 161.308594 370.1875 167.261719 370.261719 173.269531 370.703125 C 179.167969 371.136719 185.867188 370.566406 191.152344 369.6875 C 191.054688 368.894531 191.722656 367.4375 190.699219 367.460938 C 187.695312 367.425781 183.765625 367.371094 179.695312 367.332031" fill-rule="evenodd"/></g><path fill="#FCD8C0" d="M 267.113281 117.769531 C 265.71875 118.058594 264.34375 119.425781 263.207031 119.308594 C 262.5 110.941406 258.917969 99.265625 263.578125 92.558594 C 266.609375 93.164062 267.242188 99.820312 267.277344 103.191406 C 267.304688 105.503906 266.925781 108.125 267.203125 110.382812 C 267.445312 112.367188 267.6875 115.722656 267.113281 117.769531" fill-rule="evenodd"/><path fill="#FCD8C0" d="M 272.195312 113.507812 C 272.609375 114.523438 273 115.558594 272.972656 116.953125 C 271.648438 116.765625 269.765625 116.929688 268.347656 117.25 C 268.132812 115.15625 269.644531 111.816406 272.195312 113.507812" fill-rule="evenodd"/><path fill="#FCD8C0" d="M 275.382812 128.902344 C 278.9375 126.925781 277.730469 119.910156 274.539062 117.457031 C 274.59375 116.660156 274.644531 115.867188 274.699219 115.070312 C 279.929688 110.125 280.539062 129.917969 277.46875 130.636719 C 276.761719 130.804688 275.347656 130.550781 275.382812 128.902344" fill-rule="evenodd"/><path fill="#FCD8C0" d="M 281.328125 117.707031 C 283.230469 118.847656 285.03125 132.394531 279.964844 129.207031 C 281.117188 126.203125 278.996094 120.40625 281.328125 117.707031" fill-rule="evenodd"/><path fill="#FCD8C0" d="M 275.488281 127.308594 C 273.085938 126.742188 271.667969 124.894531 269.878906 124.34375 C 268.503906 124.785156 266.246094 125.082031 264.765625 126.003906 C 265.28125 127.207031 266.570312 126.070312 267.382812 125.777344 C 268.488281 128.933594 267.464844 133.949219 272.039062 134.074219 C 272.242188 135.082031 272.4375 136.097656 273.273438 136.554688 C 274.523438 136.007812 273.453125 134.816406 273.035156 134.140625 C 273.8125 133.316406 274.800781 132.730469 274.839844 131.0625 C 277.144531 133.144531 278.839844 129.816406 280.660156 130.847656 C 280.863281 133.597656 279.003906 134.652344 277.328125 135.824219 C 278.03125 137.808594 277.40625 139.949219 277.515625 142.027344 C 273.164062 142.816406 269.027344 142.027344 263.882812 142.332031 C 266.480469 135.859375 257.582031 128.246094 263.367188 122.914062 C 263.460938 121.507812 263.570312 121.445312 263.9375 120.355469 C 267.066406 118.949219 270.800781 116.667969 274.832031 119.074219 C 275.914062 121.269531 277.515625 125.042969 275.488281 127.308594 M 263.46875 133.511719 C 263.824219 133.9375 264.238281 134.023438 264.847656 133.800781 C 264.941406 133.09375 264.632812 132.742188 263.917969 132.742188 C 263.792969 133.027344 263.589844 133.21875 263.46875 133.511719 M 264.503906 135.976562 C 265.015625 136.402344 266.078125 136.027344 265.964844 135.074219 C 265.253906 134.640625 264.5625 135.066406 264.503906 135.976562" fill-rule="evenodd"/><path fill="#FCD8C0" d="M 273.65625 127.789062 C 273.15625 129.402344 274.40625 133.011719 272.117188 132.882812 C 269.632812 132.742188 268.605469 129.355469 268.964844 126.082031 C 268.945312 125.847656 269.03125 125.730469 269.1875 125.695312 C 271.117188 125.289062 271.945312 127.386719 273.65625 127.789062" fill-rule="evenodd"/><path d="M 263.917969 132.742188 C 264.632812 132.742188 264.941406 133.097656 264.847656 133.800781 C 264.238281 134.023438 263.824219 133.9375 263.46875 133.511719 C 263.589844 133.222656 263.792969 133.03125 263.917969 132.742188" fill-rule="evenodd"/><path d="M 265.964844 135.070312 C 266.078125 136.027344 265.015625 136.402344 264.503906 135.972656 C 264.5625 135.066406 265.25 134.636719 265.964844 135.070312" fill-rule="evenodd"/><path fill="#BCD2E8" d="M 280.984375 144.058594 C 281.253906 152.941406 284.800781 163.222656 281.273438 172.847656 C 279.238281 178.410156 274.898438 183.539062 271.464844 187.984375 C 269.886719 190.019531 268.371094 192.210938 266.878906 193.675781 C 261.769531 198.6875 253.582031 202.445312 246.96875 204.148438 C 241.800781 205.476562 236.664062 205.921875 231.066406 205.496094 C 230.53125 218.566406 231.777344 232.722656 232.097656 247.320312 C 232.136719 249.167969 232.007812 251.503906 232.351562 252.53125 C 232.835938 253.984375 235.433594 254.597656 235.089844 256.507812 C 234.847656 257.867188 233.3125 257.960938 231.746094 258.6875 C 229.964844 259.503906 227.992188 260.90625 225.953125 261.5 C 221.660156 262.742188 217.246094 263.144531 213.554688 264.277344 C 210.226562 265.296875 207.332031 266.679688 203.550781 267.210938 C 191.347656 268.929688 175.429688 268.089844 165.113281 261.277344 C 164.25 259.480469 165.265625 257.535156 166.785156 257.191406 C 167.148438 255.789062 168.410156 254.429688 168.867188 252.933594 C 169.269531 251.613281 168.769531 250.632812 169.875 249.800781 C 172 248.210938 175.511719 250.238281 177.769531 248.527344 C 181.890625 250.179688 190.386719 251.152344 188.835938 244.664062 C 189.980469 244.46875 191.339844 244.519531 191.902344 243.664062 C 192.234375 241.878906 191.460938 241.054688 190.730469 240.191406 C 191.769531 238.589844 192.296875 236.148438 190.25 235.363281 C 191.222656 234.175781 191.921875 232.460938 191.125 231.226562 C 189.863281 229.269531 185.636719 231.113281 183.753906 230.738281 C 184.953125 228.523438 185.792969 224.628906 183.019531 223.699219 C 180.605469 224.585938 179.710938 227.203125 178.25 229.175781 C 176.554688 229.089844 175.804688 229.214844 173.855469 229.085938 C 175.617188 221.304688 178.925781 212.476562 179.355469 203.476562 C 179.488281 200.714844 178.832031 197.503906 176.828125 196.316406 C 172.296875 193.632812 163.597656 195.308594 159.273438 198.351562 C 151.574219 203.78125 149.796875 218.125 156.496094 225.144531 C 159.546875 228.339844 164.636719 230.109375 169.546875 230.597656 C 171.945312 230.839844 173.484375 229.835938 176.550781 230.664062 C 176.957031 235.546875 177.074219 243.195312 174.84375 247.335938 C 170.136719 247.28125 165.5 248.308594 160.03125 247.351562 C 142.589844 244.308594 129.667969 234.378906 124.863281 219.257812 C 120.265625 204.792969 128.023438 189.054688 137.769531 181.546875 C 138.734375 180.804688 140.011719 180.285156 141.105469 179.570312 C 145.570312 176.648438 151.007812 174.753906 157.378906 172.652344 C 164.003906 170.46875 170.886719 168.875 177.386719 169.78125 C 179.070312 170.011719 180.996094 170.902344 182.96875 170.148438 C 184.082031 168.695312 181.539062 165.027344 183.480469 162.394531 C 187.808594 161.402344 191.195312 163.128906 197.234375 163.300781 C 201.140625 163.410156 206.382812 164.3125 211.011719 163.8125 C 214.789062 163.398438 221.988281 161.121094 224.472656 163.101562 C 226.191406 164.46875 225.101562 168.308594 223.648438 169.441406 C 242.292969 172.667969 260.65625 163.515625 258.527344 144.574219 C 260.261719 144.320312 261.914062 143.476562 263.816406 143.324219 C 267.6875 143.011719 272.535156 143.9375 276.835938 143.183594 C 277.847656 143.757812 279.832031 144.203125 280.984375 144.058594 M 218.414062 166.898438 C 214.222656 167.914062 207.246094 166.992188 201.792969 166.996094 C 197.503906 166.996094 192.253906 166.601562 188.902344 165.144531 C 187.941406 164.726562 187.398438 163.511719 186.179688 163.96875 C 185.972656 165.429688 188.222656 166.160156 189.410156 166.578125 C 196.898438 169.21875 208.632812 168.652344 215.332031 168.089844 C 217.9375 167.875 221.433594 168.453125 222.28125 165.953125 C 220.800781 164.714844 219.730469 166.578125 218.414062 166.898438 M 231.140625 186.320312 C 231.691406 186.164062 232.519531 186.320312 232.398438 185.402344 C 232.238281 185.042969 231.808594 184.921875 231.230469 184.925781 C 230.925781 185.171875 230.871094 186.03125 231.140625 186.320312 M 174.097656 186.144531 C 174.359375 186.464844 175.027344 186.839844 175.480469 186.4375 C 175.480469 185.449219 174.921875 185.242188 175.425781 184.234375 C 175.171875 184.207031 175.167969 183.960938 174.839844 183.996094 C 174.398438 184.492188 174.070312 185.113281 174.097656 186.144531 M 232.335938 189.394531 C 233.035156 189.78125 233.976562 189.5 233.996094 188.503906 C 233.347656 187.972656 232.109375 188.25 232.335938 189.394531 M 173.621094 187.3125 C 173.972656 186.253906 173.007812 186.347656 172.71875 185.855469 C 172.609375 185.230469 173.289062 185.507812 173.183594 184.886719 C 170.863281 184.027344 171.921875 188.113281 173.621094 187.3125" fill-rule="evenodd"/><path d="M 222.28125 165.949219 C 221.433594 168.453125 217.9375 167.871094 215.332031 168.089844 C 208.632812 168.648438 196.902344 169.21875 189.410156 166.578125 C 188.226562 166.160156 185.972656 165.425781 186.179688 163.964844 C 187.402344 163.507812 187.941406 164.726562 188.902344 165.144531 C 192.253906 166.597656 197.503906 166.996094 201.792969 166.996094 C 207.246094 166.992188 214.222656 167.910156 218.414062 166.894531 C 219.730469 166.578125 220.804688 164.714844 222.28125 165.949219" fill-rule="evenodd"/><path d="M 231.230469 184.925781 C 231.808594 184.921875 232.238281 185.042969 232.398438 185.402344 C 232.519531 186.320312 231.691406 186.164062 231.140625 186.316406 C 230.871094 186.035156 230.925781 185.171875 231.230469 184.925781" fill-rule="evenodd"/><path d="M 174.84375 183.996094 C 175.167969 183.960938 175.171875 184.207031 175.429688 184.234375 C 174.921875 185.238281 175.480469 185.449219 175.480469 186.433594 C 175.027344 186.835938 174.359375 186.464844 174.101562 186.144531 C 174.070312 185.113281 174.398438 184.488281 174.84375 183.996094" fill-rule="evenodd"/><path d="M 233.996094 188.503906 C 233.976562 189.5 233.039062 189.78125 232.335938 189.390625 C 232.109375 188.25 233.347656 187.972656 233.996094 188.503906" fill-rule="evenodd"/><path d="M 173.183594 184.886719 C 173.289062 185.507812 172.609375 185.230469 172.71875 185.855469 C 173.007812 186.347656 173.972656 186.253906 173.621094 187.3125 C 171.921875 188.113281 170.863281 184.027344 173.183594 184.886719" fill-rule="evenodd"/><path fill="#FCD8C0" d="M 182.09375 231.625 C 184.273438 232.738281 187.210938 230.824219 190.09375 231.753906 C 190.519531 232.832031 189.800781 233.835938 189.492188 234.714844 C 187.890625 235.554688 185.570312 234.363281 184.617188 235.789062 C 185.101562 237.46875 188.863281 235.546875 190.34375 236.96875 C 190.566406 237.921875 190.390625 238.195312 190 239.144531 C 188.597656 239.613281 186.414062 239.191406 185.152344 239.820312 C 185.71875 242.234375 191.398438 239.015625 190.535156 243.175781 C 188.558594 244.882812 185.957031 241.910156 184.304688 243.5625 C 184.875 244.625 186.859375 244.453125 187.585938 245.378906 C 187.789062 245.949219 187.714844 246.765625 187.640625 247.578125 C 184.582031 249.644531 181.3125 248.234375 177.847656 247.332031 C 177.515625 243.542969 178 239.003906 178.28125 234.773438 C 178.351562 233.722656 178.027344 232.652344 178.292969 231.578125 C 178.964844 228.867188 181.675781 227.257812 182.714844 225.273438 C 185.203125 226.652344 182.261719 229.957031 182.09375 231.625" fill-rule="evenodd"/><path fill="#83879B" d="M 230.800781 260.820312 C 231.132812 261.78125 232.894531 261.488281 233.511719 262.199219 C 236.640625 273.226562 237.667969 286.539062 238.804688 300.109375 C 239.390625 307.085938 240.054688 313.878906 239.652344 320.542969 C 239.144531 328.933594 237.832031 336.976562 235.621094 345.054688 C 235.109375 346.921875 235.066406 349.148438 234.429688 350.96875 C 232.847656 355.488281 230.503906 355.351562 225.554688 354.976562 C 220.691406 354.609375 216.230469 354.796875 211.417969 353.84375 C 211.769531 348.871094 213.992188 340.257812 214.078125 334.839844 C 214.152344 330.402344 213.679688 324.960938 213.289062 319.601562 C 212.542969 309.316406 211.230469 301.265625 209.15625 291.359375 C 208.769531 289.5 206.519531 279.898438 203.480469 280.394531 C 202.695312 280.523438 201.183594 283.292969 200.835938 284.011719 C 199.867188 286.03125 200.03125 287.933594 199.125 288.699219 C 197.730469 300.53125 193.597656 314.132812 192.699219 328.230469 C 192.175781 336.445312 193.578125 345.371094 193.28125 352.648438 C 191.890625 353.550781 190.132812 353.21875 188.445312 353.125 C 182.890625 352.816406 177.691406 353.28125 172.449219 352.867188 C 171.371094 341.8125 171.210938 328.59375 171.132812 315.417969 C 171.050781 302.667969 171.972656 287.082031 172.664062 274.160156 C 173.898438 272.328125 173.304688 269.652344 174.867188 268.113281 C 175.925781 268.386719 176.082031 267.644531 176.53125 267.222656 C 181.546875 268.324219 187.34375 268.992188 191.808594 269.230469 C 204.917969 269.941406 215.84375 263.914062 228.117188 262.039062 C 228.792969 261.523438 230.277344 260.800781 230.800781 260.820312" fill-rule="evenodd"/><path fill="#313442" d="M 229.265625 356.421875 C 229.128906 357.335938 227.738281 356.820312 227.761719 357.921875 C 229.273438 359.007812 230.285156 357.164062 231.628906 356.976562 C 237.914062 356.09375 240.582031 362.199219 240.535156 367.558594 C 239.933594 367.652344 239.6875 368.15625 239.277344 368.46875 C 229.492188 367.894531 223.179688 367.625 213.378906 366.5625 C 214.164062 363.722656 213.621094 359.199219 213.519531 355.378906 C 217.976562 355.507812 224.414062 355.761719 229.265625 356.421875" fill-rule="evenodd"/><path fill="#313442" d="M 191.96875 354.359375 C 192.5 357.578125 193.277344 362.003906 192 365.949219 C 188.527344 366.8125 184.761719 366.503906 181.160156 366.429688 C 173.910156 366.28125 165.4375 366.191406 157.761719 366.082031 C 157.820312 361.035156 158.84375 357.246094 161.703125 354.953125 C 164.367188 355.210938 166.820312 354.597656 168.875 355.429688 C 169.703125 355.761719 170.078125 356.652344 170.976562 356.964844 C 171.953125 357.304688 172.386719 357.21875 173.394531 356.726562 C 173.738281 355.460938 172.738281 355.335938 173.328125 354.722656 C 177.050781 353.6875 181.703125 354.277344 185.972656 354.160156 C 187.785156 354.113281 189.988281 354.136719 191.96875 354.359375" fill-rule="evenodd"/><path fill="#353744" d="M 241.457031 371.8125 C 239.578125 373.28125 237.859375 372.101562 235.847656 371.84375 C 230.375 371.128906 225.832031 371.355469 221.871094 371.316406 C 217.632812 371.277344 214.109375 371.988281 211.363281 369.824219 C 211.714844 369.515625 211.597656 368.667969 211.675781 368.046875 C 217.5 367.4375 225.207031 368.929688 232.21875 369.203125 C 235.578125 369.335938 240.367188 368.152344 241.457031 371.8125" fill-rule="evenodd"/><path fill="#353744" d="M 190.699219 367.460938 C 191.722656 367.4375 191.054688 368.894531 191.152344 369.6875 C 185.867188 370.566406 179.167969 371.136719 173.269531 370.703125 C 167.261719 370.261719 161.308594 370.1875 155.332031 369.515625 C 156.425781 365.855469 161.5625 367.433594 164.882812 367.351562 C 169.273438 367.242188 174.335938 367.28125 179.695312 367.332031 C 183.765625 367.371094 187.695312 367.425781 190.699219 367.460938" fill-rule="evenodd"/><path fill="#FCD8C0" d="M 250.144531 74.347656 C 248.945312 75.621094 248.15625 74.757812 246.277344 75.398438 C 240.851562 77.261719 235.914062 82.398438 231.414062 85.203125 C 229.449219 84.132812 227.78125 82.457031 226.011719 80.980469 C 219.964844 78.019531 212.738281 75.765625 205.296875 78.285156 C 195.4375 81.625 191.269531 91.496094 188.214844 98.59375 C 188.59375 100.21875 188.039062 101.386719 188.71875 103.164062 C 183.773438 103.417969 179.132812 105.546875 174.929688 108.382812 C 169.96875 103.527344 163.601562 101.535156 157.480469 99.039062 C 155.730469 99.613281 154.09375 98.773438 152.425781 98.917969 C 143.359375 99.707031 136.621094 107.972656 131.980469 113.253906 C 131.050781 118.234375 129 122.660156 131.382812 129.269531 C 122.222656 130.726562 114.09375 127.957031 105.007812 131.65625 C 95.203125 116.484375 91.871094 92.222656 92.929688 76.226562 C 93.929688 61.144531 99.914062 46.804688 110.511719 36.511719 C 121.734375 25.617188 136.191406 18.277344 151.890625 10.839844 C 158.09375 7.898438 166.339844 5.898438 172.785156 4.777344 C 183.496094 2.914062 190.664062 3.054688 199.429688 7.039062 C 214.511719 13.890625 225.871094 26.371094 236.335938 43.214844 C 242.351562 52.890625 248.820312 63.164062 250.144531 74.347656 M 220.273438 61.855469 C 220.402344 64.515625 219.3125 69.515625 222.304688 70.125 C 220.925781 67.351562 221.558594 64.398438 221.21875 61.539062 C 220.902344 61.644531 220.585938 61.753906 220.273438 61.855469 M 120.84375 102.292969 C 121.027344 102.585938 121.335938 102.628906 121.40625 103.152344 C 122.136719 103.125 121.902344 102.613281 122.503906 102.515625 C 122.144531 101.789062 122.117188 100.367188 121.308594 100.550781 C 121.378906 101.246094 120.519531 101.476562 120.84375 102.292969 M 225.921875 67.574219 C 226.832031 67.300781 226.734375 66.535156 226.621094 65.757812 C 226.148438 65.914062 226.097656 65.214844 225.511719 65.605469 C 225.476562 66.199219 225.523438 67.359375 225.921875 67.574219 M 118.191406 106.882812 C 118.582031 106.886719 118.90625 107.027344 119.296875 107.03125 C 119.480469 106.148438 119.363281 104.484375 118.253906 104.753906 C 118.144531 105.417969 117.6875 105.917969 118.191406 106.882812 M 229.800781 68.886719 C 230.664062 68.488281 230.800781 68.332031 231.132812 67.382812 C 230.84375 67.433594 230.75 67.097656 230.65625 66.753906 C 230.25 66.910156 229.902344 66.953125 229.628906 66.839844 C 229.125 67.671875 229.824219 68.070312 229.800781 68.886719 M 114.546875 117.082031 C 114.976562 116.875 115.160156 117.171875 115.574219 116.996094 C 116.414062 115.28125 113.367188 109.835938 111.578125 110.714844 C 112.878906 112.257812 114.355469 114.488281 114.546875 117.082031" fill-rule="evenodd"/><path d="M 221.21875 61.539062 C 221.558594 64.398438 220.925781 67.351562 222.304688 70.125 C 219.3125 69.515625 220.402344 64.515625 220.273438 61.859375 C 220.585938 61.75 220.902344 61.644531 221.21875 61.539062" fill-rule="evenodd"/><path d="M 121.308594 100.550781 C 122.117188 100.367188 122.144531 101.789062 122.503906 102.515625 C 121.902344 102.613281 122.136719 103.125 121.40625 103.15625 C 121.335938 102.628906 121.027344 102.585938 120.84375 102.292969 C 120.519531 101.476562 121.378906 101.246094 121.308594 100.550781" fill-rule="evenodd"/><path d="M 225.511719 65.605469 C 226.097656 65.214844 226.148438 65.914062 226.621094 65.757812 C 226.734375 66.535156 226.832031 67.300781 225.921875 67.574219 C 225.523438 67.359375 225.476562 66.199219 225.511719 65.605469" fill-rule="evenodd"/><path d="M 118.253906 104.753906 C 119.363281 104.480469 119.480469 106.148438 119.296875 107.035156 C 118.90625 107.027344 118.582031 106.886719 118.191406 106.882812 C 117.6875 105.914062 118.144531 105.417969 118.253906 104.753906" fill-rule="evenodd"/><path d="M 229.628906 66.839844 C 229.898438 66.953125 230.25 66.910156 230.65625 66.753906 C 230.75 67.097656 230.84375 67.433594 231.132812 67.382812 C 230.800781 68.332031 230.664062 68.488281 229.800781 68.890625 C 229.824219 68.070312 229.125 67.667969 229.628906 66.839844" fill-rule="evenodd"/><path d="M 111.578125 110.710938 C 113.367188 109.835938 116.414062 115.28125 115.574219 116.996094 C 115.160156 117.171875 114.976562 116.875 114.546875 117.082031 C 114.355469 114.488281 112.878906 112.257812 111.578125 110.710938" fill-rule="evenodd"/><path fill="#DDD" d="M 230.640625 87.574219 C 234.886719 85.457031 240.441406 78.550781 246.210938 76.738281 C 247.6875 76.273438 249.816406 76.550781 250.878906 78.046875 C 246.699219 83.625 239.804688 86.988281 235.578125 92.742188 C 234.65625 93.40625 234.011719 93.316406 233.292969 93.78125 C 235.238281 105.058594 234.777344 116.191406 222.742188 121.613281 C 211.914062 126.492188 200.335938 123.886719 195.335938 111.710938 C 191.609375 111.390625 186.574219 111.191406 182.46875 113.457031 C 179.234375 115.238281 177.742188 118.597656 176.441406 121.304688 C 178.039062 129.453125 176.757812 136.347656 171.445312 141.445312 C 169.652344 143.171875 166.980469 145.304688 165.15625 146.222656 C 164.164062 146.722656 162.878906 147.113281 161.847656 147.351562 C 150.765625 149.894531 138.765625 145.070312 134.582031 134.765625 C 130.527344 135.046875 126.371094 135.085938 122.257812 135.007812 C 115.554688 134.871094 109.242188 135.183594 102.828125 136.085938 C 101.710938 133.640625 104.492188 133.796875 105.574219 133.308594 C 112.316406 130.28125 121.449219 130.460938 128.46875 130.785156 C 130 130.855469 131.691406 131.945312 132.972656 130.832031 C 131.363281 125.417969 130.996094 119.199219 133.101562 114.980469 C 133.542969 114.609375 133.699219 114.09375 134.59375 113.945312 C 138.671875 104.90625 149.503906 98.378906 159.632812 101.46875 C 164.957031 103.089844 170.699219 106.03125 174.3125 110.4375 C 179.921875 106.863281 184.789062 104.710938 190.703125 104.328125 C 187.703125 93.65625 197.515625 83.972656 205.542969 79.78125 C 216.589844 76.730469 225.082031 80.785156 230.640625 87.574219 M 230.195312 102.480469 C 230.128906 92.644531 221.167969 85.84375 214.34375 83.902344 C 213.050781 83.53125 208.632812 83.023438 206.914062 83.792969 C 203.964844 85.121094 197.632812 89.300781 196.472656 93.410156 C 194.21875 101.375 198.074219 111.671875 205.25 117.558594 C 216.640625 122.460938 230.269531 114.03125 230.195312 102.480469 M 166.257812 111.597656 C 164.011719 109.515625 159.84375 107.214844 157.457031 106.6875 C 155.527344 106.265625 149.503906 106.308594 148.210938 106.671875 C 134.527344 110.542969 134.175781 131.746094 144.652344 140.292969 C 151.402344 145.796875 165.9375 144.441406 171.644531 135.847656 C 175.554688 129.101562 173.132812 117.96875 166.257812 111.597656" fill-rule="evenodd"/><path d="M 205.25 117.558594 C 198.070312 111.675781 194.21875 101.375 196.472656 93.410156 C 197.632812 89.300781 203.960938 85.121094 206.914062 83.792969 C 208.632812 83.023438 213.050781 83.53125 214.34375 83.902344 C 221.167969 85.84375 230.128906 92.648438 230.191406 102.480469 C 230.265625 114.027344 216.640625 122.464844 205.25 117.558594 M 197.8125 92.6875 C 195.5625 101.632812 200.570312 116.390625 209.519531 117.6875 C 212.917969 118.175781 216.773438 117.171875 219.695312 115.800781 C 225.589844 113.046875 229.285156 106.726562 228.523438 100.675781 C 227.1875 90.121094 217.074219 83.484375 207.160156 85.292969 C 207.023438 85.355469 206.894531 85.421875 207.003906 85.605469 C 203.203125 87.203125 200.171875 89.851562 197.8125 92.6875" fill-rule="evenodd"/><path fill="#FFFFFB" d="M 207.003906 85.605469 C 206.894531 85.421875 207.023438 85.351562 207.160156 85.292969 C 217.074219 83.484375 227.1875 90.121094 228.523438 100.675781 C 229.285156 106.726562 225.589844 113.046875 219.695312 115.800781 C 216.773438 117.171875 212.917969 118.175781 209.519531 117.683594 C 200.570312 116.390625 195.5625 101.632812 197.8125 92.6875 C 200.171875 89.851562 203.203125 87.203125 207.003906 85.605469 M 212.191406 93.066406 C 203 94.164062 203.542969 107.332031 211.90625 108.441406 C 219.503906 108.644531 223.542969 97.066406 215.988281 93.351562 C 214.1875 93.847656 213.476562 92.90625 212.191406 93.066406" fill-rule="evenodd"/><path d="M 171.644531 135.851562 C 165.9375 144.441406 151.402344 145.800781 144.652344 140.292969 C 134.175781 131.746094 134.527344 110.546875 148.210938 106.675781 C 149.503906 106.308594 155.527344 106.265625 157.457031 106.6875 C 159.84375 107.21875 164.011719 109.515625 166.257812 111.597656 C 173.132812 117.96875 175.554688 129.105469 171.644531 135.851562 M 149.476562 141.285156 C 158.738281 144.804688 171.34375 139.230469 172.148438 128.828125 C 172.640625 122.410156 168.675781 115.34375 164.523438 111.925781 C 160.296875 108.445312 153.882812 106.851562 146.640625 108.265625 C 134.601562 113.9375 137.15625 136.605469 149.476562 141.285156" fill-rule="evenodd"/><path fill="#FFFFFB" d="M 146.640625 108.265625 C 153.882812 106.851562 160.296875 108.445312 164.527344 111.925781 C 168.679688 115.34375 172.640625 122.410156 172.148438 128.828125 C 171.34375 139.230469 158.738281 144.804688 149.480469 141.285156 C 137.15625 136.605469 134.601562 113.9375 146.640625 108.265625 M 149.796875 129.847656 C 153.066406 135.160156 160.753906 133.921875 164.171875 129.4375 C 167.984375 124.429688 162.945312 116.835938 158.550781 116.070312 C 157.066406 115.808594 154.683594 116.148438 153.023438 116.894531 C 148.414062 118.960938 146.773438 124.9375 149.796875 129.847656" fill-rule="evenodd"/><path d="M 215.984375 93.351562 C 223.542969 97.066406 219.503906 108.644531 211.90625 108.441406 C 203.542969 107.332031 203 94.164062 212.191406 93.066406 C 213.476562 92.910156 214.1875 93.847656 215.984375 93.351562 M 209.121094 105.699219 C 214.335938 109.78125 221.144531 101.410156 217.585938 96.496094 C 216.171875 94.539062 213.445312 94.324219 210.863281 95.359375 C 205.8125 97.382812 205.601562 102.949219 209.121094 105.699219" fill-rule="evenodd"/><path fill="#5FBDD6" d="M 210.863281 95.359375 C 213.445312 94.324219 216.171875 94.539062 217.585938 96.496094 C 221.144531 101.414062 214.335938 109.78125 209.121094 105.699219 C 205.601562 102.949219 205.8125 97.386719 210.863281 95.359375 M 212.503906 104.023438 C 213.707031 103.796875 214.15625 102.550781 214.859375 101.640625 C 214.617188 100.933594 214.375 100.226562 214.132812 99.515625 C 209.546875 96.644531 208.148438 104.851562 212.503906 104.023438" fill-rule="evenodd"/><path d="M 153.023438 116.894531 C 154.683594 116.148438 157.066406 115.804688 158.550781 116.066406 C 162.945312 116.835938 167.984375 124.429688 164.171875 129.433594 C 160.753906 133.921875 153.066406 135.160156 149.796875 129.847656 C 146.773438 124.9375 148.414062 118.957031 153.023438 116.894531 M 150.816406 128.972656 C 156.097656 135.515625 167.476562 128.992188 162.847656 120.925781 C 161.105469 117.886719 156.339844 117.132812 153.035156 118.46875 C 149.722656 120.707031 149.082031 124.257812 150.816406 128.972656" fill-rule="evenodd"/><path fill="#5FBDD6" d="M 153.035156 118.46875 C 156.339844 117.132812 161.105469 117.886719 162.847656 120.925781 C 167.476562 128.992188 156.097656 135.515625 150.816406 128.972656 C 149.082031 124.257812 149.722656 120.707031 153.035156 118.46875 M 154.957031 122.554688 C 154.257812 123.988281 153.960938 126.523438 156.019531 127.203125 C 162.03125 127.03125 159.117188 118.261719 154.957031 122.554688" fill-rule="evenodd"/><path fill="#0C0C0C" d="M 214.132812 99.511719 C 214.375 100.222656 214.617188 100.933594 214.859375 101.636719 C 214.15625 102.550781 213.707031 103.792969 212.503906 104.023438 C 208.148438 104.851562 209.546875 96.644531 214.132812 99.511719 M 211.066406 101.351562 C 211.222656 102.226562 211.679688 102.5 212.261719 102.523438 C 212.144531 102.074219 213.011719 102.109375 213.042969 101.730469 C 212.726562 100.933594 211.390625 100.890625 211.066406 101.351562" fill-rule="evenodd"/><path fill="#0C0C0C" d="M 213.042969 101.734375 C 213.011719 102.109375 212.144531 102.074219 212.261719 102.523438 C 211.679688 102.5 211.222656 102.226562 211.066406 101.351562 C 211.390625 100.890625 212.726562 100.9375 213.042969 101.734375" fill-rule="evenodd"/><path d="M 156.019531 127.203125 C 153.960938 126.527344 154.257812 123.988281 154.957031 122.558594 C 159.117188 118.261719 162.03125 127.027344 156.019531 127.203125 M 155.847656 125.152344 C 156.046875 125.144531 156.191406 125.257812 156.246094 125.546875 C 157.539062 125.261719 158.171875 124.65625 157.96875 123.640625 C 157.765625 123.648438 157.625 123.535156 157.570312 123.246094 C 156.726562 123.753906 155.5 124.066406 155.847656 125.152344" fill-rule="evenodd"/><path fill="#0C0C0C" d="M 157.570312 123.25 C 157.625 123.535156 157.765625 123.652344 157.96875 123.640625 C 158.171875 124.65625 157.539062 125.265625 156.246094 125.546875 C 156.191406 125.257812 156.046875 125.144531 155.847656 125.15625 C 155.5 124.066406 156.726562 123.753906 157.570312 123.25" fill-rule="evenodd"/><path d="M 259.832031 92.65625 C 258.171875 93.699219 256.285156 92.261719 254.144531 93.007812 C 255.210938 91.109375 258.566406 91.363281 259.832031 92.65625" fill-rule="evenodd"/><path d="M 115.039062 142.46875 C 115.789062 143.6875 113.96875 143.648438 113.867188 144.449219 C 114.339844 145.203125 113.828125 145.476562 114.195312 146.183594 C 113.625 145.886719 113.660156 146.578125 112.777344 146.664062 C 112.121094 145.558594 112.855469 145.132812 112.445312 144.144531 C 110.976562 143.542969 110.636719 144.871094 109.453125 145.425781 C 108.117188 143.101562 113.933594 141.847656 115.039062 142.46875" fill-rule="evenodd"/><path fill="#EDE9DA" d="M 233.648438 133.449219 C 232.871094 137.140625 232.222656 140.976562 229.132812 143.414062 C 226.527344 145.472656 222.578125 146.007812 220.796875 149.152344 C 223.425781 152.722656 226.984375 154.480469 229.160156 158.160156 C 233.296875 165.164062 234.933594 175.113281 231.523438 180.539062 C 228.382812 185.542969 222.71875 188.019531 218.890625 193.007812 C 218.449219 195.214844 217.363281 197.101562 218.386719 200.03125 C 215.753906 199.5 214.28125 197.660156 211.964844 196.683594 C 203.824219 193.25 192.789062 197.792969 184.457031 194.980469 C 180.5625 193.664062 176.46875 190.769531 174.375 187.875 C 171.535156 183.953125 170.9375 177.273438 168.972656 172.058594 C 169.070312 170.054688 171.585938 168.722656 170.910156 166.925781 C 169.269531 166.410156 168.15625 167.796875 166.890625 168.292969 C 160.640625 170.746094 154.117188 167.917969 151.667969 160.828125 C 157.765625 161.273438 163.453125 158.863281 167.191406 154.488281 C 169.289062 152.027344 169.90625 148.761719 172.113281 146.492188 C 178.21875 140.210938 187.40625 138.878906 195.902344 136.546875 C 196.902344 136.277344 195.90625 135.523438 196.289062 135.363281 C 199.921875 133.492188 203.9375 131.738281 208.195312 131.574219 C 209.453125 131.523438 210.972656 132.078125 212.386719 132.253906 C 213.914062 132.441406 215.304688 132.289062 216.496094 132.699219 C 220.148438 133.949219 224.074219 136.785156 229.316406 135.449219 C 230.847656 135.058594 231.992188 133.84375 233.648438 133.449219 M 198.21875 151.039062 C 200.746094 150.363281 203.816406 152.226562 206.511719 150.589844 C 207.734375 149.847656 208.527344 147.867188 208.21875 146.320312 C 206.945312 139.945312 195.46875 140.972656 189.796875 144.949219 C 185.714844 147.8125 181.167969 154.925781 187.753906 157.5 C 193.792969 156.910156 193.726562 152.246094 198.21875 151.039062" fill-rule="evenodd"/><path d="M 187.753906 157.503906 C 181.167969 154.925781 185.714844 147.8125 189.796875 144.949219 C 195.46875 140.972656 206.945312 139.945312 208.21875 146.320312 C 208.527344 147.867188 207.734375 149.84375 206.511719 150.585938 C 203.816406 152.222656 200.746094 150.363281 198.21875 151.039062 C 193.726562 152.246094 193.792969 156.910156 187.753906 157.503906 M 187.308594 150.015625 C 188.898438 149.929688 190.886719 149 192.507812 148.242188 C 196.167969 146.53125 199.46875 145.386719 202.035156 143.679688 C 197.601562 142.5625 189.871094 145.195312 187.308594 150.015625 M 197.257812 149.785156 C 199.96875 148.894531 203.449219 150.894531 205.789062 149.253906 C 207.480469 148.070312 206.75 144.828125 204.488281 143.902344 C 202.285156 146.871094 199.210938 146.496094 194.488281 148.621094 C 190.328125 150.492188 188.738281 152.46875 185.894531 151.285156 C 185.410156 153.308594 186.550781 155.507812 188.296875 156 C 192.632812 155.394531 192.984375 151.199219 197.257812 149.785156" fill-rule="evenodd"/><path fill="#FFFFFB" d="M 202.035156 143.679688 C 199.46875 145.382812 196.167969 146.535156 192.507812 148.246094 C 190.886719 149 188.894531 149.929688 187.304688 150.015625 C 189.871094 145.195312 197.601562 142.5625 202.035156 143.679688" fill-rule="evenodd"/><path fill="#D86161" d="M 188.296875 156 C 186.550781 155.507812 185.410156 153.308594 185.894531 151.28125 C 188.738281 152.46875 190.328125 150.492188 194.488281 148.621094 C 199.210938 146.496094 202.289062 146.871094 204.488281 143.902344 C 206.75 144.828125 207.480469 148.070312 205.789062 149.253906 C 203.449219 150.894531 199.96875 148.894531 197.257812 149.785156 C 192.984375 151.195312 192.632812 155.394531 188.296875 156" fill-rule="evenodd"/><path fill="#FCD8C0" d="M 193.875 129.070312 C 194.421875 130.230469 196.097656 129.085938 196.492188 130.550781 C 196.691406 132.199219 194.828125 132.050781 193.820312 132.777344 C 193.3125 133.773438 193.445312 135.082031 192.820312 136.019531 C 188.734375 137.15625 185.628906 137.933594 182.089844 138.617188 C 182.597656 136.429688 184.398438 133.222656 184.953125 130 C 185.234375 128.375 185.820312 125.664062 183.894531 125.351562 C 182.695312 126.078125 183.554688 127.625 183.523438 128.90625 C 183.429688 132.964844 181.976562 137.222656 178.625 140.058594 C 176.433594 141.914062 173.511719 143.351562 171.472656 145.390625 C 169.484375 147.378906 168.609375 150.714844 166.941406 152.992188 C 164.5 156.335938 158.433594 160.039062 153.953125 159.785156 C 152.726562 159.71875 151.5 158.375 150.074219 158.472656 C 148.9375 159.769531 150.65625 162.925781 151.535156 164.300781 C 154.933594 169.597656 162.1875 172.132812 168.085938 169.464844 C 168.785156 169.425781 167.980469 171.847656 167.550781 172.542969 C 165.792969 172.523438 164.175781 172.210938 162.726562 171.554688 C 157.511719 171.570312 152.492188 171.039062 147.859375 169.765625 C 145.1875 169.027344 142.960938 167.203125 140.40625 165.714844 C 133.460938 161.683594 125.308594 157.308594 120.382812 149.609375 C 119.367188 149.273438 118.515625 148.605469 117.996094 147.261719 C 116.023438 147.734375 116.070312 149.195312 115.015625 150.121094 C 108.136719 154.320312 99.386719 147.398438 102.941406 141.054688 C 104.472656 138.324219 107.78125 137.976562 110.90625 138.875 C 112.019531 137.460938 109.519531 137.066406 109.628906 136.675781 C 117.761719 136.140625 125.59375 136.226562 133.328125 136.507812 C 136.648438 142.050781 141.910156 146.792969 147.714844 148.472656 C 152.246094 149.785156 159.164062 149.894531 163.75 148.285156 C 167.171875 147.082031 170.304688 144.308594 172.476562 142.152344 C 175.945312 138.710938 178.101562 134.753906 178.472656 129.570312 C 178.679688 126.671875 178.175781 123.605469 178.09375 120.742188 C 180.222656 115.195312 186.835938 112.6875 193.605469 112.828125 C 196.171875 116.675781 198.964844 120.066406 202.050781 122.863281 C 205.707031 125.035156 210.480469 124.929688 215.023438 125.296875 C 221.363281 123.847656 226.738281 121.742188 230.457031 117.9375 C 234.578125 113.714844 235.320312 108.480469 235.882812 102.914062 C 234.621094 100.699219 236.257812 98.269531 234.882812 95.347656 C 239.445312 90.515625 243.933594 85.644531 249.957031 81.527344 C 251.359375 82.621094 253.347656 85.382812 252.527344 87.5 C 256.160156 89.109375 261.113281 85.488281 262.980469 91.058594 C 264.433594 95.386719 259.972656 99.988281 254.980469 99.3125 C 253.265625 101.867188 253.570312 106.265625 252.996094 109.734375 C 251.972656 115.917969 250.378906 120.957031 247.980469 126.726562 C 245.839844 131.875 243.59375 135.902344 240.335938 140.65625 C 237.058594 145.433594 233.03125 149.851562 227.785156 154.148438 C 226.871094 152.09375 223.527344 151.660156 223.488281 149.289062 C 223.453125 147.503906 226.804688 146.769531 228.753906 145.390625 C 232.261719 142.910156 233.535156 139.558594 234.613281 136.28125 C 235.226562 134.425781 235.992188 132.777344 235.601562 130.675781 C 234.320312 130.632812 231.90625 133.089844 229.859375 133.945312 C 222.375 135.683594 217.945312 131.226562 211.742188 130.367188 C 207.015625 130.882812 201.441406 130.394531 197.695312 133.304688 C 199.351562 131.929688 196.167969 125.6875 193.875 129.070312 M 254.144531 93.007812 C 256.285156 92.261719 258.171875 93.703125 259.832031 92.65625 C 258.566406 91.363281 255.210938 91.109375 254.144531 93.007812 M 109.453125 145.429688 C 110.636719 144.871094 110.976562 143.542969 112.445312 144.144531 C 112.855469 145.132812 112.121094 145.558594 112.777344 146.667969 C 113.660156 146.578125 113.625 145.886719 114.195312 146.183594 C 113.828125 145.476562 114.339844 145.203125 113.867188 144.453125 C 113.96875 143.648438 115.789062 143.6875 115.039062 142.46875 C 113.933594 141.847656 108.117188 143.101562 109.453125 145.429688" fill-rule="evenodd"/><g clip-path="url(#b)"><path d="M 256.0625 84.71875 C 258.433594 85.3125 260.601562 84.566406 262.550781 85.929688 C 269.367188 90.714844 266.824219 102.125 257.136719 102.53125 C 255.351562 123.398438 246.792969 140.941406 230.953125 154.917969 C 233.917969 161.882812 237.226562 168.449219 236.539062 174.355469 C 235.980469 179.132812 233.386719 182.183594 229.667969 185.917969 C 228 187.585938 226.515625 189.613281 225.039062 190.914062 C 223.28125 192.46875 221.570312 192.71875 221.042969 195.441406 C 220.578125 197.816406 223.550781 204.402344 221.585938 205.527344 C 219.394531 206.785156 216.285156 202.316406 214.605469 201.316406 C 211.027344 199.203125 207.015625 197.75 202.886719 197.925781 C 196.679688 198.203125 190.195312 199.746094 184.082031 197.746094 C 180.980469 196.726562 173.976562 193.425781 171.625 189.867188 C 168.886719 185.722656 168.339844 180.273438 167.183594 176.09375 C 159.457031 173.988281 151.832031 174.085938 144.554688 171.679688 C 142.152344 170.886719 139.851562 169.027344 137.335938 167.550781 C 130.335938 163.429688 123.277344 158.667969 117.632812 151.601562 C 106.992188 158.753906 94.621094 148.609375 100.398438 139.023438 C 99.84375 138.152344 99.402344 137.050781 99.035156 135.800781 C 99.25 134.136719 101.164062 133.308594 101.609375 131.757812 C 93.410156 116.550781 89.0625 96.449219 89.875 79.636719 C 90.3125 70.539062 91.585938 62.730469 95.070312 54.683594 C 97.019531 50.183594 99.398438 45.558594 102.015625 41.78125 C 107.609375 33.707031 116.066406 27.835938 125.101562 21.273438 C 129.039062 18.414062 132.40625 15.785156 136.742188 13.625 C 147.742188 8.132812 159.898438 4.105469 172.132812 2.101562 C 177.070312 1.292969 181.804688 0.0859375 185.472656 0.195312 C 192.050781 0.394531 198.429688 3.417969 203.925781 6.296875 C 209.625 9.28125 214.851562 12.800781 219.957031 16.910156 C 227.898438 24.972656 235.183594 35.296875 241.972656 46.5625 C 247.472656 55.699219 252.898438 64.289062 252.988281 74.167969 C 256.328125 76.347656 253.839844 80.292969 256.0625 84.71875 M 236.335938 43.214844 C 225.871094 26.367188 214.511719 13.890625 199.429688 7.039062 C 190.664062 3.054688 183.496094 2.914062 172.785156 4.777344 C 166.339844 5.902344 158.09375 7.898438 151.890625 10.835938 C 136.191406 18.277344 121.734375 25.613281 110.511719 36.511719 C 99.914062 46.804688 93.929688 61.140625 92.929688 76.226562 C 91.871094 92.222656 95.203125 116.484375 105.007812 131.660156 C 114.09375 127.957031 122.222656 130.726562 131.382812 129.269531 C 129 122.660156 131.050781 118.234375 131.980469 113.253906 C 136.621094 107.972656 143.359375 99.707031 152.425781 98.917969 C 154.09375 98.773438 155.730469 99.613281 157.480469 99.039062 C 163.601562 101.535156 169.96875 103.527344 174.929688 108.382812 C 179.132812 105.546875 183.773438 103.417969 188.71875 103.164062 C 188.039062 101.386719 188.59375 100.21875 188.214844 98.59375 C 191.269531 91.496094 195.4375 81.625 205.296875 78.285156 C 212.738281 75.765625 219.964844 78.019531 226.011719 80.980469 C 227.78125 82.457031 229.449219 84.132812 231.414062 85.199219 C 235.914062 82.398438 240.851562 77.257812 246.277344 75.398438 C 248.15625 74.753906 248.945312 75.621094 250.144531 74.347656 C 248.820312 63.164062 242.351562 52.886719 236.335938 43.214844 M 205.542969 79.78125 C 197.515625 83.972656 187.703125 93.65625 190.703125 104.328125 C 184.789062 104.714844 179.921875 106.863281 174.3125 110.4375 C 170.699219 106.03125 164.957031 103.09375 159.632812 101.46875 C 149.503906 98.378906 138.671875 104.910156 134.59375 113.945312 C 133.699219 114.09375 133.542969 114.609375 133.101562 114.980469 C 130.996094 119.199219 131.363281 125.417969 132.972656 130.832031 C 131.691406 131.945312 130 130.855469 128.46875 130.789062 C 121.449219 130.464844 112.316406 130.28125 105.574219 133.308594 C 104.492188 133.796875 101.710938 133.640625 102.828125 136.085938 C 109.242188 135.183594 115.554688 134.871094 122.257812 135.007812 C 126.371094 135.089844 130.527344 135.046875 134.582031 134.765625 C 138.765625 145.070312 150.765625 149.894531 161.847656 147.351562 C 162.878906 147.113281 164.164062 146.722656 165.15625 146.222656 C 166.980469 145.304688 169.652344 143.171875 171.445312 141.449219 C 176.757812 136.347656 178.039062 129.453125 176.441406 121.304688 C 177.742188 118.601562 179.234375 115.238281 182.46875 113.457031 C 186.574219 111.191406 191.609375 111.390625 195.335938 111.710938 C 200.335938 123.886719 211.914062 126.492188 222.742188 121.613281 C 234.773438 116.195312 235.234375 105.058594 233.292969 93.78125 C 234.007812 93.316406 234.65625 93.410156 235.578125 92.742188 C 239.804688 86.988281 246.699219 83.625 250.878906 78.050781 C 249.816406 76.550781 247.6875 76.277344 246.210938 76.738281 C 240.441406 78.554688 234.886719 85.457031 230.640625 87.574219 C 225.082031 80.785156 216.589844 76.730469 205.542969 79.78125 M 197.699219 133.300781 C 201.441406 130.394531 207.015625 130.882812 211.742188 130.367188 C 217.945312 131.226562 222.375 135.683594 229.859375 133.945312 C 231.90625 133.089844 234.320312 130.632812 235.601562 130.671875 C 235.992188 132.777344 235.226562 134.425781 234.617188 136.277344 C 233.535156 139.558594 232.261719 142.90625 228.753906 145.386719 C 226.804688 146.765625 223.453125 147.503906 223.488281 149.289062 C 223.527344 151.660156 226.871094 152.09375 227.789062 154.148438 C 233.03125 149.851562 237.058594 145.433594 240.335938 140.65625 C 243.59375 135.902344 245.839844 131.871094 247.980469 126.726562 C 250.378906 120.953125 251.972656 115.917969 252.996094 109.734375 C 253.570312 106.265625 253.265625 101.871094 254.980469 99.3125 C 259.972656 99.988281 264.433594 95.386719 262.980469 91.058594 C 261.113281 85.488281 256.164062 89.109375 252.527344 87.5 C 253.347656 85.378906 251.359375 82.625 249.957031 81.527344 C 243.9375 85.644531 239.445312 90.515625 234.882812 95.347656 C 236.257812 98.269531 234.621094 100.703125 235.882812 102.914062 C 235.324219 108.480469 234.578125 113.714844 230.460938 117.9375 C 226.738281 121.742188 221.363281 123.847656 215.023438 125.296875 C 210.480469 124.925781 205.707031 125.035156 202.050781 122.863281 C 198.964844 120.066406 196.171875 116.675781 193.605469 112.828125 C 186.835938 112.6875 180.222656 115.195312 178.09375 120.738281 C 178.175781 123.601562 178.679688 126.671875 178.472656 129.570312 C 178.101562 134.753906 175.945312 138.710938 172.476562 142.152344 C 170.304688 144.308594 167.171875 147.082031 163.75 148.28125 C 159.164062 149.894531 152.246094 149.785156 147.714844 148.472656 C 141.910156 146.792969 136.648438 142.050781 133.328125 136.507812 C 125.59375 136.226562 117.761719 136.140625 109.628906 136.671875 C 109.519531 137.066406 112.019531 137.464844 110.90625 138.871094 C 107.78125 137.976562 104.472656 138.324219 102.941406 141.054688 C 99.386719 147.398438 108.136719 154.320312 115.015625 150.117188 C 116.070312 149.195312 116.023438 147.730469 117.996094 147.261719 C 118.515625 148.605469 119.367188 149.273438 120.382812 149.609375 C 125.308594 157.308594 133.460938 161.679688 140.40625 165.714844 C 142.960938 167.203125 145.1875 169.027344 147.859375 169.765625 C 152.492188 171.039062 157.511719 171.570312 162.726562 171.554688 C 164.175781 172.210938 165.792969 172.523438 167.550781 172.542969 C 167.980469 171.847656 168.785156 169.425781 168.085938 169.464844 C 162.191406 172.132812 154.933594 169.597656 151.535156 164.296875 C 150.65625 162.925781 148.9375 159.769531 150.074219 158.472656 C 151.5 158.375 152.726562 159.71875 153.953125 159.785156 C 158.433594 160.039062 164.5 156.335938 166.941406 152.992188 C 168.609375 150.714844 169.484375 147.378906 171.472656 145.390625 C 173.511719 143.351562 176.433594 141.914062 178.625 140.058594 C 181.976562 137.21875 183.429688 132.964844 183.523438 128.90625 C 183.554688 127.625 182.695312 126.078125 183.894531 125.351562 C 185.820312 125.664062 185.234375 128.375 184.953125 130 C 184.398438 133.222656 182.597656 136.429688 182.089844 138.617188 C 185.628906 137.933594 188.734375 137.15625 192.820312 136.015625 C 193.445312 135.082031 193.3125 133.773438 193.824219 132.777344 C 194.828125 132.050781 196.691406 132.195312 196.492188 130.550781 C 196.097656 129.085938 194.421875 130.230469 193.875 129.070312 C 196.167969 125.6875 199.351562 131.929688 197.699219 133.300781 M 229.316406 135.449219 C 224.074219 136.785156 220.148438 133.949219 216.496094 132.699219 C 215.304688 132.289062 213.914062 132.441406 212.386719 132.253906 C 210.972656 132.078125 209.453125 131.527344 208.195312 131.574219 C 203.9375 131.738281 199.921875 133.492188 196.289062 135.363281 C 195.90625 135.527344 196.902344 136.277344 195.902344 136.546875 C 187.40625 138.878906 178.21875 140.207031 172.113281 146.492188 C 169.90625 148.761719 169.289062 152.03125 167.191406 154.488281 C 163.453125 158.863281 157.765625 161.273438 151.667969 160.828125 C 154.117188 167.917969 160.640625 170.746094 166.890625 168.292969 C 168.15625 167.796875 169.269531 166.410156 170.910156 166.925781 C 171.585938 168.722656 169.070312 170.054688 168.972656 172.058594 C 170.9375 177.273438 171.535156 183.953125 174.375 187.875 C 176.46875 190.769531 180.5625 193.664062 184.457031 194.980469 C 192.789062 197.792969 203.824219 193.25 211.964844 196.683594 C 214.28125 197.660156 215.753906 199.5 218.386719 200.03125 C 217.363281 197.101562 218.449219 195.214844 218.890625 193.007812 C 222.71875 188.019531 228.382812 185.542969 231.523438 180.539062 C 234.933594 175.113281 233.296875 165.164062 229.160156 158.160156 C 226.984375 154.480469 223.425781 152.722656 220.796875 149.152344 C 222.578125 146.007812 226.527344 145.472656 229.132812 143.414062 C 232.222656 140.976562 232.871094 137.136719 233.648438 133.449219 C 231.992188 133.84375 230.847656 135.058594 229.316406 135.449219" fill-rule="evenodd"/></g></svg>